<svg width="215" height="138" viewBox="0 0 215 138" fill="none" xmlns="http://www.w3.org/2000/svg">
<path fill-rule="evenodd" clip-rule="evenodd" d="M136.788 1H193V56.5L161.235 29.9514L136.788 1Z" fill="white" stroke="#6C6C6C"/>
<path d="M1 1V137H193V54.8238C193 51.724 191.824 48.6242 189.473 46.2571C187.121 43.89 184.034 41.6758 180.954 41.6758L152.583 13.1255C152.583 10.0176 150.392 6.9178 148.04 4.55068C145.689 2.18356 142.609 1 139.53 1H1Z" fill="#F1F2F0" stroke="#6C6C6C"/>
<path fill-rule="evenodd" clip-rule="evenodd" d="M180.865 42.9267H151.076V13.1357C151.076 10.0058 149.884 6.88393 147.5 4.5L189.5 46.5026C187.116 44.1187 183.986 42.9267 180.865 42.9267Z" fill="white" stroke="#6C6C6C"/>
<path d="M210.897 39.1082L212.647 37.3702L205.596 30.3665L202.084 31.1776L201.281 34.6666L208.318 41.6574L210.068 39.9193" fill="#8E8E8E"/>
<path d="M213.606 42.61C214.176 42.0436 214.5 41.2711 214.5 40.46C214.5 39.6489 214.176 38.8893 213.606 38.31L213.463 38.1813L209.134 42.4813L209.277 42.6229C210.469 43.7945 212.413 43.7945 213.606 42.61Z" fill="#8E8E8E"/>
<path d="M199.855 25.5L193.66 26.2596L200.464 33.0186L201.112 30.212L203.937 29.5683L199.855 25.5Z" fill="#8E8E8E"/>
</svg>
