<svg width="137" height="137" viewBox="0 0 137 137" fill="none" xmlns="http://www.w3.org/2000/svg">
<path d="M132.608 5.60295L130.87 3.85332L123.867 10.9037L124.678 14.4159L128.167 15.2194L135.157 8.18203L133.419 6.4324" fill="#8E8E8E"/>
<path d="M136.11 2.89425C135.544 2.32401 134.771 2 133.96 2C133.149 2 132.389 2.32401 131.81 2.89425L131.681 3.03682L135.981 7.36553L136.123 7.22296C137.294 6.03062 137.294 4.08659 136.11 2.89425Z" fill="#8E8E8E"/>
<path d="M119 16.645L119.76 22.84L126.519 16.0359L123.712 15.3879L123.068 12.5626L119 16.645Z" fill="#8E8E8E"/>
<path fill-rule="evenodd" clip-rule="evenodd" d="M68.5 0.5C87.2827 0.5 104.287 8.1128 116.587 20.413C128.887 32.7298 136.5 49.7173 136.5 68.5C136.5 77.5256 134.705 86.2022 131.513 94.081L72.4228 80.584L72.2566 80.5508L42.8691 5.5198L43.1517 5.38682C50.9972 2.22867 59.5409 0.5 68.5 0.5V0.5Z" fill="white" stroke="#6C6C6C" stroke-linejoin="round"/>
<path fill-rule="evenodd" clip-rule="evenodd" d="M93.3496 56.0669L129.519 85.4543C132.295 88.2135 132.76 90.8398 131.513 94.081C130.782 95.9925 129.901 97.8209 128.987 99.6161C117.518 121.906 94.3636 136.5 68.5 136.5C30.9512 136.5 0.5 106.065 0.5 68.5C0.5 42.3206 15.4597 18.917 38.215 7.61419C39.7276 6.84959 41.2734 6.11822 42.8691 5.51984C46.1602 4.25658 48.9859 4.90483 51.0138 6.98256L93.3496 56.0669Z" fill="#F1F2F0" stroke="#6C6C6C" stroke-linejoin="round"/>
<path fill-rule="evenodd" clip-rule="evenodd" d="M66.539 67.9182C43.9665 44.0326 56.3996 12.368 51.0142 6.98254L129.901 85.8033C120.444 76.4286 89.1281 91.7872 66.539 67.9182Z" fill="white" stroke="#6C6C6C" stroke-linejoin="round"/>
</svg>
