<svg width="19" height="24" fill="none" xmlns="http://www.w3.org/2000/svg"><path d="M16.363 3.692h-3.808V3A2.08 2.08 0 0010.478.923H7.71A2.08 2.08 0 005.632 3v.692H1.825C.87 3.692.094 4.47.094 5.423v2.423c0 .383.31.692.692.692h.378l.599 12.56a2.074 2.074 0 002.074 1.979H14.35c1.11 0 2.022-.869 2.075-1.978l.598-12.56h.378c.383 0 .693-.31.693-.693V5.423c0-.954-.777-1.73-1.731-1.73zM7.017 3c0-.382.31-.692.692-.692h2.77c.381 0 .692.31.692.692v.692H7.017V3zM1.478 5.423c0-.19.156-.346.347-.346h14.538c.19 0 .346.155.346.346v1.73H1.48v-1.73zm13.564 15.61a.691.691 0 01-.692.66H3.837a.691.691 0 01-.691-.66L2.55 8.538h13.086l-.595 12.495z" fill="#007DEB"/><path d="M11.867 18.273l.863-.864-2.772-2.773 2.772-2.772-.863-.864-2.773 2.773L6.32 11l-.863.864 2.772 2.772-2.772 2.773.863.864L9.094 15.5l2.773 2.773z" fill="#EB444C"/></svg>