<svg width="50" height="51" fill="none" xmlns="http://www.w3.org/2000/svg"><path d="M17.442 4.5L7.953 21.039l2.809 1.632L20.25 6.13 17.442 4.5zm15.06.015l-2.81 1.632 9.49 16.539 2.809-1.632L32.5 4.515z" fill="#fff"/><path fill-rule="evenodd" clip-rule="evenodd" d="M46.786 21.869H3.18l3.826 20.755c.608 3.366 2.863 3.876 4.587 3.876h26.731c1.749 0 3.978-.51 4.612-3.876l3.851-20.755z" fill="url(#paint0_linear)"/><path opacity=".4" fill-rule="evenodd" clip-rule="evenodd" d="M46.786 21.869H3.18l.988 5.33 41.15 2.625 1.47-7.955z" fill="#00195A"/><path fill-rule="evenodd" clip-rule="evenodd" d="M2.875 19.32h44.19c1.039 0 1.875.84 1.875 1.886v2.677a1.877 1.877 0 01-1.875 1.887H2.875A1.877 1.877 0 011 23.883v-2.677c0-1.045.836-1.887 1.875-1.887z" fill="url(#paint1_linear)"/><defs><linearGradient id="paint0_linear" x1="39.5" y1="40.5" x2="5" y2="30" gradientUnits="userSpaceOnUse"><stop stop-color="#0064BE"/><stop offset="1" stop-color="#0073D2"/></linearGradient><linearGradient id="paint1_linear" x1="49" y1="25.77" x2="1" y2="25.77" gradientUnits="userSpaceOnUse"><stop stop-color="#0064BE"/><stop offset="1" stop-color="#0073D2"/></linearGradient></defs></svg>