<svg width="40" height="48" fill="none" xmlns="http://www.w3.org/2000/svg"><path d="M35.409 14.574c-4.112-4.55-9.584-7.056-15.41-7.056-5.824 0-11.296 2.506-15.408 7.057a2.344 2.344 0 000 3.112l3.029 3.352c.791.875 2.26.876 3.054 0a13.167 13.167 0 013.356-2.696c.703-.382 1.14-1.145 1.131-1.863l.434-2.98c3.144-1.035 5.696-1.037 8.81-.002l.424 2.853c0 .83.426 1.593 1.124 1.996 1.237.69 2.37 1.599 3.366 2.702a2.07 2.07 0 001.526.688c.574 0 1.13-.25 1.527-.69l3.037-3.36a2.345 2.345 0 000-3.113zm-1.32 1.922l-3.035 3.36c-.122.134-.294.136-.416.001a14.95 14.95 0 00-3.807-3.055c-.139-.08-.225-.253-.234-.58l-.512-3.516a.886.886 0 00-.578-.707c-1.947-.702-3.718-1.053-5.494-1.053-1.775 0-3.554.35-5.518 1.052a.886.886 0 00-.58.708l-.522 3.645c0 .216-.11.374-.22.434a14.952 14.952 0 00-3.818 3.062c-.123.135-.296.134-.417 0l-3.028-3.35a.579.579 0 010-.73C9.68 11.593 14.684 9.295 20 9.295c5.316 0 10.32 2.298 14.09 6.47a.58.58 0 010 .73zM20 26.331a1.78 1.78 0 001.777-1.777A1.78 1.78 0 0020 22.776a1.78 1.78 0 00-1.778 1.778c0 .98.798 1.777 1.777 1.777zm-6.08-3.555a1.78 1.78 0 00-1.778 1.778c0 .98.797 1.777 1.777 1.777a1.78 1.78 0 001.777-1.777 1.78 1.78 0 00-1.777-1.778zm12.16 0a1.78 1.78 0 00-1.777 1.778c0 .98.797 1.777 1.777 1.777a1.78 1.78 0 001.777-1.777 1.78 1.78 0 00-1.777-1.778zM20 32.406a1.78 1.78 0 001.777-1.777A1.78 1.78 0 0020 28.852a1.78 1.78 0 00-1.778 1.777c0 .98.798 1.777 1.777 1.777zm-6.08-3.554a1.78 1.78 0 00-1.778 1.777c0 .98.797 1.777 1.777 1.777a1.78 1.78 0 001.777-1.777 1.78 1.78 0 00-1.777-1.777zm12.16 0a1.78 1.78 0 00-1.777 1.777c0 .98.797 1.777 1.777 1.777a1.78 1.78 0 001.777-1.777 1.78 1.78 0 00-1.777-1.777zM20 38.482a1.78 1.78 0 001.777-1.778A1.78 1.78 0 0020 34.927a1.78 1.78 0 00-1.778 1.777c0 .98.798 1.778 1.777 1.778zm-6.08-3.555a1.78 1.78 0 00-1.778 1.777c0 .98.797 1.777 1.777 1.777a1.78 1.78 0 001.777-1.777 1.78 1.78 0 00-1.777-1.777zm12.16 0a1.78 1.78 0 00-1.777 1.777c0 .98.797 1.777 1.777 1.777a1.78 1.78 0 001.777-1.777 1.78 1.78 0 00-1.777-1.777z" fill="#fff"/></svg>