<svg width="130" height="137" fill="none" xmlns="http://www.w3.org/2000/svg"><path d="M45.6 10.12c-6.432 2.145-15.374-.417-20.708 3.504-5.334 3.922-5.543 13.177-9.465 18.562C11.452 37.52 2.667 40.552.523 46.984.157 48.082 0 49.232 0 50.382v.053c0 5.699 3.504 12.13 3.504 18.039C3.504 74.382 0 80.814 0 86.514v.051c0 1.15.157 2.301.523 3.4 2.144 6.43 10.93 9.463 14.851 14.849 3.923 5.333 4.132 14.588 9.466 18.562 5.334 3.921 14.276 1.359 20.708 3.503 6.432 2.144 12.29 9.621 19.453 9.621 7.165 0 13.022-7.477 19.454-9.621s15.374.418 20.708-3.503c5.334-3.922 5.543-13.177 9.465-18.562 3.922-5.334 12.708-8.419 14.852-14.85 2.144-6.431-3.033-14.327-3.033-21.49 0-7.164 5.125-15.059 3.033-21.49-2.144-6.432-10.93-9.464-14.852-14.85-3.922-5.333-4.131-14.588-9.465-18.562-5.334-3.922-14.276-1.36-20.708-3.503C78.023 7.977 72.165.5 65.054.5 57.889.5 52.032 7.977 45.6 10.12z" fill="#AABEC8"/></svg>