<svg width="136" height="154" fill="none" xmlns="http://www.w3.org/2000/svg"><path fill-rule="evenodd" clip-rule="evenodd" d="M73.609 30.058c34.123 0 61.784 27.706 61.784 61.875 0 34.168-27.661 61.874-61.784 61.874-34.108 0-61.769-27.706-61.769-61.874 0-34.169 27.661-61.875 61.769-61.875z" fill="#191919" fill-opacity=".149"/><path d="M65.365 144.838c34.114 0 61.769-27.702 61.769-61.874S99.479 21.09 65.365 21.09c-34.113 0-61.768 27.702-61.768 61.874s27.655 61.874 61.768 61.874z" fill="url(#paint0_linear)"/><path d="M68.355 138.859c34.114 0 61.769-27.702 61.769-61.874s-27.655-61.874-61.769-61.874S6.587 42.813 6.587 76.985s27.654 61.874 61.768 61.874z" fill="url(#paint1_linear)"/><path d="M62.376 132.895c34.113 0 61.768-27.702 61.768-61.874S96.489 9.147 62.375 9.147C28.263 9.147.608 36.849.608 71.02s27.655 61.874 61.769 61.874z" fill="url(#paint2_linear)"/><path fill-rule="evenodd" clip-rule="evenodd" d="M65.139.193c17.061 0 32.507 6.915 43.68 18.088 11.173 11.189 18.088 26.62 18.088 43.68 0 8.2-1.631 16.08-4.529 23.238l-53.676-12.26-.151-.03L41.856 4.752l.257-.12C49.24 1.762 57 .192 65.14.192z" fill="#D6DEE3"/><path fill-rule="evenodd" clip-rule="evenodd" d="M87.711 50.668l32.855 26.694c2.521 2.507 2.944 4.892 1.812 7.837-.665 1.736-1.465 3.397-2.295 5.027-10.418 20.248-31.45 33.504-54.944 33.504-34.108 0-61.769-27.645-61.769-61.768 0-23.78 13.589-45.04 34.259-55.307 1.374-.694 2.778-1.359 4.228-1.902 2.99-1.148 5.556-.559 7.398 1.329L87.71 50.668z" fill="url(#paint3_linear)"/><path d="M120.566 77.362L87.711 50.668 62.65 21.61c-4.577 1.272-8.501 3.547-11.522 6.885-14.224 15.717-3.026 49.03 25.012 74.406 5.85 5.295 11.97 9.825 18.124 13.538a61.852 61.852 0 0025.82-26.212c.83-1.631 1.63-3.292 2.295-5.028 1.132-2.945.709-5.33-1.812-7.837z" fill="url(#paint4_radial)"/><path fill-rule="evenodd" clip-rule="evenodd" d="M63.357 61.433c-20.504-21.696-9.21-50.46-14.102-55.351l71.658 71.598c-8.591-8.516-37.037 5.435-57.556-16.247z" fill="url(#paint5_linear)"/><defs><linearGradient id="paint0_linear" x1="66.362" y1="151.421" x2="36.527" y2="63.894" gradientUnits="userSpaceOnUse"><stop stop-color="#004495"/><stop offset="1" stop-color="#00195A"/></linearGradient><linearGradient id="paint1_linear" x1="86.006" y1="139.403" x2="80.51" y2="112.271" gradientUnits="userSpaceOnUse"><stop stop-color="#005AB4"/><stop offset="1" stop-color="#003C8A"/></linearGradient><linearGradient id="paint2_linear" x1="54.419" y1="132.382" x2="62.376" y2="107.992" gradientUnits="userSpaceOnUse"><stop stop-color="#0073D2"/><stop offset=".694" stop-color="#005AB4"/></linearGradient><linearGradient id="paint3_linear" x1="106.505" y1="106.484" x2="7.949" y2="45.058" gradientUnits="userSpaceOnUse"><stop offset=".05" stop-color="#0073D2"/><stop offset="1" stop-color="#50B4FF"/></linearGradient><linearGradient id="paint5_linear" x1="66.588" y1="64.559" x2="86.745" y2="44.372" gradientUnits="userSpaceOnUse"><stop stop-color="#AABEC8"/><stop offset=".341" stop-color="#AABEC8"/><stop offset="1" stop-color="#fff"/></linearGradient><radialGradient id="paint4_radial" cx="0" cy="0" r="1" gradientUnits="userSpaceOnUse" gradientTransform="rotate(42.147 -45.648 169.438) scale(68.4734 38.383)"><stop offset=".063" stop-color="#00195A" stop-opacity=".38"/><stop offset="1" stop-color="#00195A" stop-opacity="0"/></radialGradient></defs></svg>