<svg width="70" height="80" fill="none" xmlns="http://www.w3.org/2000/svg"><path d="M35 78.1c19.3 0 35-15.7 35-35s-15.7-35-35-35-35 15.7-35 35 15.7 35 35 35z" fill="#D6DEE3"/><path d="M37.4 12.5c-.4 1.5-1.6 2.7-3.1 3.2-3.9 1.1-7.3 3.4-9.8 6.5-1.5 1.9-2.7 4.2-3.3 6.7L10.6 68.1C16.9 74.3 25.5 78 35 78c4.2 0 8.2-.7 11.9-2.1L57 38.4c.7-2.5.8-5.1.5-7.5-.6-4-2.4-7.7-5.2-10.6-1.1-1.1-1.5-2.8-1.1-4.3l1.1-4-13.9-3.5-1 4z" fill="url(#paint0_linear)"/><path d="M39.1 3l-1.6 5.9c-.1.5.2 1 .6 1.1l13.5 3.6c.5.1 1-.2 1.1-.6l1.6-5.9c.2-.7-.2-1.4-.9-1.6L40.7 2h-.3c-.7 0-1.2.4-1.3 1z" fill="url(#paint1_linear)"/><path d="M12.8 58.7l36.4 9.8 5.2-19.3-5-6-3-7.5-25.6-6.9-8 29.9z" fill="url(#paint2_linear)"/><path d="M43.6 46.3l10.8 2.9-8-13.5-2.8 10.6z" fill="url(#paint3_linear)"/><defs><linearGradient id="paint0_linear" x1="31.439" y1="36.317" x2="57.549" y2="43.304" gradientUnits="userSpaceOnUse"><stop offset=".014" stop-color="#fff"/><stop offset=".986" stop-color="#AABEC8"/></linearGradient><linearGradient id="paint1_linear" x1="40.133" y1="7.81" x2="54.351" y2="11.177" gradientUnits="userSpaceOnUse"><stop stop-color="#0073D2"/><stop offset="1" stop-color="#00195A"/></linearGradient><linearGradient id="paint2_linear" x1="17.722" y1="40.85" x2="54.4" y2="50.318" gradientUnits="userSpaceOnUse"><stop stop-color="#0073D2"/><stop offset=".241" stop-color="#50B4FF"/><stop offset=".959" stop-color="#005AB4"/><stop offset="1" stop-color="#005AB4"/></linearGradient><linearGradient id="paint3_linear" x1="50.56" y1="43.056" x2="44.975" y2="45.449" gradientUnits="userSpaceOnUse"><stop stop-color="#fff"/><stop offset=".986" stop-color="#AABEC8"/></linearGradient></defs></svg>