<svg width="38" height="38" viewBox="0 0 38 38" fill="none" xmlns="http://www.w3.org/2000/svg">
    <path d="M0 2.00006C0 0.895493 0.895431 6.10352e-05 2 6.10352e-05H12.6667V12.6667H0V2.00006Z" fill="#FAFF00"/>
    <rect y="12.6667" width="12.6667" height="12.6667" fill="#DF19FF"/>
    <path d="M0 25.3334H12.6667V38H2C0.895432 38 0 37.1046 0 36V25.3334Z" fill="#85F8FF"/>
    <rect x="12.6667" y="6.10352e-05" width="12.6667" height="12.6667" fill="#FF8A00"/>
    <rect x="12.6666" y="12.6667" width="12.6667" height="12.6667" fill="#8F00FF"/>
    <rect x="12.6666" y="25.3334" width="12.6667" height="12.6667" fill="#00FFB2"/>
    <path d="M25.3333 6.10352e-05H36C37.1045 6.10352e-05 38 0.895492 38 2.00006V12.6667H25.3333V6.10352e-05Z" fill="#FF0000"/>
    <rect x="25.3334" y="12.6667" width="12.6667" height="12.6667" fill="#0258FF"/>
    <path d="M25.3334 25.3334H38V36C38 37.1046 37.1046 38 36 38H25.3334V25.3334Z" fill="#31F301"/>
</svg>
