<svg width="206" height="201" viewBox="0 0 206 201" fill="none" xmlns="http://www.w3.org/2000/svg">
<rect x="0.5" y="0.5" width="184" height="200" fill="white" stroke="#6C6C6C" stroke-linejoin="round"/>
<path d="M64.8534 53.285C66.3172 53.285 67.7211 53.8664 68.7563 54.9014L86.1562 72.2981C89.2808 75.4223 89.2811 80.488 86.1567 83.6124C78.2016 91.5675 67.1898 96.5 55.0443 96.5C30.7436 96.5 11.0415 76.8023 11.0415 52.5C11.0415 27.8443 31.1058 8.5 55.0443 8.5C67.1898 8.5 78.2016 13.4325 86.1567 21.3876C89.2812 24.5121 89.2808 29.578 86.1559 32.7021L75.4995 43.3557L75.4988 43.3564L68.7574 50.0978C67.722 51.1332 66.3178 51.7148 64.8535 51.7148C63.3893 51.7148 61.985 51.1332 60.9497 50.0978L59.1967 48.3448C55.5141 44.6623 49.1672 47.3206 49.1672 52.5C49.1672 57.6784 55.5154 60.3365 59.1967 56.6552L60.9501 54.9017C61.9853 53.8665 63.3894 53.285 64.8534 53.285Z" fill="#F1F2F0"/>
<path d="M146.312 53.285C147.776 53.285 149.18 53.8664 150.215 54.9014L167.615 72.2981C170.739 75.4223 170.74 80.488 167.615 83.6124C159.66 91.5675 148.648 96.5 136.503 96.5C112.202 96.5 92.5 76.8023 92.5 52.5C92.5 27.8443 112.564 8.5 136.503 8.5C148.648 8.5 159.66 13.4325 167.615 21.3876C170.74 24.5121 170.739 29.578 167.614 32.7021L156.958 43.3557L156.957 43.3564L150.216 50.0978C149.181 51.1332 147.776 51.7148 146.312 51.7148C144.848 51.7148 143.444 51.1332 142.408 50.0978L140.655 48.3448C136.973 44.6623 130.626 47.3206 130.626 52.5C130.626 57.6784 136.974 60.3365 140.655 56.6552L142.409 54.9017C143.444 53.8665 144.848 53.285 146.312 53.285Z" fill="#F1F2F0"/>
<path d="M146.312 149.285C147.776 149.285 149.18 149.866 150.215 150.901L167.615 168.298C170.739 171.422 170.74 176.488 167.615 179.612C159.66 187.567 148.648 192.5 136.503 192.5C112.202 192.5 92.5 172.802 92.5 148.5C92.5 123.844 112.564 104.5 136.503 104.5C148.648 104.5 159.66 109.433 167.615 117.388C170.74 120.512 170.739 125.578 167.614 128.702L156.958 139.356L156.957 139.356L150.216 146.098C149.181 147.133 147.776 147.715 146.312 147.715C144.848 147.715 143.444 147.133 142.408 146.098L140.655 144.345C136.973 140.662 130.626 143.321 130.626 148.5C130.626 153.678 136.974 156.336 140.655 152.655L142.409 150.902C143.444 149.867 144.848 149.285 146.312 149.285Z" fill="#F1F2F0"/>
<path d="M64.8534 149.285C66.3172 149.285 67.7211 149.866 68.7563 150.901L86.1562 168.298C89.2808 171.422 89.2811 176.488 86.1567 179.612C78.2016 187.567 67.1898 192.5 55.0443 192.5C30.7436 192.5 11.0415 172.802 11.0415 148.5C11.0415 123.844 31.1058 104.5 55.0443 104.5C67.1898 104.5 78.2016 109.433 86.1567 117.388C89.2812 120.512 89.2808 125.578 86.1559 128.702L75.4995 139.356L75.4988 139.356L68.7574 146.098C67.722 147.133 66.3178 147.715 64.8535 147.715C63.3893 147.715 61.985 147.133 60.9497 146.098L59.1967 144.345C55.5141 140.662 49.1672 143.321 49.1672 148.5C49.1672 153.678 55.5154 156.336 59.1967 152.655L60.9501 150.902C61.9853 149.867 63.3894 149.285 64.8534 149.285Z" fill="#F1F2F0"/>
<path fill-rule="evenodd" clip-rule="evenodd" d="M151.301 37.1988L146.312 42.188C137.647 33.5225 122.626 39.6131 122.626 52C122.626 64.3841 137.647 70.4775 146.312 61.812L161.958 77.4555C155.442 83.9715 146.442 88 136.503 88C116.62 88 100.5 71.8832 100.5 52C100.5 31.8435 116.901 16 136.503 16C146.442 16 155.442 20.0285 161.958 26.5445L151.301 37.1988V37.1988Z" stroke="#C4C4C4" stroke-linejoin="round"/>
<path fill-rule="evenodd" clip-rule="evenodd" d="M151.301 133.199L146.312 138.188C137.647 129.522 122.626 135.613 122.626 148C122.626 160.384 137.647 166.478 146.312 157.812L161.958 173.456C155.442 179.972 146.442 184 136.503 184C116.62 184 100.5 167.883 100.5 148C100.5 127.843 116.901 112 136.503 112C146.442 112 155.442 116.028 161.958 122.544L151.301 133.199V133.199Z" stroke="#C4C4C4" stroke-linejoin="round"/>
<path fill-rule="evenodd" clip-rule="evenodd" d="M69.8427 133.199L64.8535 138.188C56.1881 129.522 41.1672 135.613 41.1672 148C41.1672 160.384 56.1881 166.478 64.8535 157.812L80.4998 173.456C73.9838 179.972 64.9831 184 55.0443 184C35.1611 184 19.0415 167.883 19.0415 148C19.0415 127.843 35.4428 112 55.0443 112C64.9831 112 73.9838 116.028 80.4998 122.544L69.8427 133.199V133.199Z" stroke="#C4C4C4" stroke-linejoin="round"/>
<path fill-rule="evenodd" clip-rule="evenodd" d="M54.7039 16.3557C64.5524 16.3557 73.4688 20.367 79.9237 26.8477L68.172 38.6516L48.8462 16.8406L48.8881 16.8322C50.783 16.5211 52.7225 16.3557 54.7039 16.3557Z" fill="white" stroke="#6C6C6C" stroke-linejoin="round"/>
<path fill-rule="evenodd" clip-rule="evenodd" d="M68.1722 38.6513L64.4243 42.4159C61.9377 39.9183 58.4996 38.371 54.7042 38.371C47.1134 38.371 40.9599 44.5546 40.9599 52.1791C40.9599 59.8035 47.1134 65.9844 54.7042 65.9844C58.4996 65.9844 61.9377 64.4398 64.4243 61.9395L79.924 77.5079C73.469 83.9915 64.5527 87.9999 54.7042 87.9999C35.01 87.9999 19.0415 71.9606 19.0415 52.1791C19.0415 34.399 31.9374 19.649 48.8465 16.8403L68.0746 36.1537C68.7778 36.8517 68.7722 37.7431 68.1722 38.6513Z" fill="#F1F2F0"/>
<path d="M68.1724 38.6514C68.7724 37.7432 68.778 36.8518 68.0747 36.1538" stroke="#6C6C6C" stroke-linejoin="round"/>
<path d="M68.1722 38.6513L64.4243 42.4159C61.9378 39.9183 58.4996 38.371 54.7042 38.371C47.1134 38.371 40.9599 44.5546 40.9599 52.1791C40.9599 59.8035 47.1134 65.9844 54.7042 65.9844C58.4996 65.9844 61.9378 64.4398 64.4243 61.9395L79.924 77.5079C73.469 83.9915 64.5527 87.9999 54.7042 87.9999C35.01 87.9999 19.0415 71.9606 19.0415 52.1791C19.0415 34.399 31.9374 19.649 48.8465 16.8403" stroke="#C4C4C4" stroke-linejoin="round"/>
<path fill-rule="evenodd" clip-rule="evenodd" d="M53.5708 45.3705L61.4407 37.6592C64.5691 34.5898 67.1393 35.2149 68.0742 36.1539L48.8461 16.8405C47.3224 15.31 45.0423 15.7529 44.9754 19.1391C44.847 25.5245 49.2926 41.0762 53.5708 45.3705Z" fill="white" stroke="#6C6C6C" stroke-linejoin="round"/>
<path d="M202.397 37.6082L204.147 35.8702L197.096 28.8665L193.584 29.6776L192.781 33.1666L199.818 40.1574L201.568 38.4193" fill="#8E8E8E"/>
<path d="M205.106 41.11C205.676 40.5436 206 39.7711 206 38.96C206 38.1489 205.676 37.3893 205.106 36.81L204.963 36.6813L200.634 40.9813L200.777 41.1229C201.969 42.2945 203.913 42.2945 205.106 41.11Z" fill="#8E8E8E"/>
<path d="M191.355 24L185.16 24.7596L191.964 31.5186L192.612 28.712L195.437 28.0683L191.355 24Z" fill="#8E8E8E"/>
</svg>
