<svg width="214" height="153" viewBox="0 0 214 153" fill="none" xmlns="http://www.w3.org/2000/svg">
<path d="M210.397 37.6082L212.147 35.8702L205.096 28.8665L201.584 29.6776L200.781 33.1666L207.818 40.1574L209.568 38.4193" fill="#8E8E8E"/>
<path d="M213.106 41.11C213.676 40.5436 214 39.7711 214 38.96C214 38.1489 213.676 37.3893 213.106 36.81L212.963 36.6813L208.634 40.9813L208.777 41.1229C209.969 42.2945 211.913 42.2945 213.106 41.11Z" fill="#8E8E8E"/>
<path d="M199.355 24L193.16 24.7596L199.964 31.5186L200.612 28.712L203.437 28.0683L199.355 24Z" fill="#8E8E8E"/>
<rect x="0.5" y="0.5" width="192" height="152" fill="white" stroke="#6C6C6C" stroke-linejoin="round"/>
<ellipse cx="95.9999" cy="76" rx="87.9999" ry="68" fill="#F1F2F0" stroke="#C4C4C4" stroke-linejoin="round"/>
<path d="M18 78.1025C18 62.2167 26.4285 46.9816 41.4315 35.7486C56.4344 24.5157 76.7827 18.2051 98 18.2051" stroke="white" stroke-width="5" stroke-linecap="round" stroke-linejoin="round"/>
<path d="M174 70.0001C174 86.9739 165.571 103.253 150.569 115.255C135.566 127.257 115.217 134 94.0001 134" stroke="white" stroke-width="5" stroke-linecap="round" stroke-linejoin="round"/>
</svg>
