<svg width="46" height="46" viewBox="0 0 46 46" fill="none" xmlns="http://www.w3.org/2000/svg">
<path d="M16.8755 28C16.7023 28 16.5331 27.9486 16.3891 27.8524C16.2451 27.7561 16.1329 27.6194 16.0666 27.4594C16.0004 27.2994 15.983 27.1234 16.0168 26.9535C16.0506 26.7837 16.134 26.6277 16.2564 26.5052L28.516 14.2458C28.6811 14.0863 28.9023 13.998 29.1319 14C29.3615 14.002 29.5812 14.0941 29.7435 14.2565C29.9059 14.4188 29.998 14.6385 30 14.8681C30.002 15.0977 29.9137 15.3189 29.7542 15.484L17.4946 27.7434C17.3304 27.9077 17.1077 28 16.8755 28Z" fill="#00195A"/>
<path d="M28.5 28C27.8078 28 27.1311 27.7947 26.5555 27.4101C25.9799 27.0256 25.5313 26.4789 25.2664 25.8394C25.0015 25.1999 24.9322 24.4961 25.0673 23.8172C25.2023 23.1383 25.5356 22.5146 26.0251 22.0251C26.5146 21.5356 27.1383 21.2023 27.8172 21.0673C28.4961 20.9322 29.1999 21.0015 29.8394 21.2664C30.4789 21.5313 31.0256 21.9799 31.4101 22.5555C31.7947 23.1311 32 23.8078 32 24.5C32 25.4283 31.6313 26.3185 30.9749 26.9749C30.3185 27.6313 29.4283 28 28.5 28ZM28.5 22.75C28.1539 22.75 27.8155 22.8526 27.5278 23.0449C27.24 23.2372 27.0157 23.5105 26.8832 23.8303C26.7508 24.1501 26.7161 24.5019 26.7836 24.8414C26.8512 25.1809 27.0178 25.4927 27.2626 25.7374C27.5073 25.9822 27.8191 26.1489 28.1586 26.2164C28.4981 26.2839 28.8499 26.2492 29.1697 26.1168C29.4895 25.9843 29.7628 25.76 29.9551 25.4722C30.1474 25.1845 30.25 24.8461 30.25 24.5C30.25 24.0359 30.0656 23.5908 29.7374 23.2626C29.4093 22.9344 28.9641 22.75 28.5 22.75Z" fill="#00195A"/>
<path d="M17.5 21C16.8078 21 16.1311 20.7947 15.5555 20.4101C14.9799 20.0256 14.5313 19.4789 14.2664 18.8394C14.0015 18.1999 13.9322 17.4961 14.0673 16.8172C14.2023 16.1383 14.5356 15.5146 15.0251 15.0251C15.5146 14.5356 16.1383 14.2023 16.8172 14.0673C17.4961 13.9322 18.1999 14.0015 18.8394 14.2664C19.4789 14.5313 20.0256 14.9799 20.4101 15.5555C20.7947 16.1311 21 16.8078 21 17.5C21 18.4283 20.6313 19.3185 19.9749 19.9749C19.3185 20.6313 18.4283 21 17.5 21ZM17.5 15.75C17.1539 15.75 16.8155 15.8526 16.5278 16.0449C16.24 16.2372 16.0157 16.5105 15.8832 16.8303C15.7508 17.1501 15.7161 17.5019 15.7836 17.8414C15.8512 18.1809 16.0178 18.4927 16.2626 18.7374C16.5073 18.9822 16.8191 19.1489 17.1586 19.2164C17.4981 19.2839 17.8499 19.2492 18.1697 19.1168C18.4895 18.9843 18.7628 18.76 18.9551 18.4722C19.1474 18.1845 19.25 17.8461 19.25 17.5C19.25 17.0359 19.0656 16.5908 18.7374 16.2626C18.4092 15.9344 17.9641 15.75 17.5 15.75Z" fill="#00195A"/>
<path fill-rule="evenodd" clip-rule="evenodd" d="M42.4431 12.6743L42.4408 12.6686C41.7458 10.896 40.5862 9.33248 39.0767 8.13868C37.5713 6.94813 35.7716 6.16788 33.8585 5.87919C30.2343 5.40731 26.86 7.09575 24.3814 10.051L23.0219 11.672L21.6396 10.0703C19.3471 7.41405 16.2624 5.34717 12.1276 5.89004C10.2175 6.17822 8.42054 6.95729 6.91751 8.14607C5.41063 9.3379 4.253 10.8991 3.55917 12.6687L3.55689 12.6745L3.55688 12.6745C2.76947 14.6625 2.59195 16.8332 3.04538 18.9184C3.49875 21.0033 4.56388 22.915 6.11297 24.4148C7.6557 25.9056 12.1839 30.2224 16.3339 34.1735C18.4072 36.1475 20.3838 38.028 21.8421 39.415L23 40.5162L24.1579 39.415C25.6162 38.0279 27.5928 36.1474 29.6662 34.1734C33.8157 30.2227 38.3435 25.9064 39.8866 24.4151C41.4359 22.9153 42.5012 21.0034 42.9546 18.9183C43.4081 16.8331 43.2305 14.6623 42.4431 12.6743ZM41.1379 25.709C38.0403 28.7025 23 43 23 43C23 43 7.95979 28.7026 4.86213 25.7092C3.05917 23.964 1.81595 21.7357 1.28648 19.3008C0.757018 16.866 0.964545 14.3314 1.88337 12.0117C2.69434 9.94332 4.04588 8.12235 5.80089 6.73428C7.55561 5.34643 9.65146 4.44022 11.8762 4.10762C16.087 3.54881 19.3388 5.28174 21.7555 7.58158C22.1989 8.00361 22.6143 8.44473 23.0023 8.89429C23.3925 8.429 23.8061 7.98816 24.2409 7.57573C26.8944 5.05873 30.3397 3.59962 34.1092 4.09664C36.3371 4.42965 38.436 5.33707 40.1933 6.72684C41.9509 8.11685 43.3044 9.94015 44.1166 12.0114C45.0354 14.3312 45.243 16.8659 44.7135 19.3008C44.1841 21.7356 42.9409 23.9639 41.1379 25.709Z" fill="#00195A"/>
</svg>
