<svg width="135" height="154" viewBox="0 0 135 154" fill="none" xmlns="http://www.w3.org/2000/svg">
<path d="M88.9562 64.123L91.71 66.9057C93.2753 68.4874 95.8305 68.4875 97.3959 66.906L132.214 31.731C133.757 30.1724 133.757 27.6622 132.214 26.1034L129.401 23.2605C115.796 9.51315 96.9802 1 76.2126 1C35.2839 1 1 34.4278 1 77C1 118.976 34.6776 153 76.2126 153C96.98 153 115.795 144.487 129.399 130.746L132.214 127.903C133.757 126.344 133.758 123.834 132.215 122.275L97.3975 87.093C95.8321 85.5112 93.2767 85.5112 91.7113 87.093L88.9562 89.877C77.6889 101.262 58.1942 93.19 58.1942 77C58.1942 60.8136 77.6902 52.7391 88.9562 64.123Z" fill="#F1F2F0" stroke="#6C6C6C" stroke-linejoin="round"/>
<path fill-rule="evenodd" clip-rule="evenodd" d="M76.3624 9.67188C94.9651 9.67188 111.807 17.2486 124 29.4901L101.802 51.7863L65.2979 10.5879L65.3769 10.572C68.9562 9.98426 72.6198 9.67188 76.3624 9.67188Z" fill="white" stroke="#6C6C6C" stroke-linejoin="round"/>
<path fill-rule="evenodd" clip-rule="evenodd" d="M101.802 51.7858L94.7229 58.8966C90.0261 54.179 83.5318 51.2563 76.3627 51.2563C62.0246 51.2563 50.4013 62.9365 50.4013 77.3382C50.4013 91.7399 62.0246 103.415 76.3627 103.415C83.5318 103.415 90.0261 100.497 94.7229 95.7745L124 125.182C111.807 137.428 94.9653 145 76.3627 145C39.1627 145 9 114.703 9 77.3382C9 43.7537 33.359 15.8927 65.2981 10.5874L101.618 47.0682C102.946 48.3866 102.936 50.0703 101.802 51.7858Z" fill="#F1F2F0"/>
<path d="M101.803 51.786C102.936 50.0705 102.947 48.3868 101.618 47.0684" stroke="#6C6C6C" stroke-linejoin="round"/>
<path d="M101.802 51.7858L94.7229 58.8966C90.0261 54.179 83.5318 51.2563 76.3627 51.2563C62.0246 51.2563 50.4013 62.9365 50.4013 77.3382C50.4013 91.7399 62.0246 103.415 76.3627 103.415C83.5318 103.415 90.0261 100.497 94.7229 95.7745L124 125.182C111.807 137.428 94.9653 145 76.3627 145C39.1627 145 9 114.703 9 77.3382C9 43.7537 33.359 15.8927 65.2981 10.5874" stroke="#C4C4C4" stroke-linejoin="round"/>
<path fill-rule="evenodd" clip-rule="evenodd" d="M74.2219 64.4775L89.0871 49.9117C94.9963 44.1139 99.8512 45.2947 101.617 47.0684L65.2975 10.5876C62.4193 7.69671 58.1126 8.53328 57.9861 14.9293C57.7436 26.9907 66.1409 56.366 74.2219 64.4775Z" fill="white" stroke="#6C6C6C" stroke-linejoin="round"/>
<path d="M129.108 87.603L127.37 85.8533L120.367 92.9037L121.178 96.4159L124.667 97.2194L131.657 90.182L129.919 88.4324" fill="#8E8E8E"/>
<path d="M132.61 84.8943C132.044 84.324 131.271 84 130.46 84C129.649 84 128.889 84.324 128.31 84.8943L128.181 85.0368L132.481 89.3655L132.623 89.223C133.794 88.0306 133.794 86.0866 132.61 84.8943Z" fill="#8E8E8E"/>
<path d="M115.5 98.645L116.26 104.84L123.019 98.0359L120.212 97.3879L119.568 94.5626L115.5 98.645Z" fill="#8E8E8E"/>
</svg>
