<svg width="72" height="95" viewBox="0 0 72 95" fill="none" xmlns="http://www.w3.org/2000/svg">
    <rect x="4.5" y="0.5" width="67" height="94" fill="white" stroke="#6C6C6C" stroke-linejoin="round"/>
    <line x1="8.5" y1="6.5" x2="0.5" y2="6.5" stroke="#A1A1A1" stroke-linecap="round"/>
    <line x1="8.5" y1="4.5" x2="0.5" y2="4.5" stroke="#A1A1A1" stroke-linecap="round"/>
    <line x1="8.5" y1="13.5" x2="0.5" y2="13.5" stroke="#A1A1A1" stroke-linecap="round"/>
    <line x1="8.5" y1="11.5" x2="0.5" y2="11.5" stroke="#A1A1A1" stroke-linecap="round"/>
    <line x1="8.5" y1="20.5" x2="0.5" y2="20.5" stroke="#A1A1A1" stroke-linecap="round"/>
    <line x1="8.5" y1="18.5" x2="0.5" y2="18.5" stroke="#A1A1A1" stroke-linecap="round"/>
    <line x1="8.5" y1="27.5" x2="0.5" y2="27.5" stroke="#A1A1A1" stroke-linecap="round"/>
    <line x1="8.5" y1="25.5" x2="0.5" y2="25.5" stroke="#A1A1A1" stroke-linecap="round"/>
    <line x1="8.5" y1="34.5" x2="0.5" y2="34.5" stroke="#A1A1A1" stroke-linecap="round"/>
    <line x1="8.5" y1="32.5" x2="0.5" y2="32.5" stroke="#A1A1A1" stroke-linecap="round"/>
    <line x1="8.5" y1="41.5" x2="0.5" y2="41.5" stroke="#A1A1A1" stroke-linecap="round"/>
    <line x1="8.5" y1="39.5" x2="0.5" y2="39.5" stroke="#A1A1A1" stroke-linecap="round"/>
    <line x1="8.5" y1="48.5" x2="0.5" y2="48.5" stroke="#A1A1A1" stroke-linecap="round"/>
    <line x1="8.5" y1="46.5" x2="0.5" y2="46.5" stroke="#A1A1A1" stroke-linecap="round"/>
    <line x1="8.5" y1="55.5" x2="0.5" y2="55.5" stroke="#A1A1A1" stroke-linecap="round"/>
    <line x1="8.5" y1="53.5" x2="0.5" y2="53.5" stroke="#A1A1A1" stroke-linecap="round"/>
    <line x1="8.5" y1="62.5" x2="0.5" y2="62.5" stroke="#A1A1A1" stroke-linecap="round"/>
    <line x1="8.5" y1="60.5" x2="0.5" y2="60.5" stroke="#A1A1A1" stroke-linecap="round"/>
    <line x1="8.5" y1="69.5" x2="0.5" y2="69.5" stroke="#A1A1A1" stroke-linecap="round"/>
    <line x1="8.5" y1="67.5" x2="0.5" y2="67.5" stroke="#A1A1A1" stroke-linecap="round"/>
    <line x1="8.5" y1="76.5" x2="0.5" y2="76.5" stroke="#A1A1A1" stroke-linecap="round"/>
    <line x1="8.5" y1="74.5" x2="0.5" y2="74.5" stroke="#A1A1A1" stroke-linecap="round"/>
    <line x1="8.5" y1="83.5" x2="0.5" y2="83.5" stroke="#A1A1A1" stroke-linecap="round"/>
    <line x1="8.5" y1="81.5" x2="0.5" y2="81.5" stroke="#A1A1A1" stroke-linecap="round"/>
    <line x1="8.5" y1="90.5" x2="0.5" y2="90.5" stroke="#A1A1A1" stroke-linecap="round"/>
    <line x1="8.5" y1="88.5" x2="0.5" y2="88.5" stroke="#A1A1A1" stroke-linecap="round"/>
</svg>
