<svg width="119" height="138" viewBox="0 0 119 138" fill="none" xmlns="http://www.w3.org/2000/svg">
<path fill-rule="evenodd" clip-rule="evenodd" d="M68.3624 1.66919C86.9651 1.66919 103.807 9.21832 116 21.4151L93.802 43.6299L57.2979 2.58184L57.3769 2.56601C60.9562 1.98044 64.6198 1.66919 68.3624 1.66919Z" fill="white" stroke="#6C6C6C" stroke-linejoin="round"/>
<path fill-rule="evenodd" clip-rule="evenodd" d="M93.8023 43.63L86.7229 50.7149C82.0261 46.0145 75.5318 43.1025 68.3627 43.1025C54.0246 43.1025 42.4013 54.7401 42.4013 69.0892C42.4013 83.4384 54.0246 95.0707 68.3627 95.0707C75.5318 95.0707 82.0261 92.1639 86.7229 87.4583L116 116.758C103.807 128.96 86.9653 136.504 68.3627 136.504C31.1627 136.504 1 106.318 1 69.0892C1 35.6272 25.359 7.86789 57.2981 2.58191L93.6178 38.9296C94.9462 40.2432 94.9356 41.9208 93.8023 43.63Z" fill="#F1F2F0" stroke="#6C6C6C" stroke-linejoin="round"/>
<path fill-rule="evenodd" clip-rule="evenodd" d="M66.2219 56.2751L81.0871 41.7624C86.9963 35.9858 91.8512 37.1623 93.6171 38.9295L57.2975 2.58184C54.4193 -0.298539 50.1126 0.534979 49.9861 6.90769C49.7436 18.9251 58.1409 48.1932 66.2219 56.2751Z" fill="white" stroke="#6C6C6C" stroke-linejoin="round"/>
<path d="M114.608 84.603L112.87 82.8533L105.867 89.9037L106.678 93.4159L110.167 94.2194L117.157 87.182L115.419 85.4324" fill="#8E8E8E"/>
<path d="M118.11 81.8943C117.544 81.324 116.771 81 115.96 81C115.149 81 114.389 81.324 113.81 81.8943L113.681 82.0368L117.981 86.3655L118.123 86.223C119.294 85.0306 119.294 83.0866 118.11 81.8943Z" fill="#8E8E8E"/>
<path d="M101 95.645L101.76 101.84L108.519 95.0359L105.712 94.3879L105.068 91.5626L101 95.645Z" fill="#8E8E8E"/>
</svg>
