<svg width="160" height="140" viewBox="0 0 160 140" fill="none" xmlns="http://www.w3.org/2000/svg">
<g id="Icon-Booklet-Book">
<g id="cpid">
<path id="Union" fill-rule="evenodd" clip-rule="evenodd" d="M95.1 71V71.3H95V71.4H95.1V71.3H95.2V71.5H95V71.6H95.1V71.9H95V72H95.4V71.9H95.5V72H95.7V71.9H95.8V72H96V71.5H95.9V71.4H96V71.1H95.8V71H95.7V71.1H95.5V71H95.4V71.1H95.2V71H95.1ZM95.9 71.9H95.8V71.7H95.9V71.9ZM95.7 71.9H95.6V71.8H95.7V71.9ZM95.9 71.3V71.2H95.8V71.3H95.9ZM95.6 71.4V71.5H95.5V71.6H95.4V71.4H95.6Z" fill="#1E1E1E"/>
</g>
<g id="Group 813">
<path id="Rectangle 786" d="M40 16H109C110.657 16 112 17.3431 112 19V109C112 110.657 110.657 112 109 112H40V16Z" fill="url(#paint0_linear_5268_14247)"/>
<g id="Group 779" opacity="0.5">
<rect id="Rectangle 280" x="66" y="88" width="13" height="2" fill="#5A6E8C"/>
<rect id="Rectangle 508" x="81" y="88" width="8" height="2" fill="#5A6E8C"/>
<rect id="Rectangle 509" x="91" y="88" width="15" height="2" fill="#5A6E8C"/>
<rect id="Rectangle 506" x="66" y="92" width="18" height="2" fill="#5A6E8C"/>
<rect id="Rectangle 510" x="86" y="92" width="13" height="2" fill="#5A6E8C"/>
<rect id="Rectangle 511" x="101" y="92" width="5" height="2" fill="#5A6E8C"/>
<rect id="Rectangle 507" x="66" y="96" width="10" height="2" fill="#5A6E8C"/>
<rect id="Rectangle 514" x="66" y="100" width="6" height="2" fill="#5A6E8C"/>
<rect id="Rectangle 515" x="74" y="100" width="8" height="2" fill="#5A6E8C"/>
<rect id="Rectangle 512" x="78" y="96" width="15" height="2" fill="#5A6E8C"/>
<rect id="Rectangle 513" x="95" y="96" width="9" height="2" fill="#5A6E8C"/>
</g>
<path id="Rectangle 806" opacity="0.15" d="M40 17L112 51V109C112 110.657 110.657 112 109 112H40V17Z" fill="#5A6E8C"/>
<g id="Group 812" opacity="0.5">
<g id="Group 781">
<rect id="Rectangle 506_2" x="74" y="78" width="32" height="3" fill="#5A6E8C"/>
</g>
<g id="Group 783">
<rect id="Rectangle 506_3" x="91" y="72" width="15" height="3" fill="#5A6E8C"/>
</g>
</g>
<g id="Group 782" opacity="0.5">
<rect id="Rectangle 280_2" width="5" height="2" transform="matrix(-1 0 0 1 106 38)" fill="#5A6E8C"/>
<rect id="Rectangle 508_2" width="7" height="2" transform="matrix(-1 0 0 1 99 38)" fill="#5A6E8C"/>
<rect id="Rectangle 509_2" width="9.375" height="2" transform="matrix(-1 0 0 1 90.375 38)" fill="#5A6E8C"/>
<rect id="Rectangle 506_4" width="10" height="2" transform="matrix(-1 0 0 1 106 42)" fill="#5A6E8C"/>
<rect id="Rectangle 510_2" width="6.875" height="2" transform="matrix(-1 0 0 1 93.5 42)" fill="#5A6E8C"/>
<rect id="Rectangle 511_2" width="4.375" height="2" transform="matrix(-1 0 0 1 85.375 42)" fill="#5A6E8C"/>
<rect id="Rectangle 507_2" width="6" height="2" transform="matrix(-1 0 0 1 106 46)" fill="#5A6E8C"/>
<rect id="Rectangle 514_2" width="3" height="2" transform="matrix(-1 0 0 1 106 50)" fill="#5A6E8C"/>
<rect id="Rectangle 515_2" width="10" height="2" transform="matrix(-1 0 0 1 101 50)" fill="#5A6E8C"/>
<rect id="Rectangle 512_2" width="9" height="2" transform="matrix(-1 0 0 1 98 46)" fill="#5A6E8C"/>
<rect id="Rectangle 513_2" width="4.375" height="2" transform="matrix(-1 0 0 1 87.875 46)" fill="#5A6E8C"/>
</g>
<path id="Rectangle 787" d="M40 16L93.1126 30.9793C94.7073 31.4291 96 33.1368 96 34.7936V124.794C96 126.45 94.7073 127.429 93.1126 126.979L40 112V16Z" fill="url(#paint1_linear_5268_14247)"/>
<g id="Group 767" opacity="0.7">
<g id="Group 647">
<rect id="Rectangle 506_5" width="35.1996" height="3" transform="matrix(0.965926 0.258819 0 1 50.9995 85.0001)" fill="white"/>
</g>
<g id="Group 765">
<rect id="Rectangle 506_6" width="14.4943" height="3" transform="matrix(0.965926 0.258819 0 1 60.9998 93.6795)" fill="white"/>
</g>
<g id="Group 766">
<rect id="Rectangle 506_7" width="22.7766" height="3" transform="matrix(0.965926 0.258819 0 1 56.9995 98.6078)" fill="white"/>
</g>
</g>
<path id="Vector" fill-rule="evenodd" clip-rule="evenodd" d="M76.5311 68.0441L83 76.5247C79.3782 79.3388 74.4587 80.1407 69.3339 78.7676C58.6539 75.9059 50 64.5608 50 53.4281C50 42.2886 58.6539 35.5811 69.3339 38.4428C74.4587 39.816 79.3782 43.2613 83 48.0094L76.5311 53.0233C74.6904 50.6102 72.1413 48.7393 69.3339 47.9871C63.7059 46.479 59.1439 50.008 59.1439 55.8782C59.1439 61.7415 63.7059 67.7222 69.3339 69.2302C72.1413 69.9825 74.6904 69.4777 76.5311 68.0441Z" fill="url(#paint2_linear_5268_14247)"/>
</g>
</g>
<defs>
<linearGradient id="paint0_linear_5268_14247" x1="82" y1="88.5" x2="107" y2="22" gradientUnits="userSpaceOnUse">
<stop stop-color="#C3CFDB"/>
<stop offset="1" stop-color="#EBF4F9"/>
</linearGradient>
<linearGradient id="paint1_linear_5268_14247" x1="40" y1="16.5618" x2="96" y2="128" gradientUnits="userSpaceOnUse">
<stop stop-color="#50B4FF"/>
<stop offset="0.98838" stop-color="#005AB4"/>
</linearGradient>
<linearGradient id="paint2_linear_5268_14247" x1="53.1429" y1="42.334" x2="83.0648" y2="82.381" gradientUnits="userSpaceOnUse">
<stop stop-color="white"/>
<stop offset="1" stop-color="#AABEC8"/>
</linearGradient>
</defs>
</svg>
