<svg width="160" height="140" viewBox="0 0 160 140" fill="none" xmlns="http://www.w3.org/2000/svg">
<path fill-rule="evenodd" clip-rule="evenodd" d="M92.1 98V98.3H92V98.4H92.1V98.3H92.2V98.5H92V98.6H92.1V98.9H92V99H92.4V98.9H92.5V99H92.7V98.9H92.8V99H93V98.5H92.9V98.4H93V98.1H92.8V98H92.7V98.1H92.5V98H92.4V98.1H92.2V98H92.1ZM92.9 98.9H92.8V98.7H92.9V98.9ZM92.7 98.9H92.6V98.8H92.7V98.9ZM92.9 98.3V98.2H92.8V98.3H92.9ZM92.6 98.4V98.5H92.5V98.6H92.4V98.4H92.6Z" fill="#1E1E1E"/>
<rect x="38" y="33" width="5" height="12" rx="2" fill="url(#paint0_linear_5000_13493)"/>
<rect x="38" y="97" width="5" height="12" rx="2" fill="url(#paint1_linear_5000_13493)"/>
<path d="M121 21H83C81.3431 21 80 22.3431 80 24V118C80 119.657 81.3431 121 83 121H121C122.657 121 124 119.657 124 118V24C124 22.3431 122.657 21 121 21Z" fill="#F1F2F0"/>
<path d="M113 21H69C67.3431 21 66 22.3431 66 24V118C66 119.657 67.3431 121 69 121H113C114.657 121 116 119.657 116 118V24C116 22.3431 114.657 21 113 21Z" fill="white"/>
<g opacity="0.1">
<line x1="116" y1="112.5" x2="74" y2="112.5" stroke="#00195A"/>
<line x1="116" y1="108.5" x2="74" y2="108.5" stroke="#00195A"/>
<line x1="116" y1="104.5" x2="74" y2="104.5" stroke="#00195A"/>
<line x1="116" y1="100.5" x2="74" y2="100.5" stroke="#00195A"/>
<line x1="116" y1="96.5001" x2="74" y2="96.5001" stroke="#00195A"/>
<line x1="116" y1="92.5001" x2="74" y2="92.5001" stroke="#00195A"/>
<line x1="116" y1="88.5001" x2="74" y2="88.5001" stroke="#00195A"/>
<line x1="116" y1="84.5001" x2="74" y2="84.5001" stroke="#00195A"/>
<line x1="116" y1="80.5" x2="74" y2="80.5" stroke="#00195A"/>
<line x1="116" y1="76.5" x2="74" y2="76.5" stroke="#00195A"/>
<line x1="116" y1="72.5" x2="74" y2="72.5" stroke="#00195A"/>
<line x1="116" y1="68.5" x2="74" y2="68.5" stroke="#00195A"/>
<line x1="116" y1="64.5" x2="74" y2="64.5" stroke="#00195A"/>
<line x1="116" y1="60.5" x2="74" y2="60.5" stroke="#00195A"/>
<line x1="116" y1="56.5" x2="74" y2="56.5" stroke="#00195A"/>
<line x1="116" y1="52.5" x2="74" y2="52.5" stroke="#00195A"/>
<line x1="116" y1="48.5" x2="74" y2="48.5" stroke="#00195A"/>
<line x1="116" y1="44.5" x2="74" y2="44.5" stroke="#00195A"/>
<line x1="116" y1="40.5" x2="74" y2="40.5" stroke="#00195A"/>
<line x1="116" y1="36.5" x2="74" y2="36.5" stroke="#00195A"/>
<line x1="116" y1="32.5" x2="74" y2="32.5" stroke="#00195A"/>
<line x1="116" y1="28.5" x2="74" y2="28.5" stroke="#00195A"/>
<line x1="107.5" y1="21" x2="107.5" y2="112" stroke="#00195A"/>
</g>
<path d="M76 29H116V118C116 119.657 114.657 121 113 121H76V29Z" fill="url(#paint2_linear_5000_13493)"/>
<path d="M69 21H113C114.657 21 116 22.3431 116 24V29H69V21Z" fill="url(#paint3_linear_5000_13493)"/>
<path opacity="0.2" d="M118 121H119C120.657 121 122 119.657 122 118V24C122 22.3431 120.657 21 119 21H118C119.657 21 121 22.3431 121 24V118C121 119.657 119.657 121 118 121Z" fill="#191919"/>
<path opacity="0.2" d="M115 121H116C117.657 121 119 119.657 119 118V24C119 22.3431 117.657 21 116 21H115C116.657 21 118 22.3431 118 24V118C118 119.657 116.657 121 115 121Z" fill="#191919"/>
<path d="M40 21V121L76.9999 121C79.4999 121 84.8064 119.826 87.0002 114L114.269 33.607C114.635 31.2681 114.798 29.6761 114.889 28H115V24C115 22.3431 113.657 21 112 21H40Z" fill="url(#paint4_linear_5000_13493)"/>
<path fill-rule="evenodd" clip-rule="evenodd" d="M76.1987 88.1138C75.4453 89.2113 75.6465 90.6465 76.5879 91.5879L82 97C88.5 103 87.9071 111.049 87 114L113.52 40.2295C115.5 34.5 115.005 29.2933 115 25C115.028 31.5 114 34 110 41C100.673 57.0259 81.6947 80.1067 76.1987 88.1138Z" fill="url(#paint5_linear_5000_13493)"/>
<path d="M40 21H53V121H40V21Z" fill="url(#paint6_linear_5000_13493)"/>
<rect x="64" y="41" width="28" height="17" rx="2" fill="url(#paint7_linear_5000_13493)"/>
<rect opacity="0.8" x="68" y="45" width="20" height="1" fill="#00195A"/>
<rect opacity="0.8" x="68" y="49" width="20" height="1" fill="#00195A"/>
<rect opacity="0.8" x="68" y="53" width="20" height="1" fill="#00195A"/>
<defs>
<linearGradient id="paint0_linear_5000_13493" x1="40.5" y1="45" x2="37.0838" y2="34.111" gradientUnits="userSpaceOnUse">
<stop stop-color="#5A6E8C"/>
<stop offset="1" stop-color="#AABEC8"/>
</linearGradient>
<linearGradient id="paint1_linear_5000_13493" x1="40.5" y1="109" x2="37.0838" y2="98.111" gradientUnits="userSpaceOnUse">
<stop stop-color="#5A6E8C"/>
<stop offset="1" stop-color="#AABEC8"/>
</linearGradient>
<linearGradient id="paint2_linear_5000_13493" x1="117" y1="94" x2="93.7805" y2="90.259" gradientUnits="userSpaceOnUse">
<stop offset="0.0104167" stop-color="#333333" stop-opacity="0"/>
<stop offset="0.948426" stop-color="#333333" stop-opacity="0.25"/>
</linearGradient>
<linearGradient id="paint3_linear_5000_13493" x1="92.5" y1="21" x2="92.5" y2="29" gradientUnits="userSpaceOnUse">
<stop stop-color="#1E1E1E" stop-opacity="0.2"/>
<stop offset="1" stop-color="#191919" stop-opacity="0.1"/>
</linearGradient>
<linearGradient id="paint4_linear_5000_13493" x1="112.893" y1="93.8411" x2="39.7049" y2="43.258" gradientUnits="userSpaceOnUse">
<stop stop-color="#0073D2"/>
<stop offset="1" stop-color="#50B4FF"/>
</linearGradient>
<linearGradient id="paint5_linear_5000_13493" x1="80" y1="80" x2="100.18" y2="88.9623" gradientUnits="userSpaceOnUse">
<stop offset="0.234375" stop-color="white"/>
<stop offset="0.734375" stop-color="#B6C1CC"/>
<stop offset="1" stop-color="#F3F3F3"/>
</linearGradient>
<linearGradient id="paint6_linear_5000_13493" x1="40" y1="67.25" x2="47" y2="67.25" gradientUnits="userSpaceOnUse">
<stop stop-color="#50B4FF" stop-opacity="0"/>
<stop offset="0.339527" stop-color="#50B4FF"/>
<stop offset="0.961877" stop-color="#50B4FF" stop-opacity="0"/>
</linearGradient>
<linearGradient id="paint7_linear_5000_13493" x1="65.3125" y1="42.0625" x2="69.6745" y2="69.7424" gradientUnits="userSpaceOnUse">
<stop stop-color="white"/>
<stop offset="1" stop-color="#AABEC8"/>
</linearGradient>
</defs>
</svg>
