<svg width="160" height="140" viewBox="0 0 160 140" fill="none" xmlns="http://www.w3.org/2000/svg">
<g id="Icon-BC-plastic">
<g id="cpid">
<path id="Union" fill-rule="evenodd" clip-rule="evenodd" d="M117.1 83V83.3H117V83.4H117.1V83.3H117.2V83.5H117V83.6H117.1V83.9H117V84H117.4V83.9H117.5V84H117.7V83.9H117.8V84H118V83.5H117.9V83.4H118V83.1H117.8V83H117.7V83.1H117.5V83H117.4V83.1H117.2V83H117.1ZM117.9 83.9H117.8V83.7H117.9V83.9ZM117.7 83.9H117.6V83.8H117.7V83.9ZM117.9 83.3V83.2H117.8V83.3H117.9ZM117.6 83.4V83.5H117.5V83.6H117.4V83.4H117.6Z" fill="#1E1E1E"/>
</g>
<circle id="Ellipse 210" cx="95" cy="72" r="47" fill="#00195A"/>
<rect id="Rectangle 1103" opacity="0.7" x="24" y="32" width="108" height="66" rx="4" fill="url(#paint0_linear_5891_16815)"/>
<g id="Group 984">
<g id="Group 781">
<rect id="Rectangle 507" x="78" y="45.0834" width="30" height="3.91666" fill="white"/>
</g>
<g id="Group 783">
<rect id="Rectangle 506" x="78" y="52" width="39" height="4" fill="white"/>
</g>
</g>
<path id="Vector" fill-rule="evenodd" clip-rule="evenodd" d="M59.7271 67.3912L66 73.5821C62.488 77.0546 57.7175 79 52.748 79C42.3917 79 34 70.7179 34 60.5032C34 50.2821 42.3917 42 52.748 42C57.7175 42 62.488 43.9517 66 47.4179L59.7271 53.6088C57.9422 51.8472 55.4703 50.7573 52.748 50.7573C47.2905 50.7573 42.8668 55.117 42.8668 60.5032C42.8668 65.883 47.2905 70.249 52.748 70.249C55.4703 70.249 57.9422 69.1591 59.7271 67.3912Z" fill="url(#paint1_linear_5891_16815)"/>
<g id="Group 985" opacity="0.9">
<rect id="Rectangle 280" x="77" y="62" width="15" height="2" fill="white"/>
<rect id="Rectangle 508" x="94" y="62" width="24" height="2" fill="white"/>
<rect id="Rectangle 506_2" x="77" y="66" width="21" height="2" fill="white"/>
<rect id="Rectangle 509" x="100" y="66" width="13" height="2" fill="white"/>
</g>
<g id="Group 986" opacity="0.6">
<rect id="Rectangle 280_2" x="78" y="83" width="15" height="2" fill="white"/>
<rect id="Rectangle 508_2" x="95" y="83" width="22" height="2" fill="white"/>
<rect id="Rectangle 506_3" x="78" y="87" width="21" height="2" fill="white"/>
<rect id="Rectangle 509_2" x="101" y="87" width="16" height="2" fill="white"/>
</g>
<rect id="Rectangle 1104" x="39" y="85" width="25" height="2" fill="url(#paint2_linear_5891_16815)"/>
<line id="Line 173" opacity="0.5" x1="78" y1="77.5" x2="122" y2="77.5" stroke="white"/>
</g>
<defs>
<linearGradient id="paint0_linear_5891_16815" x1="26.5" y1="32" x2="79.5" y2="64" gradientUnits="userSpaceOnUse">
<stop stop-color="#AABEC8"/>
<stop offset="1" stop-color="#AABEC8" stop-opacity="0.5"/>
</linearGradient>
<linearGradient id="paint1_linear_5891_16815" x1="44.5" y1="48.5" x2="65" y2="78.5" gradientUnits="userSpaceOnUse">
<stop stop-color="white"/>
<stop offset="0.92757" stop-color="#D9EBFC"/>
</linearGradient>
<linearGradient id="paint2_linear_5891_16815" x1="62.5" y1="87" x2="41" y2="80.5" gradientUnits="userSpaceOnUse">
<stop stop-color="#007DEB"/>
<stop offset="1" stop-color="#50B4FF"/>
</linearGradient>
</defs>
</svg>
