<svg width="160" height="140" viewBox="0 0 160 140" fill="none" xmlns="http://www.w3.org/2000/svg">
<g id="Icon-Tag-Wobbler-complex-form">
<g id="cpid">
<path id="Union" fill-rule="evenodd" clip-rule="evenodd" d="M104.1 78V78.3H104V78.4H104.1V78.3H104.2V78.5H104V78.6H104.1V78.9H104V79H104.4V78.9H104.5V79H104.7V78.9H104.8V79H105V78.5H104.9V78.4H105V78.1H104.8V78H104.7V78.1H104.5V78H104.4V78.1H104.2V78H104.1ZM104.9 78.9H104.8V78.7H104.9V78.9ZM104.7 78.9H104.6V78.8H104.7V78.9ZM104.9 78.3V78.2H104.8V78.3H104.9ZM104.6 78.4V78.5H104.5V78.6H104.4V78.4H104.6Z" fill="#1E1E1E"/>
</g>
<g id="Mask Group">
<mask id="mask0_5988_18256" style="mask-type:alpha" maskUnits="userSpaceOnUse" x="0" y="0" width="105" height="79">
<rect id="Rectangle 1130" width="105" height="79" fill="#C4C4C4"/>
</mask>
<g mask="url(#mask0_5988_18256)">
<g id="Group 1031">
<g id="Vector">
<path fill-rule="evenodd" clip-rule="evenodd" d="M22 57L-16 35L63 -12L101 10.0005L22 57Z" fill="url(#paint0_linear_5988_18256)"/>
<path fill-rule="evenodd" clip-rule="evenodd" d="M22 57L-16 35L63 -12L101 10.0005L22 57Z" fill="url(#paint1_linear_5988_18256)"/>
</g>
<path id="Vector_2" fill-rule="evenodd" clip-rule="evenodd" d="M22 57L-16 35V49L22 72V57Z" fill="url(#paint2_linear_5988_18256)"/>
<g id="Vector_3">
<path d="M101 10L22 57V72L101 25V10Z" fill="url(#paint3_linear_5988_18256)"/>
<path d="M101 10L22 57V72L101 25V10Z" fill="url(#paint4_linear_5988_18256)"/>
</g>
</g>
</g>
</g>
<path id="Subtract" d="M44 39V58.6842L53 53.3553V34C53 29.6501 54.8791 24.9434 57.6682 22C56.1843 22.2517 55.3615 22.4677 54 23C47.2178 25.6519 44 32.4619 44 39Z" fill="url(#paint5_linear_5988_18256)"/>
<path id="Vector_4" fill-rule="evenodd" clip-rule="evenodd" d="M84 30L89 47.7727L80 53L75 35C73.5 28 68 22 60 22C59.069 22.024 57.5 22 54 23L62 19C65.1168 17.6642 70.2248 17.6485 74 19C78.1902 20.5 82.5 24 84 30Z" fill="url(#paint6_linear_5988_18256)"/>
<path id="Star 11" d="M80.7873 37.5541C80.9305 36.7113 81.7762 36.2231 82.2958 36.6832L89.6762 43.22C90.0843 43.5815 90.733 43.3644 91.0459 42.7617L96.7528 31.7695C97.1523 31.0001 98.0404 30.9115 98.3331 31.6119L102.449 41.4587C102.68 42.0111 103.313 42.0977 103.78 41.6408L112.273 33.3291C112.869 32.7459 113.667 33.0733 113.685 33.9086L113.932 45.5461C113.946 46.2068 114.468 46.5897 115.022 46.3466L124.984 41.9771C125.69 41.6678 126.273 42.3653 126.012 43.2048L122.374 54.8757C122.167 55.5399 122.493 56.1645 123.052 56.1762L132.964 56.3845C133.673 56.3994 133.951 57.3611 133.452 58.0734L126.477 68.0318C126.083 68.5938 126.16 69.3621 126.636 69.6316L135.012 74.3667C135.615 74.7073 135.543 75.7831 134.886 76.2603L125.608 82.9994C125.092 83.3744 124.909 84.1635 125.226 84.6492L130.811 93.2054C131.212 93.8195 130.804 94.8425 130.09 95.0159L119.909 97.4861C119.349 97.6219 118.94 98.31 119.049 98.933L120.985 110.039C121.122 110.829 120.444 111.644 119.778 111.49L110.26 109.288C109.738 109.167 109.168 109.654 109.055 110.316L107.021 122.289C106.877 123.131 106.032 123.62 105.512 123.159L98.1318 116.623C97.7237 116.261 97.075 116.478 96.7621 117.081L91.0551 128.073C90.6556 128.843 89.7676 128.931 89.4748 128.231L85.3589 118.384C85.128 117.832 84.4952 117.745 84.0283 118.202L75.5345 126.514C74.9385 127.097 74.1411 126.769 74.1233 125.934L73.8756 114.297C73.8615 113.636 73.3405 113.253 72.7862 113.496L62.8237 117.866C62.1183 118.175 61.5346 117.477 61.7963 116.638L65.4336 104.967C65.6406 104.303 65.315 103.678 64.7556 103.666L54.8435 103.458C54.1345 103.443 53.8568 102.482 54.3557 101.769L61.3314 91.8108C61.7251 91.2489 61.6484 90.4805 61.1717 90.2111L52.796 85.4759C52.1935 85.1353 52.265 84.0595 52.9219 83.5824L62.2 76.8432C62.7162 76.4683 62.8987 75.6792 62.5816 75.1934L56.997 66.6373C56.5961 66.0232 57.0035 65.0002 57.7179 64.8268L67.8988 62.3566C68.4585 62.2208 68.8675 61.5327 68.7589 60.9097L66.8233 49.8041C66.6856 49.0142 67.3637 48.1985 68.0299 48.3527L77.5477 50.5548C78.0696 50.6756 78.6403 50.1886 78.7528 49.5266L80.7873 37.5541Z" fill="url(#paint7_linear_5988_18256)"/>
<g id="Group 1058" opacity="0.7">
<rect id="Rectangle 508" width="16.7123" height="2" transform="matrix(0.866025 -0.5 -0.309017 -0.951057 105.162 78.0816)" fill="white"/>
<rect id="Rectangle 506" width="13.0985" height="2" transform="matrix(0.866025 -0.5 -0.309017 -0.951057 98.8545 77.2076)" fill="white"/>
<rect id="Rectangle 509" width="10.0224" height="2" transform="matrix(0.866025 -0.5 -0.309017 -0.951057 111.825 69.7188)" fill="white"/>
<rect id="Rectangle 510" width="16.2878" height="2" transform="matrix(0.866025 -0.5 -0.309017 -0.951057 102.565 70.5473)" fill="white"/>
</g>
<path id="Ellipse 214 (Stroke)" fill-rule="evenodd" clip-rule="evenodd" d="M92.9172 66.0315C90.7582 66.755 88.7421 68.1874 87.1238 70.1476C85.5055 72.1077 84.3578 74.5076 83.8257 77.0437C83.2936 79.5798 83.401 82.1382 84.1344 84.3954C84.8678 86.6526 86.1943 88.5073 87.946 89.7248C89.6977 90.9423 91.7961 91.468 93.9757 91.2355C96.1553 91.0029 98.3183 90.0225 100.191 88.4183C102.064 86.814 103.562 84.658 104.497 82.2228L112.806 85.4122C111.092 89.8768 108.345 93.8295 104.911 96.7706C101.478 99.7118 97.5125 101.509 93.5165 101.935C89.5205 102.362 85.6736 101.398 82.4621 99.1659C79.2506 96.9338 76.8188 93.5337 75.4742 89.3954C74.1296 85.2572 73.9326 80.5668 74.9081 75.9173C75.8837 71.2678 77.9879 66.868 80.9547 63.2744C83.9216 59.6808 87.6178 57.0547 91.5759 55.7282C95.5341 54.4018 99.5764 54.4345 103.192 55.8223L99.2531 66.0828C97.2811 65.3258 95.0762 65.308 92.9172 66.0315Z" fill="url(#paint8_linear_5988_18256)"/>
</g>
<defs>
<linearGradient id="paint0_linear_5988_18256" x1="41" y1="41" x2="29.5" y2="26" gradientUnits="userSpaceOnUse">
<stop stop-color="#E5EBEF"/>
<stop offset="1" stop-color="#E5EBEF" stop-opacity="0"/>
</linearGradient>
<linearGradient id="paint1_linear_5988_18256" x1="74" y1="3.5" x2="71" y2="17.5" gradientUnits="userSpaceOnUse">
<stop stop-color="white"/>
<stop offset="1" stop-color="white" stop-opacity="0"/>
</linearGradient>
<linearGradient id="paint2_linear_5988_18256" x1="26.5" y1="39.5" x2="1.5" y2="39.5" gradientUnits="userSpaceOnUse">
<stop stop-color="#AABEC8"/>
<stop offset="1" stop-color="white" stop-opacity="0"/>
</linearGradient>
<linearGradient id="paint3_linear_5988_18256" x1="51.5" y1="72" x2="38.5" y2="41" gradientUnits="userSpaceOnUse">
<stop stop-color="#E5EBEF"/>
<stop offset="1" stop-color="#E5EBEF" stop-opacity="0"/>
</linearGradient>
<linearGradient id="paint4_linear_5988_18256" x1="104.5" y1="13" x2="94.5" y2="19.5" gradientUnits="userSpaceOnUse">
<stop stop-color="white"/>
<stop offset="1" stop-color="white" stop-opacity="0"/>
</linearGradient>
<linearGradient id="paint5_linear_5988_18256" x1="50.8341" y1="23" x2="61.8302" y2="44.8748" gradientUnits="userSpaceOnUse">
<stop stop-color="#5A6E8C"/>
<stop offset="0.339803" stop-color="#AABEC8"/>
<stop offset="1" stop-color="#E5EBEF"/>
</linearGradient>
<linearGradient id="paint6_linear_5988_18256" x1="67.5" y1="17.5" x2="83" y2="50" gradientUnits="userSpaceOnUse">
<stop stop-color="#BFCFD9"/>
<stop offset="0.382658" stop-color="#EFF4F8"/>
<stop offset="0.825258" stop-color="#AABEC8"/>
<stop offset="1" stop-color="#83A3B3"/>
</linearGradient>
<linearGradient id="paint7_linear_5988_18256" x1="122.771" y1="109.939" x2="70.3305" y2="47.2469" gradientUnits="userSpaceOnUse">
<stop stop-color="#046BC0"/>
<stop offset="1" stop-color="#50B4FF"/>
</linearGradient>
<linearGradient id="paint8_linear_5988_18256" x1="110" y1="94" x2="87.0053" y2="56.3877" gradientUnits="userSpaceOnUse">
<stop stop-color="#AABEC8"/>
<stop offset="1" stop-color="white"/>
</linearGradient>
</defs>
</svg>
