<svg width="160" height="140" viewBox="0 0 160 140" fill="none" xmlns="http://www.w3.org/2000/svg">
<g id="Icon-BC-VIP">
<g id="cpid">
<path id="Union" fill-rule="evenodd" clip-rule="evenodd" d="M118.1 80V80.3H118V80.4H118.1V80.3H118.2V80.5H118V80.6H118.1V80.9H118V81H118.4V80.9H118.5V81H118.7V80.9H118.8V81H119V80.5H118.9V80.4H119V80.1H118.8V80H118.7V80.1H118.5V80H118.4V80.1H118.2V80H118.1ZM118.9 80.9H118.8V80.7H118.9V80.9ZM118.7 80.9H118.6V80.8H118.7V80.9ZM118.9 80.3V80.2H118.8V80.3H118.9ZM118.6 80.4V80.5H118.5V80.6H118.4V80.4H118.6Z" fill="#1E1E1E"/>
</g>
<rect id="Rectangle 1102" x="38" y="43" width="108" height="66" rx="4" transform="rotate(5 38 43)" fill="url(#paint0_linear_5891_16820)"/>
<path id="Rectangle 1103" opacity="0.5" d="M33 51H133V95C133 97.2091 131.209 99 129 99H33V51Z" fill="#00195A"/>
<rect id="Rectangle 1104" x="24" y="32" width="108" height="66" rx="4" fill="url(#paint1_linear_5891_16820)"/>
<g id="Group 1007">
<g id="Rectangle 507">
<rect x="86" y="50" width="26" height="3.91666" rx="1.95833" fill="url(#paint2_linear_5891_16820)"/>
<rect x="86" y="50" width="26" height="3.91666" rx="1.95833" fill="url(#paint3_linear_5891_16820)"/>
<rect x="86" y="50" width="26" height="3.91666" rx="1.95833" fill="url(#paint4_linear_5891_16820)" fill-opacity="0.5"/>
</g>
</g>
<g id="Group 1008">
<g id="Rectangle 506">
<rect x="86" y="58" width="33" height="4" rx="2" fill="url(#paint5_linear_5891_16820)"/>
<rect x="86" y="58" width="33" height="4" rx="2" fill="url(#paint6_linear_5891_16820)"/>
<rect x="86" y="58" width="33" height="4" rx="2" fill="url(#paint7_linear_5891_16820)" fill-opacity="0.5"/>
</g>
</g>
<g id="Group 1009" opacity="0.8">
<rect id="Rectangle 280" x="86" y="69" width="15" height="2" fill="white"/>
<rect id="Rectangle 508" x="103" y="69" width="16" height="2" fill="white"/>
<rect id="Rectangle 506_2" x="86" y="73" width="21" height="2" fill="white"/>
<rect id="Rectangle 509" x="109" y="73" width="10" height="2" fill="white"/>
<rect id="Rectangle 280_2" x="86" y="77" width="15" height="2" fill="white"/>
<rect id="Rectangle 508_2" x="103" y="77" width="16" height="2" fill="white"/>
<rect id="Rectangle 506_3" x="86" y="81" width="6" height="2" fill="white"/>
<rect id="Rectangle 509_2" x="94" y="81" width="25" height="2" fill="white"/>
</g>
<g id="Vector" opacity="0.8">
<path fill-rule="evenodd" clip-rule="evenodd" d="M63.8895 43.4323C59.525 42.5642 55.001 43.0098 50.8896 44.7127C46.7783 46.4157 43.2643 49.2996 40.7919 52.9997C38.3196 56.6998 37 61.0499 37 65.5C37 69.9501 38.3196 74.3002 40.7919 78.0003C43.2643 81.7005 46.7783 84.5843 50.8896 86.2873C55.001 87.9903 59.525 88.4358 63.8895 87.5677C68.2541 86.6995 72.2632 84.5566 75.4099 81.4099L76.8241 82.8241C73.3977 86.2505 69.0322 88.5839 64.2797 89.5293C59.5272 90.4746 54.6011 89.9894 50.1243 88.1351C45.6475 86.2807 41.8211 83.1405 39.129 79.1115C36.4369 75.0825 35 70.3457 35 65.5C35 60.6544 36.4369 55.9175 39.129 51.8885C41.8211 47.8595 45.6475 44.7193 50.1243 42.865C54.601 41.0106 59.5272 40.5254 64.2797 41.4708C69.0322 42.4161 73.3977 44.7495 76.8241 48.1759L75.4099 49.5901C72.2632 46.4434 68.2541 44.3005 63.8895 43.4323Z" fill="#092570"/>
<path fill-rule="evenodd" clip-rule="evenodd" d="M64.6699 39.5092C59.5294 38.4867 54.2011 39.0115 49.3589 41.0172C44.5166 43.0229 40.3779 46.4195 37.4661 50.7774C34.5542 55.1353 33 60.2588 33 65.5C33 70.7412 34.5542 75.8647 37.4661 80.2226C40.3779 84.5805 44.5167 87.9771 49.3589 89.9828C54.2011 91.9885 59.5294 92.5133 64.6699 91.4908C69.8104 90.4683 74.5322 87.9444 78.2383 84.2383L79.6525 85.6525C75.6668 89.6383 70.5885 92.3527 65.0601 93.4524C59.5316 94.5521 53.8012 93.9877 48.5935 91.8306C43.3858 89.6735 38.9347 86.0206 35.8031 81.3338C32.6715 76.647 31 71.1368 31 65.5C31 59.8633 32.6715 54.3531 35.8031 49.6663C38.9347 44.9795 43.3858 41.3265 48.5935 39.1694C53.8012 37.0123 59.5316 36.448 65.0601 37.5476C70.5885 38.6473 75.6667 41.3617 79.6525 45.3475L78.2383 46.7617C74.5322 43.0556 69.8104 40.5317 64.6699 39.5092Z" fill="#092570"/>
<path fill-rule="evenodd" clip-rule="evenodd" d="M63.1092 47.3555C59.5205 46.6417 55.8008 47.008 52.4204 48.4082C49.0399 49.8085 46.1506 52.1797 44.1178 55.222C42.085 58.2643 41 61.8411 41 65.5C41 69.159 42.085 72.7358 44.1178 75.7781C46.1506 78.8204 49.0399 81.1916 52.4204 82.5918C55.8008 83.992 59.5205 84.3584 63.1092 83.6445C66.6978 82.9307 69.9942 81.1688 72.5815 78.5815L73.9957 79.9957C71.1287 82.8627 67.476 84.8151 63.4994 85.6061C59.5227 86.3971 55.4009 85.9911 51.655 84.4395C47.9091 82.8879 44.7074 80.2604 42.4549 76.8892C40.2023 73.518 39 69.5545 39 65.5C39 61.4455 40.2023 57.482 42.4549 54.1108C44.7074 50.7396 47.9091 48.1121 51.655 46.5605C55.4009 45.0089 59.5227 44.6029 63.4994 45.3939C67.476 46.1849 71.1287 48.1373 73.9957 51.0043L72.5815 52.4185C69.9942 49.8313 66.6978 48.0693 63.1092 47.3555Z" fill="#092570"/>
<path fill-rule="evenodd" clip-rule="evenodd" d="M62.3288 51.2786C59.5161 50.7191 56.6006 51.0063 53.9511 52.1038C51.3016 53.2012 49.037 55.0597 47.4437 57.4442C45.8504 59.8288 45 62.6322 45 65.5C45 68.3678 45.8504 71.1713 47.4437 73.5558C49.037 75.9403 51.3016 77.7988 53.9511 78.8963C56.6006 79.9937 59.5161 80.2809 62.3288 79.7214C65.1415 79.1619 67.7252 77.7809 69.7531 75.7531L71.1673 77.1673C68.8597 79.4748 65.9197 81.0463 62.719 81.683C59.5183 82.3196 56.2007 81.9929 53.1857 80.744C50.1707 79.4952 47.5938 77.3803 45.7808 74.6669C43.9677 71.9535 43 68.7634 43 65.5C43 62.2366 43.9677 59.0465 45.7808 56.3331C47.5938 53.6197 50.1707 51.5048 53.1857 50.256C56.2007 49.0071 59.5183 48.6804 62.719 49.317C65.9197 49.9537 68.8597 51.5252 71.1673 53.8327L69.753 55.247C67.7252 53.2191 65.1415 51.8381 62.3288 51.2786Z" fill="#092570"/>
<path fill-rule="evenodd" clip-rule="evenodd" d="M61.5484 55.2018C59.5116 54.7966 57.4004 55.0046 55.4818 55.7993C53.5632 56.594 51.9233 57.9398 50.7696 59.6665C49.6158 61.3932 49 63.4233 49 65.5C49 67.5767 49.6158 69.6068 50.7696 71.3335C51.9233 73.0602 53.5632 74.406 55.4818 75.2007C57.4005 75.9955 59.5117 76.2034 61.5485 75.7982C63.5853 75.3931 65.4562 74.3931 66.9246 72.9246L68.3388 74.3388C66.5907 76.087 64.3634 77.2775 61.9386 77.7598C59.5139 78.2421 57.0005 77.9946 54.7165 77.0485C52.4324 76.1024 50.4801 74.5002 49.1066 72.4446C47.7331 70.389 47 67.9723 47 65.5C47 63.0277 47.7331 60.611 49.1066 58.5554C50.4801 56.4998 52.4324 54.8976 54.7165 53.9515C57.0005 53.0054 59.5139 52.7579 61.9386 53.2402C64.3634 53.7225 66.5907 54.913 68.3388 56.6612L66.9246 58.0754C65.4562 56.6069 63.5852 55.6069 61.5484 55.2018Z" fill="#092570"/>
<path fill-rule="evenodd" clip-rule="evenodd" d="M60.7681 59.1249C59.5072 58.8741 58.2003 59.0028 57.0126 59.4948C55.8248 59.9868 54.8097 60.8199 54.0954 61.8888C53.3812 62.9577 53 64.2144 53 65.5C53 66.7856 53.3812 68.0423 54.0954 69.1112C54.8097 70.1801 55.8248 71.0133 57.0126 71.5052C58.2003 71.9972 59.5072 72.1259 60.7681 71.8751C62.029 71.6243 63.1872 71.0052 64.0962 70.0962L65.5104 71.5104C64.3217 72.6992 62.8071 73.5087 61.1583 73.8367C59.5094 74.1647 57.8004 73.9963 56.2472 73.353C54.694 72.7096 53.3665 71.6202 52.4325 70.2224C51.4985 68.8245 51 67.1811 51 65.5C51 63.8189 51.4985 62.1755 52.4325 60.7777C53.3665 59.3798 54.694 58.2904 56.2472 57.647C57.8004 57.0037 59.5094 56.8354 61.1583 57.1633C62.8071 57.4913 64.3217 58.3008 65.5104 59.4896L64.0962 60.9038C63.1872 59.9948 62.029 59.3757 60.7681 59.1249Z" fill="#092570"/>
</g>
<path id="Intersect" fill-rule="evenodd" clip-rule="evenodd" d="M37.9972 80.988C37.3711 81.2929 36.7497 81.5702 36.1347 81.8192C36.0226 81.6586 35.9121 81.4968 35.8031 81.3338C32.6715 76.647 31 71.1368 31 65.5C31 59.8633 32.6715 54.3531 35.8031 49.6663C38.9347 44.9795 43.3858 41.3265 48.5935 39.1694C53.8012 37.0123 59.5316 36.448 65.0601 37.5476C65.4107 37.6174 65.7595 37.6936 66.1063 37.7762C66.156 38.4454 66.1727 39.1374 66.1566 39.8497C65.6654 39.7222 65.1696 39.6086 64.6699 39.5092C59.5294 38.4867 54.2011 39.0115 49.3589 41.0172C44.5166 43.0229 40.3779 46.4195 37.4661 50.7774C34.5542 55.1353 33 60.2588 33 65.5C33 70.7412 34.5542 75.8647 37.4661 80.2226C37.6388 80.4812 37.8159 80.7363 37.9972 80.988ZM41.5123 79.0163C40.9354 79.3819 40.36 79.726 39.7871 80.0483C39.5608 79.7417 39.3414 79.4294 39.129 79.1115C36.4369 75.0825 35 70.3457 35 65.5C35 60.6544 36.4369 55.9175 39.129 51.8885C41.8211 47.8595 45.6475 44.7193 50.1243 42.865C54.601 41.0106 59.5272 40.5254 64.2797 41.4708C64.8687 41.5879 65.4517 41.7264 66.0277 41.8856C65.961 42.5395 65.8695 43.2071 65.7537 43.8866C65.1407 43.7092 64.5188 43.5575 63.8895 43.4323C59.525 42.5642 55.001 43.0098 50.8896 44.7127C46.7783 46.4157 43.2643 49.2996 40.7919 52.9997C38.3196 56.6998 37 61.0499 37 65.5C37 69.9501 38.3196 74.3002 40.7919 78.0003C41.0231 78.3462 41.2633 78.685 41.5123 79.0163ZM44.79 76.719C44.2532 77.1316 43.7157 77.5266 43.1783 77.9038C42.9275 77.5737 42.6862 77.2354 42.4549 76.8892C40.2023 73.518 39 69.5545 39 65.5C39 61.4455 40.2023 57.482 42.4549 54.1108C44.7074 50.7396 47.9091 48.1121 51.655 46.5605C55.4009 45.0089 59.5227 44.6029 63.4994 45.3939C64.1275 45.5189 64.7476 45.6728 65.3577 45.8547C65.2104 46.4925 65.043 47.1387 64.8559 47.7923C64.2828 47.6189 63.7 47.473 63.1092 47.3555C59.5205 46.6417 55.8008 47.008 52.4204 48.4082C49.0399 49.8085 46.1506 52.1797 44.1178 55.222C42.085 58.2643 41 61.8411 41 65.5C41 69.159 42.085 72.7358 44.1178 75.7781C44.3325 76.0993 44.5567 76.4131 44.79 76.719ZM47.8657 74.1541C47.363 74.6071 46.8579 75.0451 46.3512 75.4679C46.1535 75.2072 45.9633 74.9401 45.7808 74.6669C43.9677 71.9535 43 68.7634 43 65.5C43 62.2366 43.9677 59.0465 45.7808 56.3331C47.5938 53.6197 50.1707 51.5048 53.1857 50.256C56.2007 49.0071 59.5183 48.6804 62.719 49.317C63.2401 49.4207 63.7542 49.5491 64.2599 49.7015C64.0495 50.3245 63.8221 50.9528 63.5777 51.5852C63.1673 51.4649 62.7506 51.3625 62.3288 51.2786C59.5161 50.7191 56.6006 51.0063 53.9511 52.1038C51.3016 53.2012 49.037 55.0597 47.4437 57.4442C45.8504 59.8288 45 62.6322 45 65.5C45 68.3678 45.8504 71.1713 47.4437 73.5558C47.5795 73.7591 47.7203 73.9586 47.8657 74.1541ZM50.773 71.3387C50.2981 71.832 49.8194 72.3121 49.3377 72.7786C49.259 72.6687 49.1819 72.5573 49.1066 72.4446C47.7331 70.389 47 67.9723 47 65.5C47 63.0277 47.7331 60.611 49.1066 58.5554C50.4801 56.4998 52.4324 54.8976 54.7165 53.9515C57.0005 53.0054 59.5139 52.7579 61.9386 53.2402C62.2336 53.2989 62.5256 53.368 62.8142 53.4474C62.5484 54.0606 62.2672 54.6768 61.9708 55.2949C61.8309 55.261 61.6901 55.2299 61.5484 55.2018C59.5116 54.7966 57.4004 55.0046 55.4818 55.7993C53.5632 56.594 51.9233 57.9398 50.7696 59.6665C49.6158 61.3932 49 63.4233 49 65.5C49 67.5767 49.6158 69.6068 50.7696 71.3335C50.7707 71.3352 50.7719 71.337 50.773 71.3387ZM53.5889 68.2036C53.1251 68.7567 52.6559 69.297 52.182 69.824C51.4097 68.5169 51 67.024 51 65.5C51 63.8189 51.4985 62.1755 52.4325 60.7777C53.3665 59.3798 54.694 58.2904 56.2472 57.647C57.7641 57.0187 59.4298 56.8435 61.0427 57.1412C60.7138 57.7668 60.3696 58.3934 60.0103 59.0201C58.9912 58.9398 57.9636 59.1008 57.0126 59.4948C55.8248 59.9868 54.8097 60.8199 54.0954 61.8888C53.3812 62.9577 53 64.2144 53 65.5C53 66.437 53.2025 67.3587 53.5889 68.2036Z" fill="url(#paint8_linear_5891_16820)"/>
</g>
<defs>
<linearGradient id="paint0_linear_5891_16820" x1="145.09" y1="113.936" x2="102.31" y2="42.291" gradientUnits="userSpaceOnUse">
<stop stop-color="#0C2669"/>
<stop offset="1" stop-color="#4266C6"/>
</linearGradient>
<linearGradient id="paint1_linear_5891_16820" x1="132" y1="94.1805" x2="78.59" y2="2.14752" gradientUnits="userSpaceOnUse">
<stop stop-color="#0C2669"/>
<stop offset="0.184772" stop-color="#193787"/>
<stop offset="1" stop-color="#4166C6"/>
</linearGradient>
<linearGradient id="paint2_linear_5891_16820" x1="88.2276" y1="51.1178" x2="113.536" y2="51.1178" gradientUnits="userSpaceOnUse">
<stop stop-color="#FEA802"/>
<stop offset="0.226667" stop-color="#FFBA07"/>
<stop offset="0.50985" stop-color="#E48900"/>
<stop offset="0.692708" stop-color="#FFC062"/>
<stop offset="0.963542" stop-color="#CB7209"/>
</linearGradient>
<linearGradient id="paint3_linear_5891_16820" x1="86" y1="52.1392" x2="114.683" y2="52.1392" gradientUnits="userSpaceOnUse">
<stop stop-color="#FFF7AB" stop-opacity="0.68"/>
<stop offset="0.1875" stop-color="#FFF7AB"/>
<stop offset="0.572917" stop-color="#FFF7AB" stop-opacity="0"/>
</linearGradient>
<linearGradient id="paint4_linear_5891_16820" x1="83.8709" y1="51.9583" x2="105.488" y2="51.9583" gradientUnits="userSpaceOnUse">
<stop stop-color="#FEFEFE" stop-opacity="0.16"/>
<stop offset="0.504073" stop-color="white"/>
<stop offset="0.523385" stop-color="white" stop-opacity="0"/>
</linearGradient>
<linearGradient id="paint5_linear_5891_16820" x1="88.8273" y1="59.1416" x2="120.95" y2="59.1416" gradientUnits="userSpaceOnUse">
<stop stop-color="#FEA802"/>
<stop offset="0.226667" stop-color="#FFBA07"/>
<stop offset="0.50985" stop-color="#E48900"/>
<stop offset="0.692708" stop-color="#FFC062"/>
<stop offset="0.963542" stop-color="#CB7209"/>
</linearGradient>
<linearGradient id="paint6_linear_5891_16820" x1="86" y1="60.1847" x2="122.406" y2="60.1847" gradientUnits="userSpaceOnUse">
<stop stop-color="#FFF7AB" stop-opacity="0.68"/>
<stop offset="0.1875" stop-color="#FFF7AB"/>
<stop offset="0.572917" stop-color="#FFF7AB" stop-opacity="0"/>
</linearGradient>
<linearGradient id="paint7_linear_5891_16820" x1="83.2977" y1="60" x2="110.735" y2="60" gradientUnits="userSpaceOnUse">
<stop stop-color="#FEFEFE" stop-opacity="0.16"/>
<stop offset="0.504073" stop-color="white"/>
<stop offset="0.523385" stop-color="white" stop-opacity="0"/>
</linearGradient>
<linearGradient id="paint8_linear_5891_16820" x1="66" y1="66" x2="36.5" y2="33.5" gradientUnits="userSpaceOnUse">
<stop stop-color="white"/>
<stop offset="1" stop-color="white" stop-opacity="0.1"/>
</linearGradient>
</defs>
</svg>
