<svg width="160" height="140" viewBox="0 0 160 140" fill="none" xmlns="http://www.w3.org/2000/svg">
<g id="Icon-Tag-round">
<g id="cpid">
<path id="Union" fill-rule="evenodd" clip-rule="evenodd" d="M76.1 88V88.3H76V88.4H76.1V88.3H76.2V88.5H76V88.6H76.1V88.9H76V89H76.4V88.9H76.5V89H76.7V88.9H76.8V89H77V88.5H76.9V88.4H77V88.1H76.8V88H76.7V88.1H76.5V88H76.4V88.1H76.2V88H76.1ZM76.9 88.9H76.8V88.7H76.9V88.9ZM76.7 88.9H76.6V88.8H76.7V88.9ZM76.9 88.3V88.2H76.8V88.3H76.9ZM76.6 88.4V88.5H76.5V88.6H76.4V88.4H76.6Z" fill="#1E1E1E"/>
</g>
<g id="Group 1019">
<path id="Rectangle 1117 (Stroke)" fill-rule="evenodd" clip-rule="evenodd" d="M140.456 17.8995L114.556 43.799C112.018 46.3374 108.192 45.9203 106.071 43.799L104.657 45.2132C108.192 48.7487 113.042 48.1421 115.971 45.2132L141.87 19.3137L140.456 17.8995Z" fill="url(#paint0_linear_5988_18253)"/>
<path id="Intersect" opacity="0.3" fill-rule="evenodd" clip-rule="evenodd" d="M114.421 46.4394L114.056 44.2487C111.953 45.9428 109.179 45.8789 107.165 44.6552C106.949 45.1996 106.615 45.7511 106.099 46.3886C108.809 48.151 111.966 47.952 114.421 46.4394Z" fill="#00195A"/>
</g>
<path id="Subtract" fill-rule="evenodd" clip-rule="evenodd" d="M78 121C104.51 121 126 99.5097 126 73C126 46.4903 104.51 25 78 25C51.4903 25 30 46.4903 30 73C30 99.5097 51.4903 121 78 121ZM104 51C106.761 51 109 48.7614 109 46C109 43.2386 106.761 41 104 41C101.239 41 99 43.2386 99 46C99 48.7614 101.239 51 104 51Z" fill="url(#paint1_linear_5988_18253)"/>
<path id="Ellipse 29" d="M109 46C109 48.7614 106.761 51 104 51C101.239 51 99 48.7614 99 46C99 43.2386 101.239 41 104 41C106.761 41 109 43.2386 109 46Z" stroke="url(#paint2_linear_5988_18253)" stroke-width="2"/>
<g id="Group 1020" opacity="0.7">
<path id="Rectangle 506" d="M41 78L71 108L69 110L39 80L41 78Z" fill="#5A6E8C"/>
<path id="Rectangle 1125" d="M41 86L57 102L55 104L39 88L41 86Z" fill="#5A6E8C"/>
<path id="Rectangle 1126" d="M59 104L63 108L61 110L57 106L59 104Z" fill="#5A6E8C"/>
</g>
<g id="Group 1016" opacity="0.7">
<path id="Rectangle 280" d="M87 81L92 86L91 87L86 82L87 81Z" fill="#5A6E8C"/>
<path id="Rectangle 1123" d="M84 84L96 96L95 97L83 85L84 84Z" fill="#5A6E8C"/>
<path id="Rectangle 1125_2" d="M90 78L104 92L103 93L89 79L90 78Z" fill="#5A6E8C"/>
<path id="Rectangle 508" d="M94 88L108 102L107 103L93 89L94 88Z" fill="#5A6E8C"/>
<path id="Rectangle 1124" d="M98 98L104 104L103 105L97 99L98 98Z" fill="#5A6E8C"/>
<path id="Rectangle 1126_2" d="M106 94L109 97L108 98L105 95L106 94Z" fill="#5A6E8C"/>
</g>
<path id="Ellipse 33 (Stroke)" fill-rule="evenodd" clip-rule="evenodd" d="M83.3576 60.0657C80.7994 59.0061 77.9845 58.7288 75.2687 59.269C72.553 59.8092 70.0584 61.1426 68.1005 63.1005C66.1426 65.0585 64.8092 67.553 64.269 70.2687C63.7288 72.9845 64.0061 75.7994 65.0657 78.3576C66.1253 80.9157 67.9197 83.1022 70.222 84.6406C72.5243 86.1789 75.2311 87 78 87V97C73.2533 97 68.6131 95.5924 64.6663 92.9553C60.7195 90.3181 57.6434 86.5698 55.8269 82.1844C54.0104 77.799 53.5351 72.9734 54.4612 68.3178C55.3872 63.6623 57.673 59.3859 61.0294 56.0294C64.3859 52.673 68.6623 50.3872 73.3178 49.4612C77.9734 48.5351 82.799 49.0104 87.1844 50.8269C91.5698 52.6434 95.3181 55.7195 97.9553 59.6663C100.592 63.6131 102 68.2533 102 73H92C92 70.2311 91.1789 67.5243 89.6406 65.222C88.1022 62.9197 85.9157 61.1253 83.3576 60.0657Z" fill="url(#paint3_linear_5988_18253)"/>
<path id="Rectangle 1117 (Stroke)_2" fill-rule="evenodd" clip-rule="evenodd" d="M125.97 15.4142L106.071 35.3137C103.532 37.8521 103.95 41.6777 106.071 43.799L104.657 45.2132C101.121 41.6777 101.728 36.8284 104.657 33.8995L124.556 14L125.97 15.4142Z" fill="url(#paint4_linear_5988_18253)"/>
</g>
<defs>
<linearGradient id="paint0_linear_5988_18253" x1="104.722" y1="45.2783" x2="136" y2="14" gradientUnits="userSpaceOnUse">
<stop offset="0.165937" stop-color="#AABEC8"/>
<stop offset="0.748914" stop-color="#D6DEE3"/>
<stop offset="1" stop-color="#D6DEE3" stop-opacity="0"/>
</linearGradient>
<linearGradient id="paint1_linear_5988_18253" x1="96.7618" y1="99.919" x2="96.7618" y2="28.135" gradientUnits="userSpaceOnUse">
<stop stop-color="#C7D2DC"/>
<stop offset="0.257426" stop-color="#D4DCE4"/>
<stop offset="1" stop-color="#F0F3F4"/>
</linearGradient>
<linearGradient id="paint2_linear_5988_18253" x1="97.1093" y1="49.8246" x2="110.966" y2="49.8246" gradientUnits="userSpaceOnUse">
<stop stop-color="#F0920C"/>
<stop offset="0.203125" stop-color="#FFEF99"/>
<stop offset="0.364583" stop-color="#FEA802"/>
<stop offset="0.588542" stop-color="#B66413"/>
<stop offset="0.788693" stop-color="#FFB500"/>
<stop offset="1" stop-color="#A13100"/>
</linearGradient>
<linearGradient id="paint3_linear_5988_18253" x1="78" y1="97" x2="45.8182" y2="64.8182" gradientUnits="userSpaceOnUse">
<stop stop-color="#0073D2"/>
<stop offset="1" stop-color="#50B4FF"/>
</linearGradient>
<linearGradient id="paint4_linear_5988_18253" x1="104.592" y1="45.1481" x2="130" y2="19.7396" gradientUnits="userSpaceOnUse">
<stop offset="0.165937" stop-color="#AABEC8"/>
<stop offset="0.748914" stop-color="#D6DEE3"/>
<stop offset="1" stop-color="#D6DEE3" stop-opacity="0"/>
</linearGradient>
</defs>
</svg>
