<svg width="160" height="140" viewBox="0 0 160 140" fill="none" xmlns="http://www.w3.org/2000/svg">
<g id="Icon-Booklet-VIP">
<g id="Group 840">
<g id="cpid">
<path id="Union" fill-rule="evenodd" clip-rule="evenodd" d="M87.1 80V80.3H87V80.4H87.1V80.3H87.2V80.5H87V80.6H87.1V80.9H87V81H87.4V80.9H87.5V81H87.7V80.9H87.8V81H88V80.5H87.9V80.4H88V80.1H87.8V80H87.7V80.1H87.5V80H87.4V80.1H87.2V80H87.1ZM87.9 80.9H87.8V80.7H87.9V80.9ZM87.7 80.9H87.6V80.8H87.7V80.9ZM87.9 80.3V80.2H87.8V80.3H87.9ZM87.6 80.4V80.5H87.5V80.6H87.4V80.4H87.6Z" fill="#1E1E1E"/>
</g>
<path id="Rectangle 873" d="M32 37.4751C32 35.8182 33.1632 33.8035 34.5981 32.9751L64 15.9999V105.691L35.4641 122.166C33.5509 123.27 32 122.375 32 120.166V37.4751Z" fill="url(#paint0_linear_5268_14252)"/>
<path id="Rectangle 874" d="M96 34.4751L124.536 17.9999C126.449 16.8953 128 17.7908 128 19.9999V102.691C128 104.347 126.837 106.362 125.402 107.191L96 124.166V34.4751Z" fill="url(#paint1_linear_5268_14252)"/>
<rect id="Rectangle 875" width="36.9504" height="89.6907" transform="matrix(-0.866025 -0.5 0 1 96 34.4751)" fill="url(#paint2_linear_5268_14252)"/>
<g id="Vector">
<path fill-rule="evenodd" clip-rule="evenodd" d="M117.883 61.6114L122 64.4425C119.695 68.6942 116.565 72.1381 113.303 74.021C106.507 77.9449 101 74.1575 101 65.5648C101 56.9669 106.507 46.8205 113.303 42.8966C116.565 41.0138 119.695 40.8481 122 42.4332L117.883 50.0177C116.712 49.2121 115.09 49.2318 113.303 50.2633C109.722 52.3311 106.819 57.6745 106.819 62.2053C106.819 66.7309 109.722 68.7274 113.303 66.6597C115.09 65.6282 116.712 63.7748 117.883 61.6114Z" fill="url(#paint3_linear_5268_14252)"/>
<path fill-rule="evenodd" clip-rule="evenodd" d="M117.883 61.6114L122 64.4425C119.695 68.6942 116.565 72.1381 113.303 74.021C106.507 77.9449 101 74.1575 101 65.5648C101 56.9669 106.507 46.8205 113.303 42.8966C116.565 41.0138 119.695 40.8481 122 42.4332L117.883 50.0177C116.712 49.2121 115.09 49.2318 113.303 50.2633C109.722 52.3311 106.819 57.6745 106.819 62.2053C106.819 66.7309 109.722 68.7274 113.303 66.6597C115.09 65.6282 116.712 63.7748 117.883 61.6114Z" fill="url(#paint4_linear_5268_14252)"/>
<path fill-rule="evenodd" clip-rule="evenodd" d="M117.883 61.6114L122 64.4425C119.695 68.6942 116.565 72.1381 113.303 74.021C106.507 77.9449 101 74.1575 101 65.5648C101 56.9669 106.507 46.8205 113.303 42.8966C116.565 41.0138 119.695 40.8481 122 42.4332L117.883 50.0177C116.712 49.2121 115.09 49.2318 113.303 50.2633C109.722 52.3311 106.819 57.6745 106.819 62.2053C106.819 66.7309 109.722 68.7274 113.303 66.6597C115.09 65.6282 116.712 63.7748 117.883 61.6114Z" fill="url(#paint5_linear_5268_14252)" fill-opacity="0.5"/>
</g>
<g id="Group 833" opacity="0.8">
<g id="Group 647">
<rect id="Rectangle 506" width="18.4752" height="3" transform="matrix(0.866025 0.5 0 -1 68 75.8566)" fill="white"/>
</g>
<g id="Group 660">
<rect id="Rectangle 506_2" width="27.7128" height="3" transform="matrix(0.866025 0.5 0 -1 68 69.0002)" fill="white"/>
</g>
</g>
<g id="Vector_2">
<path d="M124 83L100 96.8564V99.8564L124 86V83Z" fill="url(#paint6_linear_5268_14252)"/>
<path d="M124 83L100 96.8564V99.8564L124 86V83Z" fill="url(#paint7_linear_5268_14252)"/>
<path d="M121 98.7319L103 109.124V112.124L121 101.732V98.7319Z" fill="url(#paint8_linear_5268_14252)"/>
<path d="M121 98.7319L103 109.124V112.124L121 101.732V98.7319Z" fill="url(#paint9_linear_5268_14252)"/>
<path d="M118 93.4641L107 99.815V102.815L118 96.4641V93.4641Z" fill="url(#paint10_linear_5268_14252)"/>
<path d="M118 93.4641L107 99.815V102.815L118 96.4641V93.4641Z" fill="url(#paint11_linear_5268_14252)"/>
</g>
<g id="Group 834">
<path id="Rectangle 641" d="M68 27.0001L92 40.8565V66.0001L68 52.1437V27.0001Z" fill="url(#paint12_linear_5268_14252)"/>
<path id="Vector_3" opacity="0.67" d="M76.4015 45.1222C76.2698 45.0785 76.1479 45.1039 76.0675 45.2114L70 53.2984L83 60.804L76.9325 45.7107C76.8521 45.5111 76.7297 45.3441 76.598 45.2357C76.5653 45.2089 76.5327 45.1979 76.5 45.1791C76.4668 45.1599 76.4341 45.1338 76.4015 45.1222Z" fill="#00195A"/>
<path id="Vector_4" d="M82.3712 44.8805C82.1989 44.8235 82.0396 44.857 81.9345 44.9979L74 55.6079L91 65.4228L83.0655 45.651C82.9604 45.3895 82.8004 45.1707 82.6282 45.0289C82.5854 44.9938 82.5427 44.9795 82.5 44.9549C82.4566 44.9298 82.4139 44.8956 82.3712 44.8805Z" fill="#005AB4"/>
<ellipse id="Ellipse 193" rx="2.88675" ry="3.15521" transform="matrix(0.866025 0.5 0 1 73.5 36.5987)" fill="#FFC730"/>
</g>
<path id="Intersect" opacity="0.5" fill-rule="evenodd" clip-rule="evenodd" d="M90.4917 120.986L64 16.0001V105.691L90.4917 120.986Z" fill="#00195A"/>
<g id="Star 1">
<path d="M48 81.1964L50.0206 88.1861L56.5595 84.4108L51.2694 92.5059L53.2901 99.4955L48 97.5089L42.7099 105.604L44.7306 96.2811L39.4405 94.2945L45.9794 90.5193L48 81.1964Z" fill="url(#paint13_linear_5268_14252)"/>
<path d="M48 81.1964L50.0206 88.1861L56.5595 84.4108L51.2694 92.5059L53.2901 99.4955L48 97.5089L42.7099 105.604L44.7306 96.2811L39.4405 94.2945L45.9794 90.5193L48 81.1964Z" fill="url(#paint14_linear_5268_14252)"/>
<path d="M48 81.1964L50.0206 88.1861L56.5595 84.4108L51.2694 92.5059L53.2901 99.4955L48 97.5089L42.7099 105.604L44.7306 96.2811L39.4405 94.2945L45.9794 90.5193L48 81.1964Z" fill="url(#paint15_linear_5268_14252)" fill-opacity="0.5"/>
</g>
<g id="Group 742" opacity="0.7">
<g id="Group 647_2">
<rect id="Rectangle 506_3" width="27.7128" height="3" transform="matrix(0.866025 -0.5 0 1 36 41.8565)" fill="white"/>
</g>
<g id="Group 660_2">
<rect id="Rectangle 506_4" width="23.094" height="3" transform="matrix(0.866025 -0.5 0 1 36 48.713)" fill="white"/>
</g>
</g>
<g id="Group 745" opacity="0.7">
<rect id="Rectangle 280" width="9.2376" height="2" transform="matrix(0.866025 -0.5 0 1 36 61.8564)" fill="white"/>
<rect id="Rectangle 508" width="4.6188" height="2" transform="matrix(0.866025 -0.5 0 1 46 56.0829)" fill="white"/>
<rect id="Rectangle 509" width="9.2376" height="2" transform="matrix(0.866025 -0.5 0 1 52 52.6188)" fill="white"/>
<rect id="Rectangle 506_5" width="12.7017" height="2" transform="matrix(0.866025 -0.5 0 1 36 66.8564)" fill="white"/>
<rect id="Rectangle 510" width="10.3923" height="2" transform="matrix(0.866025 -0.5 0 1 49 59.3509)" fill="white"/>
<rect id="Rectangle 507" width="6.9282" height="2" transform="matrix(0.866025 -0.5 0 1 36 71.8564)" fill="white"/>
<rect id="Rectangle 514" width="4.6188" height="2" transform="matrix(0.866025 -0.5 0 1 36 76.8564)" fill="white"/>
<rect id="Rectangle 515" width="5.7735" height="2" transform="matrix(0.866025 -0.5 0 1 42.0002 73.3923)" fill="white"/>
<rect id="Rectangle 517" width="8.0829" height="2" transform="matrix(0.866025 -0.5 0 1 49 69.3509)" fill="white"/>
<rect id="Rectangle 512" width="9.2376" height="2" transform="matrix(0.866025 -0.5 0 1 44 67.2376)" fill="white"/>
<rect id="Rectangle 513" width="6.9282" height="2" transform="matrix(0.866025 -0.5 0 1 54 61.4641)" fill="white"/>
</g>
</g>
</g>
<defs>
<linearGradient id="paint0_linear_5268_14252" x1="64" y1="100.5" x2="17.6591" y2="85.4463" gradientUnits="userSpaceOnUse">
<stop stop-color="#0C2669"/>
<stop offset="1" stop-color="#3357B6"/>
</linearGradient>
<linearGradient id="paint1_linear_5268_14252" x1="128" y1="100.5" x2="81.6591" y2="85.4463" gradientUnits="userSpaceOnUse">
<stop stop-color="#0C2669"/>
<stop offset="1" stop-color="#3357B6"/>
</linearGradient>
<linearGradient id="paint2_linear_5268_14252" x1="36.9504" y1="84.5001" x2="-23.0686" y2="56.7899" gradientUnits="userSpaceOnUse">
<stop stop-color="#00195A"/>
<stop offset="1" stop-color="#082A83"/>
</linearGradient>
<linearGradient id="paint3_linear_5268_14252" x1="109.75" y1="49.5798" x2="103.656" y2="75.355" gradientUnits="userSpaceOnUse">
<stop stop-color="#FEA802"/>
<stop offset="0.226667" stop-color="#FFBA07"/>
<stop offset="0.50985" stop-color="#E48900"/>
<stop offset="0.692708" stop-color="#FFC062"/>
<stop offset="0.963542" stop-color="#CB7209"/>
</linearGradient>
<linearGradient id="paint4_linear_5268_14252" x1="113.25" y1="43.1408" x2="107.706" y2="67.5641" gradientUnits="userSpaceOnUse">
<stop stop-color="#FFF7AB" stop-opacity="0.68"/>
<stop offset="0.1875" stop-color="#FFF7AB"/>
<stop offset="0.572917" stop-color="#FFF7AB" stop-opacity="0"/>
</linearGradient>
<linearGradient id="paint5_linear_5268_14252" x1="112" y1="46.5" x2="117.662" y2="61.9408" gradientUnits="userSpaceOnUse">
<stop stop-color="#FEFEFE" stop-opacity="0.16"/>
<stop offset="0.504073" stop-color="white"/>
<stop offset="0.523385" stop-color="white" stop-opacity="0"/>
</linearGradient>
<linearGradient id="paint6_linear_5268_14252" x1="102.056" y1="91.3118" x2="125.418" y2="91.3118" gradientUnits="userSpaceOnUse">
<stop stop-color="#FEA802"/>
<stop offset="0.226667" stop-color="#FFBA07"/>
<stop offset="0.50985" stop-color="#E48900"/>
<stop offset="0.692708" stop-color="#FFC062"/>
<stop offset="0.963542" stop-color="#CB7209"/>
</linearGradient>
<linearGradient id="paint7_linear_5268_14252" x1="100" y1="98.9071" x2="126.477" y2="98.9071" gradientUnits="userSpaceOnUse">
<stop stop-color="#FFF7AB" stop-opacity="0.68"/>
<stop offset="0.1875" stop-color="#FFF7AB"/>
<stop offset="0.572917" stop-color="#FFF7AB" stop-opacity="0"/>
</linearGradient>
<linearGradient id="paint8_linear_5268_14252" x1="102.056" y1="91.3118" x2="125.418" y2="91.3118" gradientUnits="userSpaceOnUse">
<stop stop-color="#FEA802"/>
<stop offset="0.226667" stop-color="#FFBA07"/>
<stop offset="0.50985" stop-color="#E48900"/>
<stop offset="0.692708" stop-color="#FFC062"/>
<stop offset="0.963542" stop-color="#CB7209"/>
</linearGradient>
<linearGradient id="paint9_linear_5268_14252" x1="100" y1="98.9071" x2="126.477" y2="98.9071" gradientUnits="userSpaceOnUse">
<stop stop-color="#FFF7AB" stop-opacity="0.68"/>
<stop offset="0.1875" stop-color="#FFF7AB"/>
<stop offset="0.572917" stop-color="#FFF7AB" stop-opacity="0"/>
</linearGradient>
<linearGradient id="paint10_linear_5268_14252" x1="102.056" y1="91.3118" x2="125.418" y2="91.3118" gradientUnits="userSpaceOnUse">
<stop stop-color="#FEA802"/>
<stop offset="0.226667" stop-color="#FFBA07"/>
<stop offset="0.50985" stop-color="#E48900"/>
<stop offset="0.692708" stop-color="#FFC062"/>
<stop offset="0.963542" stop-color="#CB7209"/>
</linearGradient>
<linearGradient id="paint11_linear_5268_14252" x1="100" y1="98.9071" x2="126.477" y2="98.9071" gradientUnits="userSpaceOnUse">
<stop stop-color="#FFF7AB" stop-opacity="0.68"/>
<stop offset="0.1875" stop-color="#FFF7AB"/>
<stop offset="0.572917" stop-color="#FFF7AB" stop-opacity="0"/>
</linearGradient>
<linearGradient id="paint12_linear_5268_14252" x1="70.5" y1="54.0001" x2="79.2572" y2="32.3466" gradientUnits="userSpaceOnUse">
<stop stop-color="#007DEB"/>
<stop offset="1" stop-color="#50B4FF"/>
</linearGradient>
<linearGradient id="paint13_linear_5268_14252" x1="46.5" y1="85.5755" x2="44.2636" y2="104.034" gradientUnits="userSpaceOnUse">
<stop stop-color="#FEA802"/>
<stop offset="0.226667" stop-color="#FFBA07"/>
<stop offset="0.50985" stop-color="#E48900"/>
<stop offset="0.692708" stop-color="#FFC062"/>
<stop offset="0.963542" stop-color="#CB7209"/>
</linearGradient>
<linearGradient id="paint14_linear_5268_14252" x1="49.5" y1="80.4922" x2="46.9281" y2="99.6259" gradientUnits="userSpaceOnUse">
<stop stop-color="#FFF7AB" stop-opacity="0.68"/>
<stop offset="0.1875" stop-color="#FFF7AB"/>
<stop offset="0.572917" stop-color="#FFF7AB" stop-opacity="0"/>
</linearGradient>
<linearGradient id="paint15_linear_5268_14252" x1="50.25" y1="86.4451" x2="52.4614" y2="93.462" gradientUnits="userSpaceOnUse">
<stop stop-color="#FEFEFE" stop-opacity="0.16"/>
<stop offset="0.504073" stop-color="white"/>
<stop offset="0.523385" stop-color="white" stop-opacity="0"/>
</linearGradient>
</defs>
</svg>
