<svg width="160" height="140" viewBox="0 0 160 140" fill="none" xmlns="http://www.w3.org/2000/svg">
<path fill-rule="evenodd" clip-rule="evenodd" d="M97.1 111V111.3H97V111.4H97.1V111.3H97.2V111.5H97V111.6H97.1V111.9H97V112H97.4V111.9H97.5V112H97.7V111.9H97.8V112H98V111.5H97.9V111.4H98V111.1H97.8V111H97.7V111.1H97.5V111H97.4V111.1H97.2V111H97.1ZM97.9 111.9H97.8V111.7H97.9V111.9ZM97.7 111.9H97.6V111.8H97.7V111.9ZM97.9 111.3V111.2H97.8V111.3H97.9ZM97.6 111.4V111.5H97.5V111.6H97.4V111.4H97.6Z" fill="#1E1E1E"/>
<rect x="38" y="33" width="5" height="12" rx="2" fill="url(#paint0_linear_5000_13479)"/>
<rect x="38" y="97" width="5" height="12" rx="2" fill="url(#paint1_linear_5000_13479)"/>
<path d="M121 21H83C81.3431 21 80 22.3431 80 24V118C80 119.657 81.3431 121 83 121H121C122.657 121 124 119.657 124 118V24C124 22.3431 122.657 21 121 21Z" fill="#F1F2F0"/>
<path d="M113 21H75C73.3431 21 72 22.3431 72 24V118C72 119.657 73.3431 121 75 121H113C114.657 121 116 119.657 116 118V24C116 22.3431 114.657 21 113 21Z" fill="white"/>
<path d="M69 21H113C114.657 21 116 22.3431 116 24V56H69V21Z" fill="url(#paint2_linear_5000_13479)"/>
<path opacity="0.2" d="M118 121H119C120.657 121 122 119.657 122 118V24C122 22.3431 120.657 21 119 21H118C119.657 21 121 22.3431 121 24V118C121 119.657 119.657 121 118 121Z" fill="#191919"/>
<path opacity="0.2" d="M115 121H116C117.657 121 119 119.657 119 118V24C119 22.3431 117.657 21 116 21H115C116.657 21 118 22.3431 118 24V118C118 119.657 116.657 121 115 121Z" fill="#191919"/>
<path d="M91 56H116V118C116 119.657 114.657 121 113 121H91V56Z" fill="url(#paint3_linear_5000_13479)"/>
<path d="M40 21V121L90.5 121C92.5 121 97.5 120 99 116L114.5 61C114.761 59.3244 114.871 58.2072 114.932 57H115V24C115 22.3431 113.657 21 112 21H40Z" fill="url(#paint4_linear_5000_13479)"/>
<path fill-rule="evenodd" clip-rule="evenodd" d="M91.1347 99.0756C90.4416 100.21 90.6454 101.645 91.5857 102.586L97 108C99.5 110.5 99.6129 114 99 116L114 66C115 62 115.003 57.9099 115 55C114.92 59.3527 113.854 62.3042 112 65.5C105.901 76.0108 94.9796 92.7798 91.1347 99.0756Z" fill="url(#paint5_linear_5000_13479)"/>
<path fill-rule="evenodd" clip-rule="evenodd" d="M85.747 71.1949L93 78.5571C88.9392 82.6866 83.4234 85 77.6774 85C65.7028 85 56 75.1511 56 63.0038C56 50.8489 65.7028 41 77.6774 41C83.4234 41 88.9392 43.3209 93 47.4429L85.747 54.8051C83.6832 52.7102 80.825 51.4141 77.6774 51.4141C71.3672 51.4141 66.2522 56.5986 66.2522 63.0038C66.2522 69.4014 71.3672 74.5934 77.6774 74.5934C80.825 74.5934 83.6832 73.2973 85.747 71.1949Z" fill="url(#paint6_linear_5000_13479)"/>
<rect opacity="0.8" x="63" y="93" width="25" height="2" fill="#00195A"/>
<rect opacity="0.8" x="63" y="98" width="25" height="2" fill="#00195A"/>
<path d="M40 21H53V121H40V21Z" fill="url(#paint7_linear_5000_13479)"/>
<defs>
<linearGradient id="paint0_linear_5000_13479" x1="40.5" y1="45" x2="37.0838" y2="34.111" gradientUnits="userSpaceOnUse">
<stop stop-color="#5A6E8C"/>
<stop offset="1" stop-color="#AABEC8"/>
</linearGradient>
<linearGradient id="paint1_linear_5000_13479" x1="40.5" y1="109" x2="37.0838" y2="98.111" gradientUnits="userSpaceOnUse">
<stop stop-color="#5A6E8C"/>
<stop offset="1" stop-color="#AABEC8"/>
</linearGradient>
<linearGradient id="paint2_linear_5000_13479" x1="92.5" y1="21" x2="92.5" y2="56" gradientUnits="userSpaceOnUse">
<stop stop-color="#1E1E1E" stop-opacity="0.2"/>
<stop offset="1" stop-color="#191919" stop-opacity="0.1"/>
</linearGradient>
<linearGradient id="paint3_linear_5000_13479" x1="117" y1="104" x2="103.087" y2="102.291" gradientUnits="userSpaceOnUse">
<stop offset="0.0104167" stop-color="#333333" stop-opacity="0"/>
<stop offset="0.948426" stop-color="#333333" stop-opacity="0.25"/>
</linearGradient>
<linearGradient id="paint4_linear_5000_13479" x1="112.893" y1="87" x2="30.0071" y2="41.2411" gradientUnits="userSpaceOnUse">
<stop stop-color="#0073D2"/>
<stop offset="1" stop-color="#50B4FF"/>
</linearGradient>
<linearGradient id="paint5_linear_5000_13479" x1="93" y1="94" x2="105" y2="99" gradientUnits="userSpaceOnUse">
<stop offset="0.234375" stop-color="white"/>
<stop offset="0.734375" stop-color="#B6C1CC"/>
<stop offset="1" stop-color="#F3F3F3"/>
</linearGradient>
<linearGradient id="paint6_linear_5000_13479" x1="59.5238" y1="49.9796" x2="93.5669" y2="84.4399" gradientUnits="userSpaceOnUse">
<stop stop-color="white"/>
<stop offset="1" stop-color="#AABEC8"/>
</linearGradient>
<linearGradient id="paint7_linear_5000_13479" x1="40" y1="67.25" x2="47" y2="67.25" gradientUnits="userSpaceOnUse">
<stop stop-color="#50B4FF" stop-opacity="0"/>
<stop offset="0.339527" stop-color="#50B4FF"/>
<stop offset="0.961877" stop-color="#50B4FF" stop-opacity="0"/>
</linearGradient>
</defs>
</svg>
