<svg width="160" height="140" viewBox="0 0 160 140" fill="none" xmlns="http://www.w3.org/2000/svg">
<path fill-rule="evenodd" clip-rule="evenodd" d="M72.1 28V28.3H72V28.4H72.1V28.3H72.2V28.5H72V28.6H72.1V28.9H72V29H72.4V28.9H72.5V29H72.7V28.9H72.8V29H73V28.5H72.9V28.4H73V28.1H72.8V28H72.7V28.1H72.5V28H72.4V28.1H72.2V28H72.1ZM72.9 28.9H72.8V28.7H72.9V28.9ZM72.7 28.9H72.6V28.8H72.7V28.9ZM72.9 28.3V28.2H72.8V28.3H72.9ZM72.6 28.4V28.5H72.5V28.6H72.4V28.4H72.6Z" fill="#1E1E1E"/>
<path fill-rule="evenodd" clip-rule="evenodd" d="M106.068 47.4896C78.8297 31.7946 47.6858 34.7352 36.5088 54.057C25.3318 73.3788 38.3509 101.768 65.5897 117.459C92.8285 133.154 123.972 130.214 135.149 110.892C146.326 91.5699 133.307 63.181 106.068 47.4896Z" fill="#191919" fill-opacity="0.14"/>
<path fill-rule="evenodd" clip-rule="evenodd" d="M97.2525 38.6652C70.0486 22.9584 38.9482 25.9012 27.782 45.2411C16.6193 64.5774 29.6216 92.9841 56.8256 108.691C84.0295 124.398 115.133 121.455 126.296 102.118C137.462 82.7786 124.46 54.3719 97.2525 38.6652Z" fill="url(#paint0_linear_3916_13621)"/>
<path fill-rule="evenodd" clip-rule="evenodd" d="M99.8755 32.8509C72.6716 17.1441 41.5677 20.0869 30.4015 39.4232C19.2388 58.7595 32.2411 87.1697 59.4451 102.873C86.649 118.58 117.753 115.637 128.919 96.3006C140.082 76.9643 127.079 48.554 99.8755 32.8509Z" fill="url(#paint1_linear_3916_13621)"/>
<path fill-rule="evenodd" clip-rule="evenodd" d="M94.4722 25.9795C67.2683 10.2727 36.1644 13.2155 25.0017 32.5518C13.8354 51.8917 26.8378 80.2983 54.0417 96.0051C81.2457 111.712 112.35 108.765 123.516 89.4292C134.679 70.0929 121.676 41.6862 94.4722 25.9795Z" fill="url(#paint2_linear_3916_13621)"/>
<path fill-rule="evenodd" clip-rule="evenodd" d="M87.416 16.69C63.0125 6.87241 36.6342 13.3095 28.0442 28.1872C19.4542 43.0648 23.8453 57.7076 34.702 72.1262L87.416 16.69Z" fill="#D6DEE3"/>
<path d="M79.9967 14.2059C82.7052 14.883 88.2716 16.2746 97.515 21.6115C99.2152 22.5931 100.86 23.6244 102.447 24.7C126.25 40.834 137.027 66.937 126.559 85.0648C125.163 87.4818 123.456 89.6427 121.484 91.543C107.681 104.845 80.8915 105.381 57.088 91.6371C57.0657 91.6242 57.0433 91.6112 57.0209 91.5983C49.7128 87.3691 43.4421 82.2153 38.3787 76.5794C35.5429 73.4769 32.9508 70.1021 30.7969 66.5152C26.8984 60.0227 28.5058 57.4945 30.0808 56.1446L60.9133 40.1222L71.7559 14.7105C72.798 12.2715 77.2774 13.526 79.9795 14.2016L79.9967 14.2059Z" fill="url(#paint3_linear_3916_13621)"/>
<path fill-rule="evenodd" clip-rule="evenodd" d="M90.6506 70.1796L101.04 80.569C95.2232 86.3965 87.3221 89.6611 79.0914 89.6611C61.9387 89.6611 48.04 75.7624 48.04 58.6204C48.04 41.4677 61.9387 27.569 79.0914 27.569C87.3221 27.569 95.2232 30.8443 101.04 36.6611L90.6506 47.0505C87.6943 44.0943 83.6002 42.2652 79.0914 42.2652C70.0525 42.2652 62.7256 49.5814 62.7256 58.6204C62.7256 67.6487 70.0525 74.9755 79.0914 74.9755C83.6002 74.9755 87.6943 73.1465 90.6506 70.1796Z" fill="url(#paint4_linear_3916_13621)"/>
<path d="M52.2983 88.6427C58.5239 83.4097 64.5448 76.8321 69.8709 69.1537C82.9825 50.2511 88.3697 29.7416 85.1903 15.7501C82.8787 14.9264 81.1697 14.4991 79.9967 14.2059L79.9795 14.2016C79.8601 14.1717 79.7371 14.1407 79.6111 14.1089C76.888 13.4223 72.7519 12.3794 71.7559 14.7105L60.9133 40.1222L30.0808 56.1446C28.5058 57.4945 26.8984 60.0227 30.7969 66.5152C32.9508 70.1021 35.5429 73.4769 38.3787 76.5794C42.3154 80.9613 46.9819 85.0517 52.2983 88.6427Z" fill="url(#paint5_radial_3916_13621)"/>
<path fill-rule="evenodd" clip-rule="evenodd" d="M65.4377 46.6203C78.2622 33.0498 69.2321 17.0202 72.2918 13.9605L29.3532 56.8764C34.7266 51.5502 52.6039 60.1813 65.4377 46.6203Z" fill="url(#paint6_linear_3916_13621)"/>
<defs>
<linearGradient id="paint0_linear_3916_13621" x1="38.4559" y1="80.3268" x2="145.357" y2="89.1711" gradientUnits="userSpaceOnUse">
<stop stop-color="#004495"/>
<stop offset="1" stop-color="#00195A"/>
</linearGradient>
<linearGradient id="paint1_linear_3916_13621" x1="38.9941" y1="87.6329" x2="142.049" y2="84.5567" gradientUnits="userSpaceOnUse">
<stop stop-color="#005AB4"/>
<stop offset="1" stop-color="#003C8A"/>
</linearGradient>
<linearGradient id="paint2_linear_3916_13621" x1="21" y1="29.03" x2="115.132" y2="99.7844" gradientUnits="userSpaceOnUse">
<stop stop-color="#0073D2"/>
<stop offset="1" stop-color="#005AB4"/>
</linearGradient>
<linearGradient id="paint3_linear_3916_13621" x1="122.333" y1="110.797" x2="104.659" y2="28.5399" gradientUnits="userSpaceOnUse">
<stop stop-color="#0073D2"/>
<stop offset="1" stop-color="#50B4FF"/>
</linearGradient>
<linearGradient id="paint4_linear_3916_13621" x1="84.0446" y1="51.268" x2="106.382" y2="113.316" gradientUnits="userSpaceOnUse">
<stop stop-color="white"/>
<stop offset="1" stop-color="#AABEC8"/>
</linearGradient>
<radialGradient id="paint5_radial_3916_13621" cx="0" cy="0" r="1" gradientUnits="userSpaceOnUse" gradientTransform="translate(43.2482 50.6871) rotate(124.747) scale(58.8678 32.4003)">
<stop stop-color="#00195A" stop-opacity="0.62"/>
<stop offset="1" stop-color="#00195A" stop-opacity="0"/>
</radialGradient>
<linearGradient id="paint6_linear_3916_13621" x1="64.7276" y1="48.7808" x2="53.6484" y2="37.7016" gradientUnits="userSpaceOnUse">
<stop stop-color="#AABEC8"/>
<stop offset="0.423237" stop-color="#AABEC8"/>
<stop offset="1" stop-color="white"/>
</linearGradient>
</defs>
</svg>
