<svg width="160" height="140" viewBox="0 0 160 140" fill="none" xmlns="http://www.w3.org/2000/svg">
<path d="M32 36.4751C32 34.8182 33.1632 32.8035 34.5981 31.9751L64 14.9999V104.691L35.4641 121.166C33.5509 122.27 32 121.375 32 119.166V36.4751Z" fill="url(#paint0_linear_5268_14253)"/>
<path d="M96 33.4751L124.536 16.9999C126.449 15.8953 128 16.7908 128 18.9999V101.691C128 103.347 126.837 105.362 125.402 106.191L96 123.166V33.4751Z" fill="url(#paint1_linear_5268_14253)"/>
<rect width="36.9504" height="89.6907" transform="matrix(-0.866025 -0.5 0 1 96 33.4751)" fill="url(#paint2_linear_5268_14253)"/>
<path fill-rule="evenodd" clip-rule="evenodd" d="M119.295 59.3914L124 62.2039C121.366 66.8257 117.788 70.6287 114.061 72.7805C106.294 77.265 100 73.5025 100 64.3804C100 55.2526 106.294 44.2228 114.061 39.7383C117.788 37.5865 121.366 37.2637 124 38.8384L119.295 47.0833C117.957 46.2831 116.103 46.3801 114.061 47.5589C109.968 49.922 106.65 55.7309 106.65 60.5409C106.65 65.3453 109.968 67.3288 114.061 64.9656C116.103 63.7868 117.957 61.7431 119.295 59.3914Z" fill="url(#paint3_linear_5268_14253)"/>
<rect width="27.7128" height="23.2859" transform="matrix(0.866025 -0.5 0 1 36 90.8564)" fill="url(#paint4_linear_5268_14253)"/>
<g opacity="0.7">
<rect width="27.7128" height="3" transform="matrix(0.866025 -0.5 0 1 36 41.8564)" fill="#5A6E8C"/>
<rect width="23.094" height="3" transform="matrix(0.866025 -0.5 0 1 36 48.7128)" fill="#5A6E8C"/>
</g>
<g opacity="0.4">
<rect width="18.4752" height="3" transform="matrix(0.866025 0.5 0 -1 68 99.8561)" fill="#5A6E8C"/>
<rect width="27.7128" height="3" transform="matrix(0.866025 0.5 0 -1 68 92.9997)" fill="#5A6E8C"/>
</g>
<g opacity="0.7">
<rect width="27.7128" height="3" transform="matrix(-0.866025 0.5 0 1 124 75)" fill="white"/>
<rect width="20.7846" height="3" transform="matrix(-0.866025 0.5 0 1 121 90.7321)" fill="white"/>
<rect width="12.7017" height="3" transform="matrix(-0.866025 0.5 0 1 118 85.4642)" fill="white"/>
</g>
<g opacity="0.7">
<rect width="9.2376" height="2" transform="matrix(0.866025 -0.5 0 1 36 60.8564)" fill="#5A6E8C"/>
<rect width="4.6188" height="2" transform="matrix(0.866025 -0.5 0 1 46 55.0829)" fill="#5A6E8C"/>
<rect width="9.2376" height="2" transform="matrix(0.866025 -0.5 0 1 52 51.6188)" fill="#5A6E8C"/>
<rect width="12.7017" height="2" transform="matrix(0.866025 -0.5 0 1 36 65.8564)" fill="#5A6E8C"/>
<rect width="10.3923" height="2" transform="matrix(0.866025 -0.5 0 1 49 58.3509)" fill="#5A6E8C"/>
<rect width="6.9282" height="2" transform="matrix(0.866025 -0.5 0 1 36 70.8564)" fill="#5A6E8C"/>
<rect width="4.6188" height="2" transform="matrix(0.866025 -0.5 0 1 36 75.8564)" fill="#5A6E8C"/>
<rect width="5.7735" height="2" transform="matrix(0.866025 -0.5 0 1 42.0002 72.3923)" fill="#5A6E8C"/>
<rect width="8.0829" height="2" transform="matrix(0.866025 -0.5 0 1 49 68.3509)" fill="#5A6E8C"/>
<rect width="9.2376" height="2" transform="matrix(0.866025 -0.5 0 1 44 66.2376)" fill="#5A6E8C"/>
<rect width="6.9282" height="2" transform="matrix(0.866025 -0.5 0 1 54 60.4641)" fill="#5A6E8C"/>
</g>
<rect width="10.3923" height="12.0625" transform="matrix(0.866025 0.5 0 -1 68 58.908)" fill="url(#paint5_linear_5268_14253)"/>
<rect width="10.3923" height="12.0625" transform="matrix(0.866025 0.5 0 -1 68 40.0625)" fill="url(#paint6_linear_5268_14253)"/>
<g opacity="0.4">
<rect width="13.8564" height="2" transform="matrix(0.866025 0.5 0 -1 80 65.8667)" fill="#5A6E8C"/>
<rect width="9.2376" height="2" transform="matrix(0.866025 0.5 0 -1 80 60.8667)" fill="#5A6E8C"/>
<rect width="11.547" height="2" transform="matrix(0.866025 0.5 0 -1 80 55.6297)" fill="#5A6E8C"/>
</g>
<g opacity="0.4">
<rect width="10.3923" height="2" transform="matrix(0.866025 0.5 0 -1 80 47.0213)" fill="#5A6E8C"/>
<rect width="13.8564" height="2" transform="matrix(0.866025 0.5 0 -1 80 42.0213)" fill="#5A6E8C"/>
<rect width="13.8564" height="2" transform="matrix(0.866025 0.5 0 -1 80 36.7842)" fill="#5A6E8C"/>
</g>
<path opacity="0.2" fill-rule="evenodd" clip-rule="evenodd" d="M90.4917 119.986L64 15V104.691L90.4917 119.986Z" fill="#5A6E8C"/>
<defs>
<linearGradient id="paint0_linear_5268_14253" x1="70.5" y1="63.1514" x2="28.9759" y2="31.5599" gradientUnits="userSpaceOnUse">
<stop stop-color="#9FB2C9"/>
<stop offset="1" stop-color="#D9E1E6"/>
</linearGradient>
<linearGradient id="paint1_linear_5268_14253" x1="96" y1="34" x2="131.5" y2="92" gradientUnits="userSpaceOnUse">
<stop stop-color="#50B4FF"/>
<stop offset="0.98838" stop-color="#005AB4"/>
</linearGradient>
<linearGradient id="paint2_linear_5268_14253" x1="2.88675" y1="80.9682" x2="50.858" y2="-2.52582" gradientUnits="userSpaceOnUse">
<stop stop-color="#DCE8EE"/>
<stop offset="1" stop-color="#F4F7F9"/>
</linearGradient>
<linearGradient id="paint3_linear_5268_14253" x1="102.286" y1="53.2801" x2="124.498" y2="66.186" gradientUnits="userSpaceOnUse">
<stop stop-color="white"/>
<stop offset="1" stop-color="#AABEC8"/>
</linearGradient>
<linearGradient id="paint4_linear_5268_14253" x1="4.6188" y1="-4.04704" x2="23.3282" y2="32.4975" gradientUnits="userSpaceOnUse">
<stop stop-color="#007DEB"/>
<stop offset="0.98838" stop-color="#005AB4"/>
</linearGradient>
<linearGradient id="paint5_linear_5268_14253" x1="10.3923" y1="-2.24135" x2="-2.23271" y2="9.09719" gradientUnits="userSpaceOnUse">
<stop stop-color="#0073D2"/>
<stop offset="1" stop-color="#50B4FF"/>
</linearGradient>
<linearGradient id="paint6_linear_5268_14253" x1="10.3923" y1="-2.24135" x2="-2.23271" y2="9.09719" gradientUnits="userSpaceOnUse">
<stop stop-color="#0073D2"/>
<stop offset="1" stop-color="#50B4FF"/>
</linearGradient>
</defs>
</svg>
