<svg width="160" height="140" viewBox="0 0 160 140" fill="none" xmlns="http://www.w3.org/2000/svg">
<g id="Icon-Tag-Wobbler-round">
<g id="cpid">
<path id="Union" fill-rule="evenodd" clip-rule="evenodd" d="M111.1 80V80.3H111V80.4H111.1V80.3H111.2V80.5H111V80.6H111.1V80.9H111V81H111.4V80.9H111.5V81H111.7V80.9H111.8V81H112V80.5H111.9V80.4H112V80.1H111.8V80H111.7V80.1H111.5V80H111.4V80.1H111.2V80H111.1ZM111.9 80.9H111.8V80.7H111.9V80.9ZM111.7 80.9H111.6V80.8H111.7V80.9ZM111.9 80.3V80.2H111.8V80.3H111.9ZM111.6 80.4V80.5H111.5V80.6H111.4V80.4H111.6Z" fill="#1E1E1E"/>
</g>
<g id="Mask Group">
<mask id="mask0_5988_18255" style="mask-type:alpha" maskUnits="userSpaceOnUse" x="0" y="0" width="105" height="79">
<rect id="Rectangle 1130" width="105" height="79" fill="#C4C4C4"/>
</mask>
<g mask="url(#mask0_5988_18255)">
<g id="Group 1031">
<g id="Vector">
<path fill-rule="evenodd" clip-rule="evenodd" d="M22 57L-16 35L63 -12L101 10.0005L22 57Z" fill="url(#paint0_linear_5988_18255)"/>
<path fill-rule="evenodd" clip-rule="evenodd" d="M22 57L-16 35L63 -12L101 10.0005L22 57Z" fill="url(#paint1_linear_5988_18255)"/>
</g>
<path id="Vector_2" fill-rule="evenodd" clip-rule="evenodd" d="M22 57L-16 35V49L22 72V57Z" fill="url(#paint2_linear_5988_18255)"/>
<g id="Vector_3">
<path d="M101 10L22 57V72L101 25V10Z" fill="url(#paint3_linear_5988_18255)"/>
<path d="M101 10L22 57V72L101 25V10Z" fill="url(#paint4_linear_5988_18255)"/>
</g>
</g>
</g>
</g>
<path id="Subtract" d="M46 38V57.6842L55 52.3553V33C55 28.6501 56.8791 23.9434 59.6682 21C58.1843 21.2517 57.3615 21.4677 56 22C49.2178 24.6519 46 31.4619 46 38Z" fill="url(#paint5_linear_5988_18255)"/>
<path id="Vector_4" fill-rule="evenodd" clip-rule="evenodd" d="M86 29L91 46.7727L82 52L77 34C75.5 27 70 21 62 21C61.069 21.024 59.5 21 56 22L64 18C67.1168 16.6642 72.2248 16.6485 76 18C80.1902 19.5 84.5 23 86 29Z" fill="url(#paint6_linear_5988_18255)"/>
<g id="Group 1065">
<circle id="Ellipse 213" r="42.2254" transform="matrix(0.866025 -0.5 0.309017 0.951057 97.5268 81.3954)" fill="url(#paint7_linear_5988_18255)"/>
<g id="Group 1058" opacity="0.7">
<rect id="Rectangle 280" width="8" height="2" transform="matrix(0.866025 -0.5 -0.309017 -0.951057 109.464 80.1507)" fill="white"/>
<rect id="Rectangle 508" width="12" height="2" transform="matrix(0.866025 -0.5 -0.309017 -0.951057 118.125 75.1507)" fill="white"/>
<rect id="Rectangle 506" width="18" height="2" transform="matrix(0.866025 -0.5 -0.309017 -0.951057 108.228 76.3465)" fill="white"/>
<rect id="Rectangle 509" width="5" height="2" transform="matrix(0.866025 -0.5 -0.309017 -0.951057 125.549 66.3465)" fill="white"/>
<rect id="Rectangle 510" width="22" height="2" transform="matrix(0.866025 -0.5 -0.309017 -0.951057 106.992 72.5422)" fill="white"/>
</g>
<g id="Group 1059" opacity="0.6">
<rect id="Rectangle 508_2" width="42" height="2" transform="matrix(0.866025 -0.5 0.309017 0.951057 86.6836 117.574)" fill="white"/>
<rect id="Rectangle 506_2" width="19" height="2" transform="matrix(0.866025 -0.5 0.309017 0.951057 93.1157 118.378)" fill="white"/>
<rect id="Rectangle 509_2" width="9" height="2" transform="matrix(0.866025 -0.5 0.309017 0.951057 111.302 107.878)" fill="white"/>
</g>
<path id="Ellipse 214 (Stroke)" fill-rule="evenodd" clip-rule="evenodd" d="M95.9172 69.0315C93.7582 69.755 91.7421 71.1874 90.1238 73.1476C88.5055 75.1077 87.3578 77.5076 86.8257 80.0437C86.2936 82.5798 86.401 85.1382 87.1344 87.3954C87.8678 89.6526 89.1943 91.5073 90.946 92.7248C92.6977 93.9423 94.7961 94.468 96.9757 94.2355C99.1553 94.0029 101.318 93.0225 103.191 91.4183C105.064 89.814 106.562 87.658 107.497 85.2228L115.806 88.4122C114.092 92.8768 111.345 96.8295 107.911 99.7706C104.478 102.712 100.512 104.509 96.5165 104.935C92.5205 105.362 88.6736 104.398 85.4621 102.166C82.2506 99.9338 79.8188 96.5337 78.4742 92.3954C77.1296 88.2572 76.9326 83.5668 77.9081 78.9173C78.8837 74.2678 80.9879 69.868 83.9547 66.2744C86.9216 62.6808 90.6178 60.0547 94.5759 58.7282C98.5341 57.4018 102.576 57.4345 106.192 58.8223L102.253 69.0828C100.281 68.3258 98.0762 68.308 95.9172 69.0315Z" fill="url(#paint8_linear_5988_18255)"/>
</g>
</g>
<defs>
<linearGradient id="paint0_linear_5988_18255" x1="41" y1="41" x2="29.5" y2="26" gradientUnits="userSpaceOnUse">
<stop stop-color="#E5EBEF"/>
<stop offset="1" stop-color="#E5EBEF" stop-opacity="0"/>
</linearGradient>
<linearGradient id="paint1_linear_5988_18255" x1="74" y1="3.5" x2="71" y2="17.5" gradientUnits="userSpaceOnUse">
<stop stop-color="white"/>
<stop offset="1" stop-color="white" stop-opacity="0"/>
</linearGradient>
<linearGradient id="paint2_linear_5988_18255" x1="26.5" y1="39.5" x2="1.5" y2="39.5" gradientUnits="userSpaceOnUse">
<stop stop-color="#AABEC8"/>
<stop offset="1" stop-color="white" stop-opacity="0"/>
</linearGradient>
<linearGradient id="paint3_linear_5988_18255" x1="51.5" y1="72" x2="38.5" y2="41" gradientUnits="userSpaceOnUse">
<stop stop-color="#E5EBEF"/>
<stop offset="1" stop-color="#E5EBEF" stop-opacity="0"/>
</linearGradient>
<linearGradient id="paint4_linear_5988_18255" x1="104.5" y1="13" x2="94.5" y2="19.5" gradientUnits="userSpaceOnUse">
<stop stop-color="white"/>
<stop offset="1" stop-color="white" stop-opacity="0"/>
</linearGradient>
<linearGradient id="paint5_linear_5988_18255" x1="52.8341" y1="22" x2="63.8302" y2="43.8748" gradientUnits="userSpaceOnUse">
<stop stop-color="#5A6E8C"/>
<stop offset="0.339803" stop-color="#AABEC8"/>
<stop offset="1" stop-color="#E5EBEF"/>
</linearGradient>
<linearGradient id="paint6_linear_5988_18255" x1="69.5" y1="16.5" x2="85" y2="49" gradientUnits="userSpaceOnUse">
<stop stop-color="#BFCFD9"/>
<stop offset="0.382658" stop-color="#EFF4F8"/>
<stop offset="0.825258" stop-color="#AABEC8"/>
<stop offset="1" stop-color="#83A3B3"/>
</linearGradient>
<linearGradient id="paint7_linear_5988_18255" x1="49.4985" y1="88.4904" x2="61.0035" y2="0.965343" gradientUnits="userSpaceOnUse">
<stop stop-color="#046BC0"/>
<stop offset="1" stop-color="#50B4FF"/>
</linearGradient>
<linearGradient id="paint8_linear_5988_18255" x1="113" y1="97" x2="90.0053" y2="59.3877" gradientUnits="userSpaceOnUse">
<stop stop-color="#AABEC8"/>
<stop offset="1" stop-color="white"/>
</linearGradient>
</defs>
</svg>
