<svg width="160" height="140" viewBox="0 0 160 140" fill="none" xmlns="http://www.w3.org/2000/svg">
<g id="Icon-Booklet-Euro">
<g id="cpid">
<path id="Union" fill-rule="evenodd" clip-rule="evenodd" d="M79.1 78V78.3H79V78.4H79.1V78.3H79.2V78.5H79V78.6H79.1V78.9H79V79H79.4V78.9H79.5V79H79.7V78.9H79.8V79H80V78.5H79.9V78.4H80V78.1H79.8V78H79.7V78.1H79.5V78H79.4V78.1H79.2V78H79.1ZM79.9 78.9H79.8V78.7H79.9V78.9ZM79.7 78.9H79.6V78.8H79.7V78.9ZM79.9 78.3V78.2H79.8V78.3H79.9ZM79.6 78.4V78.5H79.5V78.6H79.4V78.4H79.6Z" fill="#1E1E1E"/>
</g>
<g id="Group 839">
<rect id="Rectangle 832" x="45" y="16" width="70" height="96" fill="url(#paint0_linear_5268_14248)"/>
<path id="Rectangle 833" d="M115.105 16L73.8874 27.6246C72.2927 28.0743 71 29.782 71 31.4389V121.439C71 123.096 72.2927 124.074 73.8874 123.625L115.105 112V16Z" fill="url(#paint1_linear_5268_14248)"/>
<g id="Group 826">
<rect id="Rectangle 738" width="10.3528" height="12" transform="matrix(0.965926 -0.258819 0 1 100 95.6636)" fill="url(#paint2_linear_5268_14248)"/>
<g id="Group 822" opacity="0.6">
<rect id="Rectangle 280" width="10.3528" height="2" transform="matrix(0.965926 -0.258819 0 1 87 99.1478)" fill="#5A6E8C"/>
<rect id="Rectangle 506" width="6.21145" height="2" transform="matrix(0.965926 -0.258819 0 1 91 103.075)" fill="#5A6E8C"/>
<rect id="Rectangle 507" width="9.31749" height="2" transform="matrix(0.965926 -0.258819 0 1 88 108.879)" fill="#5A6E8C"/>
</g>
</g>
<g id="Group 827">
<rect id="Rectangle 738_2" width="10.3528" height="12" transform="matrix(0.965926 -0.258819 0 1 100 76.6636)" fill="url(#paint3_linear_5268_14248)"/>
<g id="Group 822_2" opacity="0.6">
<rect id="Rectangle 280_2" width="10.3528" height="2" transform="matrix(0.965926 -0.258819 0 1 87 80.1478)" fill="#5A6E8C"/>
<rect id="Rectangle 506_2" width="9.31728" height="2" transform="matrix(0.965926 -0.258819 0 1 88 84.879)" fill="#5A6E8C"/>
<rect id="Rectangle 507_2" width="6.21166" height="2" transform="matrix(0.965926 -0.258819 0 1 91 89.0752)" fill="#5A6E8C"/>
</g>
</g>
<path id="Rectangle 834" opacity="0.15" d="M71 50L115 72.9139V112L71 123.79V50Z" fill="#5A6E8C"/>
<path id="Rectangle 835" d="M85 42.094C85 40.4371 83.8368 38.4224 82.4019 37.594L45 16V112L81.5359 133.094C83.4491 134.198 85 133.303 85 131.094V42.094Z" fill="url(#paint4_linear_5268_14248)"/>
<g id="Group 828" opacity="0.7">
<g id="Group 647">
<rect id="Rectangle 506_3" width="32.3317" height="3" transform="matrix(0.866025 0.5 0 1 51 83)" fill="white"/>
</g>
<g id="Group 765">
<rect id="Rectangle 506_4" width="11.5474" height="3" transform="matrix(0.866025 0.5 0 1 59.9998 94.1964)" fill="white"/>
</g>
<g id="Group 766">
<rect id="Rectangle 506_5" width="23.0929" height="3" transform="matrix(0.866025 0.5 0 1 55.001 97.31)" fill="white"/>
</g>
</g>
<path id="Vector" fill-rule="evenodd" clip-rule="evenodd" d="M72.0993 71.3413L77 80.2022C74.2562 81.9045 70.5293 81.5554 66.6469 79.2456C58.556 74.432 52 62.5782 52 52.7689C52 42.9534 58.556 38.9004 66.6469 43.714C70.5293 46.0238 74.2562 50.1153 77 55.0763L72.0993 58.106C70.7049 55.5847 68.7737 53.3891 66.6469 52.1238C62.3832 49.5872 58.9272 51.7176 58.9272 56.8901C58.9272 62.0564 62.3832 68.3053 66.6469 70.8419C68.7737 72.1072 70.7049 72.2095 72.0993 71.3413Z" fill="url(#paint5_linear_5268_14248)"/>
<g id="Group 829" opacity="0.5">
<g id="Group 647_2">
<rect id="Rectangle 506_6" width="26.2995" height="3" transform="matrix(0.836516 -0.275856 0 1 87 36.5267)" fill="#5A6E8C"/>
</g>
<g id="Group 660">
<rect id="Rectangle 506_7" width="21.5178" height="3" transform="matrix(0.836516 -0.275856 0 1 91 42.0641)" fill="#5A6E8C"/>
</g>
</g>
</g>
</g>
<defs>
<linearGradient id="paint0_linear_5268_14248" x1="89.3333" y1="61.2727" x2="57.4183" y2="12.3511" gradientUnits="userSpaceOnUse">
<stop stop-color="#9FB2C9"/>
<stop offset="1" stop-color="#D9E1E6"/>
</linearGradient>
<linearGradient id="paint1_linear_5268_14248" x1="78.0445" y1="116.452" x2="40.1128" y2="54.2925" gradientUnits="userSpaceOnUse">
<stop stop-color="#C3CFDB"/>
<stop offset="1" stop-color="#EBF4F9"/>
</linearGradient>
<linearGradient id="paint2_linear_5268_14248" x1="12.4233" y1="13.0518" x2="-3.78662" y2="5.79617" gradientUnits="userSpaceOnUse">
<stop stop-color="#1366B3"/>
<stop offset="1" stop-color="#108AF5"/>
</linearGradient>
<linearGradient id="paint3_linear_5268_14248" x1="15.0115" y1="17.2217" x2="-4.9511" y2="7.41738" gradientUnits="userSpaceOnUse">
<stop stop-color="#1366B3"/>
<stop offset="1" stop-color="#108AF5"/>
</linearGradient>
<linearGradient id="paint4_linear_5268_14248" x1="69.5" y1="28.5" x2="60" y2="119.5" gradientUnits="userSpaceOnUse">
<stop stop-color="#50B4FF"/>
<stop offset="0.98838" stop-color="#005AB4"/>
</linearGradient>
<linearGradient id="paint5_linear_5268_14248" x1="49.5962" y1="36.0572" x2="76.5897" y2="79.7301" gradientUnits="userSpaceOnUse">
<stop stop-color="white"/>
<stop offset="1" stop-color="#AABEC8"/>
</linearGradient>
</defs>
</svg>
