<svg width="160" height="140" viewBox="0 0 160 140" fill="none" xmlns="http://www.w3.org/2000/svg">
<path fill-rule="evenodd" clip-rule="evenodd" d="M83.5827 22.8075C111.201 22.8075 133.577 45.1906 133.577 72.8075C133.577 100.413 111.201 122.807 83.5827 122.807C55.9642 122.807 33.5771 100.413 33.5771 72.8075C33.5771 45.1906 55.9642 22.8075 83.5827 22.8075Z" fill="#191919" fill-opacity="0.14"/>
<path fill-rule="evenodd" clip-rule="evenodd" d="M77 17C104.615 17 127 39.3846 127 67C127 94.6154 104.615 117 77 117C49.3846 117 27 94.6154 27 67C27 39.3846 49.3846 17 77 17Z" fill="url(#paint0_radial)"/>
<path d="M125.192 80.3718C120.011 99.0871 104.221 113.393 84.7015 116.411C84.0434 111.108 89.3845 101.401 98.308 92.4772C109.083 81.7023 121.001 76.1504 124.927 80.0767C125.021 80.1706 125.109 80.269 125.192 80.3718Z" fill="url(#paint1_radial)"/>
<path fill-rule="evenodd" clip-rule="evenodd" d="M90.7527 79.1461L101.653 90.0468C95.5503 96.161 87.2605 99.5863 78.6247 99.5863C60.628 99.5863 46.0454 85.0037 46.0454 67.0182C46.0454 49.0214 60.628 34.4388 78.6247 34.4388C87.2605 34.4388 95.5503 37.8753 101.653 43.9783L90.7527 54.879C87.651 51.7773 83.3554 49.8582 78.6247 49.8582C69.141 49.8582 61.4536 57.5344 61.4536 67.0182C61.4536 76.4907 69.141 84.1781 78.6247 84.1781C83.3554 84.1781 87.651 82.259 90.7527 79.1461Z" fill="url(#paint2_linear)"/>
<path fill-rule="evenodd" clip-rule="evenodd" d="M30.3806 71.9497C28.9636 56.5638 33.3708 44.0565 43.8809 33.5463C54.38 23.0473 68.6501 17.9038 82.2844 20.0571C95.2491 22.1101 99.6897 43.9337 77.0181 67.0182C54.0787 90.3704 31.8088 87.3468 30.3806 71.9497Z" fill="url(#paint3_linear)"/>
<defs>
<radialGradient id="paint0_radial" cx="0" cy="0" r="1" gradientUnits="userSpaceOnUse" gradientTransform="translate(54.3746 41.7913) rotate(45.5581) scale(85.5977)">
<stop stop-color="#50B4FF"/>
<stop offset="0.290196" stop-color="#50B4FF"/>
<stop offset="0.619608" stop-color="#0073D2"/>
<stop offset="0.809624" stop-color="#005AB4"/>
<stop offset="0.909804" stop-color="#0073D2"/>
<stop offset="1" stop-color="#005AB4"/>
</radialGradient>
<radialGradient id="paint1_radial" cx="0" cy="0" r="1" gradientUnits="userSpaceOnUse" gradientTransform="translate(105.417 99.5863) rotate(135) scale(27.5908 10.0539)">
<stop stop-color="#5CB9FF"/>
<stop offset="1" stop-color="#0073D2" stop-opacity="0"/>
</radialGradient>
<linearGradient id="paint2_linear" x1="58.8986" y1="45.3395" x2="97.1793" y2="83.6202" gradientUnits="userSpaceOnUse">
<stop stop-color="white"/>
<stop offset="1" stop-color="#AABEC8"/>
</linearGradient>
<linearGradient id="paint3_linear" x1="45.0471" y1="29.9074" x2="85.8369" y2="70.6972" gradientUnits="userSpaceOnUse">
<stop stop-color="white"/>
<stop offset="1" stop-color="white" stop-opacity="0.1"/>
</linearGradient>
</defs>
</svg>
