<svg width="160" height="140" viewBox="0 0 160 140" fill="none" xmlns="http://www.w3.org/2000/svg">
<path fill-rule="evenodd" clip-rule="evenodd" d="M153.47 5.10282C143.263 39.696 134 84.5827 133.421 128.493L9.11494 133L6.07717 85.2517C5.3481 73.9237 9.7225 67.4679 21.8736 57.4798C73.3942 15.2128 106.445 3.76294 153.47 5.10282Z" fill="url(#paint0_linear)"/>
<path fill-rule="evenodd" clip-rule="evenodd" d="M35.8472 53.4601C64.1592 47.6134 105.351 43.1065 139.131 42.0103L148.123 8.63518C99.7619 7.66072 61.1214 30.9258 35.8472 53.4601Z" fill="url(#paint1_linear)"/>
<path opacity="0.5" fill-rule="evenodd" clip-rule="evenodd" d="M145.085 19.9633L148.123 8.63524C111.062 7.90439 79.8341 21.3031 55.7749 37.7471C81.1707 27.6371 114.465 21.1813 145.085 19.9633Z" fill="url(#paint2_linear)"/>
<path opacity="0.15" d="M6.97607 76.9809C41.3172 69.771 109.498 62.8385 139.954 61.7292" stroke="#5A6E8C" stroke-miterlimit="22.9256"/>
<path d="M117.301 57.4863C117.117 54.74 119.195 52.3649 121.941 52.1813L136.499 51.2079C136.683 53.9541 134.605 56.3292 131.859 56.5128L117.301 57.4863Z" fill="url(#paint3_linear)"/>
<ellipse cx="67.7146" cy="50.973" rx="8.26964" ry="21.636" transform="rotate(-81.3406 67.7146 50.973)" fill="url(#paint4_radial)"/>
<path fill-rule="evenodd" clip-rule="evenodd" d="M96.2538 78.1761C87.3943 69.3166 72.043 75.5437 72.043 88.2001C72.043 96.0346 78.3905 102.382 86.2249 102.382C90.1422 102.382 93.684 100.799 96.2538 98.229L112.245 114.22C105.585 120.881 96.3837 125 86.2249 125C69.5358 125 55.2144 113.956 50.9362 98.6621C49.6369 94.0134 49.3048 89.2636 52.4184 86.1501L71.0661 69.0663L84.1989 54.3936C86.8698 51.6025 90.7196 51.4966 94.2904 52.2906C101.21 53.8402 107.399 57.3387 112.245 62.1847L96.2538 78.1761Z" fill="#191919" fill-opacity="0.14"/>
<path fill-rule="evenodd" clip-rule="evenodd" d="M95.5043 76.6783C86.6448 67.8188 71.2935 74.0459 71.2935 86.7023C71.2935 94.5368 77.641 100.884 85.4754 100.884C89.3926 100.884 92.9345 99.301 95.5043 96.7312L111.496 112.723C104.835 119.383 95.6342 123.502 85.4754 123.502C68.7863 123.502 54.4649 112.458 50.1867 97.1643C48.8874 92.5156 48.5553 87.7658 51.6689 84.6523L70.3166 67.5685L83.4494 52.8958C86.1203 50.1047 89.9701 49.9988 93.5409 50.7928C100.461 52.3424 106.65 55.8409 111.496 60.6869L95.5043 76.6783Z" fill="url(#paint5_linear)"/>
<path d="M83.0908 53.1804C84.6261 54.0184 86.0473 55.0709 87.3183 56.3419C96.2637 65.2873 94.3844 81.67 83.1207 92.9336C73.6814 102.373 60.6471 105.222 51.4076 100.632C50.9372 99.4602 50.5281 98.2571 50.1843 97.0265C48.8905 92.3921 48.5538 87.6514 51.6641 84.55L70.2547 67.519L83.0908 53.1804Z" fill="url(#paint6_radial)"/>
<path fill-rule="evenodd" clip-rule="evenodd" d="M77.1935 77.4433C86.2887 67.8235 81.2839 55.066 83.4495 52.8957L51.6689 84.6522C55.8749 80.4462 68.0982 87.0631 77.1935 77.4433Z" fill="url(#paint7_linear)"/>
<path d="M47.121 50.759C46.8868 44.53 55.1833 39.3459 60.8165 37.6954C64.2768 36.6815 67.6571 36.3704 68.8185 36.2886C69.1009 36.2687 69.383 36.2329 69.6658 36.247C71.2295 36.325 72.8512 37.854 73.052 39.2628L73.9459 44.2344C74.3241 46.8882 72.3636 48.9511 69.4609 49.3257L48.8812 51.9817C48.0211 52.0927 47.2331 51.5453 47.121 50.759Z" fill="url(#paint8_linear)"/>
<defs>
<linearGradient id="paint0_linear" x1="94.716" y1="80.6111" x2="133.903" y2="133" gradientUnits="userSpaceOnUse">
<stop stop-color="#E7EDF0"/>
<stop offset="1" stop-color="#CDD7DD"/>
</linearGradient>
<linearGradient id="paint1_linear" x1="109.958" y1="46.1724" x2="103.189" y2="8.60559" gradientUnits="userSpaceOnUse">
<stop stop-color="#5A6E8C"/>
<stop offset="1" stop-color="#B7BDCE"/>
</linearGradient>
<linearGradient id="paint2_linear" x1="112.82" y1="35.664" x2="101.949" y2="11.8234" gradientUnits="userSpaceOnUse">
<stop stop-color="white"/>
<stop offset="1" stop-color="white" stop-opacity="0"/>
</linearGradient>
<linearGradient id="paint3_linear" x1="130.955" y1="60.4452" x2="131.315" y2="47.5214" gradientUnits="userSpaceOnUse">
<stop stop-color="#5A6E8C"/>
<stop offset="1" stop-color="#AABEC8"/>
</linearGradient>
<radialGradient id="paint4_radial" cx="0" cy="0" r="1" gradientUnits="userSpaceOnUse" gradientTransform="translate(67.7146 50.973) rotate(90) scale(21.636 8.26964)">
<stop offset="0.0625" stop-color="#00195A" stop-opacity="0.38"/>
<stop offset="1" stop-color="#00195A" stop-opacity="0"/>
</radialGradient>
<linearGradient id="paint5_linear" x1="111.366" y1="108.723" x2="49.2676" y2="74.4838" gradientUnits="userSpaceOnUse">
<stop stop-color="#0073D2"/>
<stop offset="1" stop-color="#50B4FF"/>
</linearGradient>
<radialGradient id="paint6_radial" cx="0" cy="0" r="1" gradientUnits="userSpaceOnUse" gradientTransform="translate(66.9237 76.7366) rotate(-45.2747) scale(27.6179 20.9884)">
<stop stop-color="#00195A" stop-opacity="0.73"/>
<stop offset="0.965628" stop-color="#00195A" stop-opacity="0"/>
</radialGradient>
<linearGradient id="paint7_linear" x1="75.7642" y1="78.8293" x2="66.8229" y2="69.8784" gradientUnits="userSpaceOnUse">
<stop stop-color="#AABEC8"/>
<stop offset="0.411765" stop-color="#AABEC8"/>
<stop offset="1" stop-color="white"/>
</linearGradient>
<linearGradient id="paint8_linear" x1="58.8301" y1="39.1491" x2="61.824" y2="50.6297" gradientUnits="userSpaceOnUse">
<stop offset="0.21875" stop-color="#E5EBEF"/>
<stop offset="0.609375" stop-color="#C4CBD1"/>
<stop offset="1" stop-color="#E5EBEF"/>
</linearGradient>
</defs>
</svg>
