<svg width="160" height="140" viewBox="0 0 160 140" fill="none" xmlns="http://www.w3.org/2000/svg">
<rect x="15" y="6" width="130.304" height="108.876" rx="4" fill="#00195A"/>
<path fill-rule="evenodd" clip-rule="evenodd" d="M68.1118 30.6388C74.3536 30.6388 79.3646 35.7377 79.3646 41.8916C79.3646 48.1333 74.2657 53.1443 68.1118 53.1443C61.8701 53.1443 56.8591 48.0454 56.8591 41.8916C56.7711 35.7377 61.8701 30.6388 68.1118 30.6388ZM68.1118 35.9135C64.7712 35.9135 62.0459 38.6388 62.0459 41.9795C62.0459 45.3201 64.7712 48.0454 68.1118 48.0454C71.4525 48.0454 74.1778 45.3201 74.1778 41.9795C74.0899 38.6388 71.3646 35.9135 68.1118 35.9135ZM86.4855 41.9795C86.4855 38.6388 89.2108 35.9135 92.5515 35.9135H94.9251V30.6388H92.5515C86.3097 30.6388 81.2987 35.7377 81.2987 41.8916V53.2323H86.5734V41.9795H86.4855ZM106.793 30.6388C113.035 30.6388 118.046 35.7377 118.046 41.8916V53.2323H112.771V51.474C111.013 52.6169 108.991 53.2323 106.705 53.2323C100.464 53.2323 95.4526 48.1333 95.4526 41.9795C95.5405 35.7377 100.551 30.6388 106.793 30.6388ZM106.793 35.9135C103.453 35.9135 100.727 38.6388 100.727 41.9795C100.727 45.3201 103.453 48.0454 106.793 48.0454C110.134 48.0454 112.859 45.3201 112.859 41.9795C112.859 38.6388 110.134 35.9135 106.793 35.9135ZM121.563 24.3091V53.3202H126.837V24.3091H121.563ZM43.0568 47.9575C37.9579 47.9575 33.826 43.9135 33.826 38.8146C33.826 33.7157 37.9579 29.5838 43.0568 29.5838C46.1337 29.5838 49.0349 31.0783 50.7052 33.7157L55.1008 30.8146C52.4634 26.7706 47.892 24.397 43.0568 24.397C35.0568 24.3091 28.5513 30.8146 28.5513 38.8146C28.5513 46.8146 35.0568 53.3202 43.0568 53.3202C48.2436 53.3202 52.9909 50.507 55.6283 46.1113L51.0568 43.474C49.3865 46.2872 46.3096 47.9575 43.0568 47.9575Z" fill="white"/>
<path fill-rule="evenodd" clip-rule="evenodd" d="M42.6172 79.7818C45.9579 79.7818 48.6832 77.0565 48.6832 73.7158C48.6832 70.3752 45.9579 67.6499 42.6172 67.6499C39.2766 67.6499 36.5513 70.3752 36.5513 73.7158C36.5513 77.0565 39.2766 79.7818 42.6172 79.7818ZM31.2766 91.8258V73.7158C31.2766 67.4741 36.3755 62.463 42.5293 62.463C48.7711 62.463 53.7821 67.562 53.7821 73.7158C53.7821 82.595 43.9359 87.9576 36.4634 83.2983V91.8258H31.2766ZM72.7712 62.463V85.0565H78.0459V62.463H72.7712ZM117.606 85.0565H120.771V79.7818H117.606C114.266 79.7818 111.541 77.0565 111.541 73.7158V71.3422H117.606V66.0675H111.541V60.0894H106.266V73.7158C106.354 80.0455 111.365 85.0565 117.606 85.0565ZM61.0788 73.8037C61.0788 70.4631 63.8041 67.7378 67.1448 67.7378H69.5184V62.463H67.1448C60.903 62.463 55.892 67.562 55.892 73.7158V85.0565H61.1668V73.8037H61.0788ZM81.1229 73.8037V85.1444H86.3976V73.8037C86.3976 70.4631 89.1229 67.7378 92.4636 67.7378C95.8042 67.7378 98.5295 70.4631 98.5295 73.8037V85.1444H103.804V73.8037C103.804 67.562 98.7053 62.551 92.5515 62.551C86.2218 62.4631 81.1229 67.562 81.1229 73.8037Z" fill="white"/>
<path opacity="0.45" fill-rule="evenodd" clip-rule="evenodd" d="M134.864 104.262H38.3408L75.1546 15.2332H134.864V104.262Z" fill="#AABEC8"/>
<path fill-rule="evenodd" clip-rule="evenodd" d="M98.4946 102.956L96.8896 114.651C96.6239 116.794 98.443 117.797 100.138 119.173L106.995 124.687C109.865 124.11 111.907 118.922 107.923 115.318L105.26 112.967L105.821 109.072L115.955 110.095L116.884 101.349L102.912 99.9277C100.845 99.6715 98.7413 100.965 98.4946 102.956Z" fill="url(#paint0_linear)"/>
<path fill-rule="evenodd" clip-rule="evenodd" d="M86.667 106.703L90.6014 95.7483L98.393 90.0396C99.8588 88.9596 101.402 88.5738 102.79 88.7281L120.379 91.351C123.619 91.8139 124.082 92.9711 125.471 95.5169L139.203 120.126L128.942 122.518L119.685 115.806L115.828 113.029L111.585 98.757L102.173 96.6741L96.773 100.454L93.5329 106.78C92.4529 109.017 87.9785 109.326 86.667 106.703Z" fill="url(#paint1_linear)"/>
<path fill-rule="evenodd" clip-rule="evenodd" d="M68.0719 133.993L38.3408 104.262L75.1546 15.2332L130.993 71.0716L68.0719 133.993Z" fill="url(#paint2_linear)"/>
<path opacity="0.15" d="M99.7581 102.356L93.6136 108.523C85.6053 103.052 87.2826 98.2666 88.7822 96.804C91.1155 94.5282 97.0177 100.141 99.7581 102.356Z" fill="#00195A"/>
<path fill-rule="evenodd" clip-rule="evenodd" d="M105.105 113.26L89.4441 102.306C87.3612 100.84 86.8983 97.9084 88.4412 95.8254C89.907 93.7425 92.6842 93.5111 94.9214 94.8226L112.973 105.623C115.211 106.934 119.685 109.017 122.616 110.792C128.402 114.34 134.497 118.66 139.28 120.203L130.485 134.475L116.291 128.149C105.876 123.52 110.196 116.886 105.105 113.26Z" fill="url(#paint3_linear)"/>
<path fill-rule="evenodd" clip-rule="evenodd" d="M93.8771 95.8571L96.1023 97.2664C96.3248 97.4148 96.399 97.7115 96.2506 97.934L93.1354 102.384C92.987 102.607 92.7645 102.607 92.542 102.459L90.3168 100.975C88.6108 99.8625 88.685 97.934 89.5751 96.5989C90.4651 95.4121 92.1711 94.7446 93.8771 95.8571Z" fill="white"/>
<defs>
<linearGradient id="paint0_linear" x1="108.13" y1="104.554" x2="96.7339" y2="115.038" gradientUnits="userSpaceOnUse">
<stop stop-color="#58708C"/>
<stop offset="0.38677" stop-color="#7C90AD"/>
<stop offset="1" stop-color="#C7D4DC"/>
</linearGradient>
<linearGradient id="paint1_linear" x1="89.5955" y1="105.607" x2="109.991" y2="100.201" gradientUnits="userSpaceOnUse">
<stop stop-color="#AABEC8"/>
<stop offset="1" stop-color="#E5EBEF"/>
</linearGradient>
<linearGradient id="paint2_linear" x1="60.9234" y1="43.9156" x2="81.2342" y2="52.3272" gradientUnits="userSpaceOnUse">
<stop stop-color="#B3C0CD" stop-opacity="0.74"/>
<stop offset="0.203125" stop-color="white" stop-opacity="0.74"/>
<stop offset="0.593556" stop-color="#B3C0CD" stop-opacity="0.74"/>
</linearGradient>
<linearGradient id="paint3_linear" x1="118.981" y1="119.362" x2="115.16" y2="141.08" gradientUnits="userSpaceOnUse">
<stop stop-color="#E5EBEF"/>
<stop offset="1" stop-color="#BBC6CD"/>
</linearGradient>
</defs>
</svg>
