<svg width="160" height="140" viewBox="0 0 160 140" fill="none" xmlns="http://www.w3.org/2000/svg">
<path d="M124.455 25.248H39.1658C37.3127 25.248 35.8105 27.3457 35.8105 29.9332V112.563C35.8105 115.15 37.3127 117.248 39.1658 117.248H124.455C126.308 117.248 127.811 115.15 127.811 112.563V29.9332C127.811 27.3457 126.308 25.248 124.455 25.248Z" fill="#00195A"/>
<path fill-rule="evenodd" clip-rule="evenodd" d="M78.823 9.07292C100.06 14.7653 115.699 34.1706 115.699 57.2365C115.699 84.7722 93.4145 107.093 65.9228 107.093C42.3114 107.093 22.5382 90.6256 17.4316 68.5334C16.7946 65.7806 16.5475 60.9064 18.9819 58.4738L48.4137 31.0572C55.1476 24.3288 60.8875 16.6048 67.6213 9.87644C70.6908 6.92959 75.177 8.09552 78.823 9.07292Z" fill="url(#paint0_linear)"/>
<path fill-rule="evenodd" clip-rule="evenodd" d="M82.9527 74.1799L97.8901 89.1173C89.5163 97.4893 78.1609 102.193 66.3185 102.193C41.662 102.193 21.6729 82.2059 21.6729 57.5475C21.6729 56.9435 21.6875 56.3432 21.7113 55.7465L46.6222 35.2595L64.5578 12.9385C65.1416 12.9147 65.7292 12.9 66.3185 12.9C78.1609 12.9 89.5163 17.604 97.8901 25.976L82.9527 40.9134C78.6953 36.6579 72.8163 34.024 66.3185 34.024C53.3286 34.024 42.7968 44.5558 42.7968 57.5475C42.7968 70.5375 53.3286 81.0693 66.3185 81.0693C72.8163 81.0693 78.6953 78.4372 82.9527 74.1799Z" fill="url(#paint1_linear)"/>
<path d="M94.964 16.7425C92.1011 30.5451 82.3448 47.3819 67.3644 62.3623C54.2974 75.4292 39.818 84.5215 27.1719 88.531C22.5366 82.7798 19.1518 75.9759 17.4316 68.5335C16.7946 65.7806 16.5475 60.9064 18.9819 58.4739L48.4137 31.0572C51.7806 27.693 54.8991 24.08 58.0176 20.4668C61.136 16.8537 64.2544 13.2406 67.6213 9.8765C70.6908 6.9296 75.177 8.09549 78.823 9.07291C84.7037 10.6491 90.1551 13.2768 94.964 16.7425Z" fill="url(#paint2_radial)"/>
<path opacity="0.3" fill-rule="evenodd" clip-rule="evenodd" d="M56.1158 45.8553C69.2283 31.9868 61.8777 15.6198 67.29 10.2075L18.9727 58.4809C27.8498 49.6056 43.0032 59.7237 56.1158 45.8553Z" fill="#D6DEE3"/>
<path fill-rule="evenodd" clip-rule="evenodd" d="M52.8945 42.6028C62.4324 32.514 57.086 20.6076 61.023 16.6705L25.875 51.7875C32.3324 45.3319 43.3566 52.6917 52.8945 42.6028Z" fill="url(#paint3_linear)"/>
<defs>
<linearGradient id="paint0_linear" x1="101.591" y1="92.0883" x2="44.4211" y2="34.9182" gradientUnits="userSpaceOnUse">
<stop stop-color="#AABEC8" stop-opacity="0.44"/>
<stop offset="1" stop-color="#AABEC8" stop-opacity="0.3"/>
</linearGradient>
<linearGradient id="paint1_linear" x1="53.184" y1="56.6946" x2="90.1679" y2="93.6785" gradientUnits="userSpaceOnUse">
<stop stop-color="white"/>
<stop offset="1" stop-color="#E5EBEF"/>
</linearGradient>
<radialGradient id="paint2_radial" cx="0" cy="0" r="1" gradientUnits="userSpaceOnUse" gradientTransform="translate(44.9259 39.9238) rotate(-45) scale(64.6179 31.7328)">
<stop offset="0.0625" stop-color="#00195A" stop-opacity="0.38"/>
<stop offset="1" stop-color="#00195A" stop-opacity="0"/>
</radialGradient>
<linearGradient id="paint3_linear" x1="46.1304" y1="34.229" x2="53.3082" y2="42.1892" gradientUnits="userSpaceOnUse">
<stop stop-color="white"/>
<stop offset="0.92757" stop-color="#AABEC8"/>
</linearGradient>
</defs>
</svg>
