<svg width="160" height="140" viewBox="0 0 160 140" fill="none" xmlns="http://www.w3.org/2000/svg">
<path fill-rule="evenodd" clip-rule="evenodd" d="M119.41 125.329L10.3662 119.827L15 28L124.044 33.5026L119.41 125.329Z" fill="#191919" fill-opacity="0.14"/>
<path fill-rule="evenodd" clip-rule="evenodd" d="M118.257 122.434L9.50014 116.946L14.144 24.9196L122.901 30.4078L118.257 122.434Z" fill="url(#paint0_linear)"/>
<path fill-rule="evenodd" clip-rule="evenodd" d="M134.331 116.103L25.4137 123.719L19 32L127.917 24.3838L134.331 116.103Z" fill="#191919" fill-opacity="0.14"/>
<path fill-rule="evenodd" clip-rule="evenodd" d="M135.002 114.441L26.372 122.037L19.9443 30.1177L128.575 22.5215L135.002 114.441Z" fill="url(#paint1_linear)"/>
<path fill-rule="evenodd" clip-rule="evenodd" d="M134.394 111.366H30V29H134.394V111.366Z" fill="#191919" fill-opacity="0.14"/>
<path fill-rule="evenodd" clip-rule="evenodd" d="M84.4512 17.6283L140.5 17.6283V73.677L108.827 46.866L84.4512 17.6283Z" fill="#D6DEE3"/>
<path fill-rule="evenodd" clip-rule="evenodd" d="M140.5 73.9551V109.772L31.604 109.772L31.604 17.6283L84.1728 17.6283C87.4168 17.6283 90.6607 18.8669 93.1379 21.3441C95.6151 23.8213 97.9238 27.0652 97.9238 30.3176L127.81 60.1957C131.054 60.1957 134.307 62.5128 136.784 64.99C139.261 67.4672 140.5 70.7111 140.5 73.9551Z" fill="url(#paint2_linear)"/>
<path d="M125.122 55.8936L129.344 60.114V60.5571H125.122V55.8936Z" fill="url(#paint3_linear)"/>
<path fill-rule="evenodd" clip-rule="evenodd" d="M111.74 42.5149L122.321 53.0931V60.5571H118.099V59.1354C116.679 60.0437 115.022 60.5571 113.246 60.5571C108.236 60.5571 104.172 56.4893 104.172 51.4737C104.172 46.9718 107.446 43.2335 111.74 42.5149ZM108.393 51.4737C108.393 48.7881 110.563 46.616 113.246 46.616C115.929 46.616 118.099 48.7881 118.099 51.4737C118.099 54.1592 115.929 56.3313 113.246 56.3313C110.563 56.3313 108.393 54.1592 108.393 51.4737Z" fill="url(#paint4_linear)"/>
<path fill-rule="evenodd" clip-rule="evenodd" d="M91.2307 51.4737C91.2307 46.458 87.1669 42.3902 82.1561 42.3902C77.1454 42.3902 73.0816 46.458 73.0816 51.4737C73.0816 56.4893 77.1454 60.5571 82.1561 60.5571C87.1669 60.5571 91.2307 56.4893 91.2307 51.4737ZM77.3032 51.4737C77.3032 48.7881 79.4732 46.616 82.1561 46.616C84.8391 46.616 87.0091 48.7881 87.0091 51.4737C87.0091 54.1592 84.8391 56.3313 82.1561 56.3313C79.4732 56.3313 77.3032 54.1592 77.3032 51.4737Z" fill="url(#paint5_linear)"/>
<path d="M101.765 46.616C99.0822 46.616 96.9122 48.7881 96.9122 51.4737V60.5571H92.6905V51.4737C92.6905 46.458 96.7544 42.3902 101.765 42.3902H103.698V46.616H101.765Z" fill="url(#paint6_linear)"/>
<path d="M62.0342 56.3313C64.7172 56.3313 67.1239 54.9096 68.4654 52.619L72.1346 54.7516C70.083 58.306 66.2164 60.5571 62.0737 60.5571C55.6426 60.5571 50.4346 55.344 50.4346 48.9066C50.4346 42.4692 55.6426 37.2561 62.0737 37.2561C65.9403 37.2561 69.5701 39.2308 71.7006 42.4297L68.1892 44.7598C66.8083 42.7062 64.5199 41.4819 62.0342 41.4819C57.931 41.4819 54.6168 44.7993 54.6168 48.9066C54.6168 53.0139 57.931 56.3313 62.0342 56.3313Z" fill="url(#paint7_linear)"/>
<path fill-rule="evenodd" clip-rule="evenodd" d="M52.644 91.5593H56.8657V84.6875C62.8628 88.4788 70.7932 84.1741 70.7932 77.0258C70.7932 72.0102 66.7294 67.9424 61.7186 67.9424C56.7079 67.9424 52.644 72.0102 52.644 77.0258V91.5593ZM66.5321 76.9863C66.5321 79.6719 64.3621 81.844 61.6792 81.844C59.0357 81.844 56.8657 79.6719 56.8262 76.9863C56.8262 74.3008 58.9962 72.1286 61.6792 72.1286C64.3621 72.1286 66.5321 74.3008 66.5321 76.9863Z" fill="url(#paint8_linear)"/>
<path d="M85.9438 86.1093V67.9424H90.1654V86.1093H85.9438Z" fill="url(#paint9_linear)"/>
<path d="M124.452 86.1093H121.926C116.916 86.1093 112.852 82.0414 112.852 77.0258V66.0467H117.074V70.8649H121.926V75.0906H117.074V77.0258C117.074 79.7113 119.244 81.8835 121.926 81.8835H124.452V86.1093Z" fill="url(#paint10_linear)"/>
<path d="M81.4065 72.1286C78.7236 72.1286 76.5536 74.3008 76.5536 76.9863V86.1093H72.3319V77.0258C72.3319 72.0102 76.3958 67.9424 81.4065 67.9424H83.3398V72.1286H81.4065Z" fill="url(#paint11_linear)"/>
<path d="M92.6511 86.0698V76.9863C92.6511 72.0102 96.7149 67.9424 101.726 67.9029C106.736 67.9029 110.8 71.9707 110.8 76.9863V86.0698H106.579V76.9863C106.579 74.3008 104.409 72.1286 101.726 72.1286C99.0427 72.1286 96.8727 74.3008 96.8727 76.9863V86.0698H92.6511Z" fill="url(#paint12_linear)"/>
<path d="M85.5174 17.6994C88.2999 17.9948 91.0036 19.2097 93.138 21.3441C95.6152 23.8213 97.9239 27.0652 97.9239 30.3176L127.81 60.1957C131.054 60.1957 134.307 62.5128 136.784 64.99C139.261 67.4672 140.5 70.7111 140.5 73.9551V98.6026C127.269 103.722 106.82 92.7752 92.6746 72.2355C78.3227 51.3963 75.51 28.0162 85.5174 17.6994Z" fill="url(#paint13_radial)"/>
<path fill-rule="evenodd" clip-rule="evenodd" d="M127.811 61.2739L96.854 61.2739V30.3174C96.854 27.065 95.6154 23.821 93.1382 21.3438L136.784 64.9897C134.307 62.5125 131.054 61.2739 127.811 61.2739Z" fill="url(#paint14_linear)"/>
<defs>
<linearGradient id="paint0_linear" x1="107.225" y1="119.673" x2="98.91" y2="85.3576" gradientUnits="userSpaceOnUse">
<stop stop-color="#E4E4E4"/>
<stop offset="1" stop-color="#F7F5F5"/>
</linearGradient>
<linearGradient id="paint1_linear" x1="74.0478" y1="118.799" x2="68.0171" y2="34.2331" gradientUnits="userSpaceOnUse">
<stop stop-color="#E4E4E4"/>
<stop offset="1" stop-color="#F7F5F5"/>
</linearGradient>
<linearGradient id="paint2_linear" x1="81.6097" y1="90.8542" x2="81.6097" y2="17.6283" gradientUnits="userSpaceOnUse">
<stop stop-color="#E1E1E1"/>
<stop offset="1" stop-color="#F7F5F5"/>
</linearGradient>
<linearGradient id="paint3_linear" x1="75.5216" y1="94.2551" x2="75.5216" y2="37.2561" gradientUnits="userSpaceOnUse">
<stop stop-color="#005AB4"/>
<stop offset="0.515625" stop-color="#007DEB"/>
<stop offset="1" stop-color="#50B4FF"/>
</linearGradient>
<linearGradient id="paint4_linear" x1="75.5216" y1="94.2551" x2="75.5216" y2="37.2561" gradientUnits="userSpaceOnUse">
<stop stop-color="#005AB4"/>
<stop offset="0.515625" stop-color="#007DEB"/>
<stop offset="1" stop-color="#50B4FF"/>
</linearGradient>
<linearGradient id="paint5_linear" x1="75.5216" y1="94.2551" x2="75.5216" y2="37.2561" gradientUnits="userSpaceOnUse">
<stop stop-color="#005AB4"/>
<stop offset="0.515625" stop-color="#007DEB"/>
<stop offset="1" stop-color="#50B4FF"/>
</linearGradient>
<linearGradient id="paint6_linear" x1="75.5216" y1="94.2551" x2="75.5216" y2="37.2561" gradientUnits="userSpaceOnUse">
<stop stop-color="#005AB4"/>
<stop offset="0.515625" stop-color="#007DEB"/>
<stop offset="1" stop-color="#50B4FF"/>
</linearGradient>
<linearGradient id="paint7_linear" x1="75.5216" y1="94.2551" x2="75.5216" y2="37.2561" gradientUnits="userSpaceOnUse">
<stop stop-color="#005AB4"/>
<stop offset="0.515625" stop-color="#007DEB"/>
<stop offset="1" stop-color="#50B4FF"/>
</linearGradient>
<linearGradient id="paint8_linear" x1="75.5216" y1="94.2551" x2="75.5216" y2="37.2561" gradientUnits="userSpaceOnUse">
<stop stop-color="#005AB4"/>
<stop offset="0.515625" stop-color="#007DEB"/>
<stop offset="1" stop-color="#50B4FF"/>
</linearGradient>
<linearGradient id="paint9_linear" x1="75.5216" y1="94.2551" x2="75.5216" y2="37.2561" gradientUnits="userSpaceOnUse">
<stop stop-color="#005AB4"/>
<stop offset="0.515625" stop-color="#007DEB"/>
<stop offset="1" stop-color="#50B4FF"/>
</linearGradient>
<linearGradient id="paint10_linear" x1="75.5216" y1="94.2551" x2="75.5216" y2="37.2561" gradientUnits="userSpaceOnUse">
<stop stop-color="#005AB4"/>
<stop offset="0.515625" stop-color="#007DEB"/>
<stop offset="1" stop-color="#50B4FF"/>
</linearGradient>
<linearGradient id="paint11_linear" x1="75.5216" y1="94.2551" x2="75.5216" y2="37.2561" gradientUnits="userSpaceOnUse">
<stop stop-color="#005AB4"/>
<stop offset="0.515625" stop-color="#007DEB"/>
<stop offset="1" stop-color="#50B4FF"/>
</linearGradient>
<linearGradient id="paint12_linear" x1="75.5216" y1="94.2551" x2="75.5216" y2="37.2561" gradientUnits="userSpaceOnUse">
<stop stop-color="#005AB4"/>
<stop offset="0.515625" stop-color="#007DEB"/>
<stop offset="1" stop-color="#50B4FF"/>
</linearGradient>
<radialGradient id="paint13_radial" cx="0" cy="0" r="1" gradientUnits="userSpaceOnUse" gradientTransform="translate(115.986 56.1813) rotate(55.445) scale(49.2991 28.3044)">
<stop offset="0.0208333" stop-color="#3C3C3C" stop-opacity="0.6"/>
<stop offset="1" stop-color="#3C3C3C" stop-opacity="0"/>
</radialGradient>
<linearGradient id="paint14_linear" x1="98.0336" y1="62.4451" x2="116.132" y2="44.338" gradientUnits="userSpaceOnUse">
<stop stop-color="white"/>
<stop offset="0.537325" stop-color="#AABEC8"/>
<stop offset="1" stop-color="white"/>
</linearGradient>
</defs>
</svg>
