<svg width="160" height="140" viewBox="0 0 160 140" fill="none" xmlns="http://www.w3.org/2000/svg">
<circle cx="73.4051" cy="67.0228" r="50.9666" fill="#5A6E8C"/>
<path fill-rule="evenodd" clip-rule="evenodd" d="M106.996 87.556H89.7441C89.7642 86.5138 90.3757 85.7228 91.0541 84.964C91.1456 84.8625 91.2259 84.7509 91.3073 84.6404C91.3642 84.5757 91.4245 84.5132 91.4903 84.4541C91.5093 84.3916 91.5193 84.3258 91.5216 84.26C91.3765 84.0937 91.2337 83.9275 91.0898 83.7612C91.092 83.6853 91.0942 83.6106 91.0965 83.5347C91.0976 83.5258 91.0976 83.518 91.0976 83.5102C90.9469 83.2256 90.8454 82.9255 90.7796 82.6153H90.7773C90.7762 82.6053 90.774 82.5941 90.774 82.5841C90.6926 82.1824 90.6725 81.7617 90.6992 81.3255C90.7137 81.0867 90.6825 80.8736 90.5787 80.6839C90.5877 80.6315 90.6011 80.5801 90.6178 80.531C90.7071 80.4864 90.7762 80.4184 90.822 80.3235C90.9592 79.8214 90.9949 79.3037 91.092 78.7904C91.0027 78.6175 90.9626 78.4155 91.0161 78.1578C91.0451 78.0641 91.0641 77.9692 91.0797 77.8722C91.0976 77.7226 91.0886 77.5765 91.0507 77.4314C90.9492 77.148 90.8331 76.8746 90.5698 76.7084C90.4939 76.6872 90.4192 76.6883 90.3478 76.7106C90.6412 75.8894 91.1668 75.0894 90.5654 74.1856C90.5843 74.1555 90.6044 74.1254 90.6256 74.0975C90.629 74.0919 90.6312 74.0863 90.6334 74.0807C90.7662 74.0618 90.8465 74.0026 90.9023 73.9245C90.909 73.6925 90.9179 73.4615 90.9257 73.2294C90.9458 72.6581 91.2873 71.9351 90.552 71.5334C90.5587 71.5312 90.5654 71.529 90.572 71.5267C90.6412 71.4419 90.6903 71.3471 90.726 71.2422C90.7271 71.1864 90.7316 71.1318 90.7361 71.0771C90.8041 71.0012 90.8733 70.9242 90.9414 70.8483C90.9882 70.8294 91.0351 70.8115 91.0831 70.7937C91.574 70.2536 91.7358 69.5072 92.1498 68.9169C92.2357 68.571 92.2412 68.2374 92.0359 67.9295C92.0315 67.925 92.0259 67.9206 92.0214 67.9172C92.2736 67.9295 92.2937 67.7208 92.3093 67.5077C92.306 67.4932 92.3015 67.4798 92.2981 67.4664C92.364 67.4564 92.4298 67.4463 92.4945 67.4274C92.557 67.4084 92.6106 67.3738 92.6574 67.3337C92.6608 67.221 92.6641 67.1094 92.6686 66.9967C92.7054 66.9576 92.7467 66.9208 92.7869 66.8829C92.8348 66.2246 92.8259 65.5663 92.6452 64.9269C92.4778 64.3389 92.4867 63.7565 92.6351 63.1785C92.7088 62.8862 92.75 62.6039 92.7333 62.3037C92.7054 61.8228 92.6942 61.3408 92.6764 60.8599C92.6686 60.6312 92.7065 60.4091 92.8538 60.2351C93.0312 60.0264 92.9977 59.8379 92.8427 59.6448C92.7244 59.4998 92.8694 59.2632 92.6786 59.145C92.7021 59.0446 92.7233 58.943 92.7422 58.8426C92.7891 58.7913 92.836 58.74 92.8806 58.6875C93.9071 58.1865 93.6349 57.1689 93.7353 56.2986C94.07 55.2922 93.6449 54.6071 92.6072 54.4487C92.6039 54.4241 92.6016 54.3985 92.5983 54.375C92.5938 54.3605 92.5905 54.3471 92.586 54.3326C93.0346 53.9432 93.2387 53.3987 93.4106 52.8341C93.4106 52.6958 93.4106 52.5574 93.4106 52.4202C93.2733 52.187 93.2756 51.9527 93.3972 51.7139C93.4675 51.6391 93.5389 51.5644 93.6092 51.4885C93.6929 51.426 93.7676 51.3535 93.8357 51.2732H93.8346C94.3835 50.7097 94.3579 50.2511 93.617 49.9197C93.3883 49.6308 93.5657 49.1577 93.2086 48.9278C93.1495 48.8609 93.0825 48.8006 93.0122 48.7471C92.904 48.6712 92.8214 48.5663 92.7378 48.4659C92.6418 48.3666 92.518 48.3141 92.4053 48.2427C92.4354 48.2338 92.4655 48.2249 92.4968 48.2093C92.5994 48.1334 92.6775 48.0363 92.7411 47.9258C93.0647 47.8455 93.2443 47.5465 93.4463 47.2776C93.4173 46.5958 94.0243 46.25 94.2396 45.6631C94.5107 44.9222 94.2017 44.8842 93.742 44.7693C93.5121 44.6098 93.5434 44.3096 93.4162 44.0932C93.3325 43.9481 93.4441 43.812 93.4809 43.6747C93.5512 43.4036 93.521 43.1626 93.2834 42.9885C93.068 43.0164 92.8639 42.9964 92.6641 42.9049C92.6161 42.8189 92.5671 42.733 92.518 42.646C92.1743 41.8962 92.5938 41.1497 92.5737 40.3921C92.5525 39.5754 92.3852 38.9037 91.9969 38.2443C91.5629 37.7065 91.3364 37.0526 91.0808 36.4166C91.0619 36.3173 91.0418 36.2191 91.0239 36.1209C91.0619 35.0152 91.0117 33.9284 90.4024 32.9655H143.338C147.055 32.9655 150.095 36.006 150.095 39.7227V43.5777C150.096 46.1317 149.034 48.6857 147.087 50.6327C145.139 52.5809 135.671 59.6627 133.118 59.6627L117.816 77.5787C117.816 80.1327 115.998 82.6856 114.05 84.6338C112.103 86.5819 109.549 87.556 106.996 87.556Z" fill="#F1F2F0"/>
<path d="M90.689 81.4156H116.969L115.523 83.0156H90.8786L90.689 82.2023V81.4156Z" fill="#1E1E1E"/>
<path d="M92.212 38.5825H143.807V40.1825H92.5929L92.4124 39.3509L92.212 38.5825Z" fill="#1E1E1E"/>
<path d="M92.7991 58.789L135.382 58.789V60.4131L92.7466 60.4131C92.7726 60.3549 92.8063 60.2998 92.8495 60.2488C93.0269 60.0401 92.9934 59.8515 92.8383 59.6585C92.7864 59.5948 92.7852 59.5134 92.7841 59.4321C92.7827 59.3284 92.7813 59.2249 92.6743 59.1586C92.6977 59.0582 92.719 58.9567 92.7379 58.8563C92.7583 58.8339 92.7788 58.8115 92.7991 58.789Z" fill="#1E1E1E"/>
<path fill-rule="evenodd" clip-rule="evenodd" d="M103.948 50.829H103.149V45.0561H101.347L98.1939 51.1462L98.2891 52.2755H101.353V54.2928H103.149V52.2755H103.948V50.829ZM101.353 50.829H99.8307L101.22 47.803L101.315 47.6317L101.353 47.6381V50.829Z" fill="#1E1E1E"/>
<path d="M115.253 45.0561H119.77V46.5342H116.725L116.528 48.7102C116.659 48.5791 116.822 48.4712 117.016 48.3866C117.215 48.2978 117.422 48.2492 117.638 48.2407C118.408 48.228 118.998 48.4945 119.408 49.0401C119.823 49.5814 120.03 50.3448 120.03 51.3302C120.03 52.2099 119.795 52.9458 119.326 53.5379C118.86 54.13 118.194 54.4261 117.327 54.4261C116.591 54.4261 115.955 54.1913 115.418 53.7219C114.885 53.2482 114.627 52.6075 114.644 51.7997L114.656 51.7679L116.407 51.6728C116.407 52.0873 116.492 52.4108 116.661 52.6434C116.83 52.8718 117.052 52.986 117.327 52.986C117.644 52.986 117.875 52.8358 118.019 52.5356C118.163 52.2311 118.234 51.8335 118.234 51.3429C118.234 50.7973 118.154 50.3659 117.993 50.0487C117.833 49.7315 117.587 49.5729 117.257 49.5729C117.008 49.5729 116.815 49.6406 116.68 49.776C116.545 49.9113 116.452 50.091 116.401 50.3152L114.796 50.2073L115.253 45.0561Z" fill="#1E1E1E"/>
<path fill-rule="evenodd" clip-rule="evenodd" d="M134.925 45.0244C134.68 44.9567 134.407 44.9229 134.107 44.9229C133.155 44.9229 132.373 45.2739 131.76 45.9759C131.151 46.6738 130.846 47.6211 130.846 48.818V50.7212C130.846 51.8716 131.11 52.7766 131.639 53.4364C132.172 54.0962 132.866 54.4261 133.72 54.4261C134.515 54.4261 135.164 54.1258 135.668 53.5252C136.171 52.9204 136.422 52.157 136.422 51.2351C136.422 50.3173 136.226 49.5645 135.832 48.9766C135.443 48.3888 134.9 48.0948 134.202 48.0948C133.885 48.0948 133.597 48.1498 133.339 48.2598C133.081 48.3697 132.87 48.5199 132.705 48.7102L132.68 48.6848C132.667 47.9531 132.792 47.3885 133.054 46.991C133.32 46.5892 133.673 46.3883 134.113 46.3883C134.359 46.3883 134.574 46.4137 134.76 46.4644C134.951 46.5109 135.158 46.5828 135.382 46.6801L135.687 45.3162C135.429 45.1851 135.175 45.0878 134.925 45.0244ZM133.073 49.6491C133.25 49.5603 133.464 49.5159 133.714 49.5159C133.98 49.5159 134.198 49.6745 134.367 49.9916C134.536 50.3088 134.621 50.7233 134.621 51.2351C134.621 51.7172 134.538 52.1317 134.373 52.4785C134.208 52.821 133.991 52.9923 133.72 52.9923C133.39 52.9923 133.128 52.7978 132.933 52.4087C132.743 52.0196 132.648 51.4634 132.648 50.7402V50.0107C132.754 49.8542 132.895 49.7337 133.073 49.6491Z" fill="#1E1E1E"/>
<path d="M98.9679 75.4655H97.1662V68.1129L95.4534 68.151V66.8505L98.9679 66.2224V75.4655Z" fill="#1E1E1E"/>
<path fill-rule="evenodd" clip-rule="evenodd" d="M106.295 74.6472C106.786 74.0086 107.031 73.0739 107.031 71.8432V69.8575C107.031 68.631 106.786 67.6985 106.295 67.0598C105.805 66.417 105.147 66.0956 104.322 66.0956C103.497 66.0956 102.84 66.417 102.349 67.0598C101.863 67.6985 101.62 68.631 101.62 69.8575V71.8432C101.62 73.0739 101.865 74.0086 102.356 74.6472C102.846 75.2816 103.506 75.5988 104.335 75.5988C105.155 75.5988 105.809 75.2816 106.295 74.6472ZM104.995 68.0685C105.151 68.4111 105.229 68.9546 105.229 69.6989V71.9891C105.229 72.7461 105.153 73.2959 105.001 73.6385C104.849 73.9811 104.633 74.1397 104.354 74.1143H104.316C104.032 74.1397 103.813 73.9811 103.656 73.6385C103.5 73.2917 103.421 72.7419 103.421 71.9891V69.6989C103.421 68.9546 103.497 68.4111 103.65 68.0685C103.802 67.726 104.02 67.5652 104.303 67.5864H104.341C104.62 67.5652 104.838 67.726 104.995 68.0685Z" fill="#1E1E1E"/>
<path d="M115.189 75.4655H113.388V68.1129L111.675 68.151V66.8505L115.189 66.2224V75.4655Z" fill="#1E1E1E"/>
<path d="M119.858 75.4655L121.66 73.6385V66.2224L118.146 66.8505V68.151L119.858 68.1129V75.4655Z" fill="#1E1E1E"/>
<path d="M94.8828 87.5559H106.996C109.549 87.5559 112.103 86.5818 114.05 84.6336C115.998 82.6855 117.816 80.1326 117.816 77.5786L133.118 59.6626C135.447 59.6626 143.537 53.7648 146.414 51.2531C145.895 50.2278 145.225 49.3103 144.399 48.5202C137.261 41.6928 121.145 46.957 108.405 60.2783C99.7923 69.2833 94.9266 79.6648 94.8828 87.5559Z" fill="url(#paint0_radial)"/>
<path fill-rule="evenodd" clip-rule="evenodd" d="M139.399 54.1721H123.41C120.433 54.1721 116.777 56.4438 116.777 60.7028V77.7585C116.777 80.2656 115.962 82.7204 114.05 84.6339L147.087 50.6329C145.173 52.5453 141.905 54.1721 139.399 54.1721Z" fill="url(#paint1_linear)"/>
<path fill-rule="evenodd" clip-rule="evenodd" d="M85.0823 93.1729H44.5306C40.8162 93.1729 37.7734 90.1302 37.7734 86.4158V45.3396C37.7734 41.6252 40.8139 38.5825 44.5306 38.5825H85.7395C86.3487 39.5454 86.3989 40.6322 86.3621 41.7379C86.3789 41.8361 86.4001 41.9343 86.4179 42.0336C86.6745 42.6696 86.8999 43.3234 87.334 43.8612C87.7223 44.5206 87.8896 45.1923 87.9108 46.0091C87.9309 46.7667 87.5125 47.5131 87.855 48.2629C87.9052 48.35 87.9532 48.4359 88.0012 48.5218C88.2009 48.6133 88.4051 48.6334 88.6205 48.6055C88.8581 48.7795 88.8894 49.0206 88.8179 49.2917C88.7811 49.4289 88.6695 49.5651 88.7543 49.7101C88.8815 49.9266 88.8492 50.2267 89.0802 50.3863C89.5387 50.5012 89.8478 50.5391 89.5767 51.28C89.3613 51.8669 88.7543 52.2128 88.7845 52.8945C88.5825 53.1634 88.4018 53.4625 88.0782 53.5428C88.0146 53.6533 87.9365 53.7503 87.8338 53.8262C87.8037 53.8418 87.7725 53.8507 87.7423 53.8597C87.855 53.9311 87.9789 53.9835 88.0748 54.0828C88.1596 54.1832 88.2411 54.2881 88.3493 54.364C88.4196 54.4176 88.4866 54.4778 88.5457 54.5448C88.9027 54.7746 88.7264 55.2477 88.9541 55.5367C89.6949 55.8681 89.7217 56.3266 89.1716 56.8901H89.1728C89.1047 56.9705 89.0299 57.043 88.9474 57.1055C88.876 57.1813 88.8046 57.2561 88.7343 57.3308C88.6126 57.5696 88.6104 57.8039 88.7488 58.0371C88.7488 58.1744 88.7477 58.3127 88.7477 58.4511C88.5758 59.0157 88.3716 59.5602 87.9231 59.9496C87.9276 59.9641 87.9309 59.9775 87.9354 59.992C87.9387 60.0154 87.9421 60.0411 87.9443 60.0656C88.982 60.2241 89.4071 60.9091 89.0723 61.9156C88.973 62.7859 89.2442 63.8035 88.2177 64.3044C88.173 64.3569 88.1262 64.4082 88.0793 64.4595C88.0614 64.56 88.0391 64.6615 88.0157 64.7619C88.2065 64.8802 88.0614 65.1167 88.1797 65.2618C88.3348 65.4548 88.3694 65.6434 88.1909 65.852C88.0447 66.0261 88.0057 66.2481 88.0135 66.4769C88.0324 66.9578 88.0425 67.4398 88.0704 67.9207C88.0882 68.2208 88.0458 68.5031 87.9722 68.7954C87.8238 69.3734 87.816 69.9559 87.9822 70.5439C88.163 71.1832 88.1719 71.8415 88.1239 72.4998C88.0838 72.5378 88.0425 72.5746 88.0057 72.6136C88.0012 72.7263 87.9978 72.8379 87.9945 72.9506C87.9488 72.9908 87.8952 73.0254 87.8316 73.0443C87.7669 73.0633 87.7011 73.0733 87.6352 73.0834C87.6386 73.0968 87.643 73.1101 87.6464 73.1247C87.6319 73.3378 87.6107 73.5464 87.3585 73.5341C87.363 73.5375 87.3685 73.542 87.373 73.5464C87.5783 73.8544 87.5727 74.188 87.4868 74.5339C87.0729 75.1241 86.9111 75.8706 86.4201 76.4106C86.3722 76.4285 86.3253 76.4463 86.2784 76.4653C86.2104 76.5412 86.1423 76.6181 86.0731 76.694C86.0687 76.7487 86.0642 76.8034 86.0631 76.8592C86.0285 76.964 85.9783 77.0589 85.9091 77.1437C85.9024 77.1459 85.8957 77.1481 85.8901 77.1504C86.6243 77.5521 86.2829 78.2751 86.2639 78.8464C86.2561 79.0784 86.2461 79.3094 86.2394 79.5415C86.1836 79.6196 86.1033 79.6787 85.9705 79.6977C85.9683 79.7033 85.966 79.7088 85.9627 79.7144C85.9415 79.7423 85.9214 79.7724 85.9024 79.8026C86.5038 80.7064 85.9783 81.5064 85.6848 82.3276C85.7574 82.3053 85.8321 82.3041 85.9069 82.3253C86.1702 82.4916 86.2862 82.765 86.3878 83.0484C86.4257 83.1934 86.4358 83.3396 86.4168 83.4891C86.4012 83.5862 86.3822 83.681 86.3543 83.7747C86.3008 84.0325 86.3409 84.2344 86.4291 84.4074C86.332 84.9206 86.2963 85.4384 86.1591 85.9405C86.1133 86.0353 86.0441 86.1034 85.9549 86.148C85.9381 86.1971 85.9247 86.2484 85.9158 86.3008C86.0196 86.4905 86.0508 86.7036 86.0363 86.9424C86.0095 87.3787 86.0296 87.7993 86.1111 88.201C86.1122 88.2111 86.1133 88.2222 86.1144 88.2323C86.1155 88.2323 86.1166 88.2323 86.1178 88.2323C86.1836 88.5424 86.284 88.8426 86.4358 89.1271C86.4346 89.1349 86.4346 89.1427 86.4335 89.1517C86.4313 89.2275 86.4291 89.3023 86.428 89.3782H86.4268C86.5708 89.5444 86.7147 89.7107 86.8586 89.8769C86.8564 89.9427 86.8464 90.0086 86.8274 90.0711C86.7616 90.1302 86.7013 90.1927 86.6444 90.2574C86.563 90.3679 86.4826 90.4794 86.3923 90.581C85.7127 91.3397 85.1013 92.1308 85.0823 93.1729V93.1729Z" fill="#F1F2F0"/>
<path d="M88.0888 66.03L42.1899 66.03V64.406L88.1408 64.406C88.1205 64.4285 88.1 64.4509 88.0795 64.4734C88.0617 64.5738 88.0394 64.6754 88.0159 64.7758C88.1229 64.8421 88.1243 64.9455 88.1257 65.0492C88.1269 65.1305 88.128 65.2119 88.18 65.2756C88.3351 65.4687 88.3696 65.6572 88.1911 65.8659C88.1483 65.9168 88.1147 65.9719 88.0888 66.03Z" fill="#1E1E1E"/>
<path d="M63.8418 59.9098H69.2975V58.4697H66.1763L67.3817 56.7442C67.9991 55.966 68.439 55.3358 68.7012 54.8537C68.9677 54.3715 69.1009 53.8471 69.1009 53.2804C69.1009 52.4345 68.864 51.7663 68.3904 51.2757C67.9167 50.7851 67.2569 50.5398 66.4111 50.5398C65.5821 50.5398 64.9223 50.8316 64.4317 51.4153C63.9411 51.9947 63.7043 52.7031 63.7212 53.5405L63.7339 53.5722H65.4912C65.4912 53.0985 65.5694 52.7158 65.7259 52.4239C65.8866 52.1321 66.115 51.9862 66.4111 51.9862C66.6986 51.9862 66.9186 52.1067 67.0708 52.3478C67.2231 52.5889 67.2992 52.9061 67.2992 53.2994C67.2992 53.587 67.2252 53.9063 67.0772 54.2573C66.9334 54.6084 66.6944 55.0207 66.3603 55.4944L63.8418 58.6854V59.9098Z" fill="#1E1E1E"/>
<path d="M49.5996 59.9098H51.4013V50.6667L47.8868 51.2947V52.5952L49.5996 52.5572V59.9098Z" fill="#1E1E1E"/>
<path d="M81.7126 54.4984H82.6134C82.9349 54.4984 83.1738 54.3842 83.3303 54.1558C83.4868 53.9275 83.565 53.6081 83.565 53.1979C83.565 52.8384 83.4868 52.5466 83.3303 52.3224C83.1738 52.0983 82.9497 51.9862 82.6578 51.9862C82.421 51.9862 82.2159 52.0856 82.0425 52.2844C81.8733 52.4832 81.7887 52.7433 81.7887 53.0647H80.0441L80.0315 53.0266C80.0103 52.2949 80.2493 51.6986 80.7483 51.2376C81.2516 50.7724 81.8712 50.5398 82.6071 50.5398C83.4445 50.5398 84.1127 50.7703 84.6118 51.2313C85.1108 51.688 85.3604 52.3351 85.3604 53.1725C85.3604 53.5912 85.2525 53.9803 85.0368 54.3398C84.8211 54.6951 84.5251 54.9721 84.1487 55.1709C84.5801 55.3485 84.9099 55.6255 85.1383 56.0019C85.3667 56.3741 85.4809 56.8182 85.4809 57.3341C85.4809 58.1758 85.2102 58.8377 84.6689 59.3198C84.1317 59.8019 83.4424 60.043 82.6007 60.043C81.8606 60.043 81.2241 59.8167 80.6912 59.3642C80.1583 58.9074 79.9025 58.2561 79.9236 57.4103L79.9363 57.3722H81.6872C81.6872 57.7275 81.7803 58.0214 81.9664 58.254C82.1524 58.4866 82.3829 58.6029 82.6578 58.6029C82.9708 58.6029 83.2182 58.4866 83.4001 58.254C83.5862 58.0172 83.6792 57.7021 83.6792 57.3088C83.6792 56.8182 83.5883 56.4608 83.4064 56.2366C83.2288 56.0083 82.9645 55.8941 82.6134 55.8941H81.7126V54.4984Z" fill="#1E1E1E"/>
<path d="M51.3823 76.3816C51.6572 75.392 52.2112 74.3622 53.0444 73.2921V71.8457H47.4237V73.2921H51.3189C50.6379 74.2184 50.1072 75.2545 49.7265 76.4007C49.3501 77.5468 49.1048 78.8114 48.9906 80.1943L48.9018 81.0825H50.7098L50.7923 80.1943C50.915 78.638 51.1116 77.3671 51.3823 76.3816Z" fill="#1E1E1E"/>
<path fill-rule="evenodd" clip-rule="evenodd" d="M69.0882 74.2945C69.0882 74.7597 68.9825 75.1699 68.771 75.5252C68.5638 75.8805 68.2783 76.1575 67.9146 76.3563C68.329 76.5677 68.6547 76.8638 68.8915 77.2444C69.1284 77.625 69.2468 78.0628 69.2468 78.5576C69.2468 79.4161 68.9994 80.0738 68.5045 80.5306C68.0097 80.9873 67.3584 81.2157 66.5506 81.2157C65.7428 81.2157 65.0894 80.9873 64.5903 80.5306C64.0913 80.0696 63.8418 79.4119 63.8418 78.5576C63.8418 78.0628 63.9602 77.625 64.197 77.2444C64.4339 76.8595 64.7616 76.5635 65.1803 76.3563C64.8124 76.1575 64.5248 75.8805 64.3176 75.5252C64.1103 75.1699 64.0067 74.7597 64.0067 74.2945C64.0067 73.4782 64.2393 72.8438 64.7045 72.3913C65.1698 71.9388 65.783 71.7125 66.5443 71.7125C67.3055 71.7125 67.9188 71.9388 68.384 72.3913C68.8535 72.8438 69.0882 73.4782 69.0882 74.2945ZM67.4451 78.4244C67.4451 78.0099 67.3626 77.6821 67.1977 77.4411C67.0328 77.1958 66.8149 77.0731 66.5443 77.0731C66.2694 77.0731 66.0516 77.1958 65.8908 77.4411C65.7301 77.6821 65.6498 78.0099 65.6498 78.4244C65.6498 78.8473 65.7301 79.1793 65.8908 79.4204C66.0516 79.6572 66.2715 79.7756 66.5506 79.7756C66.8213 79.7756 67.037 79.6572 67.1977 79.4204C67.3626 79.1793 67.4451 78.8473 67.4451 78.4244ZM67.2738 74.3833C67.2738 74.0069 67.2104 73.7087 67.0835 73.4888C66.9609 73.2689 66.7811 73.1589 66.5443 73.1589C66.3074 73.1589 66.1277 73.2668 66.005 73.4825C65.8824 73.6982 65.8211 73.9984 65.8211 74.3833C65.8211 74.7724 65.8824 75.079 66.005 75.3032C66.1319 75.5231 66.3138 75.6331 66.5506 75.6331C66.7875 75.6331 66.9672 75.5231 67.0898 75.3032C67.2125 75.0832 67.2738 74.7766 67.2738 74.3833Z" fill="#1E1E1E"/>
<path fill-rule="evenodd" clip-rule="evenodd" d="M83.3049 79.2554C83.0681 79.6022 82.7678 79.7756 82.4041 79.7756C82.1292 79.7756 81.8775 79.7524 81.6492 79.7059C81.425 79.6551 81.1966 79.579 80.964 79.4775L80.761 80.8224C81.0105 80.9493 81.2812 81.0465 81.573 81.1142C81.8649 81.1819 82.1419 81.2157 82.4041 81.2157C83.288 81.2157 84.0176 80.8985 84.5927 80.2641C85.1722 79.6255 85.4619 78.7648 85.4619 77.6821V75.4237C85.4619 74.2564 85.2081 73.3471 84.7006 72.6958C84.1931 72.0403 83.5354 71.7125 82.7276 71.7125C81.9494 71.7125 81.3045 72.0318 80.7927 72.6704C80.2852 73.3048 80.0315 74.0851 80.0315 75.0113C80.0315 75.9925 80.2366 76.7686 80.6468 77.3396C81.0613 77.9063 81.6301 78.1897 82.3533 78.1897C82.6071 78.1897 82.846 78.1262 83.0702 77.9993C83.2986 77.8725 83.4974 77.6864 83.6665 77.4411V77.7963C83.6665 78.4223 83.546 78.9086 83.3049 79.2554ZM83.2542 76.6798C83.0935 76.7813 82.9074 76.8321 82.6959 76.8321C82.4125 76.8321 82.1969 76.6671 82.0488 76.3372C81.9008 76.0073 81.8268 75.5654 81.8268 75.0113C81.8268 74.5165 81.9093 74.0872 82.0742 73.7235C82.2391 73.3556 82.4506 73.1801 82.7086 73.197H82.7467C83.0216 73.1801 83.2436 73.3429 83.4128 73.6855C83.5819 74.028 83.6665 74.5334 83.6665 75.2017V76.2548C83.5566 76.4324 83.4191 76.5741 83.2542 76.6798Z" fill="#1E1E1E"/>
<path d="M41.9937 43.897H87.3812L87.7225 44.6574L87.8898 45.497H41.9937V43.897Z" fill="#1E1E1E"/>
<path d="M41.9937 86.7559H86.0458V87.6003L86.177 88.3559H41.9937V86.7559Z" fill="#1E1E1E"/>
<defs>
<radialGradient id="paint0_radial" cx="0" cy="0" r="1" gradientUnits="userSpaceOnUse" gradientTransform="translate(121.33 72.6404) rotate(-46.2764) scale(33.3759 17.8855)">
<stop offset="0.0625" stop-color="#00195A" stop-opacity="0.38"/>
<stop offset="1" stop-color="#00195A" stop-opacity="0"/>
</radialGradient>
<linearGradient id="paint1_linear" x1="118.969" y1="54.229" x2="131.636" y2="66.536" gradientUnits="userSpaceOnUse">
<stop offset="0.02589" stop-color="#AABEC8"/>
<stop offset="0.583027" stop-color="white"/>
<stop offset="0.985656" stop-color="#D6DEE3"/>
</linearGradient>
</defs>
</svg>
