<svg width="160" height="140" viewBox="0 0 160 140" fill="none" xmlns="http://www.w3.org/2000/svg">
<path fill-rule="evenodd" clip-rule="evenodd" d="M84.2448 32.4766C110.068 32.4766 131 53.4433 131 79.3003C131 105.157 110.068 126.124 84.2448 126.124C58.4334 126.124 37.501 105.157 37.501 79.3003C37.501 53.4433 58.4334 32.4766 84.2448 32.4766Z" fill="#191919" fill-opacity="0.14"/>
<path d="M78.0065 120.337C103.822 120.337 124.75 99.3733 124.75 73.5133C124.75 47.6532 103.822 26.6895 78.0065 26.6895C52.1906 26.6895 31.2627 47.6532 31.2627 73.5133C31.2627 99.3733 52.1906 120.337 78.0065 120.337Z" fill="url(#paint0_linear)"/>
<path d="M80.2692 114.812C106.085 114.812 127.013 93.8486 127.013 67.9886C127.013 42.1285 106.085 21.1648 80.2692 21.1648C54.4533 21.1648 33.5254 42.1285 33.5254 67.9886C33.5254 93.8486 54.4533 114.812 80.2692 114.812Z" fill="url(#paint1_linear)"/>
<path d="M75.7438 111.299C101.56 111.299 122.488 90.3354 122.488 64.4753C122.488 38.6152 101.56 17.6515 75.7438 17.6515C49.9279 17.6515 29 38.6152 29 64.4753C29 90.3354 49.9279 111.299 75.7438 111.299Z" fill="url(#paint2_linear)"/>
<path fill-rule="evenodd" clip-rule="evenodd" d="M77.8347 11.8759C64.9233 11.8759 53.2345 17.109 44.7793 25.5643C36.324 34.0309 31.0909 45.7083 31.0909 58.6197C31.0909 64.824 32.3249 70.7884 34.5187 76.2043L75.1382 66.9264L75.2524 66.9036L95.4536 15.3266L95.2594 15.2352C89.8663 13.0642 83.9933 11.8759 77.8347 11.8759V11.8759Z" fill="#D6DEE3"/>
<path fill-rule="evenodd" clip-rule="evenodd" d="M60.7525 50.073L35.8895 70.2742C33.9813 72.1709 33.6614 73.9762 34.5183 76.2043C35.0211 77.5183 35.6267 78.7752 36.2551 80.0092C44.139 95.3314 60.0555 105.363 77.8343 105.363C103.646 105.363 124.578 84.4425 124.578 58.6197C124.578 40.6237 114.295 24.5359 98.6525 16.7662C97.6128 16.2406 96.5501 15.7379 95.4532 15.3265C93.1909 14.4582 91.2485 14.9038 89.8545 16.332L60.7525 50.073Z" fill="url(#paint3_linear)"/>
<path fill-rule="evenodd" clip-rule="evenodd" d="M43.1036 64.4126L60.7525 50.0729L62.7365 47.7726C60.5417 50.8149 59.2487 54.551 59.2487 58.5912C59.2487 68.8119 67.5433 77.1064 77.776 77.1064C82.8804 77.1064 87.5152 75.0358 90.8619 71.677L102.624 83.4387C96.0385 90.0358 87.0938 93.7316 77.776 93.7316C60.3422 93.7316 45.8778 81.0487 43.1036 64.4126ZM83.3418 23.8827C90.5995 25.0482 97.3641 28.4722 102.624 33.7316L90.8619 45.4933C87.5152 42.1466 82.8804 40.0759 77.776 40.0759C72.7436 40.0759 68.18 42.0791 64.8413 45.3323L83.3418 23.8827Z" fill="url(#paint4_linear)"/>
<path d="M35.8897 70.2742L60.7527 50.073L79.7189 28.0835C83.1821 29.0456 86.1517 30.7678 88.4377 33.2935C99.2024 45.1875 90.7281 70.3971 69.5099 89.6008C65.0829 93.6074 60.451 97.0361 55.7946 99.8455C47.5054 95.4121 40.6388 88.5283 36.2553 80.0092C35.6269 78.7751 35.0213 77.5183 34.5186 76.2043C33.6616 73.9762 33.9815 72.1709 35.8897 70.2742Z" fill="url(#paint5_radial)"/>
<path fill-rule="evenodd" clip-rule="evenodd" d="M79.1826 58.2197C94.6991 41.8005 86.1525 20.034 89.8545 16.3319L35.6267 70.5141C42.1281 64.0698 63.6547 74.6274 79.1826 58.2197Z" fill="url(#paint6_linear)"/>
<defs>
<linearGradient id="paint0_linear" x1="78.7606" y1="125.319" x2="56.1828" y2="59.0822" gradientUnits="userSpaceOnUse">
<stop stop-color="#004495"/>
<stop offset="1" stop-color="#00195A"/>
</linearGradient>
<linearGradient id="paint1_linear" x1="93.6262" y1="115.224" x2="89.4671" y2="94.6912" gradientUnits="userSpaceOnUse">
<stop stop-color="#005AB4"/>
<stop offset="1" stop-color="#003C8A"/>
</linearGradient>
<linearGradient id="paint2_linear" x1="69.7223" y1="110.911" x2="75.7438" y2="92.4536" gradientUnits="userSpaceOnUse">
<stop stop-color="#0073D2"/>
<stop offset="0.694116" stop-color="#005AB4"/>
</linearGradient>
<linearGradient id="paint3_linear" x1="131.748" y1="105.363" x2="58.0989" y2="41.9601" gradientUnits="userSpaceOnUse">
<stop offset="0.0503949" stop-color="#0073D2"/>
<stop offset="1" stop-color="#50B4FF"/>
</linearGradient>
<linearGradient id="paint4_linear" x1="78.3523" y1="58.8072" x2="112.241" y2="98.5452" gradientUnits="userSpaceOnUse">
<stop stop-color="white"/>
<stop offset="1" stop-color="#AABEC8"/>
</linearGradient>
<radialGradient id="paint5_radial" cx="0" cy="0" r="1" gradientUnits="userSpaceOnUse" gradientTransform="translate(50.0187 68.0649) rotate(137.853) scale(51.8177 29.0466)">
<stop offset="0.0625" stop-color="#00195A" stop-opacity="0.38"/>
<stop offset="1" stop-color="#00195A" stop-opacity="0"/>
</radialGradient>
<linearGradient id="paint6_linear" x1="76.7374" y1="60.5849" x2="61.4837" y2="45.3083" gradientUnits="userSpaceOnUse">
<stop stop-color="#AABEC8"/>
<stop offset="0.341176" stop-color="#AABEC8"/>
<stop offset="1" stop-color="white"/>
</linearGradient>
</defs>
</svg>
