<svg width="160" height="140" viewBox="0 0 160 140" fill="none" xmlns="http://www.w3.org/2000/svg">
<path fill-rule="evenodd" clip-rule="evenodd" d="M27.7847 21.144L129.469 15.8156C131.663 15.6999 133.551 17.4001 133.666 19.5936L138.995 121.279C139.11 123.472 137.41 125.36 135.216 125.476L33.5322 130.804C31.3386 130.919 29.4497 129.219 29.3351 127.026L24.0055 25.3411C23.8909 23.1475 25.5911 21.2598 27.7847 21.144Z" fill="#191919" fill-opacity="0.14"/>
<path d="M129.301 14H28.405C26.2198 14 24.4482 15.7715 24.4482 17.9568V118.853C24.4482 121.038 26.2198 122.81 28.405 122.81H129.301C131.487 122.81 133.258 121.038 133.258 118.853V17.9568C133.258 15.7715 131.487 14 129.301 14Z" fill="url(#paint0_linear)"/>
<path opacity="0.5" fill-rule="evenodd" clip-rule="evenodd" d="M127.241 43.1354C127.241 47.2882 125.652 52.2776 123.421 55.8061C123.304 55.9961 123.177 56.1848 123.042 56.3713C118.847 62.1737 112.041 65.8175 104.559 65.8175C91.9654 65.8175 81.7573 55.6094 81.7573 43.0158C81.7573 38.5938 83.0293 34.4088 85.2677 30.8585C86.8776 28.3059 88.9863 26.0812 91.4816 24.3341L91.4828 24.3333C95.2336 21.518 99.3485 20.2787 104.385 20.2787C117.008 20.2787 127.241 30.5118 127.241 43.1354Z" fill="#00195A"/>
<path fill-rule="evenodd" clip-rule="evenodd" d="M103.714 41.3958L123.386 55.8624C125.635 52.3309 127.241 47.3104 127.241 43.1354C127.241 30.5118 117.008 20.2787 104.385 20.2787C99.3481 20.2787 95.233 21.5183 91.4819 24.334L103.714 41.3958Z" fill="#D6DEE3"/>
<path fill-rule="evenodd" clip-rule="evenodd" d="M107.433 39.2422L123.54 49.9467C125.115 50.9929 124.848 53.8748 123.042 56.3713C118.847 62.1737 112.041 65.8175 104.559 65.8175C91.9654 65.8175 81.7573 55.6094 81.7573 43.0157C81.7573 38.5938 83.0293 34.4088 85.2677 30.8585C86.8776 28.3059 88.9863 26.0812 91.4816 24.3341C93.0154 23.2604 95.6092 21.9897 97.567 23.9376C97.809 24.1782 98.0409 24.4675 98.2591 24.8117L107.433 39.2422Z" fill="url(#paint1_linear)"/>
<path fill-rule="evenodd" clip-rule="evenodd" d="M107.433 39.2422L123.54 49.9467C125.115 50.9929 124.848 53.8748 123.042 56.3713C118.847 62.1737 112.041 65.8175 104.559 65.8175C91.9654 65.8175 81.7573 55.6094 81.7573 43.0157C81.7573 38.5938 83.0293 34.4088 85.2677 30.8585C86.8776 28.3059 88.9863 26.0812 91.4816 24.3341C93.0154 23.2604 95.6092 21.9897 97.567 23.9376C97.809 24.1782 98.0409 24.4675 98.2591 24.8117L107.433 39.2422Z" fill="url(#paint2_linear)"/>
<path fill-rule="evenodd" clip-rule="evenodd" d="M107.433 39.2422L123.54 49.9467C125.115 50.9929 124.848 53.8748 123.042 56.3713C118.847 62.1737 112.041 65.8175 104.559 65.8175C91.9654 65.8175 81.7573 55.6094 81.7573 43.0157C81.7573 38.5938 83.0293 34.4088 85.2677 30.8585C86.8776 28.3059 88.9863 26.0812 91.4816 24.3341C93.0154 23.2604 95.6092 21.9897 97.567 23.9376C97.809 24.1782 98.0409 24.4675 98.2591 24.8117L107.433 39.2422Z" fill="url(#paint3_linear)"/>
<path fill-rule="evenodd" clip-rule="evenodd" d="M107.433 39.2422L123.54 49.9467C125.115 50.9929 124.848 53.8748 123.042 56.3713C118.847 62.1737 112.041 65.8175 104.559 65.8175C91.9654 65.8175 81.7573 55.6094 81.7573 43.0157C81.7573 38.5938 83.0293 34.4088 85.2677 30.8585C86.8776 28.3059 88.9863 26.0812 91.4816 24.3341C93.0154 23.2604 95.6092 21.9897 97.567 23.9376C97.809 24.1782 98.0409 24.4675 98.2591 24.8117L107.433 39.2422Z" fill="url(#paint4_linear)"/>
<path d="M121.925 48.8729L107.434 39.2423L99.274 26.4074C92.4475 28.8533 87.564 35.3804 87.564 43.0481C87.564 52.8078 95.4758 60.7196 105.235 60.7196C112.954 60.7196 119.517 55.7708 121.925 48.8729Z" fill="url(#paint5_linear)"/>
<path d="M98.1435 41.503C99.5423 41.503 100.676 40.3691 100.676 38.9703C100.676 37.5716 99.5423 36.4376 98.1435 36.4376C96.7448 36.4376 95.6108 37.5716 95.6108 38.9703C95.6108 40.3691 96.7448 41.503 98.1435 41.503Z" fill="url(#paint6_linear)"/>
<path d="M116.93 46.1182C115.513 51.4068 110.711 55.0942 105.235 55.0942C99.7584 55.0942 94.9574 51.4068 93.5396 46.1182L96.1608 45.4174C97.2619 49.5288 100.981 52.3782 105.235 52.3782C109.49 52.3782 113.209 49.5288 114.31 45.4174L116.93 46.1182Z" fill="url(#paint7_linear)"/>
<path d="M86.2285 29.4542C87.6848 27.4861 89.456 25.7527 91.482 24.3342C93.0158 23.2605 95.6096 21.9898 97.5675 23.9376C97.8094 24.1783 98.0413 24.4676 98.2595 24.8118L107.434 39.2423L123.54 49.9467C125.115 50.993 124.849 53.8748 123.043 56.3714C119.93 60.6774 115.378 63.7946 110.18 65.116C106.292 62.43 102.366 58.92 98.7333 54.7285C91.2666 46.113 86.8259 36.6785 86.2285 29.4542Z" fill="url(#paint8_radial)"/>
<path fill-rule="evenodd" clip-rule="evenodd" d="M101.589 45.173C93.2338 36.4526 100.54 26.9091 97.5672 23.9375L123.949 50.3032C120.943 47.3216 109.944 53.8946 101.589 45.173Z" fill="url(#paint9_linear)"/>
<path fill-rule="evenodd" clip-rule="evenodd" d="M73.7457 37.1842C73.7457 31.9928 70.3301 28.5224 66.2424 27.6769C62.1534 26.8326 57.3935 28.6146 54.7024 32.9917C52.0114 28.6146 47.249 26.8339 43.1625 27.6769C39.076 28.5199 35.6592 31.9916 35.6592 37.1842C35.6592 40.2768 37.1618 42.9005 39.1882 44.9282C44.3459 50.0846 49.5522 55.2173 54.7024 60.3675C59.8451 55.2236 65.0552 50.0871 70.2141 44.9282C72.3216 42.8207 73.7457 40.1658 73.7457 37.1842Z" fill="url(#paint10_linear)"/>
<path fill-rule="evenodd" clip-rule="evenodd" d="M101.247 74.6763L105.871 86.5093L118.517 87.2749C120.02 87.366 120.41 88.9185 119.398 89.749L109.572 97.8035L112.752 110.068C113.13 111.524 111.773 112.375 110.671 111.67L99.9754 104.814L89.2934 111.629C88.0239 112.437 86.7968 111.411 87.1273 110.144L90.3421 97.8534L80.5605 89.8002C79.3983 88.8437 79.9956 87.3585 81.3037 87.2812L93.9859 86.5404L98.6223 74.7486C99.1723 73.3482 100.77 73.458 101.247 74.6763Z" fill="url(#paint11_linear)"/>
<path fill-rule="evenodd" clip-rule="evenodd" d="M88.3481 72.9941L89.7311 76.5344L93.5145 76.7626C93.9635 76.79 94.0807 77.2539 93.7777 77.5021L90.8384 79.9113L91.7899 83.5801C91.9034 84.0165 91.4969 84.2709 91.1676 84.0589L87.9678 82.0088L84.7729 84.0477C84.3938 84.2896 84.026 83.9816 84.1257 83.6025L85.0872 79.9263L82.1604 77.5183C81.8137 77.2315 81.9921 76.7876 82.3836 76.7639L86.1771 76.5431L87.5638 73.0166C87.7284 72.5963 88.206 72.63 88.3481 72.9941Z" fill="url(#paint12_linear)"/>
<path fill-rule="evenodd" clip-rule="evenodd" d="M117.316 95.9405L118.213 98.2338L120.665 98.3822C120.955 98.3997 121.031 98.7002 120.834 98.8623L118.93 100.422L119.547 102.799C119.62 103.082 119.358 103.247 119.143 103.11L117.071 101.782L115.001 103.102C114.754 103.259 114.517 103.06 114.58 102.814L115.204 100.432L113.307 98.871C113.083 98.6865 113.199 98.3984 113.452 98.3834L115.91 98.24L116.808 95.9543C116.915 95.6824 117.224 95.7036 117.316 95.9405Z" fill="url(#paint13_linear)"/>
<g opacity="0.8">
<path fill-rule="evenodd" clip-rule="evenodd" d="M91.4818 24.3342L91.483 24.3333C95.2337 21.5181 99.3486 20.2787 104.385 20.2787C117.008 20.2787 127.242 30.5118 127.242 43.1354C127.242 47.2882 125.652 52.2776 123.422 55.8061C123.304 55.9961 123.178 56.1848 123.043 56.3714C118.848 62.1738 112.041 65.8176 104.559 65.8176C91.9656 65.8176 81.7575 55.6094 81.7575 43.0158C81.7575 38.5938 83.0295 34.4088 85.2679 30.8586C86.8778 28.3059 88.9865 26.0812 91.4818 24.3342ZM123.845 56.9521C119.469 63.0058 112.367 66.8084 104.559 66.8084C91.4183 66.8084 80.7666 56.1567 80.7666 43.0158C80.7666 38.4021 82.094 34.0346 84.4297 30.3301L84.4297 30.33C86.1066 27.6711 88.3024 25.353 90.9013 23.531C94.842 20.5774 99.1691 19.2878 104.385 19.2878C117.556 19.2878 128.232 29.9645 128.232 43.1354C128.232 47.4947 126.58 52.6633 124.262 56.3317C124.132 56.5406 123.993 56.7477 123.845 56.9521Z" fill="#005AB4"/>
<path fill-rule="evenodd" clip-rule="evenodd" d="M77.4919 37.184C77.4919 29.0577 70.3551 22.6771 62.1982 23.871C59.5746 24.2551 57.092 25.3743 55.0127 27.0511L54.7017 27.3018L54.3907 27.0511C50.5974 23.9924 45.4084 22.8851 40.7893 24.445C35.3886 26.2688 31.9128 31.2879 31.9128 37.184C31.9128 42.9866 35.7432 46.795 39.7249 50.7538C39.8188 50.8471 39.9128 50.9406 40.0068 51.0342C41.3624 52.3831 42.7186 53.7315 44.0749 55.08C47.62 58.6048 51.1657 62.1302 54.7017 65.665L57.3517 63.0161C59.9316 60.4362 62.5214 57.8648 65.1104 55.2942C66.6223 53.793 68.1339 52.2921 69.6432 50.7899L69.6769 50.7564C73.6608 46.7912 77.4919 42.9782 77.4919 37.184ZM62.0547 22.8906C70.8254 21.6068 78.4827 28.4693 78.4827 37.184C78.4827 43.392 74.385 47.4695 70.4919 51.3433C70.442 51.393 70.3921 51.4426 70.3423 51.4922C68.8311 52.9963 67.3187 54.4979 65.8066 55.9993C63.2186 58.5689 60.6313 61.1378 58.0523 63.7168L54.7016 67.0661L54.3513 66.7159C50.7005 63.065 47.0393 59.4248 43.3776 55.7841C42.021 54.4352 40.6642 53.0862 39.3079 51.7366C39.1825 51.6118 39.0567 51.4869 38.9308 51.3617C35.0291 47.4859 30.9219 43.4058 30.9219 37.184C30.9219 30.8873 34.6461 25.4737 40.4722 23.5062C45.3122 21.8717 50.6961 22.9672 54.7015 26.0351C56.8471 24.3879 59.3775 23.2824 62.0547 22.8906Z" fill="#005AB4"/>
<path fill-rule="evenodd" clip-rule="evenodd" d="M116.837 110.39C116.817 108.231 117.854 106.27 120.453 105.466C124.547 104.201 125.803 99.371 123.289 96.1948C121.837 94.3605 121.8 93.4327 123.092 91.511C123.756 90.5209 124.037 89.3998 123.982 88.3099C123.856 85.7498 121.891 83.3493 118.761 83.1597L108.681 82.5499L104.994 73.1125C104.108 70.8466 102.149 69.6807 100.151 69.6171C99.0553 69.5822 98.044 70.0648 97.1237 70.6633C95.0873 71.9902 94.5511 72.0562 93.9101 71.964C93.1881 71.8617 92.4312 71.4352 91.1842 70.0573C90.4085 69.2018 89.4221 68.7005 88.3434 68.6107C86.9867 68.4997 85.5127 68.9412 84.6236 70.1047C83.5836 71.4639 82.7169 72.2695 81.0222 72.8518C79.3399 73.4292 78.2313 74.8508 78.0006 76.4582C77.8498 77.5145 78.0593 78.6405 78.7376 79.5883C79.9111 81.2281 80.0458 82.8455 78.28 84.0763C77.2973 84.7609 76.5741 85.7161 76.2074 86.8073C75.5415 88.7925 76.0179 91.1693 78.0044 92.8042L85.8008 99.2226L83.2369 109.025C81.9562 113.919 87.2373 117.611 91.4572 114.919L99.9707 109.487L108.502 114.956C110.276 116.094 112.533 116.158 114.331 115.035C115.981 114.005 116.854 112.241 116.837 110.39ZM78.9816 76.5984C79.1605 75.3537 80.019 74.2438 81.3439 73.7891C83.2802 73.1237 84.2948 72.165 85.4105 70.7068C86.0416 69.881 87.144 69.507 88.262 69.5983C89.073 69.666 89.831 70.0404 90.4494 70.7222C91.7417 72.1501 92.6971 72.7926 93.7701 72.9449C94.2204 73.0096 94.6837 73.0134 95.333 72.7768C95.9143 72.5649 96.6366 72.1633 97.664 71.494C98.5329 70.9288 99.3323 70.5824 100.12 70.6075C101.744 70.6592 103.338 71.5974 104.071 73.4731L107.989 83.5007L118.701 84.1488C121.293 84.3058 122.89 86.2691 122.992 88.3586L122.992 88.3597C123.037 89.2442 122.81 90.1524 122.269 90.9582C121.603 91.9493 121.128 92.8897 121.171 93.927C121.215 94.962 121.765 95.8655 122.512 96.8097C124.62 99.4735 123.548 103.472 120.16 104.52C118.669 104.98 117.563 105.798 116.842 106.865C116.126 107.923 115.834 109.16 115.846 110.399C115.86 111.931 115.143 113.36 113.807 114.194C112.349 115.105 110.504 115.063 109.036 114.122L99.9719 108.311L90.9243 114.083C87.4273 116.315 83.154 113.256 84.1955 109.276L86.9197 98.8603L78.6342 92.0392C76.9824 90.6798 76.6044 88.7403 77.1467 87.1229M78.9816 76.5984C78.8625 77.4321 79.0304 78.2948 79.5434 79.0115C80.1947 79.9217 80.6576 80.9584 80.6005 82.038C80.5405 83.1731 79.9197 84.1412 78.8466 84.8892C78.0319 85.4568 77.4432 86.2407 77.1467 87.1229" fill="#005AB4"/>
<path fill-rule="evenodd" clip-rule="evenodd" d="M75.0152 79.4412C70.7491 73.1973 63.5738 69.0984 55.4407 69.0984C42.3545 69.0984 31.7461 79.7068 31.7461 92.7918C31.7461 105.878 42.3545 116.485 55.4407 116.485C63.5738 116.485 70.7491 112.386 75.0152 106.142L61.6646 92.7918L75.0152 79.4412ZM73.7228 106.251C69.5881 111.859 62.9389 115.494 55.4407 115.494C42.9017 115.494 32.737 105.331 32.737 92.7918C32.737 80.2541 42.9017 70.0893 55.4407 70.0893C62.9389 70.0893 69.5881 73.7246 73.7228 79.3322L60.9639 92.0911C60.577 92.4781 60.577 93.1055 60.9639 93.4924L73.7228 106.251Z" fill="#005AB4"/>
</g>
<path fill-rule="evenodd" clip-rule="evenodd" d="M62.5396 99.891L68.9143 106.267C65.3404 109.841 60.4944 111.849 55.4403 111.849C44.9154 111.849 36.3833 103.317 36.3833 92.7917C36.3833 82.2669 44.9154 73.736 55.4403 73.736C60.4944 73.736 65.3404 75.7437 68.9143 79.3164L62.5396 85.6925C60.7226 83.8755 58.2124 82.752 55.4403 82.752C49.8948 82.752 45.4005 87.2475 45.4005 92.7917C45.4005 98.3372 49.8948 102.832 55.4403 102.832C58.2124 102.832 60.7226 101.708 62.5396 99.891Z" fill="url(#paint14_linear)"/>
<defs>
<linearGradient id="paint0_linear" x1="131.021" y1="119.511" x2="27.9679" y2="13.9808" gradientUnits="userSpaceOnUse">
<stop stop-color="#0073D2"/>
<stop offset="1" stop-color="#50B4FF"/>
</linearGradient>
<linearGradient id="paint1_linear" x1="131.128" y1="117.792" x2="30.4586" y2="15.0538" gradientUnits="userSpaceOnUse">
<stop stop-color="#0073D2"/>
<stop offset="1" stop-color="#50B4FF"/>
</linearGradient>
<linearGradient id="paint2_linear" x1="131.128" y1="117.792" x2="30.4586" y2="15.0538" gradientUnits="userSpaceOnUse">
<stop stop-color="#0073D2"/>
<stop offset="1" stop-color="#50B4FF"/>
</linearGradient>
<linearGradient id="paint3_linear" x1="131.128" y1="117.792" x2="30.4586" y2="15.0538" gradientUnits="userSpaceOnUse">
<stop stop-color="#0073D2"/>
<stop offset="1" stop-color="#50B4FF"/>
</linearGradient>
<linearGradient id="paint4_linear" x1="131.128" y1="117.792" x2="30.4586" y2="15.0538" gradientUnits="userSpaceOnUse">
<stop stop-color="#0073D2"/>
<stop offset="1" stop-color="#50B4FF"/>
</linearGradient>
<linearGradient id="paint5_linear" x1="92.9835" y1="30.3136" x2="117.928" y2="55.2577" gradientUnits="userSpaceOnUse">
<stop stop-color="#FFFF00"/>
<stop offset="1" stop-color="#FFC828"/>
</linearGradient>
<linearGradient id="paint6_linear" x1="100.179" y1="38.1523" x2="95.1332" y2="37.3342" gradientUnits="userSpaceOnUse">
<stop stop-color="#191919"/>
<stop offset="1" stop-color="#454545"/>
</linearGradient>
<linearGradient id="paint7_linear" x1="113.348" y1="51.9704" x2="92.6168" y2="43.8536" gradientUnits="userSpaceOnUse">
<stop stop-color="#191919"/>
<stop offset="1" stop-color="#454545"/>
</linearGradient>
<radialGradient id="paint8_radial" cx="0" cy="0" r="1" gradientUnits="userSpaceOnUse" gradientTransform="translate(110.685 44.3707) rotate(50.1929) scale(26.2718 13.3159)">
<stop offset="0.182292" stop-color="#00195A" stop-opacity="0.52"/>
<stop offset="1" stop-color="#00195A" stop-opacity="0"/>
</radialGradient>
<linearGradient id="paint9_linear" x1="102.613" y1="46.6802" x2="111.278" y2="38.0151" gradientUnits="userSpaceOnUse">
<stop stop-color="#AABEC8"/>
<stop offset="0.323973" stop-color="#AABEC8"/>
<stop offset="1" stop-color="white"/>
</linearGradient>
<linearGradient id="paint10_linear" x1="63.7441" y1="51.7244" x2="39.4929" y2="27.4732" gradientUnits="userSpaceOnUse">
<stop stop-color="#FF4E78"/>
<stop offset="1" stop-color="#FF84A1"/>
</linearGradient>
<linearGradient id="paint11_linear" x1="89.5289" y1="80.6848" x2="117.437" y2="108.462" gradientUnits="userSpaceOnUse">
<stop stop-color="#8EDDFF"/>
<stop offset="1" stop-color="#1EAEFF"/>
</linearGradient>
<linearGradient id="paint12_linear" x1="89.5289" y1="80.6848" x2="117.437" y2="108.462" gradientUnits="userSpaceOnUse">
<stop stop-color="#8EDDFF"/>
<stop offset="1" stop-color="#1EAEFF"/>
</linearGradient>
<linearGradient id="paint13_linear" x1="89.5289" y1="80.6848" x2="117.437" y2="108.462" gradientUnits="userSpaceOnUse">
<stop stop-color="#8EDDFF"/>
<stop offset="1" stop-color="#1EAEFF"/>
</linearGradient>
<linearGradient id="paint14_linear" x1="50.2262" y1="87.5777" x2="68.9143" y2="106.266" gradientUnits="userSpaceOnUse">
<stop stop-color="white"/>
<stop offset="1" stop-color="#AABEC8"/>
</linearGradient>
</defs>
</svg>
