<svg width="160" height="140" viewBox="0 0 160 140" fill="none" xmlns="http://www.w3.org/2000/svg">
<path fill-rule="evenodd" clip-rule="evenodd" d="M112.194 59.7001L105.389 66.5021C93.5638 54.6812 73.0771 62.9935 73.0771 79.8871C73.0771 96.7845 93.5638 105.093 105.389 93.2721L126.729 114.616C117.844 123.501 105.565 129 92.0036 129C64.8801 129 42.8945 107.011 42.8945 79.8871C42.8945 52.3908 65.2682 30.778 92.0036 30.778C105.565 30.778 117.844 36.2734 126.729 45.1622L112.194 59.7001Z" fill="#191919" fill-opacity="0.14"/>
<path fill-rule="evenodd" clip-rule="evenodd" d="M106.357 52.5069L99.5507 59.3128C87.7298 47.4918 67.2392 55.8003 67.2392 72.6978C67.2392 89.5914 87.7298 97.9037 99.5507 86.0828L120.894 107.423C112.006 116.311 99.7275 121.807 86.1696 121.807C59.046 121.807 37.0566 99.8213 37.0566 72.6978C37.0566 45.2014 59.4303 23.5887 86.1696 23.5887C99.7275 23.5887 112.006 29.0841 120.894 37.9729L106.357 52.5069Z" fill="url(#paint0_linear)"/>
<path fill-rule="evenodd" clip-rule="evenodd" d="M102.571 47.3697L95.7656 54.1717C83.9446 42.3508 63.454 50.6631 63.454 67.5567C63.454 84.4542 83.9446 92.7626 95.7656 80.9417L117.109 102.285C108.221 111.17 95.9423 116.666 82.3806 116.666C55.2609 116.666 33.2715 94.6803 33.2715 67.5567C33.2715 40.0604 55.6451 18.4476 82.3806 18.4476C95.9423 18.4476 108.221 23.9431 117.109 32.8318L102.571 47.3697Z" fill="url(#paint1_linear)"/>
<path fill-rule="evenodd" clip-rule="evenodd" d="M84.8359 12.488C98.3977 12.488 110.676 17.9873 119.565 26.8722L103.382 43.0549L76.7695 13.1529L76.8272 13.1413C79.4365 12.7148 82.1074 12.488 84.8359 12.488Z" fill="#D6DEE3"/>
<path fill-rule="evenodd" clip-rule="evenodd" d="M103.382 43.0549L98.2211 48.216C94.7971 44.7919 90.0625 42.6706 84.8361 42.6706C74.3833 42.6706 65.9096 51.1482 65.9096 61.601C65.9096 72.0538 74.3833 80.5275 84.8361 80.5275C90.0625 80.5275 94.7971 78.41 98.2211 74.9821L119.565 96.3259C110.676 105.215 98.3979 110.71 84.8361 110.71C57.7164 110.71 35.7271 88.7207 35.7271 61.601C35.7271 37.2251 53.4853 17.0035 76.7698 13.1529L103.248 39.6308C104.216 40.5877 104.208 41.8098 103.382 43.0549Z" fill="url(#paint2_linear)"/>
<path d="M68.7542 15.188C71.335 14.2938 74.0136 13.6087 76.7696 13.1529L103.247 39.6308C104.216 40.5877 104.208 41.8098 103.382 43.0549L98.2209 48.216C94.7968 44.7919 90.0623 42.6706 84.8359 42.6706C74.3831 42.6706 65.9094 51.1482 65.9094 61.601C65.9094 72.0538 74.3831 80.5275 84.8359 80.5275C90.0623 80.5275 94.7968 78.41 98.2209 74.9821L113.29 90.0516C111.489 91.4036 109.501 92.4767 107.34 93.227C91.283 98.8018 71.7145 84.4505 63.6328 61.1726C57.3681 43.1282 59.8446 25.0166 68.7542 15.188Z" fill="url(#paint3_radial)"/>
<path fill-rule="evenodd" clip-rule="evenodd" d="M83.2756 52.2664L94.1127 41.6945C98.4206 37.4864 101.96 38.3434 103.247 39.6308L76.7695 13.1529C74.6712 11.0546 71.5315 11.6618 71.4393 16.3041C71.2625 25.0583 77.3843 46.379 83.2756 52.2664Z" fill="url(#paint4_linear)"/>
<defs>
<linearGradient id="paint0_linear" x1="76.2163" y1="120.446" x2="124.415" y2="52.2648" gradientUnits="userSpaceOnUse">
<stop stop-color="#005AB4"/>
<stop offset="1" stop-color="#003C8A"/>
</linearGradient>
<linearGradient id="paint1_linear" x1="45.4998" y1="113.5" x2="51.8099" y2="38.4656" gradientUnits="userSpaceOnUse">
<stop stop-color="#0073D2"/>
<stop offset="1" stop-color="#005AB4"/>
</linearGradient>
<linearGradient id="paint2_linear" x1="116.5" y1="100" x2="41.9998" y2="45.5" gradientUnits="userSpaceOnUse">
<stop stop-color="#0073D2"/>
<stop offset="1" stop-color="#50B4FF"/>
</linearGradient>
<radialGradient id="paint3_radial" cx="0" cy="0" r="1" gradientUnits="userSpaceOnUse" gradientTransform="translate(92.7069 51.0785) rotate(70.8538) scale(44.6164 30.7765)">
<stop stop-color="#00195A" stop-opacity="0.48"/>
<stop offset="1" stop-color="#00195A" stop-opacity="0"/>
</radialGradient>
<linearGradient id="paint4_linear" x1="74.8518" y1="37.5594" x2="87.449" y2="26.6109" gradientUnits="userSpaceOnUse">
<stop stop-color="#AABEC8"/>
<stop offset="0.431373" stop-color="#AABEC8"/>
<stop offset="1" stop-color="white"/>
</linearGradient>
</defs>
</svg>
