<svg width="160" height="140" viewBox="0 0 160 140" fill="none" xmlns="http://www.w3.org/2000/svg">
<path fill-rule="evenodd" clip-rule="evenodd" d="M147.47 10.9402H124.246C123.41 10.9402 122.722 11.628 122.722 12.464V24.7965C122.722 25.6385 123.41 26.3262 124.246 26.3262H147.47C148.312 26.3262 149 25.6385 149 24.7965V12.464C149 11.628 148.312 10.9402 147.47 10.9402ZM35.754 28.0634H12.5238C11.6878 28.0634 11 28.7512 11 29.5872V41.9197C11 42.7616 11.6878 43.4494 12.5238 43.4494H35.754C36.59 43.4494 37.2778 42.7616 37.2778 41.9197V29.5872C37.2778 28.7512 36.59 28.0634 35.754 28.0634ZM147.47 45.1866H124.246C123.41 45.1866 122.722 45.8684 122.722 46.7103V59.0429C122.722 59.8848 123.41 60.5667 124.246 60.5667H147.47C148.312 60.5667 149 59.8848 149 59.0429V46.7103C149 45.8684 148.312 45.1866 147.47 45.1866ZM35.754 62.3099H12.5238C11.6878 62.3099 11 62.9918 11 63.8337V76.1662C11 77.0082 11.6878 77.69 12.5238 77.69H35.754C36.59 77.69 37.2778 77.0082 37.2778 76.1662V63.8337C37.2778 62.9918 36.59 62.3099 35.754 62.3099ZM147.47 79.4272H124.246C123.41 79.4272 122.722 80.115 122.722 80.9569V93.2894C122.722 94.1255 123.41 94.8132 124.246 94.8132H147.47C148.312 94.8132 149 94.1255 149 93.2894V80.9569C149 80.115 148.312 79.4272 147.47 79.4272ZM35.754 96.5504H12.5238C11.6878 96.5504 11 97.2382 11 98.0801V110.413C11 111.249 11.6878 111.936 12.5238 111.936H35.754C36.59 111.936 37.2778 111.249 37.2778 110.413V98.0801C37.2778 97.2382 36.59 96.5504 35.754 96.5504ZM63.68 113.674H12.5238C11.6878 113.674 11 114.362 11 115.198V127.53C11 128.372 11.6878 129.06 12.5238 129.06H63.68C64.522 129.06 65.2098 128.372 65.2098 127.53V115.198C65.2098 114.362 64.522 113.674 63.68 113.674ZM68.3876 113.674H119.544C120.38 113.674 121.068 114.362 121.068 115.198V127.53C121.068 128.372 120.38 129.06 119.544 129.06H68.3876C67.5457 129.06 66.8579 128.372 66.8579 127.53V115.198C66.8579 114.362 67.5457 113.674 68.3876 113.674ZM124.246 113.674H147.47C148.312 113.674 149 114.362 149 115.198V127.53C149 128.372 148.312 129.06 147.47 129.06H124.246C123.41 129.06 122.722 128.372 122.722 127.53V115.198C122.722 114.362 123.41 113.674 124.246 113.674ZM40.4559 96.5504H91.6122C92.4482 96.5504 93.1359 97.2382 93.1359 98.0801V110.413C93.1359 111.249 92.4482 111.936 91.6122 111.936H40.4559C39.614 111.936 38.9321 111.249 38.9321 110.413V98.0801C38.9321 97.2382 39.614 96.5504 40.4559 96.5504ZM147.47 96.5504H96.3141C95.4781 96.5504 94.7903 97.2382 94.7903 98.0801V110.413C94.7903 111.249 95.4781 111.936 96.3141 111.936H147.47C148.312 111.936 149 111.249 149 110.413V98.0801C149 97.2382 148.312 96.5504 147.47 96.5504ZM68.3876 79.4272H119.544C120.38 79.4272 121.068 80.115 121.068 80.9569V93.2894C121.068 94.1255 120.38 94.8132 119.544 94.8132H68.3876C67.5457 94.8132 66.8579 94.1255 66.8579 93.2894V80.9569C66.8579 80.115 67.5457 79.4272 68.3876 79.4272ZM63.68 79.4272H12.5238C11.6878 79.4272 11 80.115 11 80.9569V93.2894C11 94.1255 11.6878 94.8132 12.5238 94.8132H63.68C64.522 94.8132 65.2098 94.1255 65.2098 93.2894V80.9569C65.2098 80.115 64.522 79.4272 63.68 79.4272ZM40.4559 62.3099H91.6122C92.4482 62.3099 93.1359 62.9918 93.1359 63.8337V76.1662C93.1359 77.0082 92.4482 77.69 91.6122 77.69H40.4559C39.614 77.69 38.9321 77.0082 38.9321 76.1662V63.8337C38.9321 62.9918 39.614 62.3099 40.4559 62.3099ZM147.47 62.3099H96.3141C95.4781 62.3099 94.7903 62.9918 94.7903 63.8337V76.1662C94.7903 77.0082 95.4781 77.69 96.3141 77.69H147.47C148.312 77.69 149 77.0082 149 76.1662V63.8337C149 62.9918 148.312 62.3099 147.47 62.3099ZM68.3876 45.1866H119.544C120.38 45.1866 121.068 45.8684 121.068 46.7103V59.0429C121.068 59.8848 120.38 60.5667 119.544 60.5667H68.3876C67.5457 60.5667 66.8579 59.8848 66.8579 59.0429V46.7103C66.8579 45.8684 67.5457 45.1866 68.3876 45.1866ZM63.68 45.1866H12.5238C11.6878 45.1866 11 45.8684 11 46.7103V59.0429C11 59.8848 11.6878 60.5667 12.5238 60.5667H63.68C64.522 60.5667 65.2098 59.8848 65.2098 59.0429V46.7103C65.2098 45.8684 64.522 45.1866 63.68 45.1866ZM40.4559 28.0634H91.6122C92.4482 28.0634 93.1359 28.7512 93.1359 29.5872V41.9197C93.1359 42.7616 92.4482 43.4494 91.6122 43.4494H40.4559C39.614 43.4494 38.9321 42.7616 38.9321 41.9197V29.5872C38.9321 28.7512 39.614 28.0634 40.4559 28.0634ZM147.47 28.0634H96.3141C95.4781 28.0634 94.7903 28.7512 94.7903 29.5872V41.9197C94.7903 42.7616 95.4781 43.4494 96.3141 43.4494H147.47C148.312 43.4494 149 42.7616 149 41.9197V29.5872C149 28.7512 148.312 28.0634 147.47 28.0634ZM68.3876 10.9402H119.544C120.38 10.9402 121.068 11.628 121.068 12.464V24.7965C121.068 25.6385 120.38 26.3262 119.544 26.3262H68.3876C67.5457 26.3262 66.8579 25.6385 66.8579 24.7965V12.464C66.8579 11.628 67.5457 10.9402 68.3876 10.9402ZM63.68 10.9402H12.5238C11.6878 10.9402 11 11.628 11 12.464V24.7965C11 25.6385 11.6878 26.3262 12.5238 26.3262H63.68C64.522 26.3262 65.2098 25.6385 65.2098 24.7965V12.464C65.2098 11.628 64.522 10.9402 63.68 10.9402Z" fill="#E5EBEF"/>
<path fill-rule="evenodd" clip-rule="evenodd" d="M95.6025 57.6484C83.6479 45.6937 62.9333 54.0964 62.9333 71.1745C62.9333 81.746 71.4984 90.311 82.0699 90.311C87.3557 90.311 92.135 88.1747 95.6025 84.7071L117.181 106.285C108.194 115.272 95.7778 120.831 82.0699 120.831C59.5502 120.831 40.2253 105.928 34.4525 85.2915C32.6993 79.0187 32.2512 72.6096 36.4526 68.4082L61.6152 45.356L79.3361 25.5571C82.9401 21.7908 88.1349 21.648 92.9531 22.7194C102.291 24.8104 110.642 29.5312 117.181 36.0702L95.6025 57.6484Z" fill="#191919" fill-opacity="0.14"/>
<path fill-rule="evenodd" clip-rule="evenodd" d="M94.6025 54.6484C82.6479 42.6937 61.9333 51.0964 61.9333 68.1745C61.9333 78.746 70.4984 87.311 81.0699 87.311C86.3557 87.311 91.135 85.1747 94.6025 81.7071L116.181 103.285C107.194 112.272 94.7778 117.831 81.0699 117.831C58.5502 117.831 39.2253 102.928 33.4525 82.2915C31.6993 76.0187 31.2512 69.6096 35.4526 65.4082L60.6152 42.356L78.3361 22.5571C81.9401 18.7908 87.1349 18.648 91.9531 19.7194C101.291 21.8104 109.642 26.5312 116.181 33.0702L94.6025 54.6484Z" fill="url(#paint0_linear)"/>
<path d="M77.8523 22.9407C79.924 24.0716 81.8417 25.4918 83.5568 27.2068C95.6274 39.2774 93.0915 61.3836 77.8927 76.5824C65.1556 89.3195 47.5674 93.1635 35.1 86.9703C34.4652 85.3891 33.9132 83.7657 33.4492 82.1052C31.7035 75.8517 31.2492 69.4548 35.446 65.2699L60.5316 42.2888L77.8523 22.9407Z" fill="url(#paint1_radial)"/>
<path fill-rule="evenodd" clip-rule="evenodd" d="M69.8941 55.6805C82.1669 42.6999 75.4136 25.4854 78.3357 22.5568L35.4521 65.4079C41.1275 59.7325 57.6212 68.6612 69.8941 55.6805Z" fill="url(#paint2_linear)"/>
<defs>
<linearGradient id="paint0_linear" x1="116.005" y1="97.8891" x2="32.2123" y2="51.6873" gradientUnits="userSpaceOnUse">
<stop stop-color="#0073D2"/>
<stop offset="1" stop-color="#50B4FF"/>
</linearGradient>
<radialGradient id="paint1_radial" cx="0" cy="0" r="1" gradientUnits="userSpaceOnUse" gradientTransform="translate(56.0369 54.7266) rotate(-45.2747) scale(37.2666 28.321)">
<stop stop-color="#00195A" stop-opacity="0.73"/>
<stop offset="0.965628" stop-color="#00195A" stop-opacity="0"/>
</radialGradient>
<linearGradient id="paint2_linear" x1="67.9655" y1="57.5507" x2="55.9004" y2="45.4726" gradientUnits="userSpaceOnUse">
<stop stop-color="#AABEC8"/>
<stop offset="0.411765" stop-color="#AABEC8"/>
<stop offset="1" stop-color="white"/>
</linearGradient>
</defs>
</svg>
