<svg width="175" height="153" viewBox="0 0 175 153" fill="none" xmlns="http://www.w3.org/2000/svg">
<path d="M170.712 38.1082L172.461 36.3702L165.411 29.3665L161.899 30.1776L161.095 33.6666L168.132 40.6574L169.882 38.9193" fill="#8E8E8E"/>
<path d="M173.42 41.61C173.99 41.0436 174.314 40.2711 174.314 39.46C174.314 38.6489 173.99 37.8893 173.42 37.31L173.278 37.1813L168.949 41.4813L169.091 41.6229C170.284 42.7945 172.228 42.7945 173.42 41.61Z" fill="#8E8E8E"/>
<path d="M159.669 24.5L153.474 25.2596L160.279 32.0186L160.927 29.212L163.752 28.5683L159.669 24.5Z" fill="#8E8E8E"/>
<rect x="1.31445" y="0.5" width="152" height="152" fill="white" stroke="#6C6C6C" stroke-linejoin="round"/>
<path d="M71.2259 11.9074C73.5666 7.36419 80.0624 7.36419 82.403 11.9074L91.6994 29.9517C93.1059 32.6817 96.2789 33.996 99.2038 33.0601L118.537 26.8744C123.404 25.317 127.997 29.9102 126.44 34.7779L120.254 54.1107C119.318 57.0356 120.633 60.2085 123.363 61.615L141.407 70.9114C145.95 73.2521 145.95 79.7479 141.407 82.0886L123.363 91.385C120.633 92.7915 119.318 95.9644 120.254 98.8893L126.44 118.222C127.997 123.09 123.404 127.683 118.537 126.126L99.2038 119.94C96.2789 119.004 93.1059 120.318 91.6994 123.048L82.403 141.093C80.0624 145.636 73.5666 145.636 71.2259 141.093L61.9295 123.048C60.523 120.318 57.35 119.004 54.4251 119.94L35.0923 126.126C30.2247 127.683 25.6314 123.09 27.1889 118.222L33.3746 98.8893C34.3104 95.9644 32.9961 92.7915 30.2662 91.385L12.2219 82.0886C7.67864 79.7479 7.67864 73.2521 12.2219 70.9114L30.2662 61.615C32.9961 60.2085 34.3104 57.0356 33.3746 54.1107L27.1889 34.7779C25.6314 29.9102 30.2247 25.317 35.0923 26.8744L54.4251 33.0601C57.35 33.996 60.523 32.6817 61.9295 29.9517L71.2259 11.9074Z" fill="#F1F2F0" stroke="#C4C4C4" stroke-linejoin="round"/>
<path d="M22.6089 74.9267L40.9286 63.9489C42.0623 63.2696 42.6178 61.9283 42.2966 60.6463L37.105 39.9299C36.5542 37.7316 38.546 35.7397 40.7443 36.2906L61.4608 41.4821C62.7428 41.8034 64.084 41.2478 64.7634 40.1141L75.7411 21.7944M78.8878 131.206L89.8656 112.886C90.545 111.752 91.8862 111.197 93.1682 111.518L113.885 116.709C116.083 117.26 118.075 115.268 117.524 113.07L112.332 92.3538C112.011 91.0718 112.567 89.7305 113.7 89.0512L132.02 78.0734" stroke="white" stroke-width="5" stroke-linecap="round" stroke-linejoin="round"/>
</svg>
