<svg width="173" height="140" viewBox="0 0 173 140" fill="none" xmlns="http://www.w3.org/2000/svg">
<path fill-rule="evenodd" clip-rule="evenodd" d="M103.447 4.42676C142.825 10.6444 172.5 42.1808 172.5 71.0542C172.5 99.9275 155.68 117.55 130.563 129.414L103.447 4.42676Z" fill="white" stroke="#6C6C6C" stroke-linejoin="round"/>
<path fill-rule="evenodd" clip-rule="evenodd" d="M86.5029 3.10328C92.375 3.10119 98.1131 3.57244 103.653 4.46184C106.963 4.99081 113.361 6.48681 113.951 9.0957L120.437 60.8043L139.135 113.569C140.034 117.233 139.532 125.232 130.333 129.522C117.487 135.51 102.51 138.999 86.4998 139C39.0029 139.001 0.498504 108.579 0.5 71.0544C0.496837 33.5264 39.0061 3.10409 86.5029 3.10328Z" fill="#F1F2F0" stroke="#6C6C6C" stroke-linejoin="round"/>
<path fill-rule="evenodd" clip-rule="evenodd" d="M88.802 67.7046C69.7327 41.897 79.2346 4.09482 102.113 1.06353C105.621 0.600945 112.407 2.69082 113.319 6.47335L139.135 113.569C136.271 101.835 112.321 99.5377 88.802 67.7046Z" fill="white" stroke="#6C6C6C" stroke-linejoin="round"/>
<path d="M168.397 129.608L170.147 127.87L163.096 120.867L159.584 121.678L158.781 125.167L165.818 132.157L167.568 130.419" fill="#8E8E8E"/>
<path d="M171.106 133.11C171.676 132.544 172 131.771 172 130.96C172 130.149 171.676 129.389 171.106 128.81L170.963 128.681L166.634 132.981L166.777 133.123C167.969 134.294 169.913 134.294 171.106 133.11Z" fill="#8E8E8E"/>
<path d="M157.355 116L151.16 116.76L157.964 123.519L158.612 120.712L161.437 120.068L157.355 116Z" fill="#8E8E8E"/>
</svg>
