<svg width="215" height="193" viewBox="0 0 215 193" fill="none" xmlns="http://www.w3.org/2000/svg">
<rect x="1.31445" y="0.5" width="192" height="192" fill="white" stroke="#6C6C6C" stroke-linejoin="round"/>
<path d="M50.3558 17.8039C51.595 15.3987 55.0339 15.3987 56.2731 17.8039L61.1947 27.3568C61.9393 28.8021 63.6192 29.4979 65.1676 29.0024L75.4026 25.7276C77.9796 24.9031 80.4113 27.3348 79.5868 29.9118L76.312 40.1468C75.8166 41.6953 76.5124 43.3751 77.9577 44.1197L87.5105 49.0413C89.9158 50.2805 89.9158 53.7195 87.5105 54.9587L77.9577 59.8803C76.5124 60.6249 75.8166 62.3047 76.312 63.8532L79.5868 74.0882C80.4113 76.6652 77.9796 79.0969 75.4026 78.2724L65.1676 74.9976C63.6192 74.5021 61.9393 75.1979 61.1947 76.6432L56.2731 86.1961C55.0339 88.6013 51.595 88.6013 50.3558 86.1961L45.4342 76.6432C44.6896 75.1979 43.0098 74.5021 41.4613 74.9976L31.2263 78.2724C28.6493 79.0969 26.2176 76.6652 27.0421 74.0882L30.3169 63.8532C30.8123 62.3047 30.1165 60.6249 28.6712 59.8803L19.1184 54.9587C16.7131 53.7195 16.7131 50.2805 19.1184 49.0413L28.6712 44.1197C30.1165 43.3751 30.8123 41.6953 30.3169 40.1468L27.0421 29.9118C26.2176 27.3348 28.6493 24.9031 31.2263 25.7276L41.4613 29.0024C43.0098 29.4979 44.6896 28.8021 45.4342 27.3568L50.3558 17.8039Z" fill="#F1F2F0" stroke="#C4C4C4" stroke-linejoin="round"/>
<path d="M25.3525 52.1669L35.0512 46.3552C35.6514 45.9955 35.9455 45.2854 35.7754 44.6067L33.027 33.6392C32.7353 32.4754 33.7899 31.4209 34.9536 31.7125L45.9212 34.461C46.5999 34.6311 47.31 34.3369 47.6696 33.7367L53.4814 24.0381M53.1473 79.9617L58.9591 70.263C59.3187 69.6628 60.0288 69.3687 60.7075 69.5388L71.675 72.2872C72.8388 72.5789 73.8933 71.5243 73.6017 70.3606L70.8532 59.393C70.6832 58.7143 70.9773 58.0043 71.5775 57.6446L81.2761 51.8328" stroke="white" stroke-width="3.5" stroke-linecap="round" stroke-linejoin="round"/>
<path d="M50.3558 105.804C51.595 103.399 55.0339 103.399 56.2731 105.804L61.1947 115.357C61.9393 116.802 63.6192 117.498 65.1676 117.002L75.4026 113.728C77.9796 112.903 80.4113 115.335 79.5868 117.912L76.312 128.147C75.8166 129.695 76.5124 131.375 77.9577 132.12L87.5105 137.041C89.9158 138.281 89.9158 141.719 87.5105 142.959L77.9577 147.88C76.5124 148.625 75.8166 150.305 76.312 151.853L79.5868 162.088C80.4113 164.665 77.9796 167.097 75.4026 166.272L65.1676 162.998C63.6192 162.502 61.9393 163.198 61.1947 164.643L56.2731 174.196C55.0339 176.601 51.595 176.601 50.3558 174.196L45.4342 164.643C44.6896 163.198 43.0098 162.502 41.4613 162.998L31.2263 166.272C28.6493 167.097 26.2176 164.665 27.0421 162.088L30.3169 151.853C30.8123 150.305 30.1165 148.625 28.6712 147.88L19.1184 142.959C16.7131 141.719 16.7131 138.281 19.1184 137.041L28.6712 132.12C30.1165 131.375 30.8123 129.695 30.3169 128.147L27.0421 117.912C26.2176 115.335 28.6493 112.903 31.2263 113.728L41.4613 117.002C43.0098 117.498 44.6896 116.802 45.4342 115.357L50.3558 105.804Z" fill="#F1F2F0" stroke="#C4C4C4" stroke-linejoin="round"/>
<path d="M25.3525 140.167L35.0512 134.355C35.6514 133.996 35.9455 133.285 35.7754 132.607L33.027 121.639C32.7353 120.475 33.7899 119.421 34.9536 119.713L45.9212 122.461C46.5999 122.631 47.31 122.337 47.6696 121.737L53.4814 112.038M53.1473 167.962L58.9591 158.263C59.3187 157.663 60.0288 157.369 60.7075 157.539L71.675 160.287C72.8388 160.579 73.8933 159.524 73.6017 158.361L70.8532 147.393C70.6832 146.714 70.9773 146.004 71.5775 145.645L81.2761 139.833" stroke="white" stroke-width="3.5" stroke-linecap="round" stroke-linejoin="round"/>
<path d="M138.356 17.8039C139.595 15.3987 143.034 15.3987 144.273 17.8039L149.195 27.3568C149.939 28.8021 151.619 29.4979 153.168 29.0024L163.403 25.7276C165.98 24.9031 168.411 27.3348 167.587 29.9118L164.312 40.1468C163.817 41.6953 164.512 43.3751 165.958 44.1197L175.511 49.0413C177.916 50.2805 177.916 53.7195 175.511 54.9587L165.958 59.8803C164.512 60.6249 163.817 62.3047 164.312 63.8532L167.587 74.0882C168.411 76.6652 165.98 79.0969 163.403 78.2724L153.168 74.9976C151.619 74.5021 149.939 75.1979 149.195 76.6432L144.273 86.1961C143.034 88.6013 139.595 88.6013 138.356 86.1961L133.434 76.6432C132.69 75.1979 131.01 74.5021 129.461 74.9976L119.226 78.2724C116.649 79.0969 114.218 76.6652 115.042 74.0882L118.317 63.8532C118.812 62.3047 118.117 60.6249 116.671 59.8803L107.118 54.9587C104.713 53.7195 104.713 50.2805 107.118 49.0413L116.671 44.1197C118.117 43.3751 118.812 41.6953 118.317 40.1468L115.042 29.9118C114.218 27.3348 116.649 24.9031 119.226 25.7276L129.461 29.0024C131.01 29.4979 132.69 28.8021 133.434 27.3568L138.356 17.8039Z" fill="#F1F2F0" stroke="#C4C4C4" stroke-linejoin="round"/>
<path d="M113.353 52.1669L123.051 46.3552C123.651 45.9955 123.946 45.2854 123.775 44.6067L121.027 33.6392C120.735 32.4754 121.79 31.4209 122.954 31.7125L133.921 34.461C134.6 34.6311 135.31 34.3369 135.67 33.7367L141.481 24.0381M141.147 79.9617L146.959 70.263C147.319 69.6628 148.029 69.3687 148.707 69.5388L159.675 72.2872C160.839 72.5789 161.893 71.5243 161.602 70.3606L158.853 59.393C158.683 58.7143 158.977 58.0043 159.577 57.6446L169.276 51.8328" stroke="white" stroke-width="3.5" stroke-linecap="round" stroke-linejoin="round"/>
<path d="M138.356 105.804C139.595 103.399 143.034 103.399 144.273 105.804L149.195 115.357C149.939 116.802 151.619 117.498 153.168 117.002L163.403 113.728C165.98 112.903 168.411 115.335 167.587 117.912L164.312 128.147C163.817 129.695 164.512 131.375 165.958 132.12L175.511 137.041C177.916 138.281 177.916 141.719 175.511 142.959L165.958 147.88C164.512 148.625 163.817 150.305 164.312 151.853L167.587 162.088C168.411 164.665 165.98 167.097 163.403 166.272L153.168 162.998C151.619 162.502 149.939 163.198 149.195 164.643L144.273 174.196C143.034 176.601 139.595 176.601 138.356 174.196L133.434 164.643C132.69 163.198 131.01 162.502 129.461 162.998L119.226 166.272C116.649 167.097 114.218 164.665 115.042 162.088L118.317 151.853C118.812 150.305 118.117 148.625 116.671 147.88L107.118 142.959C104.713 141.719 104.713 138.281 107.118 137.041L116.671 132.12C118.117 131.375 118.812 129.695 118.317 128.147L115.042 117.912C114.218 115.335 116.649 112.903 119.226 113.728L129.461 117.002C131.01 117.498 132.69 116.802 133.434 115.357L138.356 105.804Z" fill="#F1F2F0" stroke="#C4C4C4" stroke-linejoin="round"/>
<path d="M113.353 140.167L123.051 134.355C123.651 133.996 123.946 133.285 123.775 132.607L121.027 121.639C120.735 120.475 121.79 119.421 122.954 119.713L133.921 122.461C134.6 122.631 135.31 122.337 135.67 121.737L141.481 112.038M141.147 167.962L146.959 158.263C147.319 157.663 148.029 157.369 148.707 157.539L159.675 160.287C160.839 160.579 161.893 159.524 161.602 158.361L158.853 147.393C158.683 146.714 158.977 146.004 159.577 145.645L169.276 139.833" stroke="white" stroke-width="3.5" stroke-linecap="round" stroke-linejoin="round"/>
<path d="M210.712 38.6082L212.461 36.8702L205.411 29.8665L201.899 30.6776L201.095 34.1666L208.132 41.1574L209.882 39.4193" fill="#8E8E8E"/>
<path d="M213.42 42.11C213.99 41.5436 214.314 40.7711 214.314 39.96C214.314 39.1489 213.99 38.3893 213.42 37.81L213.278 37.6813L208.949 41.9813L209.091 42.1229C210.284 43.2945 212.228 43.2945 213.42 42.11Z" fill="#8E8E8E"/>
<path d="M199.669 25L193.474 25.7596L200.279 32.5186L200.927 29.712L203.752 29.0683L199.669 25Z" fill="#8E8E8E"/>
</svg>
