<?xml version="1.0" standalone="no"?>
<!DOCTYPE svg PUBLIC "-//W3C//DTD SVG 1.1//EN" "http://www.w3.org/Graphics/SVG/1.1/DTD/svg11.dtd" >
<svg xmlns="http://www.w3.org/2000/svg">
<metadata>
<json>
<![CDATA[
{
	"fontFamily": "icomoon",
	"majorVersion": 1,
	"minorVersion": 0,
	"description": "Font generated by IcoMoon.",
	"version": "Version 1.0",
	"fontId": "icomoon",
	"psName": "icomoon",
	"subFamily": "Regular",
	"fullName": "icomoon"
}
]]>
</json>
</metadata>
<defs>
<font id="icomoon" horiz-adv-x="1024">
<font-face units-per-em="1024" ascent="960" descent="-64" />
<missing-glyph horiz-adv-x="1024" />
<glyph unicode="&#x20;" horiz-adv-x="512" d="" />
<glyph unicode="&#xe900;" glyph-name="del" data-tags="del" d="M902.399-64.001l121.601 121.601-390.4 390.4 390.4 390.4-121.601 121.6-390.4-390.4-390.399 390.4-121.601-121.6 390.4-390.4-390.4-390.4 121.601-121.601 390.399 390.4 390.4-390.4z" />
<glyph unicode="&#xe901;" glyph-name="trash" data-tags="trash" horiz-adv-x="768" d="M694.154 802.462h-162.463v29.539c0 48.862-39.753 88.615-88.614 88.615h-118.154c-48.862 0-88.616-39.753-88.616-88.615v-29.539h-162.462c-40.719 0-73.846-33.127-73.846-73.846v-103.385c0-16.313 13.226-29.539 29.538-29.539h16.143l25.519-535.91c2.255-47.326 41.135-84.399 88.514-84.399h448.574c47.381 0 86.259 37.073 88.512 84.399l25.519 535.91h16.145c16.311 0 29.538 13.226 29.538 29.539v103.385c0 40.719-33.126 73.846-73.847 73.846zM295.384 832c0 16.287 13.251 29.539 29.539 29.539h118.154c16.286 0 29.538-13.252 29.538-29.539v-29.539h-177.231v29.539zM59.074 728.615c0 8.144 6.626 14.769 14.769 14.769h620.309c8.145 0 14.771-6.626 14.771-14.769v-73.846c-9.105 0-612.127 0-649.851 0v73.846zM637.79 62.593c-0.751-15.778-13.713-28.134-29.504-28.134h-448.574c-15.794 0-28.754 12.356-29.504 28.134l-25.386 533.098h558.355l-25.387-533.098z" />
<glyph unicode="&#xe902;" glyph-name="cp-constructr" data-tags="cp-constructr" d="M836.267 642.56c0 30.72-25.6 56.32-56.32 56.32h-25.6l13.653 13.653c0 0 10.24 10.24 18.773 18.773s18.773 18.773 18.773 18.773c23.893 23.893 23.893 63.146-1.707 87.040-23.893 23.893-63.147 23.893-88.747 0l-139.947-139.946h-348.16c-30.72 1.707-56.32-23.893-56.32-54.613v-317.44c0-30.72 25.6-56.32 56.32-56.32h204.8l-10.24-129.707h-81.92c-8.533 0-13.653-6.827-13.653-13.653 0-8.533 6.827-13.653 13.653-13.653h327.68c8.533 0 13.653 6.827 13.653 13.653 0 8.533-6.827 13.653-13.653 13.653h-83.627l-10.24 129.707h204.8c30.72 0 56.32 25.6 56.32 56.32v317.44h1.707zM735.573 820.053c13.653 13.653 35.84 11.947 49.493 0 13.653-13.653 13.653-35.84 0-49.493l-226.987-226.987-5.12 8.533c-8.533 13.653-20.48 25.6-34.133 34.133l-8.533 5.12 225.28 228.693zM517.12 444.587c-23.893-23.893-114.347-39.253-141.653-42.667l-11.947-1.707 1.707 11.947c3.413 18.773 18.773 117.76 42.667 141.653 29.013 29.013 78.507 30.72 107.52 0 32.427-30.72 32.427-80.213 1.707-109.227zM452.267 139.093l10.24 129.707h83.627l10.24-129.707h-104.107zM808.96 325.12c0-15.36-13.653-29.013-29.013-29.013h-552.96c-15.36 0-29.013 13.653-29.013 29.013v317.44c0 15.36 13.653 29.013 29.013 29.013h320.853l-68.267-69.973h-3.413c-32.427 3.413-63.147-6.827-85.333-30.72-29.013-29.013-47.787-119.467-54.613-187.733 0-3.413 1.707-8.533 3.413-11.947 3.413-3.413 6.827-5.12 11.947-3.413 68.267 6.827 158.72 25.6 187.733 54.613 22.187 22.187 34.133 52.907 30.72 85.333v3.413l158.72 157.013h54.613c15.36 0 29.013-13.653 29.013-29.013v-314.027h-3.413z" />
<glyph unicode="&#xe903;" glyph-name="cp-corporate" data-tags="cp-corporate" d="M862.918 412.023c0-7.020-5.265-12.285-10.53-12.285h-3.509l-286.053-38.608v17.55c0 21.059-17.55 36.854-36.854 36.854h-24.569c-21.059 0-36.854-17.55-36.854-36.854v-17.55l-291.318 38.608c-7.020 0-10.529 7.020-10.529 12.285v210.592c0 7.020 5.265 12.285 12.284 12.285h675.647c7.020 0 12.285-5.265 12.285-12.285v-210.592zM538.257 303.218c0-7.020-5.265-12.285-12.285-12.285h-24.569c-7.020 0-12.285 5.265-12.285 12.285v75.462c0 7.020 5.265 12.285 12.285 12.285h24.569c7.020 0 12.285-5.265 12.285-12.285v-75.462zM838.349 141.766c0-7.021-5.265-12.285-12.285-12.285h-624.754c-7.020 0-12.283 5.263-12.283 12.285v229.895l275.523-38.608v-31.589c0-21.060 17.55-36.854 36.854-36.854h24.569c21.059 0 36.854 17.55 36.854 36.854v31.589l275.523 38.608v-229.895zM613.719 659.468h-200.062v54.403h200.062v-54.403zM362.764 726.156c0 21.059 17.55 36.854 36.854 36.854h224.63c21.060 0 36.854-17.55 36.854-36.854v-66.688h-24.569v66.688c0 7.020-5.263 12.285-12.285 12.285h-222.875c-7.020 0-12.285-5.265-12.285-12.285v-66.688h-24.569v66.688h-1.754zM850.633 659.468h-163.209v66.688c0 35.099-28.078 63.177-63.177 63.177h-222.875c-35.098 0-63.177-28.078-63.177-63.177v-66.688h-163.209c-19.304 0-36.853-15.793-36.853-36.852v-210.592c0-15.793 10.53-29.833 24.569-35.098v-233.405c0-21.060 17.549-36.854 36.853-36.854h624.754c21.059 0 36.854 17.55 36.854 36.854v233.405c15.793 5.265 24.569 19.304 24.569 35.098v210.592c1.754 21.059-14.039 36.852-35.099 36.852z" />
<glyph unicode="&#xe904;" glyph-name="cp-delivery" data-tags="cp-delivery" d="M842.163 232.569h-29.897c-6.644 28.237-31.56 49.83-63.118 49.83-29.897 0-56.474-21.593-63.118-49.83h-26.576v277.386h76.406v-106.303c0-8.306 6.644-13.288 13.288-13.288h91.354v-157.795h1.661zM749.148 182.74c-19.932 0-36.541 16.611-36.541 36.541 0 19.932 16.609 36.543 36.541 36.543s36.541-16.611 36.541-36.543c-1.661-19.93-16.609-36.541-36.541-36.541zM764.097 486.7l61.457-69.762h-61.457v69.762zM631.217 340.535h-415.247v284.029h415.247v-284.029zM631.217 232.569h-232.538c-6.644 28.237-31.56 49.83-63.118 49.83-29.897 0-56.474-21.593-63.118-49.83h-56.474v78.066h415.247v-78.066zM337.222 182.74c-19.932 0-36.541 16.611-36.541 36.541 0 19.932 16.609 36.543 36.541 36.543s36.541-16.611 36.541-36.543c-1.661-19.93-16.609-36.541-36.541-36.541zM865.417 413.617l-104.643 119.591c-3.321 3.321-6.644 4.983-11.626 4.983h-89.694v99.659c0 8.305-6.644 14.949-13.288 14.949h-445.145c-6.644 0-13.288-6.644-13.288-14.949v-420.231c0-6.644 6.644-13.288 13.288-13.288h71.422c6.644-28.237 31.56-49.83 63.118-49.83 29.897 0 56.474 21.593 63.118 49.83h287.351c6.644-28.237 31.558-49.83 63.118-49.83 29.897 0 56.474 21.593 63.118 49.83h44.846c8.305 0 13.288 6.644 13.288 13.288v186.032c0 3.321-1.661 6.644-4.983 9.965z" />
<glyph unicode="&#xe905;" glyph-name="cp-gear" data-tags="cp-gear" d="M384 234.667c1.707 0 5.12 0 6.827-1.707 17.067-8.533 34.133-17.067 52.907-22.187 5.12-1.707 10.24-6.827 10.24-11.947l8.533-66.56c1.707-6.827 6.827-13.653 15.36-13.653h68.267c6.827 0 13.653 5.12 15.36 13.653l8.533 66.56c0 5.12 5.12 10.24 10.24 11.947 18.773 5.12 35.84 11.947 52.907 22.187 5.12 3.413 11.947 1.707 17.067-1.707l52.907-40.96c6.827-5.12 13.653-5.12 18.773 1.707l47.787 47.787c5.12 5.12 5.12 13.653 1.707 20.48l-42.667 51.2c-3.413 5.12-3.413 11.947-1.707 17.067 8.533 17.067 17.067 34.133 22.187 52.907 1.707 5.12 6.827 10.24 11.947 10.24l66.56 8.533c6.827 1.707 13.653 6.827 13.653 15.36v66.56c0 6.827-5.12 13.653-13.653 15.36l-66.56 8.533c-5.12 0-10.24 5.12-11.947 10.24-5.12 18.773-11.947 35.84-22.187 52.907-3.413 5.12-1.707 11.947 1.707 17.067l40.96 52.907c5.12 6.827 5.12 13.653-1.707 18.773l-47.787 46.080c-5.12 5.12-13.653 5.12-20.48 1.707l-51.2-40.96c-5.12-3.413-11.947-3.413-17.067-1.707-17.067 8.533-34.133 17.067-52.907 22.187-5.12 1.707-10.24 6.827-10.24 11.947l-8.533 66.56c-1.707 6.827-6.827 13.653-15.36 13.653h-66.56c-6.827 0-13.653-5.12-15.36-13.653l-8.533-66.56c0-5.12-5.12-10.24-10.24-11.947-17.067-5.12-35.84-13.653-51.2-22.187-5.12-3.413-11.947-1.707-17.067 1.707l-52.907 40.96c-5.12 3.413-13.653 3.413-18.773-1.707l-47.787-47.787c-5.12-5.12-5.12-13.653-1.707-18.773l40.96-52.907c3.413-5.12 3.413-11.947 1.707-17.067-8.533-17.067-17.067-34.133-22.187-52.907-1.707-5.12-6.827-10.24-11.947-10.24l-66.56-8.533c-6.827-1.707-13.653-6.827-13.653-15.36v-66.56c0-6.827 5.12-13.653 13.653-15.36l66.56-8.533c5.12 0 10.24-5.12 11.947-10.24 5.12-17.067 13.653-35.84 22.187-51.2 3.413-5.12 1.707-11.947-1.707-17.067l-40.96-52.907c-5.12-6.827-5.12-13.653 1.707-18.773l47.787-47.787c5.12-5.12 13.653-5.12 20.48-1.707l52.907 40.96c0 1.707 3.413 3.413 6.827 3.413zM546.133 89.6h-68.267c-22.187 0-40.96 17.067-44.373 39.253l-6.827 56.32c-13.653 5.12-27.307 10.24-40.96 17.067l-44.373-34.133c-18.773-13.653-44.373-11.947-59.733 3.413l-47.787 47.787c-15.36 15.36-17.067 40.96-3.413 59.733l34.133 44.373c-6.827 13.653-11.947 27.307-17.067 40.96l-56.32 6.827c-20.48 1.707-37.547 20.48-37.547 42.667v68.267c0 22.187 17.067 40.96 39.253 44.373l56.32 6.827c5.12 13.653 10.24 27.307 17.067 40.96l-34.133 44.373c-15.36 18.773-13.653 44.373 3.413 59.733l47.787 47.787c15.36 15.36 40.96 17.067 59.733 3.413l44.373-34.133c13.653 6.827 27.307 11.947 40.96 17.067l6.827 56.32c1.707 20.48 20.48 37.547 42.667 37.547h68.267c22.187 0 40.96-17.067 44.373-39.253l6.827-56.32c13.653-5.12 27.307-10.24 40.96-17.067l44.373 34.133c18.773 13.653 44.373 11.947 59.733-3.413l47.787-47.787c15.36-15.36 17.067-40.96 3.413-59.733l-34.133-44.373c6.827-13.653 11.947-27.307 17.067-40.96l56.32-6.827c20.48-1.707 37.547-20.48 37.547-42.667v-68.267c0-22.187-17.067-40.96-39.253-44.373l-56.32-6.827c-5.12-13.653-10.24-27.307-17.067-40.96l34.133-44.373c13.653-18.773 11.947-44.373-3.413-59.733l-47.787-47.787c-15.36-15.36-40.96-17.067-59.733-3.413l-44.373 34.133c-13.653-6.827-27.307-11.947-40.96-17.067l-6.827-56.32c-1.707-20.48-20.48-37.547-42.667-37.547zM512 567.467c-66.56 0-119.467-52.907-119.467-119.467s52.907-119.467 119.467-119.467c66.56 0 119.467 52.907 119.467 119.467s-52.907 119.467-119.467 119.467zM512 299.52c-81.92 0-150.187 66.56-150.187 150.187 0 81.92 66.56 150.187 150.187 150.187s150.187-66.56 150.187-150.187c0-83.627-68.267-150.187-150.187-150.187z" />
<glyph unicode="&#xe906;" glyph-name="cp-payment" data-tags="cp-payment" d="M791.113 355.227c0-7.002-7.021-14.003-14.044-14.003h-98.304c-31.597 0-56.173 24.506-56.173 56.013s24.576 56.015 56.173 56.015h98.304c7.023 0 14.044-7.002 14.044-14.003v-84.021zM763.027 230.948c0-15.754-12.288-28.008-28.087-28.008h-473.967c-15.799 0-28.087 12.254-28.087 28.008v334.331c0 15.754 12.288 28.006 28.087 28.006h473.967c15.799 0 28.087-12.252 28.087-28.006v-84.021h-84.262c-45.641 0-84.26-36.758-84.26-84.021 0-47.261 38.618-82.27 84.26-82.27h84.262v-84.019zM598.016 756.076c7.021 3.5 14.044 5.251 21.065 3.5s12.288-7.001 17.555-12.252l-217.673-126.032h-54.419l233.472 134.784zM662.967 698.312l-133.412-77.020h-54.419l173.788 101.526 14.042-24.506zM706.852 621.292h-121.124l91.283 52.514 29.841-52.514zM791.113 479.508v85.77c0 29.757-22.822 52.512-50.908 56.013l-80.749 140.035c-7.021 12.252-19.309 22.755-33.353 26.255-14.042 3.501-29.843 1.751-42.131-5.251l-275.601-161.039h-47.398c-31.597 0-56.173-26.255-56.173-56.013v-334.331c0-31.508 24.576-56.015 56.173-56.015h473.967c31.597 0 56.173 24.506 56.173 56.015v85.77c15.799 5.251 28.087 21.006 28.087 38.509v84.021c0 17.504-12.288 33.258-28.087 40.26zM678.765 425.245c-15.799 0-28.087-12.254-28.087-28.008s12.288-28.006 28.087-28.006 28.087 12.254 28.087 28.006c0 15.754-12.288 28.008-28.087 28.008z" />
<glyph unicode="&#xe907;" glyph-name="cp-personal" data-tags="cp-personal" d="M449.814 595.692c-10.365 0-19.002-8.637-19.002-19 0-10.365 8.637-19.002 19.002-19.002s19 8.637 19 19.002c0 10.363-8.636 19-19 19zM541.365 462.682h-58.73c-8.637 0-15.548-6.91-15.548-15.546s6.91-15.548 15.548-15.548h60.459c8.636 0 15.546 6.91 15.546 15.548-1.727 8.636-8.637 15.546-17.275 15.546zM482.635 625.058c0 8.636-6.91 15.546-15.548 15.546h-44.913c-8.636 0-15.546-6.91-15.546-15.546s6.91-15.548 15.546-15.548h44.913c8.637 0 15.548 6.91 15.548 15.548zM601.825 640.604h-44.913c-8.637 0-15.548-6.91-15.548-15.546s6.91-15.548 15.548-15.548h44.913c8.636 0 15.546 6.91 15.546 15.548 0 8.636-8.637 15.546-15.546 15.546zM575.913 595.692c-10.363 0-19-8.637-19-19 0-10.365 8.637-19.002 19-19.002 10.365 0 19.002 8.637 19.002 19.002-1.727 10.363-8.637 19-19.002 19zM938.667 49.835l-6.91 46.64c-5.181 39.729-31.092 74.278-67.367 93.28l-266.020 133.009v38.002h1.727c20.729 15.548 36.275 36.275 46.64 60.46 10.365 27.638 19.002 55.276 22.456 84.642v1.727h12.092c19.002 0 36.275 10.365 44.913 27.638 3.454 6.91 5.183 15.546 5.183 22.456v25.911c0 13.819-5.183 25.911-13.821 34.548v120.917c0 1.727 0 5.183-1.727 6.91l-5.181 6.909c-15.548 24.183-41.458 39.731-70.823 41.458h-1.727v1.727c-22.456 41.457-60.459 63.914-103.644 63.914h-82.915c-31.094 0-62.186-12.092-84.642-34.548l-25.911-25.911c-22.456-22.457-34.548-53.549-34.548-84.643v-91.551c-8.637-10.365-13.821-22.456-13.821-34.548v-25.912c0-8.636 1.729-15.546 5.183-22.455 8.637-17.275 25.911-27.639 44.913-27.639h12.092v-1.727c5.181-29.365 12.092-58.732 22.456-84.642 10.365-24.183 25.911-44.913 46.64-60.459h1.727v-38.002l-266.019-139.919c-36.275-17.275-60.459-53.55-67.368-93.28l-6.91-44.913c0-3.454 0-6.909 1.727-8.637 1.727-3.454 5.182-5.181 8.637-5.181h830.877c6.91 0 12.092 5.181 12.092 12.092v1.727zM199.342 106.839c0 6.91-5.183 12.092-12.092 12.092s-12.092-5.181-12.092-12.092v-46.64h-63.914l5.182 31.094c5.182 32.819 24.184 60.459 53.549 74.278l143.373 72.55 19.002-38.002-19.002-8.637c-5.181-1.727-8.636-8.637-6.909-15.546l39.729-117.463h-146.828v48.367zM411.812 60.199h-38.004l-38.002 114.009 76.006 32.819v-146.828zM411.812 272.669c0-1.727 0-36.275 0-36.275v-1.727l-55.277-24.183-19.002 39.729 81.188 39.729c-1.727 0-6.909-17.273-6.909-17.273zM707.195 587.054v-25.911c0-3.454-1.727-8.636-3.454-12.092-5.181-8.636-13.819-13.819-24.183-13.819h-6.909v79.461h8.636c13.819-1.727 25.911-13.819 25.911-27.639zM351.351 533.506h-6.909c-10.365 0-19.002 5.181-24.183 13.819-1.727 3.454-3.454 6.91-3.454 12.092v25.911c0 13.819 12.092 25.912 25.911 25.912h8.636v-77.734zM353.080 676.879c-1.729-1.727-1.729-3.454-1.729-6.91v-32.819h-6.909c-3.454 0-5.183 0-8.637 0h-3.454v77.732c0 24.183 10.365 50.094 27.638 67.369l25.911 25.911c17.275 17.274 41.458 27.638 67.369 27.638h81.188c36.275 0 69.096-20.729 84.642-51.822 1.727-3.454 6.91-6.91 10.365-6.91 24.183 0 44.913-12.092 58.732-31.092l3.454-6.91v-103.642h-3.454c-3.454 0-5.183 0-8.637 0h-6.909v34.546c0 1.729 0 5.183-1.729 6.91l-44.911 76.005c-1.729 3.456-6.91 6.91-10.365 6.91h-207.288c-5.181 0-8.636-1.727-10.365-6.91l-44.911-76.005zM588.005 60.199h-153.738v179.649l67.369-67.367c1.727-1.729 5.183-3.456 8.637-3.456s6.909 1.727 8.637 3.456l67.367 67.367v-179.649h1.727zM437.722 272.669l12.092 38.002v1.727c0 1.727 0 29.367 0 29.367v3.454l3.454-1.727c19.002-8.637 38.002-12.092 58.732-12.092s39.729 3.454 58.732 12.092l3.454 1.727v-34.548l12.092-38.002-74.278-74.278-74.278 74.278zM581.096 378.040l-1.727-1.727c-19.002-12.092-41.458-19.002-65.642-19.002s-48.367 6.91-67.369 19.002l-1.727 1.727c-19 13.819-32.819 31.092-41.457 53.548-17.275 41.458-25.911 86.371-25.911 131.282v103.644l38.002 65.642h193.468l39.729-67.369v-103.644c0-44.911-8.636-89.824-25.911-131.282-8.636-20.729-22.456-38.002-41.457-51.821zM607.007 289.942l81.188-39.729-19.002-39.729-55.276 24.183c0 0 0 36.275 0 38.002l-6.91 17.273zM613.917 60.199v146.828l76.005-32.819-38.002-114.009h-38.002zM850.57 60.199v46.64c0 6.91-5.183 12.092-12.092 12.092s-12.092-5.181-12.092-12.092v-46.64h-148.557l39.729 117.463c1.727 6.91-1.727 12.092-6.909 15.546l-19.002 8.637 19.002 38.002 143.374-72.55c29.365-13.819 48.367-41.457 53.548-74.278l5.183-31.094h-62.186v-1.727z" />
<glyph unicode="&#xe908;" glyph-name="cp-up-point" data-tags="cp-up-point" d="M877.227 268.8c-1.707-10.24-8.533-17.067-17.067-20.48l-274.773-100.693c-23.893-8.533-51.2-11.947-76.8-6.827l-23.893 3.413c-37.547 6.827-76.8-1.707-109.227-23.893l-85.333 121.173 42.667 29.013c22.187 15.36 46.080 27.307 71.68 34.133h1.707c39.253 11.947 78.507 13.653 119.467 6.827l134.827-23.893c6.827-1.707 13.653-5.12 17.067-11.947 1.707-3.413 3.413-6.827 5.12-11.947 0-3.413 0-6.827 0-11.947-3.413-13.653-17.067-22.187-30.72-18.773l-145.067 25.6-5.12-25.6 145.067-25.6c3.413 0 6.827-1.707 10.24-1.707 23.893 0 44.373 15.36 51.2 37.547l134.827 49.493c13.653 5.12 29.013-1.707 34.133-15.36 0 1.707 1.707-3.413 0-8.533zM257.707 7.68l-122.88 177.493 110.933 76.8 122.88-175.787-110.933-78.507zM387.413 657.92v39.253c0 6.827 6.827 13.653 13.653 13.653h148.48v-146.773c0-5.12 3.413-10.24 8.533-11.947s10.24-1.707 15.36 3.413l44.373 44.373 44.373-44.373c0-5.12 3.413-5.12 8.533-5.12 1.707 0 3.413 0 5.12 1.707 5.12 1.707 8.533 6.827 8.533 11.947v146.773h148.48c6.827 0 13.653-6.827 13.653-13.653v-370.347c-5.12 0-8.533-1.707-11.947-3.413l-47.787-17.067h-93.867c-6.827 6.827-15.36 10.24-25.6 11.947l-134.827 23.893c-44.373 8.533-88.747 5.12-131.413-8.533h-1.707c-3.413 0-6.827-1.707-8.533-3.413v327.68h-3.413zM575.147 710.827h80.213v-116.053l-30.72 30.72c-5.12 5.12-13.653 5.12-18.773 0l-30.72-30.72v116.053zM901.12 292.693c-5.12 13.653-15.36 25.6-29.013 30.72v373.76c0 22.187-18.773 40.96-40.96 40.96h-430.080c-22.187 0-40.96-18.773-40.96-40.96v-377.173c-15.36-6.827-30.72-15.36-44.373-25.6l-42.667-29.013-15.36 22.187c-5.12 6.827-11.947 6.827-18.773 3.413l-133.12-92.16c-6.827-5.12-6.827-11.947-3.413-18.773l138.24-197.973c3.413-6.827 11.947-6.827 18.773-3.413l133.12 92.16c6.827 5.12 6.827 11.947 3.413 18.773l-6.827 10.24c25.6 17.067 58.027 23.893 88.747 18.773l23.893-3.413c30.72-5.12 61.44-3.413 90.453 8.533l274.773 100.693c30.72 8.533 44.373 40.96 34.133 68.267z" />
<glyph unicode="&#xe909;" glyph-name="cp-facebook" data-tags="cp-facebook" horiz-adv-x="983" d="M491.532 928.265c-87.052 0-167.349-22.412-240.892-67.236-73.543-43.278-132.078-102.786-175.603-178.524-42.025-75.737-63.037-158.43-63.037-248.079 0-81.92 17.26-158.429 51.78-229.532 36.021-69.554 84.8-127.517 146.336-173.883 61.536-46.371 130.577-74.965 207.123-85.787v345.457h-121.573v143.745h121.573v108.97c0 60.28 15.757 107.423 47.276 141.428 33.022 34.005 77.296 51.007 132.829 51.007 36.020 0 72.040-3.092 108.065-9.274v-122.88h-60.789c-27.013 0-47.276-7.728-60.785-23.185-12.005-13.911-18.010-31.685-18.010-53.324v-92.742h135.078l-22.512-143.745h-112.566v-345.457c78.045 12.366 147.837 41.734 209.371 88.105 61.538 46.367 109.568 104.329 144.085 173.883 34.521 71.102 51.782 146.842 51.782 227.213 0 89.649-21.762 172.342-65.29 248.079-42.021 75.737-99.807 135.245-173.351 178.524-73.544 44.824-153.838 67.236-240.89 67.236z" />
<glyph unicode="&#xe90a;" glyph-name="cp-instagram" data-tags="cp-instagram" horiz-adv-x="983" d="M283.836 928.265h415.368c50.77 0 97.69-13.076 140.763-39.229 44.614-24.615 79.229-59.229 103.846-103.842 26.149-43.075 39.227-89.996 39.227-140.764v-415.369c0-50.766-13.079-98.46-39.227-143.073-24.617-43.074-59.232-76.919-103.846-101.532-43.074-26.153-89.993-39.231-140.763-39.231h-415.368c-50.767 0-98.458 13.079-143.072 39.231-43.075 24.613-77.689 58.458-103.842 101.532-24.614 44.614-36.922 92.307-36.922 143.073v415.369c0 50.767 12.307 97.689 36.922 140.764 26.153 44.614 60.767 79.228 103.842 103.842 44.614 26.153 92.304 39.229 143.072 39.229zM274.605 831.345c-49.229 0-91.535-17.691-126.919-53.075-33.845-33.845-50.767-75.382-50.767-124.611v-433.832c0-49.226 16.922-91.533 50.767-126.915 35.383-33.845 77.69-50.77 126.919-50.77h433.831c49.23 0 90.763 16.925 124.609 50.77 35.385 35.381 53.076 77.689 53.076 126.915v433.832c0 49.229-17.691 90.766-53.076 124.611-33.845 35.383-75.379 53.075-124.609 53.075h-433.831zM749.974 757.502c16.921 0 31.535-6.154 43.844-18.461 12.304-12.307 18.461-26.922 18.461-43.844s-6.156-31.537-18.461-43.844c-12.308-12.307-26.923-18.461-43.844-18.461-16.925 0-31.539 6.154-43.848 18.461-12.304 12.307-18.461 26.922-18.461 43.844s6.156 31.537 18.461 43.844c12.308 12.307 26.923 18.461 43.848 18.461zM491.52 683.659c44.614 0 85.381-11.538 122.302-34.614 38.461-21.538 68.461-51.537 89.997-89.996 23.077-36.923 34.615-77.69 34.615-122.304s-11.538-86.151-34.615-124.609c-21.537-36.921-51.536-66.92-89.997-89.997-36.921-21.537-77.689-32.305-122.302-32.305s-86.151 10.768-124.611 32.305c-36.922 23.077-66.921 53.076-89.997 89.997-21.538 38.457-32.306 79.995-32.306 124.609s10.769 85.381 32.306 122.304c23.076 38.46 53.075 68.459 89.997 89.996 38.46 23.076 79.997 34.614 124.611 34.614zM491.52 584.432c-41.538 0-76.919-14.615-106.15-43.846-27.691-27.689-41.537-62.304-41.537-103.842s13.845-76.919 41.537-106.148c29.231-27.693 64.612-41.538 106.15-41.538s76.153 13.844 103.842 41.538c29.229 29.229 43.844 64.61 43.844 106.148s-14.615 76.153-43.844 103.842c-27.689 29.231-62.304 43.846-103.842 43.846z" />
<glyph unicode="&#xe90b;" glyph-name="cp-vkontakte" data-tags="cp-vkontakte" horiz-adv-x="983" d="M818.495 257.434c-4.219 16.88-25.313 42.193-59.064 84.382l-29.536 29.536c-12.657 12.657-21.094 21.094-21.094 21.094-4.219 4.219-8.438 12.657-8.438 16.876s4.219 8.438 8.438 16.876c0 0 0 4.219 8.438 12.657 54.85 80.163 84.382 130.791 88.601 151.887 4.219 16.876 0 29.533-21.094 29.533h-71.725c-16.876 0-25.313-8.438-33.751-21.096-4.219-16.876-12.657-33.752-25.313-50.63-21.098-37.97-42.193-71.721-63.287-92.819-16.876-16.876-25.313-21.094-33.751-21.094s-8.438 8.438-8.438 21.094v135.012c0 16.876-8.438 25.314-21.098 25.314h-113.914c-4.218 0-12.656 0-12.656-4.219-4.219-4.219-4.219-8.438-4.219-12.657s4.219-12.657 8.438-16.876c12.656-16.876 16.875-33.754 16.875-50.629v-105.476c0-12.657 0-16.876-4.219-21.094 0-4.219-4.219-4.219-12.656-4.219-12.657 0-29.533 21.094-54.847 59.064-25.315 37.974-46.41 84.382-63.286 130.793 4.219 8.438 0 16.876-4.219 21.095s-12.657 4.219-21.095 4.219h-71.724c-16.876 0-25.314-8.438-25.314-21.095s8.438-42.19 21.095-75.943c21.095-50.627 50.629-105.476 88.6-160.326 29.533-42.189 63.286-75.94 101.257-97.038 37.971-21.094 80.164-33.751 118.134-33.751 21.094 0 33.751 4.219 42.189 8.438 8.442 4.219 8.442 12.657 8.442 21.094v63.287c0 12.657 0 16.876 4.219 21.094s8.438 4.219 16.876 4.219c16.876 0 37.97-16.876 71.721-46.408l33.755-37.974c12.657-12.657 21.094-21.094 29.532-29.532 4.219-4.219 12.657-8.438 21.094-8.438h71.725c25.313 4.219 33.751 12.657 25.313 33.751zM852.251 902.951c50.627-21.095 84.382-54.847 105.476-105.476 16.876-46.41 25.313-118.134 25.313-210.953v-299.552c0-97.038-8.438-164.545-25.313-210.952-21.094-50.631-54.85-84.382-105.476-105.48-46.412-16.876-118.137-25.313-210.952-25.313h-299.555c-97.038 0-164.543 8.438-210.953 25.313-50.629 21.098-84.381 54.85-105.476 105.48-16.876 46.408-25.314 118.133-25.314 210.952v299.552c0 97.038 8.438 164.543 25.314 210.953 21.095 50.629 54.848 84.381 105.476 105.476 46.41 16.876 113.915 25.315 210.953 25.315h299.555c97.038 0 164.54-8.438 210.952-25.315z" />
<glyph unicode="&#xe90c;" glyph-name="cp-alarm" data-tags="cp-alarm" horiz-adv-x="1195" d="M1021.605 21.333h-819.2c-68.267 0-113.778 73.956-85.333 136.533 0 0-22.755-34.133 409.601 682.667 34.133 68.267 130.844 68.267 164.977 0 426.667-716.8 409.6-682.667 409.6-682.667 34.133-62.578-11.378-136.533-79.644-136.533zM1163.827 192c-426.667 716.8-409.6 682.667-409.6 682.667-28.444 51.2-79.644 85.333-142.222 85.333s-113.777-34.133-142.222-85.333c0 0 22.756 34.133-409.6-682.667-56.889-108.089 22.756-238.933 142.222-238.933h813.511c125.156 0 204.8 130.844 147.911 238.933zM577.872 254.578h68.267v438.044h-68.267v-438.044zM577.872 123.733h68.267v68.267h-68.267v-68.267z" />
<glyph unicode="&#xe90d;" glyph-name="cp-email" data-tags="cp-email" horiz-adv-x="1331" d="M1206.4 947.2h-1081.599c-68.819 0-124.801-55.982-124.801-124.801v-748.799c0-68.818 55.982-124.8 124.801-124.8h1081.599c68.818 0 124.8 55.982 124.8 124.8v748.799c0 68.819-55.982 124.801-124.8 124.801zM1206.4 864.001c5.652 0 11.028-1.173 15.944-3.221l-556.744-482.534-556.747 482.534c4.916 2.045 10.293 3.221 15.945 3.221h1081.602zM1206.4 32h-1081.599c-22.953 0-41.602 18.647-41.602 41.6v699.278l555.142-481.12c7.839-6.784 17.551-10.158 27.259-10.158s19.42 3.369 27.259 10.158l555.141 481.12v-699.278c0-22.953-18.647-41.6-41.6-41.6z" />
<glyph unicode="&#xe90e;" glyph-name="cp-phone" data-tags="cp-phone" horiz-adv-x="991" d="M669.385 375.458c-24.285 14.372-66.712 49.519-106.248 11.898-9.328-9.497-15.505-15.852-19.496-19.935-35.913 17.008-99.771 78.666-116.326 117.572 58.669 53.331 31.513 72.354-26.191 181.943-9.857 17.011-25.841 28.299-45.347 28.299-23.892 0-33.228-11.772-67.356-46.308-42.732-43.231-67.81-56.811-51.736-130.063 45.741-208.519 350.996-417.353 437.441-323.997 70.61 70.131 84.226 76.777 80.090 108.491-5.209 31.582-29.442 39.325-84.83 72.1zM631.577 234.377c-4.938-5.48-34.499-7.287-83.535 13.064-92.989 38.588-189.443 139.855-228.97 215.453-12.588 24.081-40.426 95.48-24.972 109.406 6.321 5.995 48.819 49.393 59.69 59.91 28.943-54.86 43.034-80.503 47.715-90.954-8.324-12.853-34.945-22.914-34.945-54.44 11.71-61.595 91.843-137.081 139.74-165.168 48.888-28.669 64.529-9.503 82.333 8.747 15.902 16.285 14.541 15.297 16.196 15.462l87.453-51.395c-10.253-10.722-53.628-52.647-60.703-60.086zM495.484 931.923c-273.878 0-495.484-221.643-495.484-495.485 0-273.877 221.643-495.484 495.484-495.484 273.877 0 495.484 221.643 495.484 495.484 0 273.879-221.643 495.485-495.484 495.485zM495.484-0.981c-241.784 0-437.419 195.673-437.419 437.42 0 241.785 195.673 437.42 437.419 437.42 241.783 0 437.42-195.673 437.42-437.42 0-241.783-195.673-437.42-437.42-437.42z" />
<glyph unicode="&#xe90f;" glyph-name="cp-smartphone" data-tags="cp-smartphone" horiz-adv-x="706" d="M562.939 948.599h-436.785c-68.163 0-123.619-55.455-123.619-123.618v-741.454c0-68.163 55.455-123.618 123.619-123.618h436.785c68.163 0 123.618 55.455 123.618 123.618v741.454c0 68.163-55.455 123.618-123.618 123.618zM482.032 886.79l-30.907-61.809h-213.157l-30.905 61.809h274.968zM126.153 886.79h11.804l61.809-123.618h289.558l61.811 123.618h11.804c34.082 0 61.811-27.727 61.811-61.809v-679.643h-560.406v679.643c0 34.082 27.727 61.809 61.809 61.809zM562.939 21.719h-436.785c-34.082 0-61.809 27.726-61.809 61.807h560.406c0-34.082-27.729-61.807-61.811-61.807z" />
<glyph unicode="&#xe910;" glyph-name="cp-stickers" data-tags="cp-stickers" d="M512 14.507c-238.933 0-433.493 194.56-433.493 433.493 0 225.28 170.667 409.6 392.533 430.080-3.413-160.427 34.133-279.893 112.64-361.813 75.093-75.093 187.733-112.64 331.093-112.64 10.24 0 17.067 0 27.307 0-20.48-215.040-204.8-389.12-430.080-389.12zM890.88 485.547c-112.64 3.413-197.973 34.133-252.587 88.747s-85.333 139.947-88.747 252.587l341.333-341.333zM529.067 960h-17.067c-283.307 0-512-228.693-512-512s228.693-512 512-512c283.307 0 512 228.693 512 512v17.067l-494.933 494.933z" />
<glyph unicode="&#xe911;" glyph-name="cp-bad" data-tags="cp-bad" d="M512 900.923c-122.092 0-232.369-47.262-319.015-133.908s-133.908-196.923-133.908-319.015c0-122.092 47.262-232.369 133.908-319.015s196.923-133.908 319.015-133.908c122.092 0 232.369 47.262 319.015 133.908s133.908 196.923 133.908 319.015c0 122.092-47.262 232.369-133.908 319.015s-196.923 133.908-319.015 133.908zM512-64c-137.846 0-263.877 55.138-362.338 149.662-94.523 98.462-149.662 224.492-149.662 362.338s55.138 263.877 149.662 362.338c98.462 94.523 224.492 149.662 362.338 149.662s263.877-55.138 362.338-149.662c94.523-98.462 149.662-224.492 149.662-362.338s-55.138-263.877-149.662-362.338c-98.462-94.523-224.492-149.662-362.338-149.662zM295.385 621.292h157.538v-59.077h-157.538v59.077zM567.138 621.292h157.538v-59.077h-157.538v59.077zM228.431 384.985h571.077v-59.077h-571.077v59.077z" />
<glyph unicode="&#xe912;" glyph-name="cp-call-us" data-tags="cp-call-us" d="M967.148 960l-272.881-273.066v153.6h-79.59v-290.134h289.935v79.644h-153.492l272.881 273.067-56.852 56.889zM910.3 118.047l-79.59-79.647c-28.426-28.447-68.224-34.135-102.333-17.065-90.962 45.512-233.086 130.842-375.212 267.377s-216.032 284.444-261.512 381.155c-17.055 34.134-11.37 73.956 17.055 102.4l73.906 73.956 159.181-159.289-90.96-96.711 11.37-22.756c0-5.689 45.48-102.4 153.496-210.49 108.015-108.088 204.66-153.6 210.349-153.6l22.738-11.377 96.645 91.023 164.869-164.977zM1024 118.047l-278.569 278.753-113.7-108.088c-34.109 17.065-90.962 56.888-159.181 125.153-68.221 68.269-102.331 130.846-125.071 164.98l108.016 108.089-272.883 273.066-130.756-130.845c-51.165-51.2-68.22-130.844-34.11-193.422 45.48-96.711 136.441-244.622 284.252-398.222 147.811-147.912 295.623-238.935 397.951-284.447 22.743-11.377 51.169-17.065 73.907-17.065 45.481 0 85.279 17.065 119.388 51.2l130.755 130.847z" />
<glyph unicode="&#xe913;" glyph-name="cp-gift" data-tags="cp-gift" horiz-adv-x="1126" d="M1042.487 549.393h-467.077v109.521h467.077v-109.521zM987.727-1.437h-412.317v499.289h412.317v-499.289zM668.826 858.63c22.548 22.548 61.204 22.548 83.753 0s22.548-61.203 0-83.752c-22.548-22.548-93.416-61.203-132.072-61.203-6.441 0-9.663 3.221-9.663 3.221-16.104 12.885 19.326 106.3 57.982 141.734zM523.872 549.393h-467.077v109.521h467.077v-109.521zM523.872-1.437h-412.317v499.289h412.317v-499.289zM349.925 858.63c9.663 9.663 25.771 16.106 41.875 16.106 16.108 0 28.993-6.443 41.878-16.106 35.434-35.433 74.086-132.070 61.201-144.955 0 0-3.219-3.221-9.663-3.221-38.653 0-109.52 38.655-132.069 61.203-25.77 25.77-25.77 64.425-3.222 86.973zM1042.487 713.675h-286.689c12.885 9.664 22.548 16.106 28.993 25.77 45.097 45.097 45.097 115.964 0 161.061-41.875 41.876-115.965 41.876-157.839 0-22.548-22.548-86.975-119.185-77.309-183.61h-3.222c9.663 64.425-54.76 161.061-77.309 183.61-41.878 41.876-115.965 41.876-157.841 0-45.097-45.097-45.097-115.964 0-161.061 6.443-6.443 19.327-16.106 28.991-25.77h-283.467c-28.991 0-54.761-25.77-54.761-54.761v-135.292c0-16.104 12.885-25.771 25.77-25.771h25.77v-496.067c0-28.989 25.77-54.76 54.761-54.76h879.393c28.989 0 54.76 25.771 54.76 54.76v496.067h25.771c16.108 0 25.771 12.885 25.771 25.771v135.292c3.219 28.991-22.548 54.761-51.541 54.761z" />
<glyph unicode="&#xe914;" glyph-name="cp-heart" data-tags="cp-heart" horiz-adv-x="1229" d="M189.445 821.76c40.96 46.080 102.4 66.56 163.84 66.56s117.76-25.6 163.84-66.56l76.8-76.8c15.36-15.36 35.84-15.36 51.2 0l71.68 76.8c46.080 46.080 102.4 66.56 163.84 66.56s117.76-25.6 163.84-66.56c92.16-92.16 92.16-240.64 0-332.8l-430.080-430.080-424.96 430.080c-92.16 92.16-92.16 240.64 0 332.8zM588.805-17.92c5.12-5.12 15.36-10.24 25.6-10.24s20.48 5.12 25.6 10.24l450.56 455.68c117.76 117.76 117.76 312.32 0 430.080-56.32 61.44-133.12 92.16-215.040 92.16s-153.6-30.72-215.040-87.040l-51.2-51.2-51.2 51.2c-51.2 56.32-128 87.040-204.8 87.040s-153.6-30.72-215.040-87.040c-117.76-117.76-117.76-312.32 0-430.080l450.56-460.8z" />
<glyph unicode="&#xe915;" glyph-name="cp-make-order" data-tags="cp-make-order" d="M428.218 424.727l55.855-55.855-74.473-18.618 18.618 74.473zM65.164 769.164h586.473l-269.964-265.309-60.509-242.036 242.036 60.509 269.964 265.309v-395.636h-446.836v-121.018l-148.945 121.018h-172.218v577.164zM456.145 485.236l293.236 293.236 88.436-88.436-293.236-293.236-88.436 88.436zM795.927 825.018l46.545 46.545 88.436-88.436-46.545-46.545-88.436 88.436zM842.473 960l-125.673-125.673h-716.8v-702.836h214.109l232.727-195.491v195.491h446.836v521.309l130.327 125.673-181.527 181.527z" />
<glyph unicode="&#xe916;" glyph-name="cp-rub" data-tags="cp-rub" d="M432.873 652.8h134.981c41.891 0 69.818-9.309 93.091-32.582 18.618-23.273 27.927-46.545 27.927-79.127s-9.309-60.51-27.927-79.128c-18.618-18.618-51.2-32.582-93.091-32.582h-134.981v223.419zM684.218 378.182c32.582 18.618 55.855 37.236 74.473 69.818 13.964 27.927 23.273 60.51 23.273 97.746s-9.309 69.818-23.273 97.745c-13.964 27.927-41.891 51.2-69.818 69.818-37.236 13.964-74.473 23.273-121.018 23.273h-228.072v-302.546h-97.745v-79.127h97.745v-51.2h-97.745v-79.127h97.745v-111.709h93.091v111.709h139.636v79.127h-139.636v51.2h134.981c46.545 0 83.782 4.655 116.364 23.273zM79.127 448c0 237.382 190.836 432.873 432.873 432.873s432.873-190.836 432.873-432.873c0-242.036-190.836-432.873-432.873-432.873s-432.873 195.491-432.873 432.873zM512-64c283.927 0 512 228.073 512 512s-228.073 512-512 512c-283.927 0-512-228.073-512-512s228.073-512 512-512z" />
<glyph unicode="&#xe917;" glyph-name="cp-summ" data-tags="cp-summ" horiz-adv-x="989" d="M494.345 16.405c-240.11 0-437.848 197.738-437.848 437.848s197.738 437.849 437.848 437.849c240.11 0 437.848-194.207 437.848-437.849 0-240.11-197.738-437.848-437.848-437.848zM843.917 803.827c-91.807 91.807-218.924 144.773-349.572 144.773s-257.766-52.966-349.572-144.773c-91.807-91.807-144.772-218.925-144.772-349.573s52.966-257.766 144.772-349.572c91.807-91.807 218.924-144.772 349.572-144.772s257.766 52.966 349.572 144.772c91.807 91.807 144.772 218.924 144.772 349.572s-52.966 257.766-144.772 349.573zM434.317 454.253l-102.4-204.8h307.2v116.524h-56.497v-56.497h-158.897l74.152 144.772-74.152 144.772h155.366v-56.497h56.497v116.525h-303.669l102.4-204.801z" />
<glyph unicode="&#xe918;" glyph-name="cp-check" data-tags="cp-check" horiz-adv-x="1243" d="M430.857-45.714l-430.857 430.857 156 156.001 274.857-267.429 631.426 631.428 155.999-156-787.425-794.857z" />
<glyph unicode="&#xe919;" glyph-name="cp-refresh" data-tags="cp-refresh" horiz-adv-x="964" d="M790.118 779.53c-43.297 41.49-92.901 73.961-148.823 97.411-55.922 25.255-115.452 37.883-178.589 37.883-82.98 0-160.549-20.745-232.706-62.235-70.353-41.491-126.274-98.314-167.765-170.471-41.49-70.353-62.235-147.020-62.235-230s20.745-160.549 62.235-232.705c41.491-70.355 97.412-126.277 167.765-167.767 72.157-41.49 149.726-62.235 232.706-62.235 106.432 0 200.238 32.473 281.411 97.413 82.98 64.94 137.999 147.92 165.063 248.94h-119.061c-25.257-66.747-67.65-121.766-127.175-165.057-59.531-43.297-126.277-64.94-200.238-64.94-63.137 0-121.764 15.33-175.882 45.996-52.314 30.666-93.804 72.156-124.471 124.47-30.666 54.121-46 112.747-46 175.885s15.333 120.863 46 173.176c30.667 54.118 72.157 96.51 124.471 127.177 54.118 30.666 112.745 46 175.882 46 46.902 0 91.098-9.020 132.588-27.059s78.468-43.294 110.941-75.765l-186.705-186.706h405.883v405.882l-135.294-135.294z" />
<glyph unicode="&#xe91a;" glyph-name="cp-search" data-tags="cp-search" d="M573.245 764.019c53.895-53.895 78.392-112.689 78.392-186.182s-24.497-137.187-78.392-186.18c-53.895-48.998-112.689-78.392-186.182-78.392s-137.187 24.497-186.182 78.392c-53.895 53.895-78.392 112.688-78.392 186.18-4.899 73.493 19.598 137.187 73.493 186.182 48.995 53.895 112.689 78.392 186.182 78.392s137.187-24.497 191.082-78.392zM191.081 911.005c-58.794-34.297-107.789-83.292-142.086-142.086s-48.995-122.488-48.995-191.082c0-68.593 14.699-132.285 48.995-191.082 34.297-58.792 78.392-102.889 137.187-137.188 58.794-34.295 122.488-48.994 191.081-48.994 93.093 0 176.381 29.398 249.876 93.091l14.699-14.699v-48.994l293.972-293.972 88.19 88.19-293.972 293.972h-48.994l-14.699 14.699c58.792 73.495 93.091 156.784 93.091 249.876 0 68.593-14.699 132.287-48.994 191.081-34.299 58.794-78.397 102.89-137.188 137.187-58.796 34.297-122.489 48.995-191.082 48.995s-132.287-14.699-191.082-48.995z" />
<glyph unicode="&#xe91b;" glyph-name="cp-upload" data-tags="cp-upload" horiz-adv-x="788" d="M657.853-2.111h-528.014c-43.28 0-82.232 38.951-82.232 82.231v735.757c0 43.28 38.952 82.232 82.232 82.232h363.552v-151.48c0-60.592 47.608-103.871 103.869-103.871h138.496v-562.638c4.328-43.28-34.623-82.231-77.903-82.231zM545.327 859.157l164.462-173.119h-108.201c-30.295 0-56.261 25.968-56.261 56.264v116.856zM536.671 937.060c-4.328 4.328-12.985 8.656-17.313 8.656h-389.518c-69.248 0-129.839-60.592-129.839-129.839v-735.757c0-73.574 60.592-129.839 129.839-129.839h528.014c73.574 0 129.839 60.593 129.839 129.839v584.277c0 4.328-4.328 12.984-8.657 17.312l-242.365 255.351zM272.663 422.030l99.543 108.201v-264.007c0-12.985 12.984-25.97 25.968-25.97s25.966 8.657 25.966 25.97v264.007l99.545-108.201c4.328-4.328 12.985-8.657 17.313-8.657s12.981 4.328 17.31 4.328c8.657 8.657 8.657 25.97 0 34.627l-147.149 155.806c-4.328 4.328-8.657 4.328-17.313 4.328s-12.984-4.328-17.312-8.656l-142.823-151.478c-8.656-8.657-8.656-25.97 0-34.627 12.984-4.328 30.296-4.328 38.952 4.328z" />
<glyph unicode="&#xe91c;" glyph-name="chevron-up" data-tags="chevron-up" horiz-adv-x="1607" d="M1394.177-28.16l-590.678 590.678-590.678-590.678-180.821 180.82 771.5 771.5 771.5-771.5-180.821-180.82z" />
<glyph unicode="&#xe91d;" glyph-name="chevron-down" data-tags="chevron-down" horiz-adv-x="1607" d="M212.823 924.16l590.678-590.678 590.678 590.678 180.821-180.82-771.5-771.5-771.5 771.5 180.821 180.82z" />
<glyph unicode="&#xe91e;" glyph-name="metro" data-tags="metro" horiz-adv-x="1152" d="M796.8 768l-224-384-217.6 384-262.4-659.2h-76.8v-102.4h396.8v102.4h-64l57.6 160 166.4-268.8 166.4 268.8 57.6-160h-57.6v-102.4h396.8v102.4h-76.8l-262.4 659.2z" />
<glyph unicode="&#xe91f;" glyph-name="close" data-tags="close" d="M915.2-44.8l-403.2 403.2-403.2-403.2-89.6 89.6 403.2 403.2-403.2 403.2 89.6 89.6 403.2-403.2 403.2 403.2 89.6-89.6-403.2-403.2 403.2-403.2z" />
<glyph unicode="&#xe920;" glyph-name="calling" data-tags="calling" horiz-adv-x="1333" d="M1086.115 596.505c-7.649-7.81-7.649-20.474 0-28.288 26.269-26.811 40.732-62.461 40.732-100.377 0-37.919-14.463-73.566-40.732-100.38-7.649-7.808-7.649-20.471 0-28.285 3.828-3.907 8.84-5.856 13.854-5.856s10.031 1.95 13.854 5.856c33.666 34.369 52.206 80.062 52.206 128.664s-18.539 94.296-52.206 128.664c-7.649 7.808-20.053 7.808-27.707 0zM1202.711 687.242c-7.651 7.81-20.056 7.81-27.71 0-7.651-7.808-7.651-20.474 0-28.285 50.007-51.049 77.548-118.922 77.548-191.117 0-72.198-27.54-140.072-77.548-191.117-7.651-7.81-7.651-20.474 0-28.288 3.826-3.907 8.84-5.856 13.854-5.856s10.029 1.95 13.854 5.856c57.408 58.602 89.022 136.522 89.022 219.404 0 82.879-31.611 160.796-89.019 219.401zM246.881 339.174c7.65 7.81 7.65 20.474 0 28.285-26.267 26.811-40.731 62.461-40.731 100.38 0 37.915 14.465 73.566 40.731 100.377 7.65 7.81 7.65 20.474 0 28.285-3.827 3.907-8.839 5.86-13.854 5.86s-10.029-1.954-13.853-5.86c-33.666-34.369-52.206-80.062-52.206-128.662 0-48.602 18.543-94.296 52.206-128.664 7.649-7.81 20.055-7.81 27.707 0zM130.287 248.435c7.651-7.81 20.056-7.81 27.708 0s7.651 20.474 0 28.285c-50.008 51.049-77.548 118.922-77.548 191.12 0 72.194 27.54 140.068 77.548 191.117 7.651 7.81 7.651 20.474 0 28.285-3.826 3.907-8.839 5.86-13.853 5.86s-10.029-1.954-13.853-5.86c-57.408-58.602-89.023-136.522-89.023-219.401 0-82.881 31.611-160.799 89.021-219.404zM964.225 868.612v-841.222c0-50.39-40.16-91.39-89.522-91.39h-416.398c-49.363 0-89.522 40.999-89.522 91.39v841.222c0.002 50.39 40.164 91.388 89.522 91.388h416.398c49.363 0 89.522-40.998 89.522-91.388zM534.612 919.999l17.76-55.797h228.261l17.76 55.797h-263.782zM925.041 868.612c0 28.335-22.581 51.388-50.34 51.388h-35.105l-26.094-81.978c-2.623-8.24-10.144-13.82-18.635-13.82h-256.729c-8.491 0-16.012 5.58-18.635 13.82l-26.091 81.978h-35.109c-27.756 0-50.34-23.051-50.34-51.388v-841.222c0-28.335 22.581-51.389 50.34-51.389h416.398c27.756 0 50.34 23.053 50.34 51.389v841.222zM504.544 467.843c0 99.953 81.024 180.837 180.938 180.837 49.846 0 95.143-20.245 127.817-52.918l-34.436-34.436c-23.897 23.895-56.946 38.653-93.381 38.653-73.058 0-132.239-59.122-132.239-132.136 0-72.926 59.191-132.136 132.239-132.136 36.433 0 69.465 14.752 93.353 38.726l34.498-34.376c-32.684-32.804-77.998-53.051-127.85-53.051-99.923 0-180.938 80.995-180.938 180.837z" />
<glyph unicode="&#xe921;" glyph-name="star" data-tags="star" horiz-adv-x="1072" d="M1067.881 568.887l-386.524 25.412-145.57 365.702-145.567-365.702-386.102-25.412 296.137-251.453-97.176-381.434 332.708 210.301 332.712-210.301-97.181 381.434 296.561 251.453z" />
<glyph unicode="&#xe922;" glyph-name="thanks" data-tags="thanks" horiz-adv-x="1007" d="M768.505 256.599c0.227 0.227 0.456 0.456 0.683 0.683l171.34-171.337c-0.221-0.221-0.438-0.44-0.659-0.659-6.398-6.388-12.948-12.587-19.643-18.594-93.602-84.012-215.276-130.69-341.667-130.69-282.874 0-512.087 229.213-512.087 511.912 0 282.876 229.213 512.088 512.087 512.088 126.381 0 248.050-46.825 341.651-130.707 6.929-6.211 13.705-12.624 20.318-19.237l-171.34-171.339c-48.753 48.753-116.273 78.917-190.63 78.917-149.067 0-269.898-120.657-269.898-269.724 0-148.89 120.832-269.722 269.898-269.722 74.011 0 141.245 29.883 189.947 78.408zM768.291 218.627c-51.501-42.759-117.732-68.406-189.731-68.406-164.501 0-297.867 133.343-297.867 297.692 0 164.537 133.378 297.694 297.867 297.694 71.996 0 138.211-25.643 189.7-68.262l132.142 132.142c-88.332 78.658-202.882 122.546-321.842 122.546-267.428 0-484.117-216.689-484.117-484.118 0-267.246 216.683-483.942 484.117-483.942 118.993 0 233.543 43.761 321.859 122.529l-132.127 132.127zM726.804 559.164c-33.924 31.964-92.052 39.259-144.639-13.326-52.509 52.534-110.715 45.29-144.639 13.352-39.516-37.196-40.214-99.423-2.114-137.524l146.752-146.778 146.752 146.752c38.1 38.1 37.402 100.327-2.114 137.524zM710.693 439.89l-128.528-128.552-128.528 128.528c-27.891 27.918-27.349 73.31 1.573 100.533 12.32 11.651 28.82 18.044 46.451 18.044 36.913 0 53.515-22.064 80.504-49.054 26.267 26.267 43.179 49.054 80.504 49.054 17.631 0 34.13-6.393 46.477-18.018 28.846-27.169 29.515-72.564 1.547-100.534z" />
<glyph unicode="&#xe923;" glyph-name="duplicate" data-tags="duplicate" horiz-adv-x="829" d="M439.094 611.36v271.479h-202.246c-24.668 0-44.35-20.724-44.35-45.892v-164.063c0-20.137-15.664-36.139-34.598-36.139s-34.598 16.002-34.598 36.139v164.063c0 65.442 51.010 118.172 113.546 118.172h251.122l336.111-349.243v-507.216c0-65.438-51.010-118.17-113.547-118.17h-118.418c-18.934 0-34.601 16.004-34.601 36.137 0 20.139 15.667 36.142 34.601 36.142h118.418c24.669 0 44.354 20.724 44.354 45.89v456.053h-261.461c-29.832 0-54.332 25.185-54.332 56.648zM705.643 626.992l-197.354 205.065v-205.065h197.354zM310.92 385.775v-86.908h83.824c18.933 0 34.598-16.004 34.598-36.142 0-20.134-15.664-36.137-34.598-36.137h-83.824v-86.908c0-20.139-15.664-36.142-34.598-36.142s-34.598 16.004-34.598 36.142v86.908h-83.824c-18.933 0-34.598 16.004-34.598 36.137 0 20.139 15.664 36.142 34.598 36.142h83.824v86.908c0 20.134 15.664 36.137 34.598 36.137s34.598-16.004 34.598-36.137zM547.762 262.724c0-156.053-121.701-282.234-271.44-282.234s-271.441 126.181-271.441 282.234c0 156.053 121.703 282.236 271.441 282.236s271.44-126.183 271.44-282.236zM276.322 52.77c111.872 0 202.246 94.179 202.246 209.954 0 115.78-90.374 209.957-202.246 209.957s-202.245-94.176-202.245-209.957c0-115.775 90.374-209.954 202.245-209.954z" />
<glyph unicode="&#xe924;" glyph-name="icon-copy" data-tags="icon-copy" d="M170.667 960c-93.583 0-170.667-77.084-170.667-170.667v-455.111c0-93.584 77.085-170.667 170.667-170.667h56.889v-56.889c0-93.584 77.085-170.667 170.667-170.667h455.111c93.583 0 170.667 77.084 170.667 170.667v455.111c0 93.582-77.083 170.667-170.667 170.667h-56.889v56.889c0 93.582-77.083 170.667-170.667 170.667zM170.667 846.222h455.111c32.095 0 56.889-24.795 56.889-56.889v-56.889h-284.444c-93.583 0-170.667-77.084-170.667-170.667v-284.444h-56.889c-32.094 0-56.889 24.794-56.889 56.889v455.111c0 32.093 24.796 56.889 56.889 56.889zM398.222 618.667h455.111c32.095 0 56.889-24.795 56.889-56.889v-455.111c0-32.096-24.793-56.889-56.889-56.889h-455.111c-32.094 0-56.889 24.794-56.889 56.889v455.111c0 32.093 24.796 56.889 56.889 56.889z" />
<glyph unicode="&#xe925;" glyph-name="icon-trash-mini" data-tags="icon-trash-mini" horiz-adv-x="796" d="M625.778 618.667v-568.889h-455.111v568.889h455.111zM540.444 960h-284.444l-56.889-56.889h-199.111v-113.778h796.444v113.778h-199.111l-56.889 56.889zM739.556 732.444h-682.667v-682.667c0-62.578 51.2-113.778 113.778-113.778h455.111c62.578 0 113.778 51.2 113.778 113.778v682.667z" />
</font>
</defs>
</svg>
