<svg width="80" height="80" viewBox="0 0 80 80" fill="none" xmlns="http://www.w3.org/2000/svg">
<path d="M25.5 16.5H71.5V45.5H25.5V16.5Z" fill="#E4E4E4" stroke="#6C6C6C" stroke-linejoin="round"/>
<path d="M8.5 52.9999C8.5 52.9999 8.5 53 8.5 53C8.50043 54.9006 10.1559 56.7742 13.1887 58.2024C16.1824 59.6122 20.3533 60.4985 24.9881 60.5L8.5 52.9999ZM8.5 52.9999V24.5H41.5V52.9999C41.5 52.9999 41.5 53 41.5 53C41.4996 54.9006 39.8441 56.7742 36.8113 58.2024C33.8176 59.6122 29.6467 60.4985 25.0119 60.5C25.0118 60.5 25.0118 60.5 25.0117 60.5H24.9883L8.5 52.9999Z" fill="white" stroke="#6C6C6C" stroke-linejoin="round"/>
<path d="M13.1919 18.7953C16.1879 17.3855 20.3621 16.5 25 16.5C29.6379 16.5 33.8121 17.3855 36.8081 18.7953C39.8433 20.2235 41.5 22.0977 41.5 23.9992C41.5 25.9008 39.8433 27.7754 36.808 29.204C33.812 30.6141 29.6379 31.5 25 31.5C20.3621 31.5 16.188 30.6141 13.192 29.204C10.1567 27.7754 8.5 25.9008 8.5 23.9992C8.5 22.0977 10.1567 20.2235 13.1919 18.7953Z" fill="white" stroke="#6C6C6C" stroke-linejoin="round"/>
<path d="M16.5 23.9991C16.5 23.6097 16.6755 23.2011 17.0693 22.7873C17.4656 22.371 18.0627 21.9732 18.8388 21.6283C20.3898 20.9391 22.5676 20.5 25 20.5C27.4314 20.5 29.6092 20.9391 31.1605 21.6284C31.9367 21.9733 32.534 22.371 32.9304 22.7874C33.3244 23.2012 33.5 23.6098 33.5 23.9991C33.5 24.3889 33.3243 24.7979 32.9304 25.2119C32.5339 25.6285 31.9366 26.0264 31.1604 26.3714C29.6092 27.0609 27.4314 27.5 25 27.5C22.5676 27.5 20.3898 27.0609 18.8389 26.3714C18.0628 26.0264 17.4657 25.6286 17.0694 25.212C16.6756 24.798 16.5 24.389 16.5 23.9991Z" fill="#C4C4C4" stroke="#6C6C6C" stroke-linejoin="round"/>
<path fill-rule="evenodd" clip-rule="evenodd" d="M25.0007 22C22.2398 22 20 22.8953 20 23.9993C20 25.1047 22.2398 26 25.0007 26C27.7616 26 30 25.1047 30 23.9993C30 22.8953 27.7616 22 25.0007 22Z" fill="#6C6C6C"/>
<path d="M49 23L49 26.2345L52.6507 27.7008L52.6507 34.2345L49 35.7224L49 39L65 32.3801L65 29.5984L49 23ZM60.6958 30.9784L55.5127 33.0701L55.5127 28.8652L60.6958 30.9784Z" fill="#1E1E1E"/>
</svg>
