<svg width="230" height="153" viewBox="0 0 230 153" fill="none" xmlns="http://www.w3.org/2000/svg">
<path d="M226.397 37.6082L228.147 35.8702L221.096 28.8665L217.584 29.6776L216.781 33.1666L223.818 40.1574L225.568 38.4193" fill="#8E8E8E"/>
<path d="M229.106 41.11C229.676 40.5436 230 39.7711 230 38.96C230 38.1489 229.676 37.3893 229.106 36.81L228.963 36.6813L224.634 40.9813L224.777 41.1229C225.969 42.2945 227.913 42.2945 229.106 41.11Z" fill="#8E8E8E"/>
<path d="M215.355 24L209.16 24.7596L215.964 31.5186L216.612 28.712L219.437 28.0683L215.355 24Z" fill="#8E8E8E"/>
<rect x="0.5" y="0.5" width="208" height="152" rx="14" fill="white" stroke="#6C6C6C" stroke-linejoin="round"/>
<rect x="8.5" y="8.5" width="192" height="136" rx="8" fill="#F1F2F0" stroke="#C4C4C4" stroke-linejoin="round"/>
<path d="M18 80V28C18 22.4772 22.4772 18 28 18H106" stroke="white" stroke-width="5" stroke-linecap="round" stroke-linejoin="round"/>
<path d="M190 72V124C190 129.523 185.523 134 180 134H102" stroke="white" stroke-width="5" stroke-linecap="round" stroke-linejoin="round"/>
</svg>
