<svg width="225" height="202" viewBox="0 0 225 202" fill="none" xmlns="http://www.w3.org/2000/svg">
<rect x="0.5" y="1" width="203" height="200" fill="white" stroke="#6C6C6C" stroke-linejoin="round"/>
<path fill-rule="evenodd" clip-rule="evenodd" d="M52.5002 9.5C64.6537 9.5 75.6564 14.4259 83.6153 22.3849C91.5743 30.3546 96.5002 41.3465 96.5002 53.5C96.5002 59.3401 95.3386 64.9544 93.2736 70.0524L55.0385 61.3191L54.9309 61.2976L35.9155 12.7481L36.0984 12.6621C41.1749 10.6186 46.7031 9.5 52.5002 9.5V9.5Z" fill="white" stroke="#6C6C6C" stroke-linejoin="round"/>
<path fill-rule="evenodd" clip-rule="evenodd" d="M68.5792 45.4551L91.9827 64.4706C93.7789 66.2559 94.08 67.9553 93.2734 70.0526C92.8001 71.2894 92.2301 72.4725 91.6386 73.6341C84.2174 88.057 69.2353 97.5001 52.5 97.5001C28.2037 97.5001 8.5 77.8071 8.5 53.5001C8.5 36.5605 18.1798 21.417 32.9038 14.1034C33.8825 13.6086 34.8828 13.1354 35.9153 12.7482C38.0448 11.9308 39.8732 12.3503 41.1854 13.6947L68.5792 45.4551Z" fill="white"/>
<path d="M16.9541 53.5001C16.9541 73.3824 33.0718 89.5001 52.9541 89.5001C70.3208 89.5001 84.8153 77.2029 88.2051 60.8411L45.6291 18.2458C29.2593 21.6295 16.9541 36.1278 16.9541 53.5001Z" fill="#F1F2F0"/>
<path d="M93.2736 70.0526C94.0803 67.9553 93.7791 66.2559 91.983 64.4706L68.5794 45.4551L41.1856 13.6947C39.8735 12.3503 38.0451 11.9308 35.9155 12.7482" stroke="#6C6C6C" stroke-linejoin="round"/>
<path d="M93.2734 70.0524C92.8001 71.2892 92.2301 72.4723 91.6386 73.6339C84.2174 88.0568 69.2352 97.5 52.5 97.5C28.2037 97.5 8.5 77.807 8.5 53.4999C8.5 36.5603 18.1798 21.4168 32.9038 14.1032C33.8825 13.6085 34.8828 13.1352 35.9153 12.748" stroke="#C4C4C4" stroke-linejoin="round"/>
<path fill-rule="evenodd" clip-rule="evenodd" d="M51.231 53.1233C36.6253 37.6679 44.6703 17.1791 41.1855 13.6943L92.2303 64.6961C86.1105 58.6301 65.8475 68.568 51.231 53.1233Z" fill="white" stroke="#6C6C6C" stroke-linejoin="round"/>
<path fill-rule="evenodd" clip-rule="evenodd" d="M167.348 159.911L179.425 171.956C172.654 178.708 163.474 182.501 153.898 182.501C133.959 182.501 117.794 166.383 117.794 146.5C117.794 126.617 133.959 110.501 153.898 110.501C163.474 110.501 172.654 114.294 179.425 121.043L167.348 133.088C163.906 129.656 159.15 127.533 153.898 127.533C143.392 127.533 134.878 136.026 134.878 146.5C134.878 156.976 143.392 165.466 153.898 165.466C159.15 165.466 163.906 163.344 167.348 159.911Z" fill="#F1F2F0"/>
<path d="M190.999 171.957L185.327 177.613C177.051 185.865 165.83 190.501 154.127 190.501C129.756 190.501 110 170.801 110 146.5C110 122.198 129.757 102.501 154.127 102.501C165.83 102.501 177.051 107.137 185.326 115.385L191 121.042L167.577 144.403L161.903 138.745C159.905 136.752 157.166 135.533 154.127 135.533C148.052 135.533 143.129 140.444 143.129 146.5C143.129 152.558 148.051 157.466 154.127 157.466C157.166 157.466 159.905 156.248 161.903 154.254L167.577 148.597L190.999 171.957Z" stroke="#C4C4C4" stroke-linejoin="round"/>
<path fill-rule="evenodd" clip-rule="evenodd" d="M81.2711 106.086L81.2739 106.087C93.1555 108.556 103 118.806 103 133.466C103 142.267 98.8038 149.647 93.4402 155.035C88.1836 160.316 82.9027 165.584 77.6373 170.836L77.5107 170.963C72.1999 176.26 66.9051 181.543 61.6466 186.827L56.0007 192.5L50.3541 186.827C45.0877 181.537 39.7908 176.253 34.4804 170.956L34.3446 170.821C29.0826 165.572 23.8075 160.311 18.5554 155.036L18.553 155.033C13.423 149.876 9 142.567 9 133.466C9 118.805 18.8458 108.549 30.7302 106.086C39.3644 104.297 48.7561 106.638 55.9994 112.736C63.241 106.637 72.6311 104.294 81.2711 106.086Z" stroke="#C4C4C4" stroke-linejoin="round"/>
<path fill-rule="evenodd" clip-rule="evenodd" d="M95.0327 133.466C95.0327 122.776 88.0318 115.63 79.6532 113.889C71.272 112.151 61.5156 115.82 55.9998 124.833C50.4839 115.82 40.7224 112.153 32.3464 113.889C23.9703 115.625 16.9668 122.774 16.9668 133.466C16.9668 139.834 20.0468 145.237 24.2003 149.412C34.772 160.03 45.4434 170.6 55.9998 181.205C66.5408 170.612 77.2198 160.036 87.7941 149.412C92.1138 145.073 95.0327 139.606 95.0327 133.466Z" fill="#F1F2F0"/>
<path d="M140.569 18.1984L140.566 18.2065L133.966 35.1618L115.947 36.257C111.602 36.5213 107.653 39.2067 106.27 43.6055C105.186 47.0541 105.99 50.6704 108.157 53.3641C110.063 55.3182 111.317 56.4157 108.794 57.6925C106.27 58.9693 104.672 60.8813 104.381 62.5858C104.091 64.2903 104.415 69.1778 106.677 71.3137C106.124 74.2834 107.115 77.715 110.063 79.8263C112.2 81.3574 114.76 81.7289 117.068 81.1487C118.488 80.7916 120.006 81.0941 119.232 84.0937L119.231 84.0947C118.149 88.2843 119.453 92.8695 123.207 95.5584C126.793 98.1269 131.483 98.0946 135.104 95.7709L135.113 95.7651L150.358 85.955L165.578 95.7033C169.238 98.0424 174.019 98.2106 177.736 95.4487C181.273 92.8205 182.666 88.3609 181.591 84.2232L176.995 66.5843L190.954 55.0466L190.956 55.0455C194.301 52.281 195.92 47.7993 194.463 43.4302C193.33 40.0329 190.599 37.5876 187.302 36.6593C187.255 36.2636 187.181 35.8702 187.079 35.4821L187.079 35.4793L187.076 35.4703L186.607 33.6681L188.036 32.4881L188.044 32.4811C190.635 30.3294 192.064 26.6384 190.823 22.9204C189.647 19.3963 186.463 17.1661 183.009 16.9563L183 16.9558L181.166 16.8487L180.502 15.1529L180.5 15.1461L180.498 15.1431C179.275 12.0186 176.214 9.46494 172.245 9.50036C168.497 9.53382 165.407 11.9125 164.159 15.1185L164.159 15.1199L163.488 16.8446L161.675 16.9543C161.043 16.9931 160.413 17.0999 159.798 17.2724C158.016 13.7863 154.524 11.3343 150.301 11.3719C145.883 11.4112 142.127 14.2093 140.569 18.1984Z" stroke="#C4C4C4" stroke-linejoin="round"/>
<path fill-rule="evenodd" clip-rule="evenodd" d="M148.021 21.1084L139.563 42.8363L116.432 44.2422C113.684 44.4094 112.97 47.2602 114.822 48.7852L132.793 63.5751L126.977 86.0953C126.286 88.7698 128.768 90.3314 130.784 89.0377L150.347 76.4483L169.886 88.9621C172.208 90.4459 174.452 88.5614 173.848 86.2349L167.968 63.6666L185.859 48.8791C187.985 47.1228 186.892 44.3957 184.5 44.2537L161.303 42.8936L152.822 21.2412C151.816 18.6697 148.894 18.8712 148.021 21.1084Z" fill="#F1F2F0"/>
<path fill-rule="evenodd" clip-rule="evenodd" d="M171.615 18.0195L169.085 24.5203L162.165 24.9393C161.344 24.9897 161.129 25.8415 161.684 26.2972L167.06 30.7211L165.319 37.4577C165.112 38.2591 165.855 38.7262 166.458 38.3369L172.31 34.5725L178.154 38.3163C178.848 38.7606 179.52 38.195 179.338 37.4989L177.579 30.7485L182.933 26.3269C183.567 25.8003 183.241 24.9851 182.524 24.9416L175.586 24.5363L173.049 18.0607C172.748 17.2891 171.875 17.3509 171.615 18.0195Z" fill="#F1F2F0"/>
<path fill-rule="evenodd" clip-rule="evenodd" d="M118.629 60.1542L116.989 64.3651L112.505 64.6376C111.973 64.6697 111.834 65.2215 112.194 65.5192L115.677 68.3837L114.548 72.7481C114.416 73.2679 114.895 73.5701 115.287 73.3182L119.078 70.8796L122.865 73.3045C123.316 73.593 123.75 73.2267 123.633 72.7756L122.493 68.402L125.962 65.5352C126.373 65.1963 126.161 64.6674 125.698 64.6399L121.202 64.3766L119.56 60.1794C119.363 59.6802 118.798 59.7191 118.629 60.1542Z" fill="#F1F2F0"/>
<path d="M220.897 38.6082L222.647 36.8702L215.596 29.8665L212.084 30.6776L211.281 34.1666L218.318 41.1574L220.068 39.4193" fill="#8E8E8E"/>
<path d="M223.606 42.11C224.176 41.5436 224.5 40.7711 224.5 39.96C224.5 39.1489 224.176 38.3893 223.606 37.81L223.463 37.6813L219.134 41.9813L219.277 42.1229C220.469 43.2945 222.413 43.2945 223.606 42.11Z" fill="#8E8E8E"/>
<path d="M209.855 25L203.66 25.7596L210.464 32.5186L211.112 29.712L213.937 29.0683L209.855 25Z" fill="#8E8E8E"/>
</svg>
