<svg width="137" height="50" fill="none" xmlns="http://www.w3.org/2000/svg"><path fill-rule="evenodd" clip-rule="evenodd" d="M63.849 35.875h-4.304v-21.01h4.304v1.481a7.742 7.742 0 015.23-1.99c3.053 0 5.321 1.296 6.895 3.332 1.712-2.036 4.535-3.332 7.404-3.332 5.368 0 9.07 3.61 9.07 9.256v12.263h-4.303V23.612c0-2.73-2.222-4.952-4.998-4.952-2.73 0-4.999 2.221-4.999 4.952v12.263h-4.303V23.612c0-2.73-2.222-4.952-4.998-4.952-2.73 0-4.998 2.221-4.998 4.952v12.263zm54.376 0h-4.304v-2.313c-1.527 1.758-4.257 2.822-6.803 2.822-6.108 0-11.06-4.951-11.06-11.014 0-6.108 4.952-11.014 11.06-11.014 2.546 0 5.137.972 6.803 2.638v-2.129h4.304v21.01zm-11.014-17.122c-3.749 0-6.618 2.869-6.618 6.617 0 3.749 2.869 6.664 6.618 6.664 3.748 0 6.756-2.73 6.756-6.664 0-3.933-2.961-6.617-6.756-6.617zm15.734 17.122h4.397v-21.01h-4.397v21.01zm2.175-30.358a2.983 2.983 0 012.962 2.962 2.983 2.983 0 01-2.962 2.962 2.982 2.982 0 01-2.961-2.962 2.982 2.982 0 012.961-2.962z" fill="#005FF9"/><path d="M136.458 6.258h-4.396v29.617h4.396V6.258z" fill="#005FF9"/><path fill-rule="evenodd" clip-rule="evenodd" d="M30.575 25c0 3.795-3.1 6.942-6.941 6.942A6.932 6.932 0 0116.692 25c0-3.795 3.1-6.942 6.942-6.942 3.84.047 6.941 3.147 6.941 6.942zM23.634 2C10.907 2 .54 12.32.54 25s10.366 23 23.093 23c4.674 0 9.163-1.388 13.004-3.98l.046-.046-3.1-3.61-.047.047c-2.915 1.897-6.386 2.869-9.903 2.869C13.499 43.28 5.26 35.089 5.26 25c0-10.088 8.238-18.28 18.373-18.28 10.134 0 18.372 8.192 18.372 18.28 0 1.296-.139 2.638-.417 3.934-.601 2.36-2.267 3.1-3.517 3.008-1.25-.093-2.73-1.018-2.73-3.194V25c0-6.433-5.23-11.616-11.708-11.616-6.48 0-11.662 5.23-11.662 11.616 0 6.386 5.229 11.662 11.662 11.662 3.146 0 6.062-1.203 8.283-3.425a7.506 7.506 0 005.785 3.425c.185 0 .416.046.602.046a7.79 7.79 0 004.674-1.573c1.388-1.065 2.406-2.545 3.008-4.397.092-.277.277-.971.277-.971v-.047c.324-1.48.51-2.915.51-4.72 0-12.68-10.367-23-23.14-23z" fill="#FF9E00"/></svg>