<svg width="175" height="51" fill="none" xmlns="http://www.w3.org/2000/svg"><g clip-path="url(#clip0)"><path d="M19.93 11.397a13.144 13.144 0 012.95 2.633c-.008.072-.006.145-.023.215a12.697 12.697 0 00-.313 4.046c.088 1.034.282 2.042.598 3.028.299.93.727 1.8 1.204 2.649l-1.487.56c-.02-.046-.045-.091-.058-.14-.453-1.648-.907-3.297-1.35-4.948-.056-.212-.14-.286-.367-.282-.883.016-1.766.014-2.649 0-.225-.004-.315.064-.368.284a674.225 674.225 0 01-1.182 4.805c-.422 1.698-.848 3.396-1.273 5.094-.434-.004-.87-.047-1.3.052-.027-.088-.055-.176-.079-.265-.858-3.226-1.718-6.451-2.567-9.679-.057-.216-.132-.294-.363-.29-.913.015-1.826.006-2.74.006-.355 0-.355 0-.262.341.673 2.47 1.348 4.939 2.02 7.409.324 1.195.64 2.392.961 3.588-1.12.68-1.86 1.682-2.4 2.85-.155.337-.266.696-.397 1.044-1.495-.505-2.822-1.307-4.005-2.338C1.965 29.866.509 27.102.073 23.797c-.02-.147.032-.308-.073-.44v-2.22c.069-.036.051-.105.057-.162a12.428 12.428 0 011.512-4.897c1.688-3.03 4.195-5.072 7.488-6.154a7.331 7.331 0 001.918 2.254c2.164 1.671 5.363 1.786 7.651.29.477-.313.869-.716 1.305-1.071z" fill="#7C2570"/><path d="M168.295.184c.366.083.738.15 1.098.254 4.715 1.365 6.412 7.224 3.111 10.853-1.878 2.064-4.255 2.734-6.913 1.927-2.663-.808-4.241-2.705-4.667-5.457-.561-3.628 2.037-7.013 5.697-7.52.05-.007.103-.005.134-.057h1.54zM19.93 11.397c-.435.355-.827.758-1.303 1.07-2.288 1.496-5.487 1.38-7.65-.29a7.332 7.332 0 01-1.92-2.254c-.022-.057-.041-.115-.067-.17A6.679 6.679 0 0112.963.49c.417-.136.853-.182 1.273-.306h1.54c.356.083.715.15 1.067.25 3.102.87 5.14 3.898 4.8 7.098a6.645 6.645 0 01-1.59 3.692c-.045.053-.082.115-.122.173zm4.416 12.571c-.477-.849-.905-1.72-1.204-2.649a13.708 13.708 0 01-.598-3.028 12.697 12.697 0 01.313-4.046c.017-.07.015-.143.023-.215.292-.917.587-1.834 1.049-2.684 2.08-3.829 5.246-6.187 9.562-6.841 4.202-.637 7.875.592 10.96 3.51 1.414 1.339 2.43 2.957 3.112 4.784.02.057.047.113.071.169.026.098.044.199.077.295.454 1.316.628 2.677.659 4.06.01.5-.062.996-.114 1.493-.142 1.354-.525 2.64-1.092 3.872a12.801 12.801 0 01-3.586 4.608c-.003-.124-.01-.246-.01-.37 0-2.475-.006-4.95.008-7.425 0-.294-.09-.35-.358-.344a75.75 75.75 0 01-2.65 0c-.256-.004-.346.041-.346.328.011 5.66.01 11.318.002 16.977 0 .255.068.323.324.322 2.69-.01 5.381-.006 8.073-.005.122 0 .246.008.368.012a6.626 6.626 0 01-2.472 3.732c-.7.533-1.485.895-2.33 1.135-1.469.35-2.905.228-4.312-.31-.481-.288-.998-.515-1.441-.87-1.207-.966-2.036-2.17-2.39-3.687.261.027.333-.08.331-.348-.011-1.307.003-2.615.008-3.923.449-1.025 1.118-1.884 1.976-2.615-.669.073-1.314.222-1.976.236-.005-.122-.015-.245-.015-.368 0-3.419-.005-6.837.008-10.255.001-.307-.086-.37-.375-.362-.83.02-1.663.02-2.494 0-.278-.007-.336.075-.335.341.009 3.357.006 6.714.005 10.07 0 .134-.01.266-.017.4-1.014-.121-1.963-.46-2.902-.844-.58-.238-1.102-.58-1.664-.849.009-.06.012-.121.028-.18l1.666-6.234c.238-.888.476-1.777.72-2.696-.839 0-1.649.014-2.458-.008-.277-.007-.383.071-.452.341-.595 2.322-1.207 4.639-1.813 6.957-.707-.78-1.369-1.598-1.939-2.486z" fill="#EB208B"/><path d="M145.496 4.441c2.436-.276 4.795.019 7.014 1.084 4.034 1.937 6.48 5.123 7.343 9.518.013.069.041.136.062.203.001.103-.01.207.007.307.19 1.14.145 2.279-.004 3.418-.541.115-1.083.226-1.593.447-1.544.667-2.701 1.7-3.116 3.395-.349 1.428-.12 2.782.623 4.05-.077.008-.127.058-.18.107-.775.707-1.643 1.28-2.567 1.768-1.434.757-2.97 1.185-4.572 1.395-.122.004-.246-.002-.367.012-1.051.118-2.094.044-3.133-.132-.004-.174.009-.35-.014-.522-.04-.294.06-.377.363-.375 1.94.015 3.881 0 5.823.015.307.002.376-.088.365-.38a28.476 28.476 0 01-.001-1.848c.008-.266-.047-.365-.345-.363-1.972.015-3.944.004-5.915.014-.229 0-.294-.056-.292-.29a199.86 199.86 0 00-.002-4.097c-.004-.296.068-.372.367-.37 2.476.013 4.951 0 7.425.015.307.002.375-.087.365-.377a33.228 33.228 0 01-.001-1.972c.006-.242-.063-.306-.306-.306-3.574.008-7.148.008-10.721 0-.252 0-.325.06-.324.32.009 2.917.006 5.833.005 8.75 0 .266-.009.533-.013.799a7.343 7.343 0 01-1.128-.556 14.149 14.149 0 01-2.683-2.034c-.004-.113-.012-.226-.012-.339-.001-2.218-.003-4.436.003-6.654.001-.202-.033-.29-.264-.286-.893.014-1.787.011-2.68.002-.196-.002-.265.046-.26.253.011.534-.002 1.068-.005 1.601-.032-.074-.075-.146-.094-.224-.318-1.29-.55-2.588-.464-3.932.037-.582.055-1.168.156-1.738.311-1.771.934-3.427 1.935-4.935.254-.383.581-.716.771-1.14.055-.001.092-.028.127-.07a13.649 13.649 0 012.125-2.029c.49 1.718 2.232 2.697 3.835 2.353 1.234-.264 2.094-.98 2.524-2.179.327-.914.234-1.809-.182-2.678z" fill="#BA3C95"/><path d="M73.455 13.894c.427-1.931 1.459-3.441 3.165-4.457 3.206-1.91 7.337-.803 9.21 2.45.053.093.071.218.194.263-.007.097.039.178.076.263.336.753.543 1.543.597 2.362.075 1.153-.159 2.258-.654 3.301a6.705 6.705 0 01-1.831 2.311c-.123.101-.17.154-.005.257.928.576 1.719 1.316 2.475 2.096.004.133.013.265.013.399.001 4.432.004 8.864-.005 13.296-.001.29.082.358.358.351.605-.017 1.21.002 1.815.006-.177.483-.451.916-.713 1.353-.729 1.222-1.67 2.26-2.743 3.19-.613.531-1.299.951-1.966 1.401-.753.344-1.488.724-2.283.973-3.746 1.173-7.315.778-10.712-1.186-.096-.056-.182-.135-.302-.143-.026-.075-.092-.105-.152-.145a12.669 12.669 0 01-1.622-1.262c-1.355-1.256-2.42-2.72-3.142-4.427-.07-.165-.15-.202-.33-.143a9.01 9.01 0 01-4.451.308c.049-.013.096-.034.146-.04 2.672-.314 4.714-1.606 6.006-3.977 1.341-2.464 1.464-5.083.713-7.733-.63-2.222-1.937-3.963-4.029-5.048-.475-.246-.99-.387-1.494-.552a9.138 9.138 0 011.224.036c1.91.189 3.555.961 4.98 2.227.351.312.331.309.683.01.614-.524 1.244-1.03 1.981-1.38.006.133.016.266.017.398v15.806c0 .177-.03.329.253.327 2.608-.016 5.216-.004 7.824-.028.993-.01 1.969-.185 2.838-.7 1.367-.809 2.062-2.057 2.2-3.61.135-1.527-.291-2.865-1.505-3.88-.601-.503-1.322-.753-2.13-.93.14-.044.225-.072.312-.098.537-.162 1.034-.4 1.453-.78 1.124-1.018 1.465-2.3 1.276-3.768-.199-1.54-1.4-3.212-3.161-3.583a10.65 10.65 0 00-2.166-.244c-1.592-.006-3.183-.007-4.775-.01.341-.141.7-.223 1.058-.3.201-.043.226-.12.116-.286a4.937 4.937 0 01-.514-1.08 6.781 6.781 0 01-.298-3.594z" fill="#EB208B"/><path d="M28.596 28.275c.563.268 1.085.61 1.665.849.938.384 1.887.723 2.902.843.006.122.018.245.018.367.001 2.03.005 4.06-.005 6.09-.001.27.052.37.349.363.84-.018 1.68.001 2.52.006.354 1.516 1.184 2.72 2.39 3.686.444.354.96.582 1.442.871-1.424 3.372-3.828 5.777-7.228 7.11-6.063 2.377-12.784-.041-16-5.703-.106-.186-.198-.22-.404-.184-3.528.611-6.782-1.445-7.697-4.86a6.595 6.595 0 01-.084-3.047c.018-.09.053-.177.022-.27.13-.35.242-.708.398-1.045.538-1.168 1.28-2.17 2.4-2.85.019.046.043.091.056.14.536 1.956 1.072 3.912 1.6 5.87.054.199.129.278.35.274a80.864 80.864 0 012.711 0c.234.003.312-.076.364-.295.414-1.724.84-3.445 1.266-5.165.323-1.302.652-2.602.98-3.903.287-.257.565-.524.865-.766.19-.154.336-.387.617-.408.022.056.049.111.065.168.912 3.359 1.824 6.716 2.728 10.077.058.215.138.294.37.291a90.368 90.368 0 012.77 0c.215.003.298-.063.352-.269.404-1.544.817-3.087 1.233-4.628.325-1.205.656-2.408.985-3.612z" fill="#8E2880"/><path d="M137.066 9.046c-.19.424-.516.757-.77 1.14-1.001 1.508-1.625 3.164-1.936 4.935-.1.57-.119 1.156-.156 1.738-.085 1.344.146 2.641.464 3.932.019.078.062.15.094.224l.001 6.706c-.182.073-.333.195-.482.319-.996.63-2.042 1.153-3.165 1.521a14.32 14.32 0 01-2.197.512c-.115-.273-.216-.553-.348-.817-.103-.206-.052-.285.155-.378 1.233-.546 2.165-1.391 2.619-2.698.26-.748.319-1.52.277-2.305-.11-2.094-1.398-3.74-3.401-4.354a7.297 7.297 0 00-2.087-.341c-2.659-.018-5.318-.008-7.976-.023-.291-.002-.347.085-.347.357.008 5.502.006 11.004.006 16.506 0 .133-.009.266-.014.4-.661-.43-1.17-1.01-1.632-1.64-.236-.322-.358-.71-.621-1.015-.021-.089-.03-.182-.064-.265-.474-1.173-.565-2.392-.364-3.624a6.339 6.339 0 012.114-3.82c.152-.135.194-.22.042-.394a11.95 11.95 0 01-1.519-2.195 12.706 12.706 0 01-1.52-5.08c-.077-.954-.05-1.899.062-2.848.079-.674.269-1.321.396-1.983.105-.22.176-.45.229-.685.416-1.028.886-2.03 1.534-2.936 2.269-3.176 5.325-5.07 9.215-5.498 3.909-.43 7.327.732 10.242 3.374.418.377.809.782 1.149 1.235zm22.852 9.926c.149-1.14.194-2.278.004-3.418-.017-.1-.006-.205-.007-.307 6.623-.75 12.855 3.87 14.06 10.42 1.058 5.75-1.684 11.393-6.893 13.98-3.745 1.859-7.562 1.859-11.372.124-.092-.043-.19-.073-.285-.108-.085-.055-.167-.115-.256-.164-1.297-.715-2.466-1.592-3.448-2.707.42-.004.841-.024 1.261-.007.24.01.289-.072.284-.296a46.986 46.986 0 01.001-2.123c.007-.269-.049-.364-.343-.359-1.057.017-2.114.001-3.17-.001-.031-.076-.057-.153-.093-.227a12.866 12.866 0 01-1.146-3.646c1.602-.21 3.138-.638 4.572-1.395.924-.487 1.792-1.06 2.567-1.767.053-.05.103-.1.18-.108.568.893 1.409 1.406 2.384 1.747 1.066.372 2.172.6 3.256.905.768.216 1.564.341 2.294.683a2.089 2.089 0 011.143 2.406c-.218.847-.839 1.32-1.618 1.592-1.045.364-2.125.335-3.195.157-1.394-.232-2.461-.893-2.831-2.366-.039-.155-.128-.119-.233-.096-.881.19-1.762.387-2.647.562-.209.041-.248.111-.187.304.445 1.388 1.249 2.503 2.553 3.18 2.655 1.378 5.418 1.494 8.185.434 2.513-.963 3.706-3.046 3.351-5.682-.263-1.954-1.426-3.188-3.269-3.82-1.369-.468-2.791-.742-4.187-1.113-.677-.18-1.344-.383-1.887-.854-.372-.323-.611-.714-.58-1.23.226-.5.56-.953.678-1.503l-.002.008.066-.07c.197-.206.449-.321.71-.413.793-.277 1.611-.303 2.429-.17 1.063.171 1.87.708 2.286 1.736.069.17.164.18.308.145.864-.218 1.726-.442 2.593-.646.212-.05.198-.138.143-.302-.208-.622-.523-1.18-.986-1.647-1.088-1.095-2.456-1.597-3.944-1.831-.91-.143-1.82-.106-2.729-.007z" fill="#EB208B"/><path d="M83.441 42.736c.668-.45 1.354-.87 1.966-1.401 1.072-.93 2.014-1.969 2.743-3.19.261-.438.536-.87.713-1.354.113-.004.225-.011.338-.011 2.875-.001 5.75-.005 8.624.005.26 0 .332-.074.326-.328a43.894 43.894 0 010-2.126c.007-.257-.067-.323-.322-.323-2.516.01-5.032.006-7.547.006-.072 0-.144-.004-.215.001-.132.01-.184-.046-.18-.178.008-.287.01-.574.014-.86.023-.044.06-.086.065-.133.076-.7.104-1.406.05-2.106-.021-.282.035-.59-.115-.86-.005-.174-.004-.348-.015-.521-.011-.167.045-.237.224-.236 1.72.01 3.439.012 5.159.016.616 1.464 1.521 2.738 2.618 3.872a12.29 12.29 0 002.605 2.04c.113.067.224.15.369.138.003.439.016.879.005 1.317-.005.209.05.282.271.28a96.585 96.585 0 012.637 0c.197.002.281-.062.277-.252.619.067 1.223.22 1.847.27 1.118.089 2.225.06 3.333-.114.607-.094 1.189-.291 1.792-.4.085.429.353.569.766.493.078-.015.162.005.243.01a2.576 2.576 0 00-.44.46c-.865 1.108-.95 2.304-.406 3.566.222.515.605.913 1.034 1.266a19.519 19.519 0 01-5.605 4.259c-2.663 1.355-5.485 2.093-8.477 2.163-5.658.133-10.52-1.784-14.612-5.68-.03-.028-.057-.06-.085-.09z" fill="#BA3C95"/><path d="M100.86 35.188c-.144.012-.256-.072-.368-.138a12.277 12.277 0 01-2.605-2.04c-1.097-1.134-2.002-2.409-2.619-3.873.307-.006.614-.02.92-.014.182.004.252-.046.25-.24a55.41 55.41 0 010-2.09c.005-.222-.085-.249-.27-.247-.584.003-1.167-.008-1.75-.013-.275-1.568-.358-3.14-.07-4.716 1.137-.004 2.273-.013 3.409-.009.202 0 .289-.036.284-.265a50.58 50.58 0 010-2.119c.005-.225-.075-.267-.28-.265-.89.007-1.78-.002-2.67-.006a12.734 12.734 0 014.68-5.866 12.688 12.688 0 014.563-1.984 13.971 13.971 0 012.861-.296c1.806.021 3.539.385 5.191 1.124.58.26 1.132.575 1.681.894.185.206.509.247.63.529-.128.662-.318 1.31-.397 1.983-.111.95-.138 1.894-.062 2.848a12.709 12.709 0 001.521 5.08c.425.786.93 1.522 1.519 2.195.151.173.11.26-.042.394a6.331 6.331 0 00-2.114 3.82c-.201 1.232-.111 2.451.363 3.624.034.083.043.177.064.266-.249.107-.404.34-.632.476-.354.213-.636.545-1.054.656-.761-1.912-1.52-3.825-2.288-5.735-.085-.21.059-.219.174-.27 1.093-.491 1.973-1.212 2.483-2.322.368-.8.479-1.652.441-2.523-.067-1.535-.634-2.836-1.883-3.776-1.059-.798-2.311-1.065-3.595-1.086-2.659-.042-5.32-.014-7.979-.028-.281-.002-.352.068-.351.35.009 4.734.006 9.468.006 14.203l-.011 1.479z" fill="#7C2570"/><path d="M107.195 11.008c-.963.006-1.918.091-2.861.296a12.68 12.68 0 00-4.563 1.983c-2.148 1.484-3.711 3.44-4.68 5.866-.123.004-.246.01-.37.01-2.56 0-5.121.006-7.683-.007-.29-.001-.35.086-.347.357.01 1.075-.004 2.151-.009 3.226-.756-.78-1.547-1.52-2.474-2.096-.166-.103-.118-.156.004-.256a6.71 6.71 0 001.831-2.311c.495-1.043.73-2.149.654-3.301a6.9 6.9 0 00-.596-2.363c-.038-.084-.083-.165-.077-.262 1.316-.965 2.75-1.708 4.268-2.297a19.773 19.773 0 018.17-1.325 19.85 19.85 0 018.578 2.383c.052.03.103.064.155.097zm21.723 19.064c.744-.12 1.479-.277 2.197-.511 1.124-.368 2.17-.892 3.166-1.522-.04.487-.096.972-.117 1.46-.031.663.042 1.324.126 1.98.088.693.207 1.386.473 2.04.004 1.003.012 2.006.005 3.008-.001.204.061.262.26.257.408-.01.818.005 1.226.01.685 1.042 1.472 1.994 2.455 2.772-.058.04-.113.083-.175.118-1.192.672-1.833 1.671-1.857 3.06-.007.409.161.777.196 1.172a12.688 12.688 0 01-5.697 1.27 12.875 12.875 0 01-4.384-.79c-.046-.018-.1-.017-.149-.024.097-.58.077-1.159-.002-1.74-.196-1.432-.795-2.665-1.785-3.721-.525-.56-1.154-.972-1.796-1.373.081-.012.163-.018.241-.037 1.725-.443 3.063-1.422 4.04-2.905.251.648.508 1.295.75 1.946.061.164.126.246.322.244a113.61 113.61 0 012.86 0c.265.003.255-.089.175-.288a303.46 303.46 0 01-1.156-2.91c-.461-1.172-.916-2.344-1.374-3.516z" fill="#BA3C95"/><path d="M123.058 37.538c.642.4 1.272.812 1.797 1.372.99 1.056 1.589 2.29 1.784 3.722.08.58.101 1.159.002 1.739-.261 2.671-2.454 5.106-5.146 5.658-3.895.799-7.11-1.601-7.942-4.863a6.413 6.413 0 01-.146-2.531c.466.047.927.097 1.4.01a3.349 3.349 0 002.721-3.221c.013-.69-.193-1.302-.504-1.896.503-.22 1.023-.39 1.543-.562.101-.008.204-.007.304-.026.65-.119 1.3-.112 1.956-.05.787.077 1.51.358 2.231.648z" fill="#8E2880"/><path d="M43.58 27.296a12.807 12.807 0 003.586-4.608c.567-1.231.95-2.517 1.092-3.871.052-.497.125-.994.113-1.494-.03-1.382-.205-2.744-.658-4.06-.033-.095-.052-.196-.077-.294a13.454 13.454 0 014.156-.219c2.644.281 4.975 1.29 7.007 2.999.125.105.243.22.364.33-.483.555-1.057 1.028-1.482 1.636-.327.468-.702.904-.923 1.44-1.046.003-2.094.014-3.14.002-.252-.002-.329.057-.326.318.012 1.128 0 2.258-.004 3.387-.127.014-.187.119-.266.196a12.736 12.736 0 00-2.799 4.082 12.6 12.6 0 00-1.047 4.822c-.014.637.046 1.27.072 1.903l-.194.003c-.528-2.718-2.677-4.79-5.473-5.275v-1.297z" fill="#BA3C95"/><path d="M138.709 39.566c-.983-.779-1.77-1.73-2.455-2.773.461-.004.924-.03 1.384-.006.282.014.336-.077.335-.343-.009-3.213-.007-6.426-.005-9.639 0-.122.008-.245.012-.368.818.779 1.705 1.47 2.684 2.035.363.21.732.41 1.127.555.006.123.015.246.015.369.001 2.351.006 4.702-.007 7.053-.001.276.073.337.341.337 3.07-.01 6.139-.007 9.21-.006.122 0 .246.008.368.012.983 1.115 2.152 1.992 3.449 2.707.088.049.171.109.256.164-1.931 1.622-4.149 2.588-6.648 2.923-1.845.247-3.653.063-5.437-.434-.021-.068-.048-.134-.062-.203-.28-1.44-1.636-2.551-3.03-2.578a4.87 4.87 0 00-1.537.195z" fill="#7C2570"/><path d="M44.19 41.66c.843-.24 1.629-.603 2.328-1.136 1.255-.956 2.084-2.2 2.473-3.732.572-.005 1.144-.023 1.715-.007.271.008.37-.054.363-.347-.019-.684.004-1.368.01-2.053.376-.004.747.002 1.118.087.365.085.71.246 1.086.283.004.573.02 1.146.007 1.72-.004.233.05.315.3.311.81-.013 1.618.002 2.427.007.17.242.35.477.508.727a6.329 6.329 0 01.979 3.335c.01.607-.087 1.2-.134 1.799-.059.016-.117.04-.177.046a3.337 3.337 0 00-2.943 2.557c-.124.51-.066 1.013-.018 1.52-4.09 2.317-9.056.04-9.962-4.57-.036-.18-.054-.364-.08-.547z" fill="#8E2880"/><path d="M56.756 19.155c.22-.536.596-.972.923-1.44.425-.608 1-1.082 1.482-1.637 1.133-.99 2.362-1.832 3.763-2.398 3.45-1.394 6.886-1.346 10.303.123.075.033.151.06.228.09a6.797 6.797 0 00.297 3.596c.135.378.293.745.514 1.08.11.167.085.243-.116.287-.358.077-.716.159-1.058.3-.727.002-1.453.012-2.18.004-.184-.002-.253.04-.244.236.013.286-.006.572-.011.858-.737.351-1.367.857-1.982 1.38-.351.3-.331.303-.683-.01-1.424-1.265-3.069-2.037-4.98-2.226a9.043 9.043 0 00-1.224-.036 12.192 12.192 0 00-2.354-.202c-.892.015-1.785-.002-2.678-.005zm.614 23.498c.048-.599.144-1.192.134-1.799a6.323 6.323 0 00-.979-3.335c-.157-.25-.337-.485-.507-.727 1.476-.04 2.954.032 4.43-.081a9.012 9.012 0 004.45-.308c.18-.06.26-.022.33.143.722 1.707 1.788 3.17 3.143 4.427a12.67 12.67 0 001.621 1.262c.06.04.127.07.152.145a12.672 12.672 0 01-6.648 2.734c-.91.1-1.822.103-2.733.004-.03-.063-.066-.125-.09-.19-.316-.893-.907-1.533-1.757-1.948-.491-.24-1.021-.264-1.546-.327z" fill="#7C2570"/><path d="M68.342 6.028a3.332 3.332 0 013.33-3.352 3.349 3.349 0 013.36 3.33 3.36 3.36 0 01-3.34 3.358 3.343 3.343 0 01-3.35-3.336z" fill="#7D2771"/><path d="M57.37 42.653c.524.064 1.054.087 1.546.327.85.415 1.441 1.054 1.757 1.947.023.066.06.127.09.19.095.6.145 1.197-.025 1.795-.4 1.41-1.681 2.42-3.115 2.447-1.53.03-2.83-.888-3.297-2.326-.029-.087-.063-.171-.095-.257-.048-.507-.106-1.01.018-1.52a3.337 3.337 0 012.943-2.556c.061-.007.12-.03.178-.047zm88.126-38.212c.416.87.51 1.763.181 2.68-.429 1.198-1.289 1.915-2.524 2.179-1.604.343-3.345-.636-3.834-2.354-.456-1.618.332-3.324 1.84-3.983a3.347 3.347 0 014.233 1.328c.032.052.069.1.104.15z" fill="#EB208B"/><path d="M138.709 39.566a4.859 4.859 0 011.538-.195c1.395.027 2.751 1.137 3.031 2.578.013.07.041.136.061.204.095.797-.012 1.56-.443 2.247-.694 1.105-1.708 1.675-3.015 1.617-1.306-.057-2.258-.714-2.865-1.872-.042-.08-.054-.178-.144-.228-.035-.396-.203-.764-.196-1.173.023-1.388.665-2.387 1.857-3.059.062-.035.117-.08.176-.12z" fill="#8E2880"/><path d="M117.024 37.528c.31.594.516 1.206.504 1.897a3.35 3.35 0 01-2.721 3.22c-.473.087-.934.037-1.4-.01a7.26 7.26 0 01-1.188-.55c-.429-.354-.811-.752-1.034-1.267-.543-1.261-.459-2.457.406-3.565.133-.17.271-.33.44-.462.769-.004 1.539-.014 2.308-.008.215.002.25-.055.165-.244-.08-.175-.135-.363-.201-.545.191.03.382.05.57.09.915.186 1.609.702 2.151 1.444z" fill="#EB208B"/><path d="M114.697 13.554c-.122-.282-.445-.323-.631-.529l.859-.156a3.172 3.172 0 01-.228.685z" fill="#BA3C95"/><path d="M18.61 27.422c-.326 1.301-.656 2.602-.979 3.904-.426 1.72-.852 3.441-1.265 5.165-.053.219-.131.298-.364.294a80.864 80.864 0 00-2.711 0c-.223.004-.296-.075-.35-.272-.528-1.959-1.064-3.915-1.6-5.872-.013-.048-.038-.093-.058-.14-.32-1.196-.636-2.393-.961-3.588-.671-2.47-1.347-4.938-2.02-7.408-.093-.34-.092-.34.262-.341.914 0 1.828.008 2.74-.006.232-.004.306.074.363.29.849 3.228 1.71 6.453 2.567 9.679.024.089.053.176.079.265l.634 2.434.073-.004.593-2.482c.425-1.698.851-3.396 1.274-5.095.398-1.6.796-3.2 1.182-4.804.052-.22.142-.287.367-.284.883.015 1.766.015 2.649 0 .227-.004.311.07.368.282.443 1.651.898 3.3 1.35 4.948.012.049.037.093.057.14.009.06.01.123.026.18.477 1.748.956 3.494 1.435 5.24l.526 1.918.05-.005 1.391-5.407c.607-2.318 1.22-4.636 1.814-6.956.069-.27.175-.35.452-.342.809.022 1.619.008 2.458.008l-.72 2.697-1.666 6.233c-.016.059-.02.12-.029.18-.329 1.205-.66 2.408-.985 3.614a659.2 659.2 0 00-1.232 4.628c-.054.206-.137.272-.353.27a90.368 90.368 0 00-2.77 0c-.232.003-.312-.077-.37-.292-.903-3.36-1.816-6.718-2.727-10.077-.016-.058-.043-.112-.065-.168l-.583-2.264a3.078 3.078 0 00-.262.757c-.216.894-.427 1.788-.64 2.681z" fill="#FDFDFD"/><path d="M26.287 26.455l-1.392 5.406-.05.005-.525-1.918c-.479-1.746-.958-3.492-1.435-5.239-.016-.058-.018-.12-.026-.181l1.488-.56c.57.888 1.23 1.706 1.94 2.487zM15.613 29.34l-.593 2.483-.073.004-.634-2.435c.43-.098.866-.056 1.3-.052z" fill="#8E2880"/><path d="M51.078 34.386c-.005.684-.028 1.368-.01 2.051.009.294-.09.356-.362.349-.571-.017-1.144.002-1.716.006-.122-.004-.245-.012-.368-.012-2.69 0-5.381-.004-8.073.005-.255.001-.323-.066-.323-.322.007-5.659.008-11.317-.002-16.976-.001-.288.089-.333.345-.328.883.015 1.767.015 2.65 0 .269-.005.359.05.358.344-.014 2.475-.008 4.95-.008 7.425 0 .123.007.246.01.369v1.297c-.003 1.69-.005 3.381-.012 5.072 0 .147.026.221.199.22 1.762-.01 3.524-.012 5.286-.017.065 0 .13-.002.194-.003.42.005.838.014 1.258.016.525.002.525 0 .575.504z" fill="#FEFDFE"/><path d="M36.045 36.792c-.84-.005-1.681-.024-2.521-.005-.297.006-.35-.094-.349-.364.01-2.03.006-4.06.005-6.09 0-.122-.012-.244-.018-.366.006-.133.017-.266.017-.4 0-3.356.003-6.713-.006-10.07 0-.266.058-.348.336-.341.831.02 1.663.02 2.494 0 .289-.007.376.055.374.362-.012 3.418-.008 6.836-.007 10.255 0 .122.01.245.015.368v2.38c-.006 1.307-.02 2.615-.008 3.922.001.268-.07.376-.332.349z" fill="#FEFDFD"/><path d="M36.384 32.521v-2.379c.66-.013 1.306-.163 1.976-.236-.858.73-1.527 1.59-1.976 2.615z" fill="#8E2880"/><path d="M158.363 23.672c-.031.517.208.908.58 1.23.543.472 1.21.675 1.887.855 1.396.37 2.817.644 4.187 1.113 1.843.63 3.006 1.865 3.269 3.819.355 2.637-.839 4.72-3.351 5.682-2.767 1.06-5.53.943-8.185-.434-1.304-.677-2.108-1.792-2.553-3.18-.061-.193-.022-.263.187-.304.885-.175 1.766-.371 2.647-.562.105-.023.194-.06.233.097.371 1.471 1.438 2.133 2.831 2.365 1.07.178 2.15.207 3.195-.157.779-.273 1.4-.744 1.618-1.591a2.089 2.089 0 00-1.143-2.406c-.73-.343-1.525-.468-2.294-.684-1.084-.305-2.19-.532-3.256-.905-.975-.34-1.816-.854-2.384-1.747-.743-1.267-.972-2.62-.623-4.05.414-1.694 1.572-2.727 3.116-3.394.51-.22 1.052-.332 1.593-.448.909-.099 1.819-.135 2.727.008 1.488.235 2.856.736 3.944 1.832.463.467.778 1.024.986 1.647.055.164.069.251-.143.302-.867.204-1.73.428-2.593.645-.144.037-.239.024-.308-.145-.417-1.027-1.223-1.564-2.286-1.736-.819-.132-1.636-.106-2.429.17-.261.092-.513.208-.71.414a6.396 6.396 0 00-.066.07l.002-.008c-.491.381-.729.876-.678 1.502z" fill="#FEFDFD"/><path d="M151.719 36.792c-.122-.005-.246-.013-.368-.013-3.07 0-6.14-.004-9.21.006-.268.001-.343-.06-.341-.336.012-2.35.008-4.702.007-7.053 0-.123-.009-.246-.015-.369.005-.266.014-.533.014-.8 0-2.916.004-5.832-.006-8.749 0-.259.073-.32.325-.32 3.574.008 7.147.008 10.721 0 .243 0 .312.064.306.306-.017.657-.022 1.315.001 1.972.01.29-.059.379-.365.377-2.475-.014-4.95-.002-7.425-.015-.299-.002-.372.074-.368.37.017 1.366.013 2.732.002 4.097-.002.234.064.291.292.29 1.972-.01 3.944.002 5.915-.013.299-.002.353.096.346.363-.018.615-.021 1.232.001 1.848.011.29-.058.381-.366.379-1.94-.015-3.881 0-5.823-.015-.303-.003-.403.08-.363.375.023.171.011.348.015.523-.004 1.272-.006 2.545-.014 3.817-.001.153.055.187.196.186 1.518-.007 3.038-.009 4.556-.012 1.057.004 2.114.02 3.17.002.295-.005.351.09.344.358a45.567 45.567 0 00-.001 2.124c.005.224-.044.306-.285.296-.42-.018-.84.001-1.261.006zM137.98 26.437c-.004.122-.012.246-.012.368-.001 3.213-.004 6.426.005 9.64.001.265-.053.356-.335.342-.46-.023-.923.002-1.384.006-.409-.004-.818-.019-1.227-.009-.199.005-.261-.053-.259-.257.007-1.002-.002-2.005-.005-3.008V27.72l-.001-6.705c.003-.534.017-1.068.005-1.601-.005-.207.064-.256.26-.254.894.01 1.787.012 2.68-.002.231-.003.265.084.264.286-.006 2.218-.004 4.437-.003 6.655 0 .112.008.225.012.338z" fill="#FDFDFD"/><path d="M149.752 34.005c-1.519.003-3.039.005-4.557.012-.141 0-.197-.033-.196-.187.009-1.272.011-2.544.014-3.817 1.039.176 2.081.25 3.133.132.121-.014.245-.008.367-.012a12.835 12.835 0 001.146 3.645c.036.074.062.152.093.227z" fill="#7C2570"/><path d="M70.657 20.254c.005-.286.025-.573.01-.858-.008-.196.06-.238.245-.236.726.007 1.453-.002 2.18-.006 1.592.004 3.184.005 4.775.011.73.003 1.451.094 2.166.245 1.76.37 2.962 2.043 3.16 3.583.19 1.466-.151 2.75-1.275 3.768-.419.38-.916.617-1.453.78l-.313.097c.81.177 1.53.428 2.132.93 1.214 1.015 1.64 2.353 1.504 3.88-.138 1.553-.833 2.802-2.2 3.61-.87.515-1.845.69-2.838.7-2.608.024-5.216.012-7.824.028-.284.002-.253-.15-.253-.327V20.653c0-.133-.01-.266-.016-.399zm3.021 11.339c0 .749.003 1.497-.002 2.246-.001.163.013.268.225.266 1.446-.013 2.896.05 4.337-.04 1.856-.116 2.674-1.69 2.203-3.285-.307-1.04-1.295-1.688-2.552-1.7-1.312-.013-2.626.001-3.938-.008-.214-.001-.28.058-.277.275.012.748.004 1.497.004 2.246zm0-7.5c0 .728.008 1.456-.004 2.184-.004.214.062.28.277.277.83-.011 1.662 0 2.492-.006.543-.004 1.086.028 1.628-.046a2.34 2.34 0 001.971-1.892c.217-1.191-.153-2.064-1.087-2.568a2.802 2.802 0 00-1.325-.348c-1.23-.008-2.461.003-3.692-.008-.228-.002-.268.08-.265.283.012.707.005 1.415.005 2.123zM60.447 36.71c-1.475.114-2.953.042-4.43.082-.808-.005-1.617-.02-2.425-.007-.252.004-.306-.078-.301-.311.012-.573-.003-1.147-.007-1.72.004-.123.012-.245.012-.368v-8.943c0-.86-.006-1.721-.01-2.582.004-1.129.016-2.257.004-3.386-.002-.261.075-.32.326-.318 1.047.012 2.093 0 3.14-.002.893.003 1.786.02 2.679.004a12.19 12.19 0 012.354.202c.505.165 1.02.306 1.495.552 2.091 1.085 3.399 2.827 4.028 5.048.751 2.65.629 5.269-.713 7.732-1.291 2.372-3.333 3.664-6.005 3.978-.05.006-.098.027-.147.04zm-3.876-8.81c0 1.97.005 3.941-.005 5.912-.002.258.042.354.328.345.77-.024 1.54 0 2.31-.01 2.106-.028 3.575-1.056 4.455-2.93.596-1.266.674-2.634.6-4.007-.07-1.323-.438-2.561-1.208-3.659-.868-1.236-2.034-1.9-3.57-1.871a58.23 58.23 0 01-2.586-.005c-.285-.008-.33.085-.33.344.012 1.96.007 3.92.007 5.88z" fill="#FEFDFD"/><path d="M86.682 22.74c.005-1.075.019-2.151.008-3.226-.002-.271.056-.359.348-.357 2.561.012 5.122.007 7.683.007.123 0 .245-.007.369-.01.89.003 1.78.012 2.671.006.205-.002.285.04.28.265a49.25 49.25 0 000 2.119c.004.229-.082.266-.284.265-1.137-.004-2.272.005-3.409.01-1.415-.005-2.83-.007-4.245-.015-.154 0-.218.042-.218.207.005 1.447.004 2.893.001 4.339 0 .14.044.203.194.202 1.446-.008 2.891-.013 4.337-.018.584.005 1.168.016 1.752.012.184-.001.275.026.27.247a58.29 58.29 0 00-.001 2.09c.003.196-.067.246-.249.241-.306-.007-.613.009-.92.014-1.72-.005-3.44-.007-5.16-.016-.178 0-.234.07-.223.236.011.174.01.347.015.52a64.022 64.022 0 000 3.1c-.004.286-.005.574-.014.86-.004.132.048.189.18.178.071-.005.144 0 .216 0 2.515 0 5.03.004 7.546-.006.255 0 .33.065.323.323a44.022 44.022 0 000 2.125c.005.254-.067.329-.326.328-2.875-.01-5.75-.006-8.624-.005-.113 0-.226.008-.339.012-.605-.004-1.21-.023-1.814-.006-.276.008-.36-.062-.359-.35.01-4.433.008-8.865.006-13.298 0-.133-.01-.266-.014-.4z" fill="#FDFDFD"/><path d="M18.61 27.422l.639-2.68c.06-.25.127-.5.262-.757.195.755.39 1.51.583 2.265-.282.02-.427.253-.618.407-.299.242-.578.509-.865.765z" fill="#7D2771"/><path d="M128.918 30.072c.457 1.172.913 2.344 1.373 3.515.382.971.765 1.942 1.156 2.91.081.198.091.29-.174.287-.954-.011-1.907-.011-2.861 0-.196.003-.261-.078-.322-.243-.242-.652-.499-1.298-.75-1.946-.007-.03-.009-.061-.019-.09-.603-1.6-1.21-3.198-1.806-4.8-.067-.181-.187-.18-.335-.18-1.252.003-2.503 0-3.756.002-.46 0-.418-.057-.418.404-.001 2.175-.004 4.35.005 6.526.001.252-.061.334-.323.328-.769-.013-1.539.002-2.308.006-.236-.056-.639.147-.578-.372.005-.133.013-.266.013-.4.001-5.501.003-11.004-.005-16.506-.001-.271.056-.359.347-.357 2.658.016 5.317.005 7.975.023a7.283 7.283 0 012.088.341c2.002.615 3.29 2.26 3.401 4.354.042.784-.016 1.557-.277 2.306-.454 1.306-1.387 2.152-2.619 2.698-.207.091-.258.171-.155.377.132.265.233.544.348.817zm-7.912-5.725c0 .77.01 1.54-.006 2.31-.004.25.058.333.321.33 1.222-.014 2.444-.007 3.666-.006.401 0 .8-.035 1.192-.12.951-.208 1.704-.684 1.998-1.662.282-.935.204-1.836-.488-2.594-.619-.675-1.442-.886-2.315-.899-1.365-.021-2.73-.001-4.096-.01-.218-.001-.279.067-.276.28.01.79.004 1.58.004 2.37z" fill="#FEFDFD"/><path d="M117.803 36.419c-.062.519.342.316.578.372l.185.176c-.519.172-1.04.341-1.542.561-.542-.742-1.236-1.258-2.15-1.445-.189-.038-.38-.06-.57-.09a9.396 9.396 0 01-.441-1.096c.418-.111.699-.444 1.054-.657.227-.136.383-.368.632-.476.262.304.385.693.621 1.015.463.63.971 1.21 1.633 1.64z" fill="#BA3C95"/><path d="M134.763 27.72v5.799c-.266-.655-.385-1.347-.473-2.04-.084-.656-.157-1.317-.127-1.981.022-.487.077-.973.117-1.46.149-.123.3-.245.483-.318z" fill="#7D2771"/><path d="M158.363 23.672c-.052-.626.187-1.12.678-1.503-.118.55-.452 1.002-.678 1.503z" fill="#BA3C95"/><path d="M159.039 22.177l.067-.07a2.76 2.76 0 01-.067.07z" fill="#BA3C95"/><path d="M113.862 34.898c.128.373.267.741.441 1.096.066.182.121.37.201.545.085.188.05.246-.165.244-.769-.006-1.539.004-2.308.008-.081-.004-.165-.023-.243-.009-.413.076-.681-.064-.765-.493-.011-.04-.018-.08-.032-.119-.813-2.155-1.63-4.308-2.436-6.467-.07-.187-.19-.177-.335-.177-1.293.002-2.587.009-3.88-.006-.268-.003-.314.089-.313.332.01 1.765.004 3.53.006 5.297.001.461.011.922.017 1.384.004.19-.08.254-.277.252-.879-.011-1.758-.012-2.637 0-.22.003-.276-.07-.271-.28.012-.439-.002-.878-.005-1.317.002-.493.008-.985.008-1.478 0-4.734.003-9.469-.006-14.203-.001-.281.071-.351.351-.35 2.659.015 5.319-.014 7.979.029 1.284.02 2.536.288 3.595 1.085 1.249.94 1.815 2.24 1.883 3.776.038.871-.072 1.723-.441 2.523-.51 1.11-1.39 1.832-2.483 2.322-.114.052-.259.06-.174.27.77 1.91 1.529 3.823 2.29 5.736zm-9.83-10.56c0 .79.007 1.58-.005 2.37-.003.214.055.279.274.277 1.313-.01 2.626.002 3.939-.008a4.84 4.84 0 001.303-.198c2.133-.612 2.201-3.14 1.197-4.17-.638-.656-1.439-.89-2.312-.903-1.375-.02-2.75-.001-4.125-.01-.213-.001-.28.055-.277.274.014.789.006 1.579.006 2.369z" fill="#FEFDFE"/><path d="M104.05 36.532c-.006-.461-.017-.922-.017-1.384-.002-1.766.004-3.53-.006-5.297-.001-.243.045-.335.313-.331 1.293.014 2.586.007 3.88.006.145 0 .265-.01.335.177.806 2.158 1.622 4.311 2.436 6.467.014.038.021.079.031.118-.603.11-1.185.306-1.792.401a14.167 14.167 0 01-3.333.114c-.624-.05-1.228-.203-1.847-.27z" fill="#7C2570"/><path d="M89.901 32.976a64.018 64.018 0 010-3.098c.15.27.094.578.115.86.053.7.025 1.406-.05 2.106-.005.047-.042.089-.065.132z" fill="#EB208B"/><path d="M94.417 26.533c-1.445.005-2.89.01-4.337.018-.15.001-.194-.061-.194-.202a871.42 871.42 0 00-.001-4.338c0-.166.063-.209.218-.208 1.415.008 2.83.01 4.245.014-.288 1.576-.205 3.148.07 4.716z" fill="#BA3C95"/><path d="M118.567 36.967l-.186-.176c.769-.004 1.538-.02 2.308-.006.261.005.323-.076.323-.328-.01-2.175-.006-4.35-.005-6.526 0-.46-.042-.404.418-.404 1.252-.002 2.503 0 3.756-.002.148 0 .267-.001.334.18.597 1.602 1.203 3.2 1.807 4.8.01.029.013.06.019.09-.977 1.483-2.315 2.462-4.04 2.904-.078.02-.161.026-.241.038-.722-.29-1.445-.571-2.232-.646-.656-.063-1.306-.07-1.956.05-.101.018-.204.018-.305.026z" fill="#EB208B"/><path d="M53.286 22.862c.004.86.009 1.72.01 2.58v8.944c0 .123-.008.245-.012.368-.377-.037-.72-.198-1.086-.282-.372-.086-.743-.092-1.118-.087-.05-.504-.05-.502-.575-.504-.42-.002-.84-.011-1.259-.016-.025-.634-.086-1.267-.072-1.903.035-1.678.377-3.29 1.047-4.823.671-1.536 1.593-2.909 2.799-4.082.08-.076.14-.182.266-.195z" fill="#7C2570"/><path d="M49.053 33.868c-1.762.005-3.525.007-5.286.018-.174.001-.2-.073-.2-.221.007-1.69.01-3.381.013-5.072 2.795.486 4.945 2.557 5.473 5.275zm24.626-2.275c0-.75.007-1.498-.005-2.246-.003-.217.063-.276.277-.275 1.313.01 2.625-.005 3.938.008 1.258.013 2.245.66 2.552 1.7.472 1.596-.347 3.168-2.203 3.284-1.441.09-2.89.028-4.337.041-.211.002-.226-.102-.224-.266.004-.749.002-1.498.002-2.246zm-.001-7.501c0-.708.007-1.415-.004-2.123-.003-.203.037-.285.265-.283 1.231.01 2.462 0 3.692.008a2.81 2.81 0 011.325.348c.934.504 1.303 1.377 1.088 2.568a2.34 2.34 0 01-1.972 1.892c-.541.074-1.085.042-1.627.046-.83.006-1.662-.005-2.492.006-.215.003-.282-.062-.278-.277.01-.729.003-1.457.003-2.185zm-17.107 3.807c0-1.96.005-3.921-.005-5.882-.002-.259.044-.351.329-.344a58.23 58.23 0 002.586.006c1.536-.029 2.702.635 3.57 1.87.77 1.098 1.138 2.336 1.209 3.66.073 1.373-.006 2.74-.6 4.007-.881 1.874-2.35 2.902-4.457 2.93-.77.01-1.54-.014-2.309.01-.287.008-.33-.087-.328-.345.01-1.97.005-3.941.005-5.912zm64.434-3.552c0-.79.007-1.582-.004-2.372-.003-.213.058-.28.276-.28 1.366.01 2.731-.01 4.096.01.873.014 1.696.224 2.315.9.692.757.77 1.658.488 2.593-.294.978-1.047 1.455-1.998 1.662a5.562 5.562 0 01-1.192.12c-1.222 0-2.444-.008-3.666.006-.263.004-.325-.08-.321-.33.016-.769.006-1.54.006-2.31z" fill="#EB208B"/><path d="M104.031 24.339c0-.79.008-1.58-.005-2.37-.003-.219.063-.275.277-.273 1.375.009 2.75-.011 4.124.01.874.013 1.674.247 2.312.902 1.004 1.03.937 3.559-1.197 4.17a4.832 4.832 0 01-1.302.199c-1.313.009-2.626-.002-3.94.008-.218 0-.277-.063-.273-.277.012-.79.004-1.58.004-2.37z" fill="#7D2771"/></g><defs><clipPath id="clip0"><path fill="#fff" transform="translate(0 .184)" d="M0 0h175v50H0z"/></clipPath></defs></svg>