<svg width="94" height="70" fill="none" xmlns="http://www.w3.org/2000/svg"><path fill-rule="evenodd" clip-rule="evenodd" d="M37.386 9.05c5.905 0 10.695 4.795 10.695 10.706 0 5.912-4.79 10.706-10.695 10.706-5.906 0-10.695-4.794-10.695-10.706 0-5.91 4.79-10.705 10.695-10.705zm0 4.981a5.718 5.718 0 00-5.72 5.725 5.718 5.718 0 005.72 5.726c3.162 0 5.72-2.56 5.72-5.726a5.718 5.718 0 00-5.72-5.725zm17.391 5.725a5.718 5.718 0 015.72-5.725h2.278v-4.98h-2.279c-5.905 0-10.695 4.794-10.695 10.705v10.706h4.976V19.756zM74.028 9.051c5.905 0 10.695 4.794 10.695 10.705v10.706h-4.975v-1.676a10.554 10.554 0 01-5.72 1.676c-5.906 0-10.695-4.794-10.695-10.706 0-5.91 4.79-10.705 10.695-10.705zm0 4.98a5.718 5.718 0 00-5.72 5.725 5.718 5.718 0 005.72 5.726c3.162 0 5.72-2.56 5.72-5.726a5.718 5.718 0 00-5.72-5.725zM88.024 3v27.462H93V3h-4.975zM21.252 21.106c-1.582 2.7-4.418 4.375-7.58 4.375a8.736 8.736 0 01-8.742-8.75c0-4.84 3.906-8.75 8.742-8.75a8.708 8.708 0 017.254 3.863l4.139-2.747C22.552 5.327 18.274 3 13.717 3 6.138 3 0 9.144 0 16.73c0 7.588 6.138 13.732 13.717 13.732 4.883 0 9.44-2.653 11.858-6.842l-4.325-2.514zm-8 34.444c3.162 0 5.72-2.56 5.72-5.725a5.718 5.718 0 00-5.72-5.725 5.718 5.718 0 00-5.719 5.725c.046 3.165 2.604 5.725 5.72 5.725zM7.58 67H2.605V49.871c0-5.911 4.79-10.705 10.695-10.705S23.994 43.96 23.994 49.87c0 8.425-9.346 13.498-16.415 9.03V67zm34.27-27.834v21.41h4.975v-21.41H41.85zm42.408 21.41h2.976v-4.98h-2.976a5.718 5.718 0 01-5.72-5.725v-2.28h5.72v-4.98h-5.72v-5.68h-4.975v12.94c0 5.911 4.79 10.706 10.695 10.706zm-53.475-10.75a5.718 5.718 0 015.72-5.725h2.278v-4.934h-2.279c-5.905 0-10.695 4.794-10.695 10.705v10.706h4.976V49.825zm18.972 0V60.53h4.975V49.825a5.718 5.718 0 015.72-5.725c3.162 0 5.72 2.56 5.72 5.725V60.53h4.975V49.825c0-5.912-4.79-10.706-10.695-10.706-5.906.047-10.695 4.841-10.695 10.706z" fill="#fff"/></svg>