<svg width="192" height="40" fill="none" xmlns="http://www.w3.org/2000/svg"><path fill-rule="evenodd" clip-rule="evenodd" d="M100.176 23.066a3.708 3.708 0 003.696-3.718c0-2.028-1.632-3.718-3.696-3.718a3.708 3.708 0 00-3.696 3.718 3.708 3.708 0 003.696 3.718zM37.056 9.16c5.856 0 10.608 4.78 10.608 10.671 0 5.89-4.752 10.67-10.608 10.67-5.856 0-10.608-4.78-10.608-10.67 0-5.939 4.752-10.67 10.608-10.67zm0 4.925c-3.12 0-5.664 2.56-5.664 5.698 0 3.138 2.544 5.697 5.664 5.697 3.12 0 5.664-2.559 5.664-5.697 0-3.139-2.544-5.698-5.664-5.698zm17.232 16.368h-4.944v-10.67c0-5.89 4.752-10.67 10.608-10.67h2.256v4.972h-2.256c-3.12 0-5.664 2.56-5.664 5.698v10.67zM73.344 9.16c5.856 0 10.608 4.78 10.608 10.671v10.67h-4.944v-1.69c-1.632 1.063-3.6 1.642-5.664 1.642-5.856 0-10.608-4.78-10.608-10.67.048-5.89 4.8-10.623 10.608-10.623zm0 4.925c-3.12 0-5.664 2.56-5.664 5.698 0 3.138 2.544 5.697 5.664 5.697 3.12 0 5.664-2.559 5.664-5.697 0-3.139-2.496-5.698-5.664-5.698z" fill="#fff"/><path d="M92.16 3.125h-4.944v27.328h4.944V3.125z" fill="#fff"/><path fill-rule="evenodd" clip-rule="evenodd" d="M25.344 23.597c-2.4 4.2-6.912 6.808-11.76 6.808C6.096 30.453 0 24.321 0 16.789S6.096 3.125 13.584 3.125c4.512 0 8.784 2.318 11.28 6.084l-4.08 2.752c-1.632-2.414-4.272-3.863-7.2-3.863-4.752 0-8.64 3.911-8.64 8.691 0 4.78 3.888 8.691 8.64 8.691a8.56 8.56 0 007.488-4.345l4.272 2.462zm93.36 1.883c3.12 0 5.664-2.559 5.664-5.697 0-3.139-2.544-5.698-5.664-5.698-3.12 0-5.664 2.56-5.664 5.698 0 3.138 2.544 5.697 5.664 5.697zm-10.608 11.395V19.783c0-5.89 4.752-10.67 10.608-10.67 5.856 0 10.608 4.78 10.608 10.67 0 8.401-9.264 13.47-16.224 8.98v8.112h-4.992zM147.024 9.16v21.342h4.944V9.16h-4.944zm42 21.293H192v-4.925h-2.976c-3.12 0-5.664-2.559-5.664-5.697v-2.27h5.664v-4.973h-5.664V6.94h-4.944v12.892c.048 5.89 4.8 10.622 10.608 10.622zm-52.992-10.67c0-3.139 2.544-5.698 5.664-5.698h2.256V9.16h-2.256c-5.856 0-10.608 4.78-10.608 10.671v10.67h4.944V19.784zm18.816 0v10.67h4.944v-10.67c0-3.139 2.544-5.698 5.664-5.698 3.12 0 5.664 2.56 5.664 5.698v10.67h4.944v-10.67c0-5.89-4.752-10.67-10.608-10.67-5.856.047-10.608 4.78-10.608 10.67z" fill="#fff"/></svg>