<svg width="243" height="51" fill="none" xmlns="http://www.w3.org/2000/svg"><path fill-rule="evenodd" clip-rule="evenodd" d="M27.246 15.776l.222-.063C15.944 19.3 6.801 25.427 6.611 29.935c-.19 4.826 9.936 5.968 22.603 2.54 12.699-3.429 23.143-10.127 23.333-14.953.096-2.507-2.571-4-6.92-4.412 5.333.254 8.666 1.777 8.666 4.571 0 5.302-12.127 13.016-27.047 17.238C12.326 39.173.198 38.316.198 33.015c0-5.27 12.127-12.985 27.048-17.239z" fill="#68676C"/><path fill-rule="evenodd" clip-rule="evenodd" d="M6.071 43.586l37.492-36-3.397 28.286-6.19-7.08L6.071 43.586z" fill="#E60030"/><path d="M85.436 21.078c0 3.048-2.19 5.968-5.968 5.968h-3.841v5.968h-3.429V15.078h6.413c4.667 0 6.825 2.508 6.825 6zm-3.428 0c0-1.683-1.334-2.572-2.984-2.572h-3.429v5.112h3.429c1.65 0 2.984-1.048 2.984-2.54zm24.444 2.984c0 5.175-4.222 9.397-9.397 9.397-5.174 0-9.397-4.222-9.397-9.397s4.223-9.397 9.397-9.397c5.207 0 9.397 4.223 9.397 9.397zm-3.397 0a5.96 5.96 0 00-5.968-5.968 5.961 5.961 0 00-5.968 5.968 5.961 5.961 0 005.968 5.968 5.96 5.96 0 005.968-5.968zm19.842 4.128l1.301 3.11c-1.523 1.397-3.809 2.159-5.809 2.159-5.27 0-9.556-4.222-9.556-9.397s4.286-9.397 9.556-9.397c2 0 4.286.762 5.809 2.127l-1.301 3.111a6.4 6.4 0 00-4.445-1.81c-3.428 0-6.19 2.668-6.19 5.97 0 3.3 2.762 5.967 6.19 5.967a6.237 6.237 0 004.445-1.84zm20.222 4.824h-4.318l-6.793-7.84v7.84h-3.429V15.078h3.429v7.428l6.349-7.428h4.317l-7.682 8.571 8.127 9.365zm19.524-8.952c0 5.175-4.223 9.397-9.397 9.397-5.175 0-9.397-4.222-9.397-9.397s4.222-9.397 9.397-9.397c5.174 0 9.397 4.223 9.397 9.397zm-3.429 0a5.961 5.961 0 00-5.968-5.968 5.962 5.962 0 00-5.969 5.968 5.962 5.962 0 005.969 5.968 5.962 5.962 0 005.968-5.968zm19.842 4.128l1.301 3.11c-1.524 1.397-3.809 2.159-5.809 2.159-5.27 0-9.556-4.222-9.556-9.397s4.286-9.397 9.556-9.397c2 0 4.285.762 5.809 2.127l-1.301 3.111a6.401 6.401 0 00-4.445-1.81c-3.428 0-6.19 2.668-6.19 5.97 0 3.3 2.762 5.967 6.19 5.967 1.746 0 3.333-.698 4.445-1.84zm25.428 4.824h-3.651l-1.492-11.746-4.698 11.746h-1.715l-4.698-11.746-1.492 11.746h-3.619l2.571-17.936h3.429l4.698 11.524 4.699-11.524h3.428l2.54 17.936zm20.603-8.952c0 5.175-4.222 9.397-9.397 9.397-5.174 0-9.396-4.222-9.396-9.397s4.222-9.397 9.396-9.397c5.207 0 9.397 4.223 9.397 9.397zm-3.397 0a5.96 5.96 0 00-5.968-5.968 5.961 5.961 0 00-5.968 5.968 5.962 5.962 0 005.968 5.968 5.96 5.96 0 005.968-5.968zm19.81 4.128l1.301 3.11c-1.523 1.397-3.809 2.159-5.809 2.159-5.27 0-9.556-4.222-9.556-9.397s4.286-9.397 9.556-9.397c2 0 4.286.762 5.809 2.127l-1.301 3.111a6.4 6.4 0 00-4.445-1.81c-3.428 0-6.19 2.668-6.19 5.97 0 3.3 2.762 5.967 6.19 5.967 1.778 0 3.334-.698 4.445-1.84z" fill="#68676C"/></svg>