<svg width="150" height="27" fill="none" xmlns="http://www.w3.org/2000/svg"><g clip-path="url(#clip0)" fill="#007DEB"><path fill-rule="evenodd" clip-rule="evenodd" d="M78.263 15.579a2.897 2.897 0 002.887-2.905c0-1.584-1.275-2.904-2.888-2.904a2.897 2.897 0 00-2.887 2.904 2.897 2.897 0 002.888 2.905zM28.95 4.715c4.575 0 8.287 3.735 8.287 8.337s-3.712 8.336-8.287 8.336c-4.575 0-8.288-3.734-8.288-8.336 0-4.64 3.713-8.337 8.288-8.337zm0 3.848c-2.438 0-4.425 1.999-4.425 4.45 0 2.453 1.987 4.452 4.425 4.452 2.437 0 4.425-2 4.425-4.451 0-2.452-1.988-4.451-4.425-4.451zM42.413 21.35H38.55v-8.336c0-4.602 3.713-8.337 8.288-8.337H48.6v3.886h-1.762c-2.438 0-4.425 1.999-4.425 4.45v8.337zM57.3 4.715c4.575 0 8.287 3.735 8.287 8.337v8.336h-3.862v-1.32c-1.275.83-2.813 1.282-4.425 1.282-4.575 0-8.288-3.734-8.288-8.336.038-4.602 3.75-8.299 8.288-8.299zm0 3.848c-2.438 0-4.425 1.999-4.425 4.45 0 2.453 1.987 4.452 4.425 4.452 2.437 0 4.425-2 4.425-4.451 0-2.452-1.95-4.451-4.425-4.451z"/><path d="M72 0h-3.863v21.35H72V0z"/><path fill-rule="evenodd" clip-rule="evenodd" d="M19.8 15.994a10.602 10.602 0 01-9.188 5.319C4.763 21.35 0 16.56 0 10.675 0 4.791 4.763 0 10.613 0c3.524 0 6.862 1.81 8.812 4.753l-3.188 2.15c-1.274-1.886-3.337-3.018-5.624-3.018-3.713 0-6.75 3.056-6.75 6.79s3.037 6.79 6.75 6.79a6.688 6.688 0 005.85-3.395l3.337 1.924zm72.937 1.471c2.438 0 4.425-2 4.425-4.451 0-2.452-1.987-4.451-4.425-4.451-2.437 0-4.425 1.999-4.425 4.45 0 2.453 1.988 4.452 4.425 4.452zm-8.287 8.902V13.014c0-4.602 3.712-8.337 8.287-8.337 4.575 0 8.288 3.735 8.288 8.337 0 6.563-7.238 10.524-12.675 7.016v6.337h-3.9zm30.412-21.652v16.673h3.863V4.715h-3.863zm32.813 16.635H150v-3.847h-2.325c-2.438 0-4.425-2-4.425-4.451v-1.773h4.425V7.393h-4.425V2.98h-3.863v10.072c.038 4.602 3.75 8.298 8.288 8.298zm-41.4-8.336c0-2.452 1.987-4.451 4.425-4.451h1.762V4.715H110.7c-4.575 0-8.288 3.735-8.288 8.337v8.336h3.863v-8.374zm14.7 0v8.336h3.862v-8.336c0-2.452 1.988-4.451 4.425-4.451 2.438 0 4.425 1.999 4.425 4.45v8.337h3.863v-8.336c0-4.602-3.713-8.337-8.288-8.337-4.575.038-8.287 3.735-8.287 8.337z"/></g><defs><clipPath id="clip0"><path fill="#fff" d="M0 0h150v26.367H0z"/></clipPath></defs></svg>