<svg width="60" height="50" fill="none" xmlns="http://www.w3.org/2000/svg"><path d="M15.372 43.39v-2.33a1.36 1.36 0 00-.403-1.068 1.408 1.408 0 00-1.082-.407 1.483 1.483 0 00-.754.152 1.447 1.447 0 00-.572.508 1.376 1.376 0 00-.532-.498 1.406 1.406 0 00-.716-.162 1.266 1.266 0 00-.627.131 1.24 1.24 0 00-.478.42v-.458h-.821v3.711h.829v-2.057a.855.855 0 01.225-.708.883.883 0 01.699-.278c.544 0 .82.35.82.978v2.065h.83v-2.057a.86.86 0 01.228-.705.89.89 0 01.696-.281c.56 0 .829.35.829.978v2.065h.829zm12.27-3.712H26.3v-1.125h-.829v1.125h-.766v.738h.766v1.692c0 .862.34 1.374 1.31 1.374a1.94 1.94 0 001.027-.287l-.236-.69c-.22.128-.47.2-.727.209-.41 0-.545-.249-.545-.621v-1.677h1.342v-.738zm7.004-.093a1.114 1.114 0 00-.995.544v-.45h-.813v3.71h.821v-2.08c0-.614.269-.955.806-.955.175-.003.35.03.513.093l.253-.76a1.782 1.782 0 00-.585-.102zm-10.588.388a2.86 2.86 0 00-1.54-.388c-.956 0-1.571.45-1.571 1.188 0 .605.458.978 1.303 1.095l.386.054c.45.062.664.178.664.388 0 .287-.3.45-.861.45a2.035 2.035 0 01-1.256-.388l-.386.629a2.756 2.756 0 001.634.481c1.09 0 1.721-.504 1.721-1.21 0-.653-.497-.994-1.318-1.11l-.387-.055c-.355-.047-.64-.117-.64-.365 0-.272.269-.435.719-.435.413.006.818.116 1.176.319l.356-.653zm21.998-.388a1.114 1.114 0 00-.995.544v-.45h-.813v3.71h.821v-2.08c0-.614.269-.955.806-.955.175-.003.35.029.513.093l.253-.76a1.782 1.782 0 00-.585-.102zm-10.58 1.949a1.847 1.847 0 00.567 1.413 1.937 1.937 0 001.446.536 2 2 0 001.358-.443l-.395-.652c-.284.212-.63.33-.987.334a1.219 1.219 0 01-.808-.373 1.18 1.18 0 010-1.63c.212-.221.5-.355.808-.373.357.004.703.121.987.334l.395-.652a2 2 0 00-1.358-.443 1.937 1.937 0 00-1.446.536 1.847 1.847 0 00-.568 1.413zm7.69 0v-1.856h-.82v.45a1.452 1.452 0 00-1.192-.543 2 2 0 00-1.341.603 1.933 1.933 0 00-.547 1.346c0 .5.196.982.547 1.345.351.363.83.579 1.34.603a1.43 1.43 0 001.192-.544v.451h.821v-1.855zm-3.055 0c.012-.22.09-.43.223-.606s.315-.31.525-.385a1.162 1.162 0 011.222.282 1.107 1.107 0 01.221 1.215 1.129 1.129 0 01-.42.495 1.156 1.156 0 01-.627.187 1.149 1.149 0 01-.837-.348 1.111 1.111 0 01-.307-.84zm-9.91-1.949a1.998 1.998 0 00-1.344.615 1.93 1.93 0 00.038 2.704 2 2 0 001.361.578 2.32 2.32 0 001.548-.52l-.403-.598a1.817 1.817 0 01-1.098.389 1.06 1.06 0 01-.751-.23 1.025 1.025 0 01-.378-.679h2.803c.008-.1.016-.202.016-.31-.008-1.157-.734-1.949-1.792-1.949zm-.016.722a.946.946 0 01.667.256c.18.17.283.4.288.645h-1.958a.949.949 0 01.315-.651.981.981 0 01.688-.25zm20.601 1.227v-3.346h-.821v1.94a1.452 1.452 0 00-1.192-.543c-.51.025-.99.24-1.34.603a1.933 1.933 0 00-.548 1.346c0 .5.196.982.548 1.345.35.363.83.579 1.34.603a1.453 1.453 0 001.192-.543v.45h.821v-1.855zm1.369 1.317a.382.382 0 01.352.226.357.357 0 01-.082.403.396.396 0 01-.27.11.386.386 0 01-.355-.227.358.358 0 01.082-.404.394.394 0 01.273-.108zm0 .657a.284.284 0 00.205-.084.287.287 0 00-.205-.49.297.297 0 00-.209.083.286.286 0 00.209.49zm.022-.46a.16.16 0 01.104.029.099.099 0 01.036.08.093.093 0 01-.03.07.14.14 0 01-.081.034l.113.13h-.089l-.105-.13h-.034v.13h-.075v-.343h.161zm-.086.064v.091h.085a.084.084 0 00.047-.011.038.038 0 00.017-.035.04.04 0 00-.004-.02.04.04 0 00-.013-.014.086.086 0 00-.047-.011h-.085zm-4.36-1.578c.012-.22.09-.43.223-.606s.315-.31.525-.385a1.161 1.161 0 011.222.282 1.116 1.116 0 01.22 1.215 1.128 1.128 0 01-.419.495 1.156 1.156 0 01-.627.187 1.149 1.149 0 01-.837-.348 1.108 1.108 0 01-.308-.84zm-27.732 0v-1.856h-.821v.45a1.452 1.452 0 00-1.192-.543c-.51.025-.989.24-1.34.603a1.933 1.933 0 00-.548 1.346c0 .5.196.982.548 1.345.351.363.83.579 1.34.603a1.43 1.43 0 001.192-.544v.451h.821v-1.855zm-3.056 0c.013-.22.09-.43.224-.606a1.161 1.161 0 011.747-.103 1.116 1.116 0 01.22 1.215 1.129 1.129 0 01-.419.495 1.157 1.157 0 01-.627.187 1.148 1.148 0 01-.837-.348 1.108 1.108 0 01-.308-.84z" fill="#231F20"/><path d="M36.22 11.4H23.784v21.975H36.22V11.399z" fill="#FF5F00"/><path d="M24.57 22.387a13.756 13.756 0 011.427-6.11 13.997 13.997 0 014.002-4.878 14.349 14.349 0 00-7.267-2.908 14.44 14.44 0 00-7.73 1.325 14.135 14.135 0 00-5.836 5.156A13.803 13.803 0 007 22.387c0 2.622.75 5.191 2.166 7.414a14.135 14.135 0 005.836 5.156 14.428 14.428 0 007.73 1.325 14.35 14.35 0 007.267-2.908 13.999 13.999 0 01-4.002-4.878 13.757 13.757 0 01-1.427-6.11z" fill="#EB001B"/><path d="M53 22.387c0 2.622-.75 5.191-2.165 7.414a14.134 14.134 0 01-5.837 5.156 14.428 14.428 0 01-7.73 1.325 14.349 14.349 0 01-7.267-2.908 14.027 14.027 0 004-4.88 13.785 13.785 0 001.43-6.107c0-2.117-.489-4.205-1.43-6.108a14.026 14.026 0 00-4-4.88A14.348 14.348 0 0137.27 8.49c2.652-.28 5.33.18 7.73 1.325a14.134 14.134 0 015.836 5.156A13.802 13.802 0 0153 22.387zm-1.362 8.659v-.45h.184v-.091h-.47v.091h.185v.45h.1zm.912 0v-.542h-.144l-.166.373-.165-.373h-.144v.542h.101v-.409l.156.353h.105l.156-.354v.41h.101z" fill="#F79E1B"/></svg>