<svg width="112" height="41" fill="none" xmlns="http://www.w3.org/2000/svg"><path d="M48.555 21.936c0 4.72-3.673 8.197-8.18 8.197s-8.18-3.478-8.18-8.197c0-4.753 3.673-8.197 8.18-8.197s8.18 3.444 8.18 8.197zm-3.58 0c0-2.949-2.13-4.967-4.6-4.967-2.47 0-4.6 2.018-4.6 4.967 0 2.92 2.13 4.967 4.6 4.967 2.47 0 4.6-2.051 4.6-4.967z" fill="#EA4335"/><path d="M66.202 21.936c0 4.72-3.673 8.197-8.18 8.197s-8.18-3.478-8.18-8.197c0-4.749 3.673-8.197 8.18-8.197s8.18 3.444 8.18 8.197zm-3.58 0c0-2.949-2.13-4.967-4.6-4.967-2.47 0-4.6 2.018-4.6 4.967 0 2.92 2.13 4.967 4.6 4.967 2.47 0 4.6-2.051 4.6-4.967z" fill="#FBBC05"/><path d="M83.114 14.234V28.95c0 6.054-3.552 8.526-7.75 8.526-3.952 0-6.331-2.657-7.228-4.83l3.118-1.305c.555 1.335 1.915 2.909 4.106 2.909 2.688 0 4.353-1.667 4.353-4.804v-1.18h-.125c-.801.995-2.345 1.863-4.294 1.863-4.077 0-7.813-3.57-7.813-8.163 0-4.627 3.736-8.227 7.813-8.227 1.945 0 3.489.869 4.294 1.833h.125v-1.334h3.4v-.004zm-3.147 7.732c0-2.887-1.916-4.997-4.353-4.997-2.47 0-4.54 2.11-4.54 4.997 0 2.856 2.07 4.937 4.54 4.937 2.437 0 4.353-2.08 4.353-4.937z" fill="#4285F4"/><path d="M88.72 5.609V29.63h-3.492V5.61h3.493z" fill="#34A853"/><path d="M102.331 24.634l2.779 1.863c-.897 1.334-3.059 3.632-6.794 3.632-4.632 0-8.092-3.6-8.092-8.197 0-4.874 3.49-8.196 7.691-8.196 4.232 0 6.302 3.385 6.978 5.214l.372.931-10.901 4.539c.834 1.644 2.132 2.483 3.952 2.483 1.824 0 3.088-.902 4.015-2.269zm-8.555-2.95l7.286-3.04c-.4-1.024-1.606-1.738-3.025-1.738-1.82 0-4.353 1.615-4.261 4.779z" fill="#EA4335"/><path d="M18.974 19.804v-3.478h11.658c.114.606.173 1.323.173 2.1 0 2.608-.71 5.835-2.996 8.133-2.225 2.329-5.066 3.57-8.831 3.57-6.978 0-12.846-5.713-12.846-12.728 0-7.014 5.868-12.727 12.846-12.727 3.86 0 6.61 1.522 8.676 3.507l-2.44 2.454c-1.482-1.397-3.49-2.484-6.24-2.484-5.095 0-9.08 4.128-9.08 9.25 0 5.123 3.985 9.25 9.08 9.25 3.305 0 5.188-1.333 6.394-2.546.978-.983 1.62-2.387 1.875-4.305l-8.269.004z" fill="#4285F4"/></svg>