<svg width="106" height="50" fill="none" xmlns="http://www.w3.org/2000/svg"><path d="M78.18 12.893a776.789 776.789 0 0012.065-9.397c.03 4.498-.022 8.999.026 13.496.074.787.03 1.578.04 2.367 0 1.72-.002 3.44.004 5.16a.521.521 0 01-.238.503c-4.671 3.152-9.347 6.298-14.012 9.459 5.894-1.865 11.768-3.797 17.659-5.675.103-.058.274-.076.315-.204-.046-3.864.004-7.733-.022-11.6 1.35.024 2.702.01 4.053.007.079 1.106.014 2.218.036 3.327v16.16c-7.51.016-15.022.001-22.533.008-.577.002-1.195-.028-1.684-.368-.477-.289-.822-.76-1.03-1.267-.171-.407-.116-.856-.123-1.284.002-4.801 0-9.602 0-14.403a4.256 4.256 0 011.02-2.506c1.225-1.528 2.895-2.59 4.424-3.783z" fill="#FECB31"/><path d="M17.51 13.066c.332-.11.683-.076 1.025-.078.437.004.877-.017 1.313.033-.015.146-.026.294-.08.433a2689.121 2689.121 0 00-5.075 13.75c-.065.163-.062.341-.064.515.01 2.332-.004 4.665.008 6.997a1.69 1.69 0 01-.58.077c-.497-.008-.994.012-1.49-.025-.034-2.473-.006-4.947-.015-7.42a1103.995 1103.995 0 01-4.404-11.386c-.118-.319-.296-.634-.25-.985.585-.07 1.176-.025 1.763-.04a.973.973 0 01.548.12c.819 2.41 1.694 4.8 2.538 7.2.34.925.67 1.852 1.033 2.768a44.114 44.114 0 011.097-3.865c.867-2.7 1.766-5.393 2.634-8.094z" fill="#E92730"/><path d="M83.544 16.815c.455-.605 1.109-1.145 1.892-1.224.33-.046.69.002.96.21 1.158.775-.083 2.902-.952 3.466-.43.331-.998.45-1.53.397-.485-.067-.81-.511-.937-.947-.103-.678.17-1.36.567-1.902z" fill="#020202"/><path d="M90.27 16.992c1.249.011 2.498-.007 3.746.01.026 3.867-.024 7.737.022 11.6-.04.128-.212.146-.315.204-5.89 1.878-11.765 3.81-17.659 5.675 4.665-3.16 9.34-6.307 14.012-9.459a.522.522 0 00.238-.504c-.006-1.72-.003-3.44-.003-5.16-.01-.788.033-1.579-.04-2.366z" fill="#CCA74D"/><path d="M35.602 23.982c-.003 3.56-.003 7.121 0 10.681l-.19.126c-.621-.036-1.264.081-1.872-.072-.001-3.522-.002-7.045 0-10.568-.173-.467-.525-.898-1.037-1.003a3.172 3.172 0 00-2.34.446c.008 3.359 0 6.717.003 10.077-.004.366.012.732-.018 1.097-.619.047-1.24.015-1.86.022-.047-.03-.139-.093-.186-.124.008-4.343.006-8.687.001-13.03.122-.052.245-.12.384-.107.555.006 1.113-.023 1.667.025.015.247.013.495.014.742.248-.12.482-.265.729-.39l.18-.09c.947-.448 2.065-.586 3.064-.229.971.33 1.545 1.413 1.461 2.397zM25.561 34.578c.022.156-.168.222-.294.21-.337.01-.675.005-1.012-.016a8.518 8.518 0 01-.189-.374c-.076-.19-.156-.378-.235-.567-.567.605-1.284 1.14-2.131 1.256-.772.143-1.579-.122-2.169-.62-.588-.436-.908-1.113-1.206-1.758-.043-.13-.09-.258-.133-.386-.037-.115-.07-.231-.107-.345-.033-.148-.054-.299-.078-.448a6.977 6.977 0 01-.01-1.761c.058-.434.184-.854.332-1.263.31-.715.684-1.442 1.35-1.895 1.075-.855 2.638-.78 3.813-.168 0-.645-.001-1.087-.004-1.133-.07-.322-.11-.651-.194-.971a10.962 10.962 0 01-.076-.283c-.15-.429-.41-.85-.825-1.067-.461-.221-.987-.087-1.432.101l-.173.104c-.095.045-.188.091-.281.138-.32.136-.625.55-.992.324-.076-.192-.16-.38-.248-.568-.142-.346-.385-.665-.416-1.046l.221-.13c.38-.174.777-.313 1.183-.412l.052-.026c.592-.18 1.21-.222 1.822-.276.316.051.64.056.946.152.727.188 1.318.704 1.764 1.284l.131.29c.066.147.126.296.182.447.04.114.077.229.115.344.03.118.06.238.099.355.018.122.033.245.048.367.101.434.04.885.134 1.32.032 2.94.007 5.88.013 8.821zm-2.07-6.434c-.217-.135-1.638-.892-2.429-.28-.927.859-.925 2.51-.91 3.1.017.588.406 2.347 1.649 2.43 1.262.005 1.683-.756 1.683-.78l.006-4.47zm.011.007v.006c.023.011.02.008 0-.006zm31.999-2.665c.152 1.039.125 2.09.123 3.138-.45-.008-4.391.088-5.474-.125.007.537-.051 1.08.047 1.612.026.148.048.299.08.447.036.115.068.232.104.349.028.09.057.18.088.27.076.184.154.367.23.552a2.548 2.548 0 001.648 1.417c.923.237 1.866-.04 2.788-.138.031.1.063.197.096.296.022.12.044.242.072.363.042.127.08.255.122.383-.021.047-.065.138-.087.184-.767.411-1.594.756-2.474.804-.975.134-1.996-.117-2.766-.732-.626-.408-1.022-1.052-1.366-1.692l-.086-.177a31.962 31.962 0 00-.189-.438c-.048-.155-.1-.309-.15-.464-.03-.118-.057-.237-.086-.354-.158-.67-.267-1.355-.25-2.044.012-.768-.048-1.544.073-2.305.055-.477.154-.948.276-1.413.054-.208.114-.416.18-.622.027-.09.057-.18.087-.27.03-.087.063-.175.095-.263.053-.152.112-.302.173-.45.059-.15.122-.298.187-.445.3-.597.76-1.097 1.266-1.53.853-.654 2.074-.751 3.04-.29.408.26.78.58 1.08.96.247.346.416.738.592 1.123.114.288.202.585.293.881.025.148.051.297.091.441.026.178.049.358.096.532zm-3.466-2.563c-1.172-.13-1.775 2.003-1.793 4.207.824-.14 2.86-.202 3.261-.128.032-3.865-1.24-4.078-1.468-4.079zM63.973 33.15c-.087-.208-.174-.417-.265-.623a371.69 371.69 0 00-.99-2.313c-.084-.21-.176-.416-.266-.622-.166-.39-.332-.78-.505-1.167-.071-.167-.145-.335-.16-.516.185-.321.325-.665.477-1.003.14-.288.269-.581.402-.873.135-.298.275-.594.406-.894.152-.328.304-.656.45-.988.123-.265.245-.53.36-.798.137-.29.267-.583.398-.875.11-.28.302-.538.317-.845l-.115-.083c-.532-.048-1.072-.026-1.605-.013-.263.016-.305.309-.384.5l-.131.335c-.046.126-.094.252-.138.379a15.57 15.57 0 00-.136.334c-.045.125-.092.25-.136.376-.047.111-.09.222-.134.334-.135.363-.274.724-.402 1.09a8.551 8.551 0 00-.096.263 25.9 25.9 0 00-.124.334c-.08.234-.166.466-.25.699a9.806 9.806 0 01-.337-.875l-.13-.332c-.046-.128-.093-.254-.136-.381-.047-.11-.091-.221-.136-.332-.099-.277-.214-.548-.312-.825a22.527 22.527 0 01-.273-.708c-.046-.112-.09-.223-.133-.334-.094-.26-.2-.515-.297-.773-.348-.167-.743-.072-1.112-.095-.354.03-.788-.118-1.044.201.13.24.229.493.344.738.099.245.22.48.317.726.11.228.206.463.313.693.128.305.272.604.4.91.11.228.204.465.31.695.295.652.569 1.312.879 1.956.156.267.063.558-.065.814-.077.172-.153.343-.227.516-.087.209-.172.419-.264.625-.086.209-.176.416-.266.623-.076.184-.157.366-.233.551-.072.172-.147.343-.222.515-.084.21-.176.416-.267.622-.082.211-.18.415-.267.624-.074.183-.157.362-.232.545-.088.209-.183.414-.268.624-.104.232-.197.468-.312.696a2.566 2.566 0 00-.135.44c.061.036.182.11.243.145.579-.029 1.179.087 1.741-.08.096-.216.178-.44.265-.659.043-.129.09-.256.134-.383l.127-.333a6.35 6.35 0 01.097-.262c.043-.129.09-.256.134-.385.041-.111.082-.222.125-.333a7.25 7.25 0 01.095-.263c.218-.62.421-1.242.63-1.864.042-.143.086-.285.124-.43l.136-.016c.092.33.218.65.325.977.042.11.082.222.124.334.03.087.062.174.096.262.045.127.093.253.137.381.044.108.088.219.135.328.053.151.11.301.171.45.09.237.178.474.274.708.088.238.176.474.27.71.045.127.096.253.148.379l.083.305c.12.062.224.178.37.174.542.006 1.085.013 1.626-.01l.143-.2c-.145-.296-.27-.603-.397-.908-.075-.172-.148-.346-.224-.517zM45.917 15.156c0 6.505-.003 13.009.002 19.513l-.19.12c-.366-.017-.741.043-1.098-.04-.201-.195-.308-.461-.449-.698-.777.678-1.793 1.23-2.862 1.04-.847-.078-1.587-.561-2.163-1.156-.312-.334-.516-.749-.736-1.144a43.308 43.308 0 01-.242-.546l-.095-.263-.081-.275a9.313 9.313 0 01-.087-.358c-.038-.144-.063-.291-.09-.438-.226-.988-.165-2.007-.167-3.013-.005-.747.104-1.489.252-2.22.028-.147.054-.295.09-.44.031-.117.062-.235.096-.351.027-.09.056-.18.087-.27.045-.127.091-.251.137-.377.093-.206.187-.411.284-.615.098-.178.196-.355.29-.535.356-.617.933-1.057 1.516-1.446.855-.434 2.173-.471 3.442-.065.014-2.204-.016-4.408.016-6.612.607-.057 1.22-.025 1.83-.026.12-.02.255.082.218.215zm-2.061 17.829c-.026-.447-.013-6.394-.006-9.539l-.004.008c-.539-.34-1.26-.76-2.087-.482-2.375.731-2.897 9.775.143 10.356.048.015 1.14.192 1.954-.343zm.012-18.018z" fill="#020202"/></svg>