<svg width="80" height="40" fill="none" xmlns="http://www.w3.org/2000/svg"><path d="M17.756 19.925l-3.328 7.454H12l3.656-7.971c-1.719-.87-2.865-2.448-2.865-5.36 0-4.08 2.592-6.12 5.675-6.12h3.137v19.45h-2.1v-7.453h-1.747zm1.746-10.229h-1.118c-1.692 0-3.329 1.116-3.329 4.353 0 3.128 1.501 4.135 3.329 4.135h1.118V9.696z" fill="red"/><path d="M31.724 13.668v13.71h-2.1v-6.147h-3.165v6.148h-2.128V13.668h2.128v5.822h3.165v-5.822h2.1zm10.94 16.404h-1.91v-2.693h-5.892v2.693h-1.91v-4.434h.846c1.255-2.911 1.391-7.155 1.391-10.8v-1.17h6.384v11.97h1.091v4.434zm-3.192-14.69H37.1v.245c0 2.883-.137 7.1-1.282 10.01h3.655V15.383zm9.058 12.187c-2.838 0-4.584-2.258-4.584-6.474 0-4.407 1.228-7.617 4.147-7.617 2.292 0 3.792 1.713 3.792 6.365v1.17h-5.729c0 3.101.873 4.734 2.565 4.734 1.2 0 2.155-.544 2.7-.925l.492 1.632a5.425 5.425 0 01-3.383 1.115zm-2.347-8.297h3.52c0-2.34-.382-4.053-1.61-4.053-1.31 0-1.773 1.605-1.91 4.053zm10.013 1.279v6.828h-2.128V13.668h2.128v6.338l3.3-6.338h2.156l-3.41 6.447 3.9 7.264h-2.318l-3.628-6.828zm6.22-.027c0-4.299 1.664-7.046 4.883-7.046 1.228 0 1.937.326 2.537.707l-.3 2.013c-.573-.49-1.391-.952-2.264-.952-1.528 0-2.62 1.714-2.62 5.169 0 3.427.82 5.386 2.538 5.386a3.48 3.48 0 002.319-.843l.49 1.577a4.17 4.17 0 01-2.864 1.034c-2.946 0-4.72-2.366-4.72-7.046z" fill="#000"/></svg>