<svg width="40" height="41" fill="none" xmlns="http://www.w3.org/2000/svg"><path d="M16.8 23.975c-.9-.9-1.3-1.9-1.3-3.2 0-1.3.4-2.3 1.3-3.2.9-.9 1.9-1.3 3.2-1.3 1.3 0 2.3.4 3.2 1.3.9.9 1.3 1.9 1.3 3.2 0 1.3-.4 2.3-1.3 3.2-.9.9-1.9 1.3-3.2 1.3-1.3 0-2.3-.4-3.2-1.3zm-.6-9.7c-1.2.7-2.1 1.6-2.7 2.7-.7 1.2-1 2.4-1 3.8s.3 2.6 1 3.8c.7 1.1 1.6 2.1 2.7 2.7 1.1.7 2.4 1 3.8 1s2.6-.3 3.8-1c1.1-.7 2.1-1.6 2.7-2.7.7-1.1 1-2.4 1-3.8s-.3-2.6-1-3.8c-.7-1.1-1.6-2.1-2.7-2.7-1.2-.7-2.4-1-3.8-1s-2.6.3-3.8 1zm10.3-2.7c-.3.4-.5.8-.5 1.3s.2 1 .6 1.3c.3.4.8.6 1.3.6s1-.2 1.3-.6c.4-.4.6-.8.6-1.3s-.2-1-.6-1.3c-.4-.3-.8-.6-1.3-.6s-1 .2-1.4.6zm-17 19.7c-1-1.1-1.5-2.4-1.5-3.9v-13.2c0-1.5.5-2.8 1.6-3.8 1-1.1 2.3-1.6 3.8-1.6h13.2c1.5 0 2.8.5 3.8 1.6 1.1 1 1.6 2.3 1.6 3.8v13.2c0 1.5-.5 2.8-1.6 3.8-1.1 1.1-2.3 1.6-3.8 1.6H13.4c-1.5 0-2.8-.5-3.9-1.5zm4.2-25.5c-1.5 0-3 .4-4.3 1.2-1.4.7-2.5 1.8-3.2 3.1-.8 1.4-1.2 2.8-1.2 4.4v12.7c0 1.5.4 3 1.2 4.3.7 1.3 1.8 2.4 3.1 3.1 1.4.8 2.8 1.2 4.4 1.2h12.7c1.5 0 3-.4 4.3-1.2 1.3-.8 2.4-1.8 3.2-3.2.8-1.3 1.2-2.8 1.2-4.3v-12.6c0-1.5-.4-3-1.2-4.3-.8-1.4-1.9-2.5-3.2-3.2-1.4-.8-2.8-1.2-4.4-1.2H13.7z" fill="url(#paint0_linear)"/><defs><linearGradient id="paint0_linear" x1="5" y1="8.275" x2="32.5" y2="33.275" gradientUnits="userSpaceOnUse"><stop stop-color="#405DE6"/><stop offset=".064" stop-color="#5B51D8"/><stop offset=".132" stop-color="#6949CB"/><stop offset=".173" stop-color="#7343C2"/><stop offset=".25" stop-color="#833AB4"/><stop offset=".423" stop-color="#C13584"/><stop offset=".559" stop-color="#E1306C"/><stop offset=".645" stop-color="#FD1D1D"/><stop offset=".682" stop-color="#F56040"/><stop offset=".773" stop-color="#F77737"/><stop offset=".868" stop-color="#FCAF45"/><stop offset="1" stop-color="#FFDC80"/></linearGradient></defs></svg>