<svg width="40" height="40" fill="none" xmlns="http://www.w3.org/2000/svg"><path d="M6.957 7.08c-2.35 2.442-1.87 5.036-1.87 12.916 0 6.543-1.141 13.103 4.834 14.647 1.866.48 18.398.48 20.262-.002 2.487-.642 4.511-2.66 4.788-6.179.039-.49.039-16.434-.001-16.934-.294-3.748-2.601-5.909-5.641-6.346-.697-.101-.837-.13-4.411-.137-12.68.006-15.46-.558-17.961 2.035z" fill="url(#paint0_linear)"/><path d="M20.042 8.957c-4.526 0-8.824-.402-10.465 3.81-.678 1.74-.58 4-.58 7.236 0 2.84-.09 5.508.58 7.234 1.637 4.216 5.97 3.812 10.462 3.812 4.334 0 8.802.451 10.464-3.812.679-1.757.58-3.983.58-7.234 0-4.315.237-7.1-1.855-9.192-2.12-2.119-4.985-1.854-9.191-1.854h.005zm-.99 1.991c9.44-.015 10.642-1.064 9.979 13.515-.236 5.156-4.162 4.59-8.988 4.59-8.8 0-9.053-.252-9.053-9.055 0-8.906.698-9.045 8.062-9.053v.003zm6.885 1.833a1.325 1.325 0 100 2.65 1.325 1.325 0 000-2.65zm-5.895 1.55a5.672 5.672 0 000 11.343 5.67 5.67 0 005.67-5.67 5.671 5.671 0 00-5.67-5.673zm0 1.99c4.867 0 4.873 7.364 0 7.364-4.866 0-4.874-7.364 0-7.364z" fill="#fff"/><defs><linearGradient id="paint0_linear" x1="7.014" y1="33.048" x2="34.816" y2="8.986" gradientUnits="userSpaceOnUse"><stop stop-color="#FD5"/><stop offset=".5" stop-color="#FF543E"/><stop offset="1" stop-color="#C837AB"/></linearGradient></defs></svg>