<svg width="99" height="50" fill="none" xmlns="http://www.w3.org/2000/svg"><path d="M42.211 43.073c-.144-.396-.407-.666-.596-1.016-.462-.602-1.004-1.124-1.547-1.645-.19-.063-.271-.243-.452-.315-.118-.153-.308-.233-.461-.35a9.176 9.176 0 00-.986-.63c-.651-.413-1.456-.674-2.252-.943a26.81 26.81 0 00-2.704-.486c-.931-.135-1.863-.26-2.568-.63-.407-.116-.706-.34-1.058-.52-.326-.216-.679-.396-.95-.666-.335-.197-.543-.53-.805-.8-.09-.18-.244-.287-.317-.485-.09-.036-.117-.144-.171-.207-.064-.072-.064-.216-.172-.242-.054.368-.036.809 0 1.186.045.162.063.36.108.521.027.144.163.378.109.486-2.822-.144-4.884-1.034-6.674-2.203-.887-.584-1.646-1.294-2.352-2.058-.307-.422-.642-.827-.913-1.294-.28-.459-.515-.98-.769-1.466-.416-1.051-.805-2.13-.95-3.451-.19-1.232-.144-2.805.136-3.947.1-.629.308-1.16.489-1.708.117-.251.244-.503.352-.764.154-.216.236-.512.426-.7.515-.963 1.284-1.682 2.07-2.374a8.748 8.748 0 012.985-1.43c1.121-.251 2.65-.296 3.861-.035 2.46.503 4.314 1.6 5.87 3.002 1.573 1.375 2.785 3.12 3.617 5.24.86 2.014 1.158 5.151.39 7.435-.317-.18-.634-.35-.95-.522-.38-.108-.751-.233-1.194-.278-.534-.01-1.058 0-1.402.17.696-.071 1.257.117 1.691.28.253.098.398.161.597.278.389.225.733.431 1.022.737.823.72 1.41 1.672 1.691 2.93 0 .036.045.027.036-.035.037-.01.054-.036.073-.072.045-.054.1-.108.144-.171.09-.108.181-.216.245-.35.19-.226.343-.477.488-.738.334-.485.588-1.043.877-1.573a16.642 16.642 0 001.158-3.74c.506-3.074-.1-5.986-1.158-8.135-1.085-2.166-2.604-3.9-4.567-5.204-1.98-1.295-4.296-2.248-7.479-2.337-.018-.063-.045.008-.109 0-1.682-.054-3.038.18-4.386.52-.624.208-1.275.387-1.826.666-.634.207-1.14.548-1.719.8-.208.198-.524.297-.741.486-.28.134-.489.35-.769.485-.452.395-.931.746-1.375 1.15-.434.396-.814.845-1.23 1.259-.063.144-.171.243-.28.35a1.172 1.172 0 01-.28.351c-.046.162-.19.225-.245.387-.117.09-.144.27-.28.35-.117.288-.325.495-.461.764-.163.261-.29.549-.452.8-.253.585-.525 1.15-.733 1.78a12.42 12.42 0 00-.524 1.96c-.136.656-.263 1.51-.245 2.202-.09.252-.018.72 0 1.016 0 .054-.036.072-.036.108 0 .332.09.737.109.944.072.764.208 1.474.425 2.094.136.692.425 1.232.633 1.852.316.521.534 1.141.913 1.609.28.548.679.98 1.059 1.43.406.43.813.871 1.302 1.222.895.773 1.944 1.393 3.093 1.923 2.143 1.034 5.344 1.708 8.22 1.538.733-.1 1.474-.19 2.144-.351.615-.225 1.33-.36 2.07-.45 1.692-.107 3.157.045 4.46.423 1.32.35 2.459.88 3.445 1.573.524.306.958.701 1.401 1.079.453.386.814.863 1.23 1.294.055.162.163.279.245.423.108.117.054.386.316.35.163-.161-.027-.395-.036-.593-.163-.17-.199-.395-.326-.54z" fill="#FCB316"/><path d="M35.646 33.508c-.037 0-.046.027-.073.036-.063.135-.036.35 0 .486.19.386.254.89.67 1.051.198-.063.18-.35.171-.629-.09-.341-.217-.647-.425-.872-.144-.054-.244-.144-.343-.072zm-2.46.98c0-.018-.027-.036-.036 0-.344-.045-.462.144-.633.279-.299.782.18 1.546 1.021 1.537.335-.081.543-.297.597-.665-.045-.657-.325-1.079-.95-1.15z" fill="#FCB316"/><path d="M53.462 31.998c.135.566.425.97.75 1.348.326.378.706.693 1.167.926.434.27.904.495 1.447.648.262.09.516.197.841.233.226.126.497.19.516.513-.01.386-.272.53-.606.602-.335-.072-.751-.063-1.031-.189-.706-.08-1.276-.305-1.872-.512a8.424 8.424 0 01-2.894-1.86c-.163-.27-.39-.486-.561-.747-.172-.26-.29-.575-.47-.836-1.393-.18-2.343-.81-3.175-1.537-.768-.872-1.383-1.915-1.636-3.3-.299-1.33-.209-2.993.144-4.278.769-2.49 2.379-4.144 5.417-4.369.841.027 1.574.126 2.243.378.678.242 1.32.692 1.827 1.16.045.035.063.044.09.09.109.152.371.368.516.557.027.036.018.099.045.143.054.081.136.117.19.19.027.044.018.098.045.134.036.054.082.135.136.234.018.036.081.063.09.09.082.152.118.341.19.512.073.18.172.333.235.512.181.53.299 1.16.371 1.807.181 1.87-.19 3.542-.886 4.783a5.144 5.144 0 01-1.311 1.627c-.489.512-1.158.817-1.818 1.141zm-2.243-11.704c-.407.027-.651.216-.986.324-.217.198-.488.35-.65.602-.272.153-.345.495-.562.692a8.74 8.74 0 00-.47 1.537c-.108.576-.18 1.223-.19 1.861-.009 1.6.335 3.191.977 4.135.38.459.841.836 1.402 1.115.325.027.578.135.931.144.2-.072.525 0 .651-.144.29.018.353-.17.606-.189.136-.135.28-.243.47-.323.172-.19.335-.378.516-.558.09-.135.145-.323.28-.422.814-1.547.905-4.378.371-6.176a5.475 5.475 0 00-.796-1.627 4.6 4.6 0 00-1.212-.88c-.37-.082-.723-.18-1.211-.136-.027 0-.055.01-.046.045h-.081zm9.867-1.303c.732.027 1.591-.063 2.242.045.145.224.09.494.09.746.055 3.407 0 7.065 0 10.544 0 .279.01.566 0 .836-.008.234.055.486-.09.701-.325.081-.796.045-1.212.045-.443 0-.877.063-1.166-.09a329.42 329.42 0 010-12.683c.018-.072.063-.117.136-.144zm5.607 0h2.197c.2.27.263.674.326 1.07.66 2.498 1.311 5.006 1.917 7.568.145.018.1-.152.145-.233.063-.063.027-.216.09-.279.027-.207.154-.315.145-.557.163-.315.217-.746.37-1.07.19-.755.444-1.456.66-2.184.209-.756.49-1.439.652-2.23.307-.638.38-1.51.75-2.085h.932c.335.63.461 1.465.75 2.14.19.754.453 1.438.652 2.184.461 1.447.94 2.876 1.356 4.368.19-.278.19-.746.326-1.07.081-.368.154-.745.28-1.07.362-1.473.706-2.956 1.122-4.368.153-.737.307-1.492.56-2.14a7.603 7.603 0 011.918 0c.045.55-.208 1.142-.371 1.628-.09.593-.308 1.052-.425 1.627-.335 1.052-.588 2.166-.932 3.209-.262 1.115-.615 2.14-.886 3.254-.18.512-.308 1.079-.47 1.627-.181.504-.244 1.124-.516 1.537H76.93c-.335-.584-.452-1.375-.75-1.995-.652-2.05-1.375-4.018-2.008-6.086-.217.225-.217.683-.371.97-.1.351-.2.702-.326 1.026-.18.71-.452 1.312-.606 2.04-.262.638-.452 1.349-.65 2.05-.272.61-.372 1.393-.706 1.95-.344.108-.886.018-1.312.045-.325-.368-.361-1.034-.56-1.537-.154-.521-.263-1.097-.461-1.582-.254-1.133-.634-2.13-.887-3.254-.334-1.043-.624-2.13-.931-3.21-.172-.512-.299-1.06-.47-1.581-.082-.558-.462-1.061-.326-1.672.018-.045.072-.072.127-.09zm18.458 0c.732.027 1.582-.063 2.242.045.163.485.09 1.007.09 1.528v9.753c0 .53.064 1.043-.09 1.537a12.6 12.6 0 01-1.872.045c-.18-.009-.397.045-.515-.09-.163-.485-.09-.997-.09-1.537v-9.654c0-.584-.055-1.15.09-1.537a.305.305 0 01.145-.09z" fill="#0269B3"/></svg>