<svg width="40" height="40" fill="none" xmlns="http://www.w3.org/2000/svg"><path d="M34 20.321c0-1.188-.095-2.055-.301-2.954H20.286v5.362h7.873c-.159 1.333-1.016 3.34-2.921 4.689l-.027.179 4.241 3.323.294.03C32.444 28.43 34 24.72 34 20.32z" fill="#4285F4"/><path d="M20.286 34.45c3.857 0 7.095-1.285 9.46-3.5l-4.508-3.532c-1.206.85-2.825 1.445-4.952 1.445-3.778 0-6.984-2.521-8.127-6.005l-.168.014-4.41 3.452-.057.162c2.35 4.72 7.175 7.964 12.762 7.964z" fill="#34A853"/><path d="M12.159 22.858A8.99 8.99 0 0111.683 20c0-.996.174-1.959.46-2.858l-.008-.191-4.465-3.508-.146.07A14.6 14.6 0 006 20a14.6 14.6 0 001.524 6.486l4.635-3.628z" fill="#FBBC05"/><path d="M20.285 11.137c2.683 0 4.492 1.172 5.524 2.152l4.032-3.982c-2.477-2.328-5.699-3.757-9.556-3.757-5.587 0-10.413 3.243-12.762 7.963l4.619 3.629c1.159-3.484 4.365-6.005 8.143-6.005z" fill="#EB4335"/></svg>