<svg width="80" height="50" fill="none" xmlns="http://www.w3.org/2000/svg"><path d="M35.745 35.035h-5.223l3.264-20.058h5.223l-3.264 20.058zm-9.616-20.058L21.15 28.773l-.589-2.97-1.756-9.02s-.213-1.806-2.478-1.806h-8.23l-.097.34s2.517.523 5.463 2.292L18 35.036h5.44l8.31-20.06h-5.621zm41.076 20.058H72l-4.18-20.059h-4.2c-1.938 0-2.41 1.495-2.41 1.495l-7.79 18.564h5.445l1.088-2.979h6.64l.61 2.98zm-5.747-7.095l2.744-7.506 1.544 7.506h-4.288zM53.83 19.8l.745-4.307s-2.3-.875-4.697-.875c-2.591 0-8.745 1.133-8.745 6.64 0 5.183 7.223 5.247 7.223 7.97 0 2.721-6.48 2.233-8.617.517l-.777 4.504s2.332 1.133 5.895 1.133c3.564 0 8.94-1.846 8.94-6.868 0-5.215-7.288-5.7-7.288-7.968s5.086-1.977 7.321-.745z" fill="#2566AF"/><path d="M20.562 25.803l-1.758-9.02s-.212-1.807-2.477-1.807h-8.23l-.097.34s3.956.82 7.75 3.892c3.629 2.936 4.812 6.595 4.812 6.595z" fill="#E6A540"/></svg>