<svg width="271" height="201" viewBox="0 0 271 201" fill="none" xmlns="http://www.w3.org/2000/svg">
<rect x="0.5" y="0.5" width="248" height="200" fill="white" stroke="#6C6C6C" stroke-linejoin="round"/>
<path d="M267.397 38.1082L269.147 36.3702L262.096 29.3665L258.584 30.1776L257.781 33.6666L264.818 40.6574L266.568 38.9193" fill="#8E8E8E"/>
<path d="M270.106 41.61C270.676 41.0436 271 40.2711 271 39.46C271 38.6489 270.676 37.8893 270.106 37.31L269.963 37.1813L265.634 41.4813L265.777 41.6229C266.969 42.7945 268.913 42.7945 270.106 41.61Z" fill="#8E8E8E"/>
<path d="M256.355 24.5L250.16 25.2596L256.964 32.0186L257.612 29.212L260.437 28.5683L256.355 24.5Z" fill="#8E8E8E"/>
<rect x="8.5" y="8.5" width="112" height="88" rx="8" fill="#F1F2F0"/>
<rect x="128.5" y="8.5" width="112" height="88" rx="8" fill="#F1F2F0"/>
<rect x="128.5" y="104.5" width="112" height="88" rx="8" fill="#F1F2F0"/>
<rect x="8.5" y="104.5" width="112" height="88" rx="8" fill="#F1F2F0"/>
<path fill-rule="evenodd" clip-rule="evenodd" d="M53.2316 23.0808C51.0356 20.4804 52.8841 16.5 56.2877 16.5H108.5C110.709 16.5 112.5 18.2909 112.5 20.5V71.9442C112.5 75.3382 108.539 77.1899 105.935 75.0134L76.1342 50.1084C75.9567 49.96 75.7924 49.7966 75.6431 49.6199L53.2316 23.0808Z" fill="white" stroke="#6C6C6C"/>
<path fill-rule="evenodd" clip-rule="evenodd" d="M112.493 69.0803V84.8625C112.493 87.3231 111.5 88.5 108.568 88.5H20.3026C17.646 88.5 16.5001 86.9156 16.5 84.4722V20.4168C16.5 18.4824 17.5439 16.5 20.8985 16.5H59.7258C62.7648 16.5 65.8037 17.6562 68.1244 19.9686C70.4451 22.2811 72.6079 25.3093 72.6079 28.3453L100.606 56.2361C103.645 56.2361 106.692 58.3991 109.012 60.7115C111.333 63.0239 112.493 66.0521 112.493 69.0803Z" fill="#F1F2F0"/>
<path d="M112.493 69.0803V84.8625C112.493 87.3231 111.5 88.5 108.568 88.5H20.3077C17.6513 88.5 16.5055 86.9156 16.5054 84.4722V20.4168C16.5054 18.4824 17.5492 16.5 20.9037 16.5H59.7285" stroke="#C4C4C4" stroke-linejoin="round"/>
<path d="M112.493 69.0803C112.493 66.0521 111.337 63.0239 109.025 60.7115C106.712 58.3991 103.676 56.2361 100.648 56.2361L72.7494 28.3453C72.7494 25.3093 70.5943 22.2811 68.2819 19.9686C65.9695 17.6562 62.9413 16.5 59.9131 16.5" stroke="#6C6C6C"/>
<path fill-rule="evenodd" clip-rule="evenodd" d="M100.654 57.2427H75.7563C73.5471 57.2427 71.7562 55.4518 71.7562 53.2427V28.3452C71.7562 25.3091 70.6 22.2809 68.2876 19.9685L109.03 60.7114C106.718 58.3989 103.682 57.2427 100.654 57.2427Z" fill="white" stroke="#6C6C6C" stroke-linejoin="round"/>
<rect x="136.5" y="16.5" width="96" height="72" rx="4" stroke="#C4C4C4" stroke-linejoin="round"/>
<rect x="136.5" y="112.5" width="96" height="72" rx="4" stroke="#C4C4C4" stroke-linejoin="round"/>
<rect x="16.5" y="112.5" width="96" height="72" rx="4" stroke="#C4C4C4" stroke-linejoin="round"/>
</svg>
