<svg xmlns="http://www.w3.org/2000/svg" width="140" height="140" viewBox="0 0 140 140"><defs><style>.a,.e,.g{fill:none;}.b{fill:#3c3c46;opacity:0.15;}.b,.c,.d,.g{fill-rule:evenodd;}.c{fill:#fff;}.d{fill:#ffefe0;}.e,.f,.g{stroke:#3c3c46;stroke-linecap:round;stroke-linejoin:round;stroke-width:2px;}.f{fill:#3ca4ef;}</style></defs><title>CP-advert-icon</title><rect class="a" width="140" height="140"/><polygon class="b" points="22.86 93.09 22.86 34.69 123.14 34.69 123.14 111.31 108.81 111.31 108.81 91.7 94.49 90.53 94.49 111.31 37.19 111.31 37.19 90.44 22.86 93.09"/><polygon class="c" points="16.86 87.09 16.86 28.69 117.14 28.69 117.14 105.31 102.81 105.31 102.81 85.7 88.49 84.54 88.49 105.31 31.19 105.31 31.19 84.44 16.86 87.09"/><polygon class="d" points="67 28.69 117.14 28.69 117.14 105.31 102.81 105.31 102.81 85.7 88.49 84.54 88.49 105.31 67 105.31 67 28.69"/><line class="e" x1="31.19" y1="79.21" x2="31.19" y2="105.31"/><line class="e" x1="45.51" y1="79.21" x2="45.51" y2="105.31"/><line class="e" x1="59.84" y1="79.21" x2="59.84" y2="105.31"/><line class="e" x1="74.16" y1="79.21" x2="74.16" y2="105.31"/><line class="e" x1="88.49" y1="79.21" x2="88.49" y2="105.31"/><line class="e" x1="102.81" y1="79.21" x2="102.81" y2="105.31"/><line class="e" x1="59.84" y1="44.68" x2="83.26" y2="44.68"/><line class="e" x1="59.84" y1="51.7" x2="102.81" y2="51.7"/><line class="e" x1="59.84" y1="65.98" x2="102.81" y2="65.98"/><line class="e" x1="94.99" y1="58.71" x2="102.81" y2="58.71"/><line class="e" x1="90.27" y1="44.68" x2="102.81" y2="44.68"/><line class="e" x1="59.84" y1="58.71" x2="73.82" y2="58.71"/><line class="e" x1="79.35" y1="58.71" x2="87.17" y2="58.71"/><rect class="f" x="31.19" y="44.68" width="19.81" height="21.3"/><line class="e" x1="38.35" y1="99.75" x2="38.35" y2="90.35"/><line class="e" x1="38.35" y1="85.76" x2="38.35" y2="86.95"/><line class="e" x1="38.35" y1="81.61" x2="38.35" y2="82.8"/><line class="e" x1="52.68" y1="99.75" x2="52.68" y2="90.35"/><line class="e" x1="52.68" y1="85.76" x2="52.68" y2="86.95"/><line class="e" x1="52.68" y1="81.61" x2="52.68" y2="82.8"/><line class="e" x1="67" y1="99.75" x2="67" y2="90.35"/><line class="e" x1="67" y1="85.76" x2="67" y2="86.95"/><line class="e" x1="67" y1="81.61" x2="67" y2="82.8"/><line class="e" x1="81.32" y1="99.75" x2="81.32" y2="90.35"/><line class="e" x1="81.32" y1="85.76" x2="81.32" y2="86.95"/><line class="e" x1="81.32" y1="81.61" x2="81.32" y2="82.8"/><polygon class="g" points="16.86 87.09 16.86 28.69 117.14 28.69 117.14 105.31 102.81 105.31 102.81 85.7 88.49 84.54 88.49 105.31 31.19 105.31 31.19 84.44 16.86 87.09"/></svg>