<svg xmlns="http://www.w3.org/2000/svg" width="140" height="140" viewBox="0 0 140 140"><defs><style>.a,.e,.g{fill:none;}.b{fill:#3c3c46;opacity:0.15;}.b,.c,.e,.f{fill-rule:evenodd;}.c,.f{fill:#fff;}.d{fill:#ffefe0;}.e,.f,.g{stroke:#3c3c46;stroke-linecap:round;stroke-linejoin:round;stroke-width:2px;}</style></defs><title>CP-blueprint-icon</title><rect class="a" width="140" height="140"/><path class="b" d="M20.26,129.91H134.81V34.23H20.26a9.07,9.07,0,0,1-9.07-9.07v95.69A9.07,9.07,0,0,0,20.26,129.91Z"/><path class="c" d="M14.26,123.91H128.81V28.23H14.26a9.07,9.07,0,0,1-9.07-9.07v95.69A9.07,9.07,0,0,0,14.26,123.91Z"/><rect class="d" x="66.86" y="28.23" width="61.95" height="95.69"/><path class="e" d="M14.26,123.91H128.81V28.23H14.26a9.07,9.07,0,0,1-9.07-9.07v95.69A9.07,9.07,0,0,0,14.26,123.91Z"/><path class="b" d="M5.19,22.69h.71a9.07,9.07,0,0,0,8.36,5.54H29.33v95.69H14.26a9.07,9.07,0,0,1-9.07-9.07Z"/><path class="f" d="M5.19,19.16a9.07,9.07,0,0,1,18.14,0v95.69a9.07,9.07,0,1,0-18.14,0Z"/><rect class="g" x="46.9" y="65.81" width="39.91" height="27.47"/><polygon class="e" points="66.86 44.63 79.57 55.22 92.28 65.81 66.86 65.81 41.44 65.81 54.15 55.22 66.86 44.63"/><rect class="g" x="54.23" y="71.56" width="9.99" height="8.39"/><rect class="g" x="69.73" y="71.56" width="9.99" height="21.73"/><line class="g" x1="73.48" y1="44.63" x2="104.05" y2="44.63"/><line class="g" x1="91.55" y1="93.28" x2="104.05" y2="93.28"/><line class="g" x1="100.05" y1="44.63" x2="100.05" y2="93.28"/><line class="g" x1="105.05" y1="65.54" x2="105.05" y2="72.37"/><line class="g" x1="46.9" y1="107.27" x2="46.9" y2="97.61"/><line class="g" x1="86.82" y1="107.27" x2="86.82" y2="97.61"/><line class="g" x1="46.9" y1="103.27" x2="86.82" y2="103.27"/><line class="g" x1="70.27" y1="108.27" x2="63.45" y2="108.27"/><polygon class="e" points="59.23 44.63 53.36 44.63 53.36 55.88 59.4 50.88 59.23 44.63"/><line class="g" x1="99.57" y1="112.92" x2="116.01" y2="112.92"/><line class="g" x1="99.57" y1="107.97" x2="116.01" y2="107.97"/><line class="g" x1="99.57" y1="103.02" x2="116.01" y2="103.02"/></svg>