<svg xmlns="http://www.w3.org/2000/svg" width="140" height="140" viewBox="0 0 140 140"><defs><style>.a,.k{fill:none;}.b,.e{fill:#3c3c46;}.b,.c,.d,.e,.f,.g,.i,.j{fill-rule:evenodd;}.b{opacity:0.15;}.c,.i{fill:#89d9fb;}.c,.d,.j,.k{stroke:#3c3c46;stroke-linecap:round;stroke-linejoin:round;}.c,.j{stroke-width:2px;}.d,.f{fill:#fff;}.d,.k{stroke-width:2px;}.g,.h{fill:#3ca4ef;}.j{fill:#ffefe0;}</style></defs><title>CP-banner-icon</title><rect class="a" width="140" height="140"/><path class="b" d="M21.57,111.81a2,2,0,1,1-2,2,2,2,0,0,1,2-2ZM113,46.13H13.57v74.67H122.45a11,11,0,0,0,11-11V45.16a11,11,0,0,0-11-11H113V46.13ZM41.57,111.81a2,2,0,1,1-2,2,2,2,0,0,1,2-2Zm20,0a2,2,0,1,1-2,2,2,2,0,0,1,2-2Zm20,0a2,2,0,1,1-2,2,2,2,0,0,1,2-2Zm20,0a2,2,0,1,1-2,2,2,2,0,0,1,2-2Zm20,0a2,2,0,1,1-2,2,2,2,0,0,1,2-2Zm-100-60.65a2,2,0,1,1-2,2,2,2,0,0,1,2-2Zm20,0a2,2,0,1,1-2,2,2,2,0,0,1,2-2Zm20,0a2,2,0,1,1-2,2,2,2,0,0,1,2-2Zm20,0a2,2,0,1,1-2,2,2,2,0,0,1,2-2Zm20,0a2,2,0,1,1-2,2A2,2,0,0,1,101.55,51.16Z"/><path class="c" d="M126.43,30.16a11,11,0,0,1-11,11H6.57v74.67H115.46a11,11,0,0,0,11-11V30.16Zm-111.85,16a2,2,0,1,1-2,2,2,2,0,0,1,2-2Zm20,0a2,2,0,1,1-2,2,2,2,0,0,1,2-2Zm20,0a2,2,0,1,1-2,2,2,2,0,0,1,2-2Zm20,0a2,2,0,1,1-2,2,2,2,0,0,1,2-2Zm20,0a2,2,0,1,1-2,2,2,2,0,0,1,2-2Zm-80,60.65a2,2,0,1,1-2,2,2,2,0,0,1,2-2Zm20,0a2,2,0,1,1-2,2,2,2,0,0,1,2-2Zm20,0a2,2,0,1,1-2,2,2,2,0,0,1,2-2Zm20,0a2,2,0,1,1-2,2,2,2,0,0,1,2-2Zm20,0a2,2,0,1,1-2,2,2,2,0,0,1,2-2Zm20,0a2,2,0,1,1-2,2A2,2,0,0,1,114.55,106.81Z"/><path class="d" d="M109.35,59.16h0a5.31,5.31,0,0,0-10.51-.63h-.18a4.29,4.29,0,0,0-4.1,3h-.25a2.77,2.77,0,0,0,0,5.54h15.06a4,4,0,0,0,0-7.93Z"/><path class="d" d="M97.14,64.6a2.1,2.1,0,0,0-2.79-2.34,3.85,3.85,0,0,0-7.08,2.08c0,.1,0,.2,0,.3a2.37,2.37,0,0,0,.58,4.66h8.88a2.37,2.37,0,0,0,.4-4.7Z"/><path class="e" d="M103.9,98.14h-1.72L90.39,80.45,88.9,73.77a1.07,1.07,0,0,0-2.1,0l-.22,1L76.9,60.22a3.37,3.37,0,0,0-5.6,0l-5.22,7.83-.64-1a3.37,3.37,0,0,0-5.6,0L52.16,78.61l-1.08-4.85a1.07,1.07,0,0,0-2.1,0l-3.2,14.42-6.64,10H37.42a1.07,1.07,0,1,0,0,2.15H103.9a1.07,1.07,0,1,0,0-2.15Z"/><path class="f" d="M61.62,68.29a1.22,1.22,0,0,1,2,0l4,6L65,77a.07.07,0,0,1-.1,0L63.4,75.53a1.07,1.07,0,0,0-1.52,0L58.2,79.21l-.26-.92a1.07,1.07,0,0,0-1.58-.63l-.59-.59Z"/><path class="f" d="M73.09,61.41a1.22,1.22,0,0,1,2,0l4.48,6.72-3.15,3.15a.07.07,0,0,1-.1,0l-3.2-3.2a1.07,1.07,0,0,0-1.52,0L68.31,71.4,67.37,70Z"/><polygon class="g" points="86.78 98.14 86.14 98.14 84.51 95.7 86.78 95.7 86.78 98.14"/><path class="g" d="M88.93,98.14V95.7h3.51a1.07,1.07,0,0,0,1-1.31l-1.81-8.14L99.6,98.14H88.93Z"/><path class="g" d="M58,98.14V95.7h3.51a1.07,1.07,0,0,0,1-1.37L58.88,81.57l3.76-3.76.72.72a2.22,2.22,0,0,0,3.14,0l2.39-2.39,14.66,22Z"/><rect class="h" x="51.11" y="95.7" width="4.73" height="2.44"/><path class="g" d="M49,98.14H41.72L44.49,94l-.09.4a1.07,1.07,0,0,0,1,1.31H49v2.44Z"/><polygon class="g" points="54.55 78.89 55.45 79.79 53.74 85.75 52.8 81.52 54.55 78.89"/><path class="g" d="M85.94,77.65l-.65,2.91-1.13-1.7a1.07,1.07,0,0,0-1.79,1.19l2.27,3.41L82.57,92.8,69.52,73.22l2.86-2.86,2.44,2.44a2.22,2.22,0,0,0,3.14,0L80.81,70Z"/><polygon class="i" points="50.03 78.95 53.28 93.56 46.79 93.56 50.03 78.95"/><polygon class="i" points="60.07 93.56 55.48 93.56 54.72 90.15 56.91 82.5 60.07 93.56"/><polygon class="i" points="87.85 78.95 91.1 93.56 84.61 93.56 87.85 78.95"/><path class="b" d="M126.43,104.84c0-9.47-13.23-5.63-20.42-2.35V44.41l9.45-2.86c6.06-1.84,11,.5,11,5.21v58.08ZM113,46.18a2.68,2.68,0,0,0-2,2.16c0,.86.9,1.28,2,.95a2.68,2.68,0,0,0,2-2.16c0-.86-.9-1.28-2-.95Zm0,47.19a2.68,2.68,0,0,0-2,2.16c0,.86.9,1.28,2,.95a2.68,2.68,0,0,0,2-2.16C115,93.46,114.11,93,113,93.37Z"/><path class="j" d="M126.43,104.84a11,11,0,0,0-11-11H106V19.19h9.45a11,11,0,0,1,11,11v74.67ZM113,24.19a2,2,0,1,0,2,2,2,2,0,0,0-2-2Zm0,60.67a2,2,0,1,0,2,2A2,2,0,0,0,113,84.87Z"/><line class="k" x1="17.98" y1="85.77" x2="28.02" y2="85.77"/><line class="k" x1="17.98" y1="91.53" x2="36.4" y2="91.53"/><line class="k" x1="31.02" y1="85.77" x2="36.4" y2="85.77"/><line class="k" x1="17.98" y1="97.29" x2="23.97" y2="97.29"/><line class="k" x1="28.34" y1="97.29" x2="31.69" y2="97.29"/><line class="k" x1="17.98" y1="62.55" x2="28.02" y2="62.55"/><line class="k" x1="17.98" y1="68.31" x2="36.4" y2="68.31"/><line class="k" x1="17.98" y1="80.03" x2="32.85" y2="80.03"/><line class="k" x1="29.05" y1="74.07" x2="32.4" y2="74.07"/><line class="k" x1="32.02" y1="62.55" x2="41.3" y2="62.55"/><line class="k" x1="17.98" y1="74.07" x2="23.97" y2="74.07"/></svg>