<svg xmlns="http://www.w3.org/2000/svg" width="140" height="140" viewBox="0 0 140 140"><defs><style>.a,.f,.k{fill:none;}.b{fill:#e5e5e5;}.b,.f,.g,.h,.i,.k{stroke:#3c3c46;stroke-linecap:round;stroke-linejoin:round;stroke-width:2px;}.b,.e,.g,.i,.j,.k{fill-rule:evenodd;}.c,.l{fill:#3c3c46;}.c{opacity:0.15;}.d,.i,.j{fill:#fff;}.e{fill:#ffefe0;}.g{fill:#3ca4ef;}.h{fill:#89d9fb;}</style></defs><title>CP-business-card-icon</title><rect class="a" width="140" height="140"/><path class="b" d="M68.38,76.35v4.9h.06a5.55,5.55,0,0,0,11,0h0v-4.9Z"/><path class="b" d="M79.43,76.35l0,2.45h.06a5.54,5.54,0,0,0,11,0h0l-1.2-2.45Z"/><rect class="c" x="23.28" y="39.17" width="71.64" height="43.17" rx="4.05" ry="4.05"/><rect class="d" x="17.28" y="33.17" width="77.71" height="43.17" rx="4.05" ry="4.05"/><path class="e" d="M56.14,33.17H91.35A3.66,3.66,0,0,1,95,36.82V72.7a3.66,3.66,0,0,1-3.64,3.64H56.14Z"/><rect class="f" x="17.28" y="33.17" width="77.71" height="43.17" rx="4.05" ry="4.05"/><line class="f" x1="52.59" y1="43.33" x2="84.05" y2="43.33"/><line class="f" x1="52.59" y1="49.74" x2="84.05" y2="49.74"/><line class="f" x1="52.59" y1="56.14" x2="84.05" y2="56.14"/><line class="f" x1="52.59" y1="62.54" x2="76.74" y2="62.54"/><path class="g" d="M34.27,61.74H26.69a7.58,7.58,0,1,1,15.15,0Z"/><circle class="h" cx="34.27" cy="46.11" r="4.93"/><line class="f" x1="26.69" y1="67.14" x2="41.85" y2="67.14"/><rect class="c" x="68.38" y="64.31" width="16.71" height="12.04"/><path class="i" d="M105.9,43.61H95L94.8,70.55,76,59.81l0,.06a5.54,5.54,0,0,0-5.49,9.51l0,.07L88.2,81.3l1.4,7a9.12,9.12,0,0,0,9,7.56l.81,2.91,20.39,1.93-4.36-48.4A9.61,9.61,0,0,0,105.9,43.61Z"/><path class="j" d="M88.29,106.83V97.35a1.53,1.53,0,0,1,1.53-1.53h31.38a1.53,1.53,0,0,1,1.53,1.53v9.48Z"/><path class="k" d="M88.29,106.83V97.35a1.53,1.53,0,0,1,1.53-1.53h31.38a1.53,1.53,0,0,1,1.53,1.53v9.48"/><circle class="l" cx="94.54" cy="102.51" r="2.11"/></svg>