<svg xmlns="http://www.w3.org/2000/svg" width="140" height="140" viewBox="0 0 140 140"><defs><style>.a,.f,.g{fill:none;}.b{fill:#3c3c46;opacity:0.15;}.b,.c,.d,.e,.f,.h{fill-rule:evenodd;}.c,.h{fill:#89d9fb;}.d{fill:#ffefe0;}.e{fill:#fff;}.f,.g,.h{stroke:#3c3c46;stroke-linecap:round;stroke-linejoin:round;stroke-width:2px;}</style></defs><title>CP-booklet-icon</title><rect class="a" width="140" height="140"/><polygon class="b" points="21.45 120.84 56.48 100.62 56.48 100.62 91.52 120.84 126.55 100.62 126.55 45.16 91.52 65.38 56.48 45.16 56.48 45.16 21.45 65.38 21.45 120.84"/><polygon class="c" points="13.45 79.11 48.48 58.89 48.48 19.16 13.45 39.38 13.45 79.11"/><polygon class="d" points="83.52 39.38 118.55 19.16 118.55 98.62 83.52 118.84 83.52 39.38"/><polygon class="d" points="13.45 118.84 48.48 98.62 48.48 58.89 13.45 79.11 13.45 118.84"/><polygon class="e" points="48.48 98.62 83.52 118.84 83.52 39.38 48.48 19.16 48.48 98.62"/><polygon class="c" points="83.52 110.84 48.48 90.62 48.48 66.38 83.52 86.61 83.52 110.84"/><polygon class="f" points="48.48 98.62 83.52 118.84 83.52 39.38 48.48 19.16 48.48 98.62"/><polyline class="f" points="83.52 39.38 118.55 19.16 118.55 98.62 83.52 118.84"/><polyline class="f" points="48.48 19.16 13.45 39.38 13.45 118.84 48.48 98.62"/><line class="g" x1="19.04" y1="45.62" x2="42.9" y2="31.84"/><line class="g" x1="19.04" y1="51.62" x2="42.9" y2="37.84"/><path class="h" d="M93.75,41.79c2.57-1.48,4.65-.45,4.65,2.31a9.94,9.94,0,0,1-4.65,7.69c-2.57,1.48-4.65.45-4.65-2.31A9.94,9.94,0,0,1,93.75,41.79Z"/><path class="f" d="M102.89,39,113,33.2M102.89,44,113,38.2"/><path class="h" d="M93.75,57.79c2.57-1.48,4.65-.45,4.65,2.31a9.94,9.94,0,0,1-4.65,7.69c-2.57,1.48-4.65.45-4.65-2.31A9.94,9.94,0,0,1,93.75,57.79Z"/><path class="f" d="M102.89,55,113,49.2M102.89,60,113,54.2"/><path class="h" d="M93.75,73.79c2.57-1.48,4.65-.45,4.65,2.31a9.94,9.94,0,0,1-4.65,7.69c-2.57,1.48-4.65.45-4.65-2.31A9.94,9.94,0,0,1,93.75,73.79Z"/><path class="f" d="M102.89,71,113,65.2M102.89,76,113,70.2"/><line class="g" x1="77.93" y1="52.16" x2="54.07" y2="38.38"/><line class="g" x1="77.93" y1="46.16" x2="64.93" y2="38.65"/><line class="g" x1="61.04" y1="36.4" x2="54.07" y2="32.38"/><line class="g" x1="58.41" y1="46.89" x2="54.07" y2="44.38"/><line class="g" x1="77.93" y1="58.16" x2="70.17" y2="53.68"/><line class="g" x1="66.54" y1="51.58" x2="62.2" y2="49.07"/><line class="g" x1="42.9" y1="85.84" x2="19.04" y2="99.62"/><line class="g" x1="42.9" y1="91.84" x2="29.9" y2="99.35"/><line class="g" x1="26" y1="101.6" x2="19.04" y2="105.62"/><line class="g" x1="23.38" y1="91.11" x2="19.04" y2="93.62"/><line class="g" x1="42.9" y1="79.84" x2="35.14" y2="84.32"/><line class="g" x1="31.51" y1="86.42" x2="27.17" y2="88.93"/><line class="g" x1="54.07" y1="56.38" x2="77.93" y2="70.16"/><line class="g" x1="54.07" y1="50.38" x2="67.07" y2="57.89"/><line class="g" x1="70.97" y1="60.14" x2="77.93" y2="64.16"/><line class="g" x1="112.96" y1="91.84" x2="89.1" y2="105.62"/><line class="g" x1="93.44" y1="97.11" x2="89.1" y2="99.62"/><line class="g" x1="112.96" y1="85.84" x2="105.2" y2="90.32"/><line class="g" x1="101.57" y1="92.42" x2="97.23" y2="94.93"/><line class="g" x1="13.45" y1="79.11" x2="48.48" y2="58.89"/><polygon class="b" points="48.48 98.62 57.73 103.96 57.73 24.5 48.48 19.16 48.48 98.62"/><line class="g" x1="83.52" y1="86.61" x2="48.48" y2="66.38"/><line class="g" x1="83.52" y1="110.84" x2="48.48" y2="90.62"/></svg>