<svg xmlns="http://www.w3.org/2000/svg" width="140" height="140" viewBox="0 0 140 140"><defs><style>.a,.b,.g{fill:none;}.b,.d,.e,.f,.g{stroke:#3c3c46;stroke-linecap:round;stroke-linejoin:round;stroke-width:2px;}.b,.f{fill-rule:evenodd;}.c{fill:#3c3c46;opacity:0.2;}.d{fill:#fff;}.e{fill:#89d9fb;}.f{fill:#3ca4ef;}</style></defs><title>CP-catalog-clamp-icon</title><rect class="a" width="140" height="140"/><path class="b" d="M26.5,31h-2a2,2,0,0,0-2,2V47.64a2,2,0,0,0,2,2h2Z"/><path class="b" d="M26.5,84.37h-2a2,2,0,0,0-2,2V101a2,2,0,0,0,2,2h2Z"/><rect class="c" x="31.5" y="23" width="86" height="100"/><rect class="d" x="103.5" y="17.1" width="4" height="99.8"/><rect class="d" x="99.5" y="17.1" width="4" height="99.8"/><rect class="d" x="95.5" y="17.1" width="4" height="99.8"/><rect class="e" x="25.5" y="17" width="70" height="100"/><path class="f" d="M71.35,47.72l-2.7,2.7a7.5,7.5,0,1,0,0,10.6l8.45,8.45A19.45,19.45,0,1,1,77.1,42Z"/><line class="g" x1="48.76" y1="86.69" x2="73.76" y2="86.69"/><line class="g" x1="48.76" y1="91.69" x2="73.76" y2="91.69"/></svg>