<svg xmlns="http://www.w3.org/2000/svg" width="140" height="140" viewBox="0 0 140 140"><defs><style>.a,.g,.j{fill:none;}.b{fill:#3c3c46;opacity:0.2;}.c,.f{fill:#ffefe0;}.c,.d,.e,.f,.g,.h,.i,.j{stroke:#3c3c46;stroke-linecap:round;stroke-linejoin:round;stroke-width:2px;}.d,.e{fill:#fff;}.e,.f,.g,.h,.i{fill-rule:evenodd;}.h{fill:#3ca4ef;}.i{fill:#89d9fb;}</style></defs><title>CP-catalog-icon</title><rect class="a" width="140" height="140"/><rect class="b" x="15" y="37.78" width="116" height="82.69"/><rect class="c" x="9" y="31.78" width="58" height="82.69"/><rect class="d" x="67" y="31.78" width="58" height="82.69"/><rect class="b" x="25.31" y="31.78" width="93.88" height="82.69"/><polygon class="e" points="114.69 19.53 67 31.78 67 114.47 114.69 102.22 114.69 19.53"/><polygon class="f" points="19.31 19.53 67 31.78 67 114.47 19.31 102.22 19.31 19.53"/><path class="g" d="M45,48.62l13.4,3.59M45,43.62l10.7,2.87M45,38.62l13.4,3.59"/><polygon class="h" points="27.95 32.94 38.97 35.9 38.97 48.13 27.95 45.18 27.95 32.94"/><path class="g" d="M45,68.38,58.36,72M45,63.38,58.36,67M45,58.38l9.35,2.51"/><polygon class="i" points="27.95 52.7 38.97 55.66 38.97 67.89 27.95 64.94 27.95 52.7"/><path class="g" d="M92.65,74.82l13.4-4.15m-13.4-.85,13.4-4.15m-13.4-.85L102,61.93"/><polygon class="h" points="75.64 68.97 86.66 65.56 86.66 77.8 75.64 81.2 75.64 68.97"/><path class="g" d="M92.65,94.91l13.4-4.15m-13.4-.85,13.4-4.15m-13.4-.85L102,82"/><polygon class="i" points="75.64 89.05 86.66 85.64 86.66 97.88 75.64 101.29 75.64 89.05"/><line class="j" x1="27.95" y1="79.9" x2="58.36" y2="88.05"/><line class="j" x1="27.95" y1="85.26" x2="58.36" y2="93.41"/><path class="g" d="M92.65,54.59l13.4-4.15m-13.4-.85,13.4-4.15m-13.4-.85L102,41.69"/><polygon class="i" points="75.64 48.73 86.66 45.32 86.66 57.56 75.64 60.97 75.64 48.73"/></svg>