<svg xmlns="http://www.w3.org/2000/svg" width="140" height="140" viewBox="0 0 140 140"><defs><style>.a,.g{fill:none;}.b{fill:#3c3c46;opacity:0.15;}.c,.d{fill:#89d9fb;}.c,.g,.h{stroke:#3c3c46;stroke-linecap:round;stroke-linejoin:round;}.c{stroke-width:2px;}.e{fill:#fff;}.f{fill:#ffefe0;}.g,.h{stroke-width:2px;}.h{fill:#e5e5e5;}</style></defs><title>CP-calendar-quarter-3-spring-icon</title><rect class="a" width="140" height="140"/><rect class="b" x="45.93" y="11.4" width="54.13" height="31.1"/><rect class="b" x="45.93" y="46.5" width="54.13" height="24.5"/><rect class="b" x="45.93" y="75" width="54.13" height="24.5"/><rect class="b" x="45.93" y="103.5" width="54.13" height="31.1"/><rect class="c" x="39.93" y="5.4" width="54.13" height="31.1"/><rect class="d" x="39.93" y="121.99" width="54.13" height="6.61"/><rect class="e" x="39.93" y="40.5" width="54.13" height="24.5"/><rect class="f" x="67" y="40.5" width="27.07" height="24.5"/><rect class="g" x="39.93" y="40.5" width="54.13" height="24.5"/><line class="g" x1="45.93" y1="34.5" x2="45.93" y2="42.5"/><line class="g" x1="54.36" y1="34.5" x2="54.36" y2="42.5"/><line class="g" x1="62.79" y1="34.5" x2="62.79" y2="42.5"/><line class="g" x1="71.21" y1="34.5" x2="71.21" y2="42.5"/><line class="g" x1="79.64" y1="34.5" x2="79.64" y2="42.5"/><line class="g" x1="88.07" y1="34.5" x2="88.07" y2="42.5"/><rect class="e" x="39.93" y="69" width="54.13" height="24.5"/><rect class="f" x="67" y="69" width="27.07" height="24.5"/><rect class="g" x="39.93" y="69" width="54.13" height="24.5"/><line class="g" x1="45.93" y1="63" x2="45.93" y2="71"/><line class="g" x1="54.36" y1="63" x2="54.36" y2="71"/><line class="g" x1="62.79" y1="63" x2="62.79" y2="71"/><line class="g" x1="71.21" y1="63" x2="71.21" y2="71"/><line class="g" x1="79.64" y1="63" x2="79.64" y2="71"/><line class="g" x1="88.07" y1="63" x2="88.07" y2="71"/><rect class="e" x="39.93" y="97.5" width="54.13" height="24.5"/><rect class="f" x="67" y="97.5" width="27.07" height="24.5"/><rect class="g" x="39.93" y="97.5" width="54.13" height="31.1"/><line class="g" x1="45.93" y1="91.5" x2="45.93" y2="99.5"/><line class="g" x1="54.36" y1="91.5" x2="54.36" y2="99.5"/><line class="g" x1="62.79" y1="91.5" x2="62.79" y2="99.5"/><line class="g" x1="71.21" y1="91.5" x2="71.21" y2="99.5"/><line class="g" x1="79.64" y1="91.5" x2="79.64" y2="99.5"/><line class="g" x1="88.07" y1="91.5" x2="88.07" y2="99.5"/><line class="g" x1="45.93" y1="50.33" x2="54.36" y2="50.33"/><line class="g" x1="45.93" y1="55.17" x2="54.36" y2="55.17"/><line class="g" x1="62.79" y1="50.33" x2="71.21" y2="50.33"/><line class="g" x1="62.79" y1="55.17" x2="71.21" y2="55.17"/><line class="g" x1="79.64" y1="50.33" x2="88.07" y2="50.33"/><line class="g" x1="79.64" y1="55.17" x2="88.07" y2="55.17"/><circle class="h" cx="67" cy="11.75" r="2.36"/><line class="g" x1="39.93" y1="121.99" x2="94.07" y2="121.99"/><line class="g" x1="45.93" y1="78.83" x2="54.36" y2="78.83"/><line class="g" x1="45.93" y1="83.67" x2="54.36" y2="83.67"/><line class="g" x1="62.79" y1="78.83" x2="71.21" y2="78.83"/><line class="g" x1="62.79" y1="83.67" x2="71.21" y2="83.67"/><line class="g" x1="79.64" y1="78.83" x2="88.07" y2="78.83"/><line class="g" x1="79.64" y1="83.67" x2="88.07" y2="83.67"/><line class="g" x1="45.93" y1="107.33" x2="54.36" y2="107.33"/><line class="g" x1="45.93" y1="112.16" x2="54.36" y2="112.16"/><line class="g" x1="62.79" y1="107.33" x2="71.21" y2="107.33"/><line class="g" x1="62.79" y1="112.16" x2="71.21" y2="112.16"/><line class="g" x1="79.64" y1="107.33" x2="88.07" y2="107.33"/><line class="g" x1="79.64" y1="112.16" x2="88.07" y2="112.16"/></svg>