<svg xmlns="http://www.w3.org/2000/svg" width="140" height="140" viewBox="0 0 140 140"><defs><style>.a,.f{fill:none;}.b{fill:#3c3c46;opacity:0.2;}.c{fill:#e5e5e5;}.c,.f,.g,.h,.i,.j{stroke:#3c3c46;stroke-linecap:round;stroke-linejoin:round;}.c,.f,.h,.i,.j{stroke-width:2px;}.d{fill:#ffefe0;}.e{fill:#fff;}.g,.h,.j{fill:#89d9fb;}.g{stroke-width:2px;}.i{fill:#3ca4ef;}.i,.j{fill-rule:evenodd;}</style></defs><title>CP-presentation-icon</title><rect class="a" width="140" height="140"/><rect class="b" x="33" y="13.02" width="80" height="119.96"/><rect class="c" x="27" y="123.11" width="80" height="3.87"/><rect class="c" x="27" y="119.24" width="80" height="3.87"/><rect class="d" x="67" y="63.13" width="40" height="56.11"/><rect class="e" x="27" y="63.13" width="40" height="56.11"/><rect class="f" x="27" y="63.13" width="80" height="56.11"/><rect class="g" x="27" y="7.02" width="80" height="56.11"/><line class="f" x1="89.91" y1="67.97" x2="89.91" y2="58.3"/><line class="f" x1="82.28" y1="67.97" x2="82.28" y2="58.3"/><line class="f" x1="74.64" y1="67.97" x2="74.64" y2="58.3"/><line class="f" x1="67" y1="67.97" x2="67" y2="58.3"/><line class="f" x1="59.36" y1="67.97" x2="59.36" y2="58.3"/><line class="f" x1="51.72" y1="67.97" x2="51.72" y2="58.3"/><line class="f" x1="44.09" y1="67.97" x2="44.09" y2="58.3"/><line class="f" x1="36.45" y1="67.97" x2="36.45" y2="58.3"/><line class="f" x1="97.55" y1="67.97" x2="97.55" y2="58.3"/><rect class="h" x="76.27" y="84.14" width="4.67" height="8.31"/><rect class="h" x="84.66" y="81.88" width="4.67" height="10.57"/><rect class="h" x="93.06" y="75.46" width="4.67" height="16.99"/><path class="i" d="M47,91.19l11.26,6.5A13,13,0,1,1,47,78.19Z"/><path class="j" d="M47,91.19v-13a13,13,0,0,1,11.26,19.5Z"/><line class="f" x1="76.27" y1="98.37" x2="97.73" y2="98.37"/><line class="f" x1="76.27" y1="103.37" x2="97.73" y2="103.37"/><line class="f" x1="76.27" y1="108.37" x2="97.73" y2="108.37"/></svg>