<svg xmlns="http://www.w3.org/2000/svg" width="140" height="140" viewBox="0 0 140 140"><defs><style>.a,.f{fill:none;}.b{fill:#3c3c46;opacity:0.2;}.c,.d,.g{fill:#fff;}.c,.d{stroke:#e5e5e5;}.c,.d,.e,.f,.g{stroke-linecap:round;stroke-linejoin:round;stroke-width:2px;}.c{fill-rule:evenodd;}.e{fill:#89d9fb;}.e,.f,.g{stroke:#3c3c46;}</style></defs><title>CP-notebook-icon</title><rect class="a" width="140" height="140"/><rect class="b" x="32.31" y="31.61" width="56.11" height="88"/><path class="c" d="M113.69,94.74h-7V37.42a3.51,3.51,0,0,1,3.5-3.5h0a3.51,3.51,0,0,1,3.5,3.5Z"/><polygon class="c" points="106.69 94.74 110.19 102.34 113.69 94.74 106.69 94.74"/><rect class="d" x="106.69" y="40.63" width="7" height="4.21"/><rect class="e" x="26.31" y="24.62" width="56.11" height="80"/><line class="f" x1="74.41" y1="28.85" x2="74.41" y2="20.38"/><line class="f" x1="67.73" y1="28.85" x2="67.73" y2="20.38"/><line class="f" x1="61.05" y1="28.85" x2="61.05" y2="20.38"/><line class="f" x1="54.36" y1="28.85" x2="54.36" y2="20.38"/><line class="f" x1="47.68" y1="28.85" x2="47.68" y2="20.38"/><line class="f" x1="41" y1="28.85" x2="41" y2="20.38"/><line class="f" x1="34.31" y1="28.85" x2="34.31" y2="20.38"/><rect class="g" x="41.04" y="43.5" width="26.65" height="18.08"/><line class="f" x1="46.81" y1="50.04" x2="61.91" y2="50.04"/><line class="f" x1="46.81" y1="55.04" x2="61.91" y2="55.04"/><rect class="g" x="26.31" y="104.62" width="56.11" height="4"/><rect class="g" x="26.31" y="108.62" width="56.11" height="4"/></svg>