<svg xmlns="http://www.w3.org/2000/svg" width="140" height="140" viewBox="0 0 140 140"><defs><style>.a,.f{fill:none;}.b,.c{fill:#3c3c46;opacity:0.15;}.b,.e,.g{fill-rule:evenodd;}.d,.e{fill:#ffefe0;}.d,.e,.f,.g,.h,.i{stroke:#3c3c46;stroke-linecap:round;stroke-linejoin:round;stroke-width:2px;}.g,.h{fill:#fff;}.i{fill:#89d9fb;}</style></defs><title>CP-envelope-icon</title><rect class="a" width="140" height="140"/><polygon class="b" points="25.19 103.88 25.19 62.99 64.29 44.19 103.39 62.99 103.39 103.88 25.19 103.88"/><rect class="c" x="45.17" y="18" width="75.63" height="110"/><rect class="d" x="39.17" y="12" width="75.63" height="110"/><path class="e" d="M114.81,122H39.17l2.47-6.17c1.26-3.15,2.77-5.34,6.17-5.34h58.36c3.39,0,4.9,2.2,6.17,5.34Z"/><path class="e" d="M114.81,12H39.17l4.12,13.33c.77,2.49,2.13,4.74,4.74,4.74h57.91c2.61,0,4-2.25,4.74-4.74Z"/><line class="f" x1="50.81" y1="30.07" x2="50.81" y2="110.49"/><polygon class="b" points="39.17 53.3 62.29 42.19 101.39 60.99 101.39 101.88 39.17 101.88 39.17 53.3"/><polygon class="g" points="19.2 56.99 58.29 38.19 97.39 56.99 97.39 97.88 19.2 97.88 19.2 56.99"/><rect class="h" x="19.2" y="60.28" width="78.19" height="37.6"/><rect class="i" x="26.68" y="67.73" width="19.11" height="10.24"/><line class="f" x1="26.38" y1="82.99" x2="45.5" y2="82.99"/><line class="f" x1="73.5" y1="90.44" x2="89.94" y2="90.44"/><line class="f" x1="73.5" y1="85.49" x2="89.94" y2="85.49"/><line class="f" x1="73.5" y1="80.54" x2="89.94" y2="80.54"/></svg>