<svg xmlns="http://www.w3.org/2000/svg" width="140" height="140" viewBox="0 0 140 140"><defs><style>.a,.g,.h{fill:none;}.b{fill:#3c3c46;opacity:0.15;}.b,.d,.f,.h{fill-rule:evenodd;}.c,.f{fill:#89d9fb;}.c,.g,.h{stroke:#3c3c46;stroke-linecap:round;stroke-linejoin:round;stroke-width:2px;}.d{fill:#ffefe0;}.e{fill:#fff;}</style></defs><title>CP-flyer-icon</title><rect class="a" width="140" height="140"/><polygon class="b" points="49.7 31.34 68.72 31.34 77.42 16.28 117.77 39.58 96.3 76.77 96.3 114.86 81.44 129.72 49.7 129.72 49.7 113.88 28.23 101.48 49.7 64.29 49.7 31.34"/><rect class="c" x="17.81" y="41.23" width="98.38" height="46.6" transform="translate(-22.38 90.29) rotate(-60)"/><polygon class="d" points="90.3 108.86 75.44 123.72 43.7 123.72 43.7 75.97 90.3 75.97 90.3 108.86"/><rect class="e" x="43.7" y="75.97" width="23.3" height="47.75"/><polygon class="f" points="90.3 77.97 43.7 86.55 43.7 25.34 90.3 25.34 90.3 77.97"/><line class="g" x1="82.96" y1="95" x2="51.21" y2="95"/><line class="g" x1="82.87" y1="101" x2="65.57" y2="101"/><line class="g" x1="60.4" y1="101" x2="51.13" y2="101"/><line class="g" x1="66.82" y1="107" x2="51.13" y2="107"/><line class="g" x1="82.87" y1="64.87" x2="51.13" y2="64.87"/><line class="g" x1="82.87" y1="57.45" x2="51.13" y2="57.45"/><polygon class="h" points="43.7 25.34 90.3 25.34 90.3 108.86 75.44 123.72 43.7 123.72 43.7 25.34"/><polyline class="h" points="75.44 123.72 75.44 108.86 90.3 108.86"/><line class="g" x1="90.3" y1="77.97" x2="43.7" y2="86.54"/></svg>