<svg xmlns="http://www.w3.org/2000/svg" width="140" height="140" viewBox="0 0 140 140"><defs><style>.a,.f,.i{fill:none;}.b,.j{fill:#3c3c46;}.b{opacity:0.15;}.c{fill:#e5e5e5;}.c,.f,.g,.i,.k{stroke:#3c3c46;stroke-linejoin:round;stroke-width:2px;}.c,.f,.g,.i{stroke-linecap:round;}.c,.g,.h,.i,.j,.k{fill-rule:evenodd;}.d,.g,.h{fill:#fff;}.e{fill:#ffefe0;}.k{fill:#f2424c;}</style></defs><title>CP-invitation-icon</title><rect class="a" width="140" height="140"/><rect class="b" x="32.73" y="36.67" width="86.52" height="57.85"/><path class="c" d="M94.16,87.48V91h0a4,4,0,0,0,7.87,0h0V87.48Z"/><path class="c" d="M45.84,87.48V91h0a4,4,0,0,1-7.87,0h0V87.48Z"/><path class="c" d="M102.07,87.48v1.76h0a4,4,0,0,0,7.87,0h0l-.86-1.76Z"/><path class="c" d="M37.92,87.48v1.76h0a4,4,0,0,1-7.87,0h0l.86-1.76Z"/><rect class="d" x="26.73" y="30.67" width="86.54" height="57.85"/><rect class="e" x="70" y="30.67" width="43.27" height="57.85"/><rect class="f" x="26.73" y="30.67" width="86.54" height="57.85"/><rect class="b" x="94.16" y="78.85" width="11.98" height="8.63"/><rect class="b" x="33.86" y="78.85" width="11.98" height="8.63"/><path class="g" d="M121,64h-7.78l-.18,19.31-13.47-7.7,0,0a4,4,0,0,0-3.94,6.81l0,0L108.36,91l1,5a6.53,6.53,0,0,0,6.42,5.42l.58,2.08L131,104.9l-3.13-34.69A6.89,6.89,0,0,0,121,64Z"/><path class="g" d="M19,64h7.78l.18,19.31,13.47-7.7,0,0a4,4,0,0,1,3.94,6.81l0,0L31.64,91l-1,5a6.53,6.53,0,0,1-6.42,5.42l-.58,2.08L9,104.9l3.13-34.69A6.89,6.89,0,0,1,19,64Z"/><path class="h" d="M108.43,109.33v-6.8a1.1,1.1,0,0,1,1.09-1.09H132a1.1,1.1,0,0,1,1.09,1.09v6.8Z"/><path class="h" d="M31.57,109.33v-6.8a1.1,1.1,0,0,0-1.09-1.09H8a1.1,1.1,0,0,0-1.09,1.09v6.8Z"/><path class="i" d="M108.43,109.33v-6.8a1.1,1.1,0,0,1,1.09-1.09H132a1.1,1.1,0,0,1,1.09,1.09v6.8"/><path class="i" d="M31.57,109.33v-6.8a1.1,1.1,0,0,0-1.09-1.09H8a1.1,1.1,0,0,0-1.09,1.09v6.8"/><line class="f" x1="44.97" y1="58.87" x2="95.02" y2="58.87"/><line class="f" x1="44.97" y1="68.87" x2="95.02" y2="68.87"/><line class="f" x1="85.91" y1="63.87" x2="95.02" y2="63.87"/><line class="f" x1="44.97" y1="63.87" x2="61.26" y2="63.87"/><line class="f" x1="67.69" y1="63.87" x2="76.81" y2="63.87"/><path class="j" d="M73.91,81.53a.82.82,0,0,1-.78-1.08,2.26,2.26,0,0,0,.1-.56,3.43,3.43,0,0,1-2,1.59,2.2,2.2,0,0,1-2.18-.82c-1.36-1.5-.43-3.18.24-4.41.8-1.45.77-1.68.34-2a1.64,1.64,0,0,0-1.31.07c-2.62,1-6.2,4.94-6.5,6a.82.82,0,1,1-1.58-.46c.49-1.68,4.54-6,7.51-7.05a3,3,0,0,1,2.78.09,2.08,2.08,0,0,1,1,2.19A6.4,6.4,0,0,1,70.77,77c-.93,1.7-.85,2.08-.47,2.51s.54.34.61.32c.49-.11,1.28-1.11,1.75-2.61a.82.82,0,0,1,1.49-.18,5.67,5.67,0,0,1,.6,1.52,12.68,12.68,0,0,0,.64-1.5.82.82,0,0,1,1.26-.38,4.11,4.11,0,0,1,1.7,2.65,2.4,2.4,0,0,1-.77,1.91.82.82,0,0,1-1.16-1.16.77.77,0,0,0,.29-.63,1.36,1.36,0,0,0-.26-.64,4.89,4.89,0,0,1-2.19,2.59A.82.82,0,0,1,73.91,81.53Z"/><path class="j" d="M63.15,83.86h0a.82.82,0,0,1-.78-.86c0-.92,1.39-2.62,1.66-3,.8-1,2-2.2,3.1-2.35a.82.82,0,1,1,.22,1.63,4.78,4.78,0,0,0-2,1.65A8.48,8.48,0,0,0,64,83.11.82.82,0,0,1,63.15,83.86Z"/><path class="k" d="M81.54,41.48a3.86,3.86,0,0,0-7.15-2,3.86,3.86,0,1,0-5.82,4.92L74,49.85a.5.5,0,0,0,.7,0l5.47-5.47a3.88,3.88,0,0,0,1-1.28A3.83,3.83,0,0,0,81.54,41.48Z"/><path class="k" d="M72.75,45.45a3.86,3.86,0,0,0-7.15-2,3.86,3.86,0,1,0-5.82,4.92l5.47,5.47a.5.5,0,0,0,.7,0l5.47-5.47a3.88,3.88,0,0,0,1-1.28A3.83,3.83,0,0,0,72.75,45.45Z"/></svg>