<svg xmlns="http://www.w3.org/2000/svg" width="140" height="140" viewBox="0 0 140 140"><defs><style>.a,.f,.g{fill:none;}.b{fill:#3c3c46;opacity:0.15;}.b,.e,.f,.j{fill-rule:evenodd;}.c{fill:#fff;}.d,.j{fill:#ffefe0;}.e,.h{fill:#89d9fb;}.f,.g,.h,.i,.j{stroke:#3c3c46;stroke-linecap:round;stroke-linejoin:round;stroke-width:2px;}.i{fill:#3ca4ef;}</style></defs><title>CP-leaflet-icon</title><rect class="a" width="140" height="140"/><polygon class="b" points="33 15.84 113 15.84 113 111.16 94 130.16 33 130.16 33 15.84"/><rect class="c" x="27" y="9.84" width="80" height="80.2"/><rect class="d" x="67" y="9.84" width="40" height="80.2"/><polygon class="e" points="27 90.04 107 90.04 107 105.16 88 124.16 27 124.16 27 90.04"/><polygon class="f" points="27 9.84 107 9.84 107 105.16 88 124.16 27 124.16 27 9.84"/><line class="g" x1="36.04" y1="100.7" x2="59.2" y2="100.7"/><line class="g" x1="36.04" y1="107.1" x2="78.54" y2="107.1"/><line class="g" x1="70.81" y1="113.5" x2="78.54" y2="113.5"/><line class="g" x1="66.13" y1="100.7" x2="78.54" y2="100.7"/><line class="g" x1="36.04" y1="113.5" x2="49.87" y2="113.5"/><line class="g" x1="55.33" y1="113.5" x2="63.07" y2="113.5"/><line class="g" x1="27" y1="90.04" x2="107" y2="90.04"/><rect class="h" x="36.04" y="22.22" width="36.63" height="36.63"/><rect class="i" x="79.65" y="22.22" width="18.31" height="18.31"/><rect class="h" x="79.65" y="47.73" width="18.31" height="18.31"/><line class="g" x1="36.04" y1="72.45" x2="72.67" y2="72.45"/><line class="g" x1="36.04" y1="78.85" x2="72.67" y2="78.85"/><line class="g" x1="81.78" y1="78.85" x2="97.96" y2="78.85"/><polygon class="j" points="88 124.16 88 105.16 107 105.16 88 124.16"/></svg>