<svg xmlns="http://www.w3.org/2000/svg" width="140" height="140" viewBox="0 0 140 140"><defs><style>.a,.g,.h{fill:none;}.b,.d{fill:#3c3c46;}.b{opacity:0.15;}.c{fill:#ffefe0;}.c,.e,.f,.g,.h,.i,.j{stroke:#3c3c46;stroke-linecap:round;stroke-linejoin:round;stroke-width:2px;}.d{opacity:0.2;}.e{fill:#89d9fb;}.e,.f,.g,.i,.j{fill-rule:evenodd;}.f{fill:#fff;}.i{fill:#3ca4ef;}.j{fill:#f2424c;}</style></defs><title>CP-postcard-icon</title><rect class="a" width="140" height="140"/><rect class="b" x="34.69" y="43.16" width="76.62" height="76.62"/><rect class="c" x="28.69" y="37.16" width="76.62" height="76.62"/><rect class="d" x="28.69" y="37.16" width="68.74" height="76.62"/><polygon class="e" points="91.92 20.22 28.69 37.16 28.69 113.78 91.92 96.84 91.92 20.22"/><polygon class="f" points="74.68 85.72 45.93 93.42 60.27 40.99 74.68 85.72"/><path class="g" d="M72.43,78.73c-8.42,1.4-15.08-1.06-21-5.34,6-2.47,11.64-5.58,15.59-11.51a18.07,18.07,0,0,1-10.92-5.55"/><line class="h" x1="60.31" y1="89.57" x2="60.4" y2="95.3"/><path class="i" d="M70,68.83c1-.27,1.85.51,1.85,1.75A2.88,2.88,0,0,1,70,73.31c-1,.27-1.85-.51-1.85-1.75A2.88,2.88,0,0,1,70,68.83Z"/><path class="i" d="M53.95,62.7c1-.27,1.85.51,1.85,1.75a2.88,2.88,0,0,1-1.85,2.74c-1,.27-1.85-.51-1.85-1.75A2.88,2.88,0,0,1,53.95,62.7Z"/><path class="j" d="M55.8,79.77c1-.27,1.85.51,1.85,1.75a2.88,2.88,0,0,1-1.85,2.74c-1,.27-1.85-.51-1.85-1.75A2.88,2.88,0,0,1,55.8,79.77Z"/><path class="j" d="M63.74,49.49c1-.27,1.85.51,1.85,1.75A2.88,2.88,0,0,1,63.74,54c-1,.27-1.85-.51-1.85-1.75A2.88,2.88,0,0,1,63.74,49.49Z"/><line class="h" x1="77.99" y1="31.74" x2="77.99" y2="46.74"/><line class="h" x1="82.37" y1="32.76" x2="73.61" y2="45.72"/><line class="h" x1="84.18" y1="37.58" x2="71.8" y2="40.9"/><line class="h" x1="82.37" y1="43.37" x2="73.61" y2="35.11"/><line class="h" x1="41.79" y1="57.42" x2="41.79" y2="70.1"/><line class="h" x1="45.49" y1="58.29" x2="38.1" y2="69.23"/><line class="h" x1="47.02" y1="62.36" x2="36.57" y2="65.16"/><line class="h" x1="45.49" y1="67.25" x2="38.1" y2="60.27"/><line class="h" x1="82.62" y1="69.82" x2="82.62" y2="79.56"/><line class="h" x1="85.46" y1="70.49" x2="79.77" y2="78.89"/><line class="h" x1="86.63" y1="73.61" x2="78.6" y2="75.77"/><line class="h" x1="85.46" y1="77.37" x2="79.77" y2="72.01"/></svg>