<svg width="261" height="193" viewBox="0 0 261 193" fill="none" xmlns="http://www.w3.org/2000/svg">
<rect x="0.5" y="0.5" width="240" height="192" fill="white" stroke="#6C6C6C" stroke-linejoin="round"/>
<ellipse cx="64" cy="52" rx="48" ry="36" fill="#F1F2F0" stroke="#C4C4C4" stroke-linejoin="round"/>
<path d="M21.4541 53.113C21.4541 44.7029 26.0515 36.6372 34.2349 30.6904C42.4183 24.7435 53.5174 21.4026 65.0905 21.4026" stroke="white" stroke-width="4" stroke-linecap="round" stroke-linejoin="round"/>
<path d="M106.545 48.8235C106.545 57.8097 101.948 66.4278 93.7646 72.7819C85.5812 79.1361 74.4821 82.7058 62.909 82.7058" stroke="white" stroke-width="4" stroke-linecap="round" stroke-linejoin="round"/>
<ellipse cx="64" cy="140" rx="48" ry="36" fill="#F1F2F0" stroke="#C4C4C4" stroke-linejoin="round"/>
<path d="M21.4541 141.113C21.4541 132.703 26.0515 124.637 34.2349 118.69C42.4183 112.743 53.5174 109.403 65.0905 109.403" stroke="white" stroke-width="4" stroke-linecap="round" stroke-linejoin="round"/>
<path d="M106.545 136.824C106.545 145.81 101.948 154.428 93.7646 160.782C85.5812 167.136 74.4821 170.706 62.909 170.706" stroke="white" stroke-width="4" stroke-linecap="round" stroke-linejoin="round"/>
<ellipse cx="176" cy="52" rx="48" ry="36" fill="#F1F2F0" stroke="#C4C4C4" stroke-linejoin="round"/>
<path d="M133.454 53.113C133.454 44.7029 138.051 36.6372 146.235 30.6904C154.418 24.7435 165.517 21.4026 177.091 21.4026" stroke="white" stroke-width="4" stroke-linecap="round" stroke-linejoin="round"/>
<path d="M218.545 48.8235C218.545 57.8097 213.948 66.4278 205.765 72.7819C197.581 79.1361 186.482 82.7058 174.909 82.7058" stroke="white" stroke-width="4" stroke-linecap="round" stroke-linejoin="round"/>
<ellipse cx="176" cy="140" rx="48" ry="36" fill="#F1F2F0" stroke="#C4C4C4" stroke-linejoin="round"/>
<path d="M133.454 141.113C133.454 132.703 138.051 124.637 146.235 118.69C154.418 112.743 165.517 109.403 177.091 109.403" stroke="white" stroke-width="4" stroke-linecap="round" stroke-linejoin="round"/>
<path d="M218.545 136.824C218.545 145.81 213.948 154.428 205.765 160.782C197.581 167.136 186.482 170.706 174.909 170.706" stroke="white" stroke-width="4" stroke-linecap="round" stroke-linejoin="round"/>
<path d="M257.397 37.6082L259.147 35.8702L252.096 28.8665L248.584 29.6776L247.781 33.1666L254.818 40.1574L256.568 38.4193" fill="#8E8E8E"/>
<path d="M260.106 41.11C260.676 40.5436 261 39.7711 261 38.96C261 38.1489 260.676 37.3893 260.106 36.81L259.963 36.6813L255.634 40.9813L255.777 41.1229C256.969 42.2945 258.913 42.2945 260.106 41.11Z" fill="#8E8E8E"/>
<path d="M246.355 24L240.16 24.7596L246.964 31.5186L247.612 28.712L250.437 28.0683L246.355 24Z" fill="#8E8E8E"/>
</svg>
