<svg width="158" height="154" viewBox="0 0 158 154" fill="none" xmlns="http://www.w3.org/2000/svg">
<path d="M9.05797 64.2998C-1.26673 69.619 -1.26671 84.381 9.05797 89.7002L21.299 96.0068C23.9045 97.3492 25.1589 100.377 24.2657 103.169L20.0694 116.284C16.53 127.346 26.9683 137.784 38.0303 134.245C39.8489 133.663 46.6216 131.615 51.341 130.193C54.1086 129.359 57.0735 130.62 58.3973 133.189L64.6142 145.256C69.9335 155.581 84.6954 155.581 90.0147 145.256L96.3213 133.015C97.6636 130.41 100.692 129.156 103.483 130.049L116.599 134.245C127.661 137.784 138.099 127.346 134.56 116.284L130.363 103.169C129.47 100.377 130.724 97.3492 133.33 96.0068L145.571 89.7002C155.896 84.381 155.896 69.619 145.571 64.2998L133.536 58.0994C130.964 56.7742 129.704 53.8019 130.54 51.0318L134.56 37.7158C138.099 26.6539 127.661 16.2156 116.599 19.755L103.688 23.8857C100.941 24.7648 97.9574 23.5658 96.5874 21.0272C94.2935 16.7767 91.0163 10.6876 90.0147 8.74351C84.6954 -1.58118 69.9335 -1.58116 64.6142 8.74351L58.3076 20.9846C56.9653 23.5901 53.937 24.8444 51.1454 23.9513L38.0303 19.755C26.9683 16.2156 16.53 26.6539 20.0694 37.7158C20.8182 40.056 22.6687 46.6999 23.9346 51.2924C24.6872 54.0226 23.4187 56.9011 20.9011 58.1982L9.05797 64.2998Z" fill="white" stroke="#6C6C6C" stroke-linejoin="round"/>
<path d="M71.7259 12.4074C74.0666 7.86419 80.5624 7.86419 82.903 12.4074L92.1994 30.4517C93.6059 33.1817 96.7789 34.496 99.7038 33.5601L119.037 27.3744C123.904 25.817 128.497 30.4102 126.94 35.2779L120.754 54.6107C119.818 57.5356 121.133 60.7085 123.863 62.115L141.907 71.4114C146.45 73.7521 146.45 80.2479 141.907 82.5886L123.863 91.885C121.133 93.2915 119.818 96.4644 120.754 99.3893L126.94 118.722C128.497 123.59 123.904 128.183 119.037 126.626L99.7038 120.44C96.7789 119.504 93.6059 120.818 92.1994 123.548L82.903 141.593C80.5624 146.136 74.0666 146.136 71.7259 141.593L62.4295 123.548C61.023 120.818 57.85 119.504 54.9251 120.44L35.5923 126.626C30.7247 128.183 26.1314 123.59 27.6889 118.722L33.8746 99.3893C34.8104 96.4644 33.4961 93.2915 30.7662 91.885L12.7219 82.5886C8.17864 80.2479 8.17864 73.7521 12.7219 71.4114L30.7662 62.115C33.4961 60.7085 34.8104 57.5356 33.8746 54.6107L27.6889 35.2779C26.1314 30.4102 30.7247 25.817 35.5923 27.3744L54.9251 33.5601C57.85 34.496 61.023 33.1817 62.4295 30.4517L71.7259 12.4074Z" fill="#F1F2F0" stroke="#C4C4C4" stroke-linejoin="round"/>
<path d="M22.6089 75.4267L40.9286 64.4489C42.0623 63.7696 42.6178 62.4283 42.2966 61.1463L37.105 40.4299C36.5542 38.2316 38.546 36.2397 40.7443 36.7906L61.4608 41.9821C62.7428 42.3034 64.084 41.7478 64.7634 40.6141L75.7411 22.2944M78.8878 131.706L89.8656 113.386C90.545 112.252 91.8862 111.697 93.1682 112.018L113.885 117.209C116.083 117.76 118.075 115.768 117.524 113.57L112.332 92.8538C112.011 91.5718 112.567 90.2305 113.7 89.5512L132.02 78.5734" stroke="white" stroke-width="5" stroke-linecap="round" stroke-linejoin="round"/>
<path d="M152.923 43.603L151.185 41.8533L144.181 48.9037L144.992 52.4159L148.481 53.2194L155.472 46.182L153.734 44.4324" fill="#8E8E8E"/>
<path d="M156.425 40.8943C155.858 40.324 155.086 40 154.274 40C153.463 40 152.704 40.324 152.124 40.8943L151.996 41.0368L156.296 45.3655L156.437 45.223C157.609 44.0306 157.609 42.0866 156.425 40.8943Z" fill="#8E8E8E"/>
<path d="M139.314 54.645L140.074 60.84L146.833 54.0359L144.026 53.3879L143.383 50.5626L139.314 54.645Z" fill="#8E8E8E"/>
</svg>
