<svg width="230" height="201" viewBox="0 0 230 201" fill="none" xmlns="http://www.w3.org/2000/svg">
<rect x="0.5" y="0.5" width="208" height="200" fill="white" stroke="#6C6C6C" stroke-linejoin="round"/>
<rect x="108.562" y="8.5" width="88.0966" height="88" rx="44" fill="#F1F2F0"/>
<rect x="108.562" y="104.5" width="88.0966" height="88" rx="44" fill="#F1F2F0"/>
<rect x="12.4561" y="104.5" width="88.0966" height="88" rx="44" fill="#F1F2F0"/>
<rect x="12.4561" y="8.5" width="88.0966" height="88" rx="44" fill="#F1F2F0"/>
<path fill-rule="evenodd" clip-rule="evenodd" d="M56.504 16.5C66.4587 16.5 75.4707 20.5303 81.9896 27.0421C88.5086 33.5628 92.5433 42.5562 92.5433 52.4999C92.5433 57.2782 91.5919 61.8717 89.9005 66.0428L58.583 58.8973L58.4949 58.8797L42.9199 19.1575L43.0697 19.0871C47.2277 17.4152 51.7558 16.5 56.504 16.5V16.5Z" fill="white" stroke="#6C6C6C" stroke-linejoin="round"/>
<path fill-rule="evenodd" clip-rule="evenodd" d="M69.6742 45.9176L88.8434 61.4756C90.3146 62.9364 90.5613 64.3268 89.9006 66.0427C89.513 67.0547 89.0461 68.0227 88.5615 68.973C82.4831 80.7735 70.2116 88.4998 56.5041 88.4998C36.6037 88.4998 20.4648 72.3874 20.4648 52.4999C20.4648 38.6402 28.3933 26.2501 40.4534 20.2663C41.255 19.8615 42.0743 19.4743 42.92 19.1575C44.6643 18.4887 46.1619 18.8319 47.2366 19.9319L69.6742 45.9176Z" fill="#F1F2F0"/>
<path d="M89.9005 66.0427C90.5612 64.3268 90.3145 62.9364 88.8433 61.4756L69.6741 45.9176L47.2365 19.9319C46.1618 18.8319 44.6642 18.4887 42.9199 19.1575" stroke="#6C6C6C" stroke-linejoin="round"/>
<path d="M89.9006 66.043C89.513 67.0549 89.0461 68.0229 88.5615 68.9733C82.4831 80.7738 70.2116 88.5 56.5041 88.5C36.6037 88.5 20.4648 72.3876 20.4648 52.5001C20.4648 38.6404 28.3933 26.2503 40.4534 20.2665C41.255 19.8617 42.0743 19.4745 42.92 19.1577" stroke="#C4C4C4" stroke-linejoin="round"/>
<path fill-rule="evenodd" clip-rule="evenodd" d="M55.4653 52.1919C43.5021 39.5466 50.0916 22.783 47.2373 19.9319L89.0467 61.6604C84.0342 56.6974 67.4373 64.8284 55.4653 52.1919Z" fill="white" stroke="#6C6C6C" stroke-linejoin="round"/>
<ellipse cx="152.61" cy="52.5" rx="36.0395" ry="36" stroke="#C4C4C4" stroke-linejoin="round"/>
<ellipse cx="152.61" cy="148.5" rx="36.0395" ry="36" stroke="#C4C4C4" stroke-linejoin="round"/>
<ellipse cx="56.5044" cy="148.5" rx="36.0395" ry="36" stroke="#C4C4C4" stroke-linejoin="round"/>
<path d="M226.397 29.6082L228.147 27.8702L221.096 20.8665L217.584 21.6776L216.781 25.1666L223.818 32.1574L225.568 30.4193" fill="#8E8E8E"/>
<path d="M229.106 33.11C229.676 32.5436 230 31.7711 230 30.96C230 30.1489 229.676 29.3893 229.106 28.81L228.963 28.6813L224.634 32.9813L224.777 33.1229C225.969 34.2945 227.913 34.2945 229.106 33.11Z" fill="#8E8E8E"/>
<path d="M215.355 16L209.16 16.7596L215.964 23.5186L216.612 20.712L219.437 20.0683L215.355 16Z" fill="#8E8E8E"/>
</svg>
