<svg width="154" height="154" viewBox="0 0 154 154" fill="none" xmlns="http://www.w3.org/2000/svg">
<circle cx="77" cy="77" r="76" fill="white" stroke="#6C6C6C" stroke-linejoin="round"/>
<circle cx="77" cy="77" r="68" fill="#F1F2F0" stroke="#C4C4C4" stroke-linejoin="round"/>
<path d="M19.6064 77C19.6064 61.7784 25.6532 47.1803 36.4165 36.417C47.1798 25.6537 61.7779 19.6069 76.9995 19.6069" stroke="white" stroke-width="5" stroke-linecap="round" stroke-linejoin="round"/>
<path d="M134.393 77C134.393 84.537 132.909 92.0001 130.024 98.9634C127.14 105.927 122.912 112.254 117.583 117.583C112.254 122.912 105.927 127.14 98.9634 130.024C92.0001 132.909 84.537 134.393 77 134.393" stroke="white" stroke-width="5" stroke-linecap="round" stroke-linejoin="round"/>
<path d="M145.108 7.60295L143.37 5.85332L136.367 12.9037L137.178 16.4159L140.667 17.2194L147.657 10.182L145.919 8.4324" fill="#8E8E8E"/>
<path d="M148.61 4.89425C148.044 4.32401 147.271 4 146.46 4C145.649 4 144.889 4.32401 144.31 4.89425L144.181 5.03682L148.481 9.36553L148.623 9.22296C149.794 8.03062 149.794 6.08659 148.61 4.89425Z" fill="#8E8E8E"/>
<path d="M131.5 18.645L132.26 24.84L139.019 18.0359L136.212 17.3879L135.568 14.5626L131.5 18.645Z" fill="#8E8E8E"/>
</svg>
