<svg width="230" height="153" viewBox="0 0 230 153" fill="none" xmlns="http://www.w3.org/2000/svg">
<path d="M226.397 34.6082L228.147 32.8702L221.096 25.8665L217.584 26.6776L216.781 30.1666L223.818 37.1574L225.568 35.4193" fill="#8E8E8E"/>
<path d="M229.106 38.11C229.676 37.5436 230 36.7711 230 35.96C230 35.1489 229.676 34.3893 229.106 33.81L228.963 33.6813L224.634 37.9813L224.777 38.1229C225.969 39.2945 227.913 39.2945 229.106 38.11Z" fill="#8E8E8E"/>
<path d="M215.355 21L209.16 21.7596L215.964 28.5186L216.612 25.712L219.437 25.0683L215.355 21Z" fill="#8E8E8E"/>
<rect x="0.5" y="0.5" width="208" height="152" fill="#F1F2F0" stroke="#6C6C6C"/>
<path fill-rule="evenodd" clip-rule="evenodd" d="M96.5985 21.6615C92.2065 16.4607 95.9034 8.5 102.711 8.5H192.512C196.93 8.5 200.512 12.0817 200.512 16.5V104.951C200.512 111.739 192.591 115.443 187.382 111.09L136.044 68.1858C135.689 67.8891 135.36 67.5622 135.062 67.2088L96.5985 21.6615Z" fill="white" stroke="#6C6C6C"/>
<path fill-rule="evenodd" clip-rule="evenodd" d="M200.51 107.818V137.629C200.51 142.277 198.64 144.5 193.121 144.5H15.6571C10.6569 144.5 8.50017 141.507 8.5 136.892V15.8984C8.5 12.2446 10.4648 8.5 16.7788 8.5H101.192C106.912 8.5 112.632 10.684 117 15.0519C121.368 19.4198 125.439 25.1397 125.439 30.8745L178.136 83.557C183.856 83.557 189.591 87.6427 193.959 92.0106C198.327 96.3785 200.51 102.098 200.51 107.818Z" fill="#F1F2F0"/>
<path d="M200.5 107.818V137.629C200.5 142.277 198.63 144.5 193.111 144.5H15.6567C10.6568 144.5 8.50017 141.507 8.5 136.892V15.8984C8.5 12.2446 10.4647 8.5 16.7784 8.5H101.187" stroke="#C4C4C4" stroke-linejoin="round"/>
<path d="M200.511 107.818C200.511 102.098 198.327 96.3785 193.959 92.0106C189.591 87.6427 183.856 83.557 178.136 83.557L125.439 30.8745C125.439 25.1397 121.368 19.4198 117 15.0519C112.632 10.684 106.912 8.5 101.192 8.5" stroke="#6C6C6C"/>
<path fill-rule="evenodd" clip-rule="evenodd" d="M178.137 85.4586H131.552C127.134 85.4586 123.552 81.8768 123.552 77.4586V30.8743C123.552 25.1396 121.368 19.4197 117 15.0518L193.959 92.0105C189.591 87.6425 183.857 85.4586 178.137 85.4586Z" fill="white" stroke="#6C6C6C" stroke-linejoin="round"/>
</svg>
