<svg width="173" height="153" viewBox="0 0 173 153" fill="none" xmlns="http://www.w3.org/2000/svg">
<rect x="0.5" y="0.5" width="152" height="152" fill="#F1F2F0" stroke="#6C6C6C" stroke-linejoin="round"/>
<path fill-rule="evenodd" clip-rule="evenodd" d="M83.8624 9.17188C102.465 9.17188 119.307 16.7486 131.5 28.9901L109.302 51.2863L72.7979 10.0879L72.8769 10.072C76.4562 9.48426 80.1198 9.17188 83.8624 9.17188Z" fill="white" stroke="#6C6C6C" stroke-linejoin="round"/>
<path fill-rule="evenodd" clip-rule="evenodd" d="M109.302 51.2858L102.223 58.3966C97.5261 53.679 91.0318 50.7563 83.8627 50.7563C69.5246 50.7563 57.9013 62.4365 57.9013 76.8382C57.9013 91.2399 69.5246 102.915 83.8627 102.915C91.0318 102.915 97.5261 99.9974 102.223 95.2745L131.5 124.682C119.307 136.928 102.465 144.5 83.8627 144.5C46.6627 144.5 16.5 114.203 16.5 76.8382C16.5 43.2537 40.859 15.3927 72.7981 10.0874L109.118 46.5682C110.446 47.8866 110.436 49.5703 109.302 51.2858Z" fill="#F1F2F0"/>
<path d="M109.303 51.286C110.436 49.5705 110.447 47.8868 109.118 46.5684" stroke="#6C6C6C" stroke-linejoin="round"/>
<path d="M109.302 51.2858L102.223 58.3966C97.5261 53.679 91.0318 50.7563 83.8627 50.7563C69.5246 50.7563 57.9013 62.4365 57.9013 76.8382C57.9013 91.2399 69.5246 102.915 83.8627 102.915C91.0318 102.915 97.5261 99.9974 102.223 95.2745L131.5 124.682C119.307 136.928 102.465 144.5 83.8627 144.5C46.6627 144.5 16.5 114.203 16.5 76.8382C16.5 43.2537 40.859 15.3927 72.7981 10.0874" stroke="#C4C4C4" stroke-linejoin="round"/>
<path fill-rule="evenodd" clip-rule="evenodd" d="M81.7219 63.9775L96.5871 49.4117C102.496 43.6139 107.351 44.7947 109.117 46.5684L72.7975 10.0876C69.9193 7.19671 65.6126 8.03328 65.4861 14.4293C65.2436 26.4907 73.6409 55.866 81.7219 63.9775Z" fill="white" stroke="#6C6C6C" stroke-linejoin="round"/>
<path d="M169.397 38.6956L171.147 36.9576L164.096 29.9539L160.584 30.765L159.781 34.254L166.818 41.2448L168.568 39.5067" fill="#8E8E8E"/>
<path d="M172.106 42.1975C172.676 41.631 173 40.8585 173 40.0474C173 39.2363 172.676 38.4768 172.106 37.8974L171.963 37.7687L167.634 42.0687L167.777 42.2103C168.969 43.3819 170.913 43.3819 172.106 42.1975Z" fill="#8E8E8E"/>
<path d="M158.355 25.0874L152.16 25.847L158.964 32.606L159.612 29.7994L162.437 29.1557L158.355 25.0874Z" fill="#8E8E8E"/>
</svg>
