<svg width="271" height="201" viewBox="0 0 271 201" fill="none" xmlns="http://www.w3.org/2000/svg">
<rect x="0.5" y="0.5" width="248" height="200" fill="white" stroke="#6C6C6C" stroke-linejoin="round"/>
<path fill-rule="evenodd" clip-rule="evenodd" d="M65.2906 8.50284C34.9147 8.24636 9.99999 25.4014 9.99999 51.7438C9.99999 78.0863 35.2506 96.5 64.7081 96.5C94.1655 96.5 120 79.6015 120 52.6709C120 29.3354 97.5654 8.50284 65.2906 8.50284Z" fill="#F1F2F0"/>
<path fill-rule="evenodd" clip-rule="evenodd" d="M183.291 8.50284C152.915 8.24636 128 25.4014 128 51.7438C128 78.0863 153.251 96.5 182.708 96.5C212.166 96.5 238 79.6015 238 52.6709C238 29.3354 215.565 8.50284 183.291 8.50284Z" fill="#F1F2F0"/>
<path fill-rule="evenodd" clip-rule="evenodd" d="M183.291 104.503C152.915 104.246 128 121.401 128 147.744C128 174.086 153.251 192.5 182.708 192.5C212.166 192.5 238 175.602 238 148.671C238 125.335 215.565 104.503 183.291 104.503Z" fill="#F1F2F0"/>
<path fill-rule="evenodd" clip-rule="evenodd" d="M65.2906 104.503C34.9147 104.246 9.99999 121.401 9.99999 147.744C9.99999 174.086 35.2506 192.5 64.7081 192.5C94.1655 192.5 120 175.602 120 148.671C120 125.335 97.5654 104.503 65.2906 104.503Z" fill="#F1F2F0"/>
<path fill-rule="evenodd" clip-rule="evenodd" d="M183.237 17.3963C158.431 17.1917 138.085 30.8791 138.085 51.8968C138.085 72.9145 158.705 87.6062 182.761 87.6062C206.817 87.6062 227.914 74.1235 227.914 52.6365C227.914 34.0179 209.593 17.3963 183.237 17.3963Z" stroke="#C4C4C4" stroke-linejoin="round"/>
<path fill-rule="evenodd" clip-rule="evenodd" d="M183.237 113.396C158.431 113.192 138.085 126.879 138.085 147.897C138.085 168.914 158.705 183.606 182.761 183.606C206.817 183.606 227.914 170.123 227.914 148.636C227.914 130.018 209.593 113.396 183.237 113.396Z" stroke="#C4C4C4" stroke-linejoin="round"/>
<path fill-rule="evenodd" clip-rule="evenodd" d="M65.2368 113.396C40.431 113.192 20.0849 126.879 20.0849 147.897C20.0849 168.914 40.7053 183.606 64.7611 183.606C88.8169 183.606 109.914 170.123 109.914 148.636C109.914 130.018 91.5933 113.396 65.2368 113.396Z" stroke="#C4C4C4" stroke-linejoin="round"/>
<path fill-rule="evenodd" clip-rule="evenodd" d="M73.8428 18.2878C94.4089 21.538 109.911 37.9969 109.915 53.0618C109.918 68.1267 101.136 77.3191 88.02 83.505L73.8428 18.2878Z" fill="white" stroke="#6C6C6C" stroke-linejoin="round"/>
<path fill-rule="evenodd" clip-rule="evenodd" d="M64.993 17.5947C68.0598 17.5945 71.0567 17.8413 73.9499 18.3062C75.6786 18.5827 79.0206 19.3642 79.3288 20.7255L82.7225 47.7059L92.4945 75.2391C92.9644 77.1508 92.7033 81.3245 87.8997 83.5612C81.1914 86.684 73.37 88.502 65.0082 88.5C40.2025 88.4931 20.0893 72.6146 20.0855 53.0356C20.0791 33.4551 40.1873 17.5879 64.993 17.5947Z" fill="#F1F2F0"/>
<path d="M73.9499 18.3062C71.0567 17.8413 68.0598 17.5945 64.993 17.5947C40.1873 17.5879 20.0791 33.4551 20.0855 53.0356C20.0893 72.6146 40.2025 88.4931 65.0083 88.5C73.37 88.502 81.1915 86.684 87.8997 83.5612" stroke="#C4C4C4" stroke-linejoin="round"/>
<path d="M92.4947 75.2393C92.9646 77.151 92.7035 81.3247 87.8999 83.5614" stroke="#6C6C6C" stroke-linejoin="round"/>
<path fill-rule="evenodd" clip-rule="evenodd" d="M66.2023 51.3015C56.24 37.8332 61.1977 18.1111 73.1456 16.533C74.9778 16.2922 78.5221 17.3836 78.9988 19.3573L92.495 75.2393C90.9977 69.1165 78.4894 67.9143 66.2023 51.3015Z" fill="white" stroke="#6C6C6C" stroke-linejoin="round"/>
<path d="M267.397 38.1082L269.147 36.3702L262.096 29.3665L258.584 30.1776L257.781 33.6666L264.818 40.6574L266.568 38.9193" fill="#8E8E8E"/>
<path d="M270.106 41.61C270.676 41.0436 271 40.2711 271 39.46C271 38.6489 270.676 37.8893 270.106 37.31L269.963 37.1813L265.634 41.4813L265.777 41.6229C266.969 42.7945 268.913 42.7945 270.106 41.61Z" fill="#8E8E8E"/>
<path d="M256.355 24.5L250.16 25.2596L256.964 32.0186L257.612 29.212L260.437 28.5683L256.355 24.5Z" fill="#8E8E8E"/>
</svg>
