<svg width="190" height="153" viewBox="0 0 190 153" fill="none" xmlns="http://www.w3.org/2000/svg">
<path fill-rule="evenodd" clip-rule="evenodd" d="M95.4956 1.00487C43.5811 0.564783 1.00023 30.0006 1.00023 75.2007C1.00023 120.401 44.1553 151.996 94.5 151.996C144.845 151.996 188.998 123.001 188.998 76.7914C188.998 36.7507 150.655 1.00487 95.4956 1.00487Z" fill="#F1F2F0" stroke="#6C6C6C" stroke-linejoin="round"/>
<path fill-rule="evenodd" clip-rule="evenodd" d="M111.318 9.46509C150.79 15.703 180.543 47.2921 180.55 76.2057C180.557 105.119 163.702 122.762 138.528 134.634L111.318 9.46509Z" fill="white" stroke="#6C6C6C" stroke-linejoin="round"/>
<path fill-rule="evenodd" clip-rule="evenodd" d="M94.3334 8.13477C100.219 8.1344 105.971 8.608 111.524 9.50026C114.842 10.0309 121.256 11.5309 121.848 14.1436L128.361 65.9263L147.116 118.77C148.018 122.439 147.517 130.449 138.297 134.742C125.422 140.736 110.411 144.225 94.3625 144.221C46.7535 144.208 8.15098 113.733 8.14356 76.1554C8.13146 38.5751 46.7244 8.12164 94.3334 8.13477Z" fill="#F1F2F0"/>
<path d="M111.524 9.50002C105.971 8.60776 100.219 8.13416 94.3334 8.13453C46.7244 8.12139 8.13146 38.5748 8.14356 76.1552C8.15098 113.733 46.7535 144.208 94.3625 144.221C110.411 144.225 125.422 140.735 138.297 134.742" stroke="#C4C4C4" stroke-linejoin="round"/>
<path d="M147.117 118.77C148.018 122.439 147.517 130.45 138.298 134.743" stroke="#6C6C6C" stroke-linejoin="round"/>
<path fill-rule="evenodd" clip-rule="evenodd" d="M96.6538 72.8272C77.5334 46.9779 87.0487 9.1258 109.98 6.097C113.496 5.6348 120.299 7.72959 121.214 11.5177L147.117 118.77C144.243 107.019 120.236 104.712 96.6538 72.8272Z" fill="white" stroke="#6C6C6C" stroke-linejoin="round"/>
<path d="M185.395 139.608L187.144 137.87L180.094 130.867L176.582 131.678L175.778 135.167L182.816 142.157L184.565 140.419" fill="#8E8E8E"/>
<path d="M188.103 143.11C188.674 142.544 188.998 141.771 188.998 140.96C188.998 140.149 188.674 139.389 188.103 138.81L187.961 138.681L183.632 142.981L183.775 143.123C184.967 144.294 186.911 144.294 188.103 143.11Z" fill="#8E8E8E"/>
<path d="M174.353 126L168.158 126.76L174.962 133.519L175.61 130.712L178.435 130.068L174.353 126Z" fill="#8E8E8E"/>
</svg>
