<svg width="214" height="137" viewBox="0 0 214 137" fill="none" xmlns="http://www.w3.org/2000/svg">
<path d="M210.397 38.6082L212.147 36.8702L205.096 29.8665L201.584 30.6776L200.781 34.1666L207.818 41.1574L209.568 39.4193" fill="#8E8E8E"/>
<path d="M213.106 42.11C213.676 41.5436 214 40.7711 214 39.96C214 39.1489 213.676 38.3893 213.106 37.81L212.963 37.6813L208.634 41.9813L208.777 42.1229C209.969 43.2945 211.913 43.2945 213.106 42.11Z" fill="#8E8E8E"/>
<path d="M199.355 25L193.16 25.7596L199.964 32.5186L200.612 29.712L203.437 29.0683L199.355 25Z" fill="#8E8E8E"/>
<path fill-rule="evenodd" clip-rule="evenodd" d="M88.5927 13.6614C84.201 8.46048 87.8979 0.5 94.705 0.5H184.5C188.918 0.5 192.5 4.08172 192.5 8.5V96.9508C192.5 103.739 184.578 107.442 179.37 103.089L128.036 60.1858C127.681 59.8891 127.352 59.5622 127.054 59.2088L88.5927 13.6614Z" fill="white" stroke="#6C6C6C"/>
<path fill-rule="evenodd" clip-rule="evenodd" d="M192.498 99.8183V129.629C192.498 134.277 190.629 136.5 185.11 136.5H7.65669C2.65679 136.5 0.500168 133.507 0.5 128.892V7.89842C0.5 4.24458 2.46472 0.5 8.7783 0.5H93.1863C98.9059 0.5 104.625 2.68396 108.993 7.05189C113.361 11.4198 117.431 17.1397 117.431 22.8745L170.125 75.557C175.845 75.557 181.579 79.6427 185.947 84.0106C190.315 88.3785 192.498 94.0984 192.498 99.8183Z" fill="#F1F2F0" stroke="#6C6C6C"/>
<path fill-rule="evenodd" clip-rule="evenodd" d="M170.126 77.4586H123.545C119.127 77.4586 115.545 73.8768 115.545 69.4586V22.8743C115.545 17.1396 113.361 11.4197 108.994 7.05176L185.948 84.0105C181.58 79.6425 175.845 77.4586 170.126 77.4586Z" fill="white" stroke="#6C6C6C"/>
</svg>
