<svg width="174" height="153" viewBox="0 0 174 153" fill="none" xmlns="http://www.w3.org/2000/svg">
<path d="M169.897 37.6082L171.647 35.8702L164.596 28.8665L161.084 29.6776L160.281 33.1666L167.318 40.1574L169.068 38.4193" fill="#8E8E8E"/>
<path d="M172.606 41.11C173.176 40.5436 173.5 39.7711 173.5 38.96C173.5 38.1489 173.176 37.3893 172.606 36.81L172.463 36.6813L168.134 40.9813L168.277 41.1229C169.469 42.2945 171.413 42.2945 172.606 41.11Z" fill="#8E8E8E"/>
<path d="M158.855 24L152.66 24.7596L159.464 31.5186L160.112 28.712L162.937 28.0683L158.855 24Z" fill="#8E8E8E"/>
<rect x="0.5" y="0.5" width="152" height="152" fill="white" stroke="#6C6C6C" stroke-linejoin="round"/>
<circle cx="75.5" cy="76" r="68" fill="#F1F2F0" stroke="#C4C4C4" stroke-linejoin="round"/>
<path d="M18.1064 76C18.1064 60.7784 24.1532 46.1803 34.9165 35.417C45.6798 24.6537 60.2779 18.6069 75.4995 18.6069" stroke="white" stroke-width="5" stroke-linecap="round" stroke-linejoin="round"/>
<path d="M132.893 76C132.893 83.537 131.409 91.0001 128.524 97.9634C125.64 104.927 121.412 111.254 116.083 116.583C110.754 121.912 104.427 126.14 97.4634 129.024C90.5001 131.909 83.037 133.393 75.5 133.393" stroke="white" stroke-width="5" stroke-linecap="round" stroke-linejoin="round"/>
</svg>
