<svg width="194" height="154" viewBox="0 0 194 154" fill="none" xmlns="http://www.w3.org/2000/svg">
<path d="M180.608 7.60295L178.87 5.85332L171.867 12.9037L172.678 16.4159L176.167 17.2194L183.157 10.182L181.419 8.4324" fill="#8E8E8E"/>
<path d="M184.11 4.89425C183.544 4.32401 182.771 4 181.96 4C181.149 4 180.389 4.32401 179.81 4.89425L179.681 5.03682L183.981 9.36553L184.123 9.22296C185.294 8.03062 185.294 6.08659 184.11 4.89425Z" fill="#8E8E8E"/>
<path d="M167 18.645L167.76 24.84L174.519 18.0359L171.712 17.3879L171.068 14.5626L167 18.645Z" fill="#8E8E8E"/>
<ellipse cx="97" cy="77" rx="96" ry="76" fill="white" stroke="#6C6C6C" stroke-linejoin="round"/>
<ellipse cx="96.9999" cy="77" rx="87.9999" ry="68" fill="#F1F2F0" stroke="#C4C4C4" stroke-linejoin="round"/>
<path d="M19 79.1025C19 63.2167 27.4285 47.9816 42.4315 36.7486C57.4344 25.5157 77.7827 19.2051 99 19.2051" stroke="white" stroke-width="5" stroke-linecap="round" stroke-linejoin="round"/>
<path d="M175 71.0001C175 87.9739 166.571 104.253 151.569 116.255C136.566 128.257 116.217 135 95.0001 135" stroke="white" stroke-width="5" stroke-linecap="round" stroke-linejoin="round"/>
</svg>
