<svg width="214" height="137" viewBox="0 0 214 137" fill="none" xmlns="http://www.w3.org/2000/svg">
<path d="M210.397 38.6082L212.147 36.8702L205.096 29.8665L201.584 30.6776L200.781 34.1666L207.818 41.1574L209.568 39.4193" fill="#8E8E8E"/>
<path d="M213.106 42.11C213.676 41.5436 214 40.7711 214 39.96C214 39.1489 213.676 38.3893 213.106 37.81L212.963 37.6813L208.634 41.9813L208.777 42.1229C209.969 43.2945 211.913 43.2945 213.106 42.11Z" fill="#8E8E8E"/>
<path d="M199.355 25L193.16 25.7596L199.964 32.5186L200.612 29.712L203.437 29.0683L199.355 25Z" fill="#8E8E8E"/>
<path fill-rule="evenodd" clip-rule="evenodd" d="M77.479 0.5H192.5V114.063L127.502 59.7399L77.479 0.5Z" fill="white" stroke="#6C6C6C"/>
<path d="M0.5 0.5V136.5H7.62285C7.63412 136.5 7.64539 136.5 7.65669 136.5L192.5 136.5L192.498 99.8183C192.498 94.0984 190.315 88.3785 185.947 84.0106C181.579 79.6427 175.845 75.557 170.125 75.557L117.431 22.8745C117.431 17.1397 113.361 11.4198 108.993 7.05189C104.625 2.68396 98.9059 0.5 93.1863 0.5H0.5Z" fill="#F1F2F0" stroke="#6C6C6C"/>
<path fill-rule="evenodd" clip-rule="evenodd" d="M170.126 77.4586H115.545V22.8743C115.545 17.1396 113.361 11.4197 108.994 7.05176L185.948 84.0105C181.58 79.6425 175.845 77.4586 170.126 77.4586Z" fill="white" stroke="#6C6C6C"/>
</svg>
