<svg width="9" height="87" viewBox="0 0 9 87" fill="none" xmlns="http://www.w3.org/2000/svg">
    <line x1="8.5" y1="2.5" x2="0.5" y2="2.5" stroke="#A1A1A1" stroke-linecap="round"/>
    <line x1="8.5" y1="0.5" x2="0.5" y2="0.500001" stroke="#A1A1A1" stroke-linecap="round"/>
    <line x1="8.5" y1="9.5" x2="0.5" y2="9.5" stroke="#A1A1A1" stroke-linecap="round"/>
    <line x1="8.5" y1="7.5" x2="0.5" y2="7.5" stroke="#A1A1A1" stroke-linecap="round"/>
    <line x1="8.5" y1="16.5" x2="0.5" y2="16.5" stroke="#A1A1A1" stroke-linecap="round"/>
    <line x1="8.5" y1="14.5" x2="0.5" y2="14.5" stroke="#A1A1A1" stroke-linecap="round"/>
    <line x1="8.5" y1="23.5" x2="0.5" y2="23.5" stroke="#A1A1A1" stroke-linecap="round"/>
    <line x1="8.5" y1="21.5" x2="0.5" y2="21.5" stroke="#A1A1A1" stroke-linecap="round"/>
    <line x1="8.5" y1="30.5" x2="0.5" y2="30.5" stroke="#A1A1A1" stroke-linecap="round"/>
    <line x1="8.5" y1="28.5" x2="0.5" y2="28.5" stroke="#A1A1A1" stroke-linecap="round"/>
    <line x1="8.5" y1="37.5" x2="0.5" y2="37.5" stroke="#A1A1A1" stroke-linecap="round"/>
    <line x1="8.5" y1="35.5" x2="0.5" y2="35.5" stroke="#A1A1A1" stroke-linecap="round"/>
    <line x1="8.5" y1="44.5" x2="0.5" y2="44.5" stroke="#A1A1A1" stroke-linecap="round"/>
    <line x1="8.5" y1="42.5" x2="0.5" y2="42.5" stroke="#A1A1A1" stroke-linecap="round"/>
    <line x1="8.5" y1="51.5" x2="0.5" y2="51.5" stroke="#A1A1A1" stroke-linecap="round"/>
    <line x1="8.5" y1="49.5" x2="0.5" y2="49.5" stroke="#A1A1A1" stroke-linecap="round"/>
    <line x1="8.5" y1="58.5" x2="0.5" y2="58.5" stroke="#A1A1A1" stroke-linecap="round"/>
    <line x1="8.5" y1="56.5" x2="0.5" y2="56.5" stroke="#A1A1A1" stroke-linecap="round"/>
    <line x1="8.5" y1="65.5" x2="0.5" y2="65.5" stroke="#A1A1A1" stroke-linecap="round"/>
    <line x1="8.5" y1="63.5" x2="0.5" y2="63.5" stroke="#A1A1A1" stroke-linecap="round"/>
    <line x1="8.5" y1="72.5" x2="0.5" y2="72.5" stroke="#A1A1A1" stroke-linecap="round"/>
    <line x1="8.5" y1="70.5" x2="0.5" y2="70.5" stroke="#A1A1A1" stroke-linecap="round"/>
    <line x1="8.5" y1="79.5" x2="0.5" y2="79.5" stroke="#A1A1A1" stroke-linecap="round"/>
    <line x1="8.5" y1="77.5" x2="0.5" y2="77.5" stroke="#A1A1A1" stroke-linecap="round"/>
    <line x1="8.5" y1="86.5" x2="0.5" y2="86.5" stroke="#A1A1A1" stroke-linecap="round"/>
    <line x1="8.5" y1="84.5" x2="0.5" y2="84.5" stroke="#A1A1A1" stroke-linecap="round"/>
</svg>
