<svg width="3" height="93" viewBox="0 0 3 93" fill="none" xmlns="http://www.w3.org/2000/svg">
    <line x1="1.5" y1="2.20906e-08" x2="1.5" y2="93" stroke="#C4C4C4"/>
    <path d="M0 17.5C0 16.6716 0.671573 16 1.5 16C2.32843 16 3 16.6716 3 17.5V22H0V17.5Z" fill="#A1A1A1"/>
    <path d="M0 27.5C0 28.3284 0.671573 29 1.5 29C2.32843 29 3 28.3284 3 27.5V23H0V27.5Z" fill="#A1A1A1"/>
    <path d="M0 65.5C0 64.6716 0.671573 64 1.5 64C2.32843 64 3 64.6716 3 65.5V70H0V65.5Z" fill="#A1A1A1"/>
    <path d="M0 75.5C0 76.3284 0.671573 77 1.5 77C2.32843 77 3 76.3284 3 75.5V71H0V75.5Z" fill="#A1A1A1"/>
</svg>
