<svg width="210" height="153" viewBox="0 0 210 153" fill="none" xmlns="http://www.w3.org/2000/svg">
<rect x="0.5" y="0.5" width="188" height="152" fill="#F1F2F0" stroke="#6C6C6C"/>
<path fill-rule="evenodd" clip-rule="evenodd" d="M111.472 10.8376C150.944 17.0755 180.696 48.6647 180.703 77.5783C180.711 106.492 163.855 124.135 138.682 136.007L111.472 10.8376Z" fill="white" stroke="#6C6C6C" stroke-linejoin="round"/>
<path fill-rule="evenodd" clip-rule="evenodd" d="M94.4867 9.50733C100.373 9.50696 106.124 9.98056 111.677 10.8728C114.995 11.4035 121.409 12.9035 122.001 15.5162L128.514 67.2988L147.269 120.142C148.171 123.812 147.67 131.822 138.451 136.115C125.576 142.108 110.564 145.598 94.5159 145.594C46.9069 145.581 8.3043 115.105 8.29688 77.528C8.28478 39.9476 46.8777 9.49419 94.4867 9.50733Z" fill="#F1F2F0"/>
<path d="M111.677 10.8726C106.124 9.98031 100.373 9.50671 94.4867 9.50708C46.8777 9.49395 8.28478 39.9474 8.29688 77.5277C8.30431 115.105 46.9069 145.58 94.5159 145.593C110.564 145.597 125.576 142.108 138.451 136.115" stroke="#C4C4C4" stroke-linejoin="round"/>
<path d="M147.27 120.143C148.172 123.812 147.671 131.822 138.451 136.115" stroke="#6C6C6C" stroke-linejoin="round"/>
<path fill-rule="evenodd" clip-rule="evenodd" d="M96.8072 74.1997C77.6867 48.3505 87.202 10.4984 110.133 7.46956C113.65 7.00736 120.452 9.10214 121.367 12.8902L147.27 120.143C144.396 108.392 120.389 106.084 96.8072 74.1997Z" fill="white" stroke="#6C6C6C" stroke-linejoin="round"/>
<path d="M206.397 38.6082L208.147 36.8702L201.096 29.8665L197.584 30.6776L196.781 34.1666L203.818 41.1574L205.568 39.4193" fill="#8E8E8E"/>
<path d="M209.106 42.11C209.676 41.5436 210 40.7711 210 39.96C210 39.1489 209.676 38.3893 209.106 37.81L208.963 37.6813L204.634 41.9813L204.777 42.1229C205.969 43.2945 207.913 43.2945 209.106 42.11Z" fill="#8E8E8E"/>
<path d="M195.355 25L189.16 25.7596L195.964 32.5186L196.612 29.712L199.437 29.0683L195.355 25Z" fill="#8E8E8E"/>
</svg>
