<svg width="64" height="45" viewBox="0 0 64 45" fill="none" xmlns="http://www.w3.org/2000/svg">
    <path d="M17.5 0.5H63.5V29.5H17.5V0.5Z" fill="#E4E4E4" stroke="#6C6C6C" stroke-linejoin="round"/>
    <path d="M0.5 8.5V36.9999C0.5 36.9999 0.5 37 0.5 37C0.500431 38.9006 2.1559 40.7742 5.18869 42.2024C8.18236 43.6122 12.3533 44.4985 16.9881 44.5L0.5 8.5ZM0.5 8.5H33.5V36.9999C33.5 36.9999 33.5 37 33.5 37C33.4996 38.9006 31.8441 40.7742 28.8113 42.2024C25.8176 43.6122 21.6467 44.4985 17.0119 44.5C17.0118 44.5 17.0118 44.5 17.0117 44.5H16.9883L0.5 8.5Z" fill="white" stroke="#6C6C6C" stroke-linejoin="round"/>
    <path d="M5.19191 2.7953C8.18793 1.38553 12.3621 0.5 17 0.5C21.6379 0.5 25.8121 1.38553 28.8081 2.7953C31.8433 4.22352 33.5 6.09771 33.5 7.99924C33.5 9.90082 31.8433 11.7754 28.808 13.204C25.812 14.6141 21.6379 15.5 17 15.5C12.3621 15.5 8.18797 14.6141 5.19196 13.204C2.15674 11.7754 0.5 9.90082 0.5 7.99924C0.5 6.09771 2.15669 4.22352 5.19191 2.7953Z" fill="white" stroke="#6C6C6C" stroke-linejoin="round"/>
    <path d="M10.8388 5.62835C12.3898 4.93912 14.5676 4.5 17 4.5C19.4314 4.5 21.6092 4.93911 23.1605 5.62836C23.9367 5.97327 24.534 6.37101 24.9304 6.78739C25.3244 7.2012 25.5 7.60981 25.5 7.99908C25.5 8.38894 25.3243 8.79792 24.9303 9.21194C24.5339 9.62854 23.9366 10.0264 23.1604 10.3714C21.6092 11.0609 19.4314 11.5 17 11.5C14.5676 11.5 12.3898 11.0609 10.8389 10.3714C10.0628 10.0264 9.46572 9.62858 9.06943 9.212C8.67561 8.79801 8.5 8.38902 8.5 7.99908C8.5 7.60974 8.6755 7.20111 9.06934 6.78733C9.46563 6.37097 10.0627 5.97325 10.8388 5.62835Z" fill="#C4C4C4" stroke="#6C6C6C" stroke-linejoin="round"/>
    <path fill-rule="evenodd" clip-rule="evenodd" d="M17.0007 6C14.2398 6 12 6.89528 12 7.99933C12 9.10472 14.2398 10 17.0007 10C19.7616 10 22 9.10472 22 7.99933C22 6.89528 19.7616 6 17.0007 6Z" fill="#6C6C6C"/>
    <path d="M57 7L53.7655 7L52.2992 10.6507L45.7655 10.6507L44.2776 7L41 7L47.6199 23L50.4016 23L57 7ZM49.0216 18.6958L46.9299 13.5127L51.1348 13.5127L49.0216 18.6958Z" fill="#1E1E1E"/>
</svg>
