<svg width="174" height="153" viewBox="0 0 174 153" fill="none" xmlns="http://www.w3.org/2000/svg">
<rect x="0.5" y="0.5" width="152" height="152" fill="#F1F2F0" stroke="#6C6C6C" stroke-linejoin="round"/>
<path fill-rule="evenodd" clip-rule="evenodd" d="M76.5 8.5C95.2827 8.5 112.287 16.1128 124.587 28.413C136.887 40.7298 144.5 57.7173 144.5 76.5C144.5 85.5256 142.705 94.2022 139.513 102.081L80.4228 88.584L80.2566 88.5508L50.8691 13.5198L51.1517 13.3868C58.9972 10.2287 67.5409 8.5 76.5 8.5V8.5Z" fill="white" stroke="#6C6C6C" stroke-linejoin="round"/>
<path fill-rule="evenodd" clip-rule="evenodd" d="M101.35 64.0667L137.519 93.4542C140.295 96.2134 140.76 98.8396 139.513 102.081C138.782 103.992 137.901 105.821 136.987 107.616C125.518 129.906 102.364 144.5 76.5 144.5C38.9512 144.5 8.5 114.065 8.5 76.4999C8.5 50.3205 23.4597 26.9169 46.215 15.6141C47.7276 14.8495 49.2734 14.1181 50.8691 13.5197C54.1602 12.2565 56.9859 12.9047 59.0138 14.9824L101.35 64.0667Z" fill="#F1F2F0"/>
<path d="M139.513 102.081C140.76 98.8396 140.295 96.2134 137.519 93.4542L101.35 64.0667L59.0138 14.9824C56.986 12.9047 54.1603 12.2565 50.8691 13.5197" stroke="#6C6C6C" stroke-linejoin="round"/>
<path d="M139.513 102.081C138.782 103.992 137.901 105.821 136.987 107.616C125.518 129.906 102.364 144.5 76.5 144.5C38.9512 144.5 8.5 114.065 8.5 76.5C8.5 50.3205 23.4597 26.917 46.215 15.6141C47.7275 14.8495 49.2734 14.1182 50.8691 13.5198" stroke="#C4C4C4" stroke-linejoin="round"/>
<path fill-rule="evenodd" clip-rule="evenodd" d="M74.539 75.9181C51.9665 52.0325 64.3996 20.3679 59.0142 14.9824L137.901 93.8032C128.444 84.4285 97.1281 99.7871 74.539 75.9181Z" fill="white" stroke="#6C6C6C" stroke-linejoin="round"/>
<path d="M170.397 29.6082L172.147 27.8702L165.096 20.8665L161.584 21.6776L160.781 25.1666L167.818 32.1574L169.568 30.4193" fill="#8E8E8E"/>
<path d="M173.106 33.11C173.676 32.5436 174 31.7711 174 30.96C174 30.1489 173.676 29.3893 173.106 28.81L172.963 28.6813L168.634 32.9813L168.777 33.1229C169.969 34.2945 171.913 34.2945 173.106 33.11Z" fill="#8E8E8E"/>
<path d="M159.355 16L153.16 16.7596L159.964 23.5186L160.612 20.712L163.437 20.0683L159.355 16Z" fill="#8E8E8E"/>
</svg>
