<svg width="175" height="185" viewBox="0 0 175 185" fill="none" xmlns="http://www.w3.org/2000/svg">
<rect x="1" y="1" width="152" height="152" fill="white" stroke="#6C6C6C" stroke-linejoin="round"/>
<path fill-rule="evenodd" clip-rule="evenodd" d="M114.914 50.0701L105.49 59.494C89.1218 43.1259 60.749 54.6304 60.749 78.0278C60.749 101.42 89.1218 112.93 105.49 96.5617L135.044 126.11C122.736 138.418 105.735 146.028 86.9614 146.028C49.4041 146.028 18.9561 115.585 18.9561 78.0278C18.9561 39.9544 49.9363 10.0278 86.9614 10.0278C105.735 10.0278 122.736 17.6372 135.044 29.9452L114.914 50.0701Z" fill="#F1F2F0" stroke="#C4C4C4" stroke-linejoin="round"/>
<path opacity="0.5" fill-rule="evenodd" clip-rule="evenodd" d="M153 153.027H64.5377C58.8562 153.027 58.4644 155.682 58.4644 155.682L74.2814 10.7935C75.04 1.68994 84.8763 1.01318 90.0009 1.01318H153V153.027Z" fill="#CCCCCC"/>
<path d="M58.4644 155.682C58.4644 155.682 58.8562 153.027 64.5377 153.027M74.2814 10.7935C75.04 1.68994 84.8763 1.01318 90.0009 1.01318" stroke="#6C6C6C" stroke-linecap="round"/>
<path opacity="0.4" fill-rule="evenodd" clip-rule="evenodd" d="M116 184.281L62.8061 162.822C57.4344 160.171 58.5379 156.934 58.538 155.683L74.2686 11.2251C74.2686 11.2251 73.4792 18.4743 84.3964 22.1733L170 56.531L116 184.281Z" fill="white"/>
<path fill-rule="evenodd" clip-rule="evenodd" d="M116 184.281L62.8061 162.822C57.4344 160.171 58.5379 156.934 58.538 155.683L74.2686 11.2251C74.2686 11.2251 73.4792 18.4743 84.3964 22.1733L170 56.531L116 184.281Z" stroke="#6C6C6C"/>
<path d="M170.897 38.4529L172.647 36.7149L165.596 29.7112L162.084 30.5223L161.281 34.0113L168.318 41.0021L170.068 39.264" fill="#8E8E8E"/>
<path d="M173.606 41.9548C174.176 41.3883 174.5 40.6158 174.5 39.8048C174.5 38.9937 174.176 38.2341 173.606 37.6547L173.463 37.526L169.134 41.826L169.277 41.9677C170.469 43.1392 172.413 43.1392 173.606 41.9548Z" fill="#8E8E8E"/>
<path d="M159.855 24.8447L153.66 25.6043L160.464 32.3634L161.112 29.5568L163.937 28.913L159.855 24.8447Z" fill="#8E8E8E"/>
</svg>
